<svg width="41" height="20" viewBox="0 0 41 20" fill="none" xmlns="http://www.w3.org/2000/svg">
<path d="M10.782 9.246H19.542V9.882H10.782V9.246ZM10.77 6.774H19.374V7.374H10.77V6.774ZM14.646 9.474H15.498V13.206H14.646V9.474ZM12.882 5.874H13.734V8.202H16.494V5.874H17.382V8.766H12.882V5.874ZM12.366 12.246V12.99H17.946V12.246H12.366ZM12.366 10.998V11.73H17.946V10.998H12.366ZM11.538 10.47H18.81V13.518H11.538V10.47ZM15.858 14.202L16.47 13.686C16.854 13.782 17.242 13.89 17.634 14.01C18.026 14.13 18.398 14.25 18.75 14.37C19.102 14.49 19.406 14.606 19.662 14.718L18.834 15.246C18.498 15.094 18.062 14.922 17.526 14.73C16.99 14.538 16.434 14.362 15.858 14.202ZM13.638 13.662L14.37 14.142C14.09 14.286 13.766 14.43 13.398 14.574C13.03 14.718 12.65 14.846 12.258 14.958C11.874 15.07 11.506 15.162 11.154 15.234C11.09 15.146 11.002 15.042 10.89 14.922C10.778 14.81 10.678 14.714 10.59 14.634C10.95 14.57 11.322 14.482 11.706 14.37C12.09 14.266 12.454 14.154 12.798 14.034C13.142 13.906 13.422 13.782 13.638 13.662ZM10.278 5.19H19.578V5.97H10.278V5.19ZM9.786 5.19H10.65V8.634C10.65 9.106 10.634 9.622 10.602 10.182C10.578 10.742 10.522 11.314 10.434 11.898C10.346 12.474 10.218 13.038 10.05 13.59C9.882 14.142 9.658 14.646 9.378 15.102C9.33 15.054 9.258 14.998 9.162 14.934C9.074 14.878 8.978 14.822 8.874 14.766C8.778 14.71 8.694 14.67 8.622 14.646C8.894 14.206 9.106 13.734 9.258 13.23C9.418 12.718 9.534 12.194 9.606 11.658C9.678 11.122 9.726 10.598 9.75 10.086C9.774 9.566 9.786 9.082 9.786 8.634V5.19ZM14.094 4.17H14.994V5.718H14.094V4.17ZM20.982 8.622H31.554V9.462H20.982V8.622ZM22.914 5.898H30.666V6.726H22.914V5.898ZM22.962 13.794H29.682V14.634H22.962V13.794ZM26.046 4.17H26.982V9.114H26.046V4.17ZM22.47 10.662H30.162V15.294H29.226V11.49H23.37V15.318H22.47V10.662ZM23.226 4.266L24.126 4.494C23.958 4.982 23.754 5.462 23.514 5.934C23.282 6.406 23.03 6.85 22.758 7.266C22.494 7.674 22.222 8.038 21.942 8.358C21.886 8.31 21.806 8.254 21.702 8.19C21.606 8.126 21.502 8.066 21.39 8.01C21.286 7.946 21.198 7.898 21.126 7.866C21.566 7.426 21.966 6.886 22.326 6.246C22.694 5.606 22.994 4.946 23.226 4.266Z" fill="white"/>
<path d="M40.25 0.25H0.25V19.25H40.25V0.25Z" stroke="white" stroke-width="0.5" stroke-miterlimit="10"/>
</svg>
