<svg width="24" height="24" viewBox="0 0 24 24" fill="none" xmlns="http://www.w3.org/2000/svg">
<path fill-rule="evenodd" clip-rule="evenodd" d="M12.894 2.55328C12.8109 2.38739 12.6832 2.24792 12.5253 2.15044C12.3675 2.05297 12.1856 2.00134 12 2.00134C11.8145 2.00134 11.6326 2.05297 11.4747 2.15044C11.3168 2.24792 11.1892 2.38739 11.106 2.55328L10.302 4.16028C8.10293 4.58276 6.14032 5.80988 4.79756 7.60193C3.45479 9.39399 2.82832 11.6223 3.04052 13.8515C3.25271 16.0807 4.28833 18.1508 5.94509 19.6573C7.60184 21.1638 9.76071 21.9986 12 21.9986C14.2393 21.9986 16.3982 21.1638 18.055 19.6573C19.7117 18.1508 20.7473 16.0807 20.9595 13.8515C21.1717 11.6223 20.5452 9.39399 19.114 7.60193C17.8597 5.80988 15.8971 4.58276 13.698 4.16028L12.894 2.55328ZM16.954 8.05528C15.139 7.93528 13.234 8.38628 11.419 9.68328L11.171 9.85328C9.42902 10.9963 7.61002 11.1603 5.95102 10.7493C5.77604 10.6964 5.60169 10.6414 5.42802 10.5843C5.19464 11.2204 5.05484 11.887 5.01302 12.5633C5.14635 12.6053 5.29835 12.6476 5.46902 12.6903C7.72902 13.2503 10.232 12.9883 12.581 11.3103L12.829 11.1403C14.571 9.99628 16.39 9.83228 18.049 10.2443L18.495 10.3853C18.1434 9.51305 17.6187 8.72061 16.954 8.05528ZM18.988 13.4303C18.8373 13.3835 18.6852 13.3411 18.532 13.3033C16.272 12.7423 13.769 13.0043 11.42 14.6833L11.172 14.8533C9.43002 15.9963 7.61102 16.1603 5.95202 15.7493C5.80144 15.7038 5.65143 15.6565 5.50202 15.6073C5.85602 16.4873 6.38202 17.2773 7.03902 17.9373C8.85602 18.0593 10.765 17.6083 12.582 16.3103L12.83 16.1403C14.572 14.9963 16.391 14.8323 18.05 15.2443L18.575 15.4103C18.8078 14.7737 18.9469 14.1068 18.988 13.4303Z" fill="white"/>
</svg>
