<svg width="24" height="24" viewBox="0 0 24 24" fill="none" xmlns="http://www.w3.org/2000/svg">
<path d="M4.85957 16.3009L18.0944 18.6346C18.8879 18.7745 19.4282 18.4453 19.535 17.8399C19.6832 16.9993 18.9729 16.0942 18.3784 15.218C17.9295 14.5409 17.9896 13.3209 18.1016 12.3441C18.6041 9.10474 18.1535 6.72861 16.0662 5.52857C15.95 4.38137 15.2356 3.35388 14.0082 3.13747C12.772 2.91948 11.7581 3.64222 11.248 4.67898C8.88469 5.09427 7.64015 7.17113 7.0126 10.3885C6.7755 11.3436 6.4229 12.512 5.76129 12.9933C4.91114 13.6147 3.92628 14.2209 3.77799 15.0619C3.67131 15.6669 4.0747 16.1626 4.85957 16.3009ZM8.73268 18.1627C8.61676 19.4077 9.46281 20.6137 10.8826 20.864C12.2934 21.1128 13.5013 20.2689 13.8263 19.0609L8.73268 18.1627Z" fill="white"/>
</svg>
