<svg width="24" height="24" viewBox="0 0 24 24" fill="none" xmlns="http://www.w3.org/2000/svg">
<path d="M18 11.5H6V6.5H18M16.5 17.5C16.1022 17.5 15.7206 17.342 15.4393 17.0607C15.158 16.7794 15 16.3978 15 16C15 15.6022 15.158 15.2206 15.4393 14.9393C15.7206 14.658 16.1022 14.5 16.5 14.5C16.8978 14.5 17.2794 14.658 17.5607 14.9393C17.842 15.2206 18 15.6022 18 16C18 16.3978 17.842 16.7794 17.5607 17.0607C17.2794 17.342 16.8978 17.5 16.5 17.5ZM7.5 17.5C7.10218 17.5 6.72064 17.342 6.43934 17.0607C6.15804 16.7794 6 16.3978 6 16C6 15.6022 6.15804 15.2206 6.43934 14.9393C6.72064 14.658 7.10218 14.5 7.5 14.5C7.89782 14.5 8.27936 14.658 8.56066 14.9393C8.84196 15.2206 9 15.6022 9 16C9 16.3978 8.84196 16.7794 8.56066 17.0607C8.27936 17.342 7.89782 17.5 7.5 17.5ZM4 16.5C4 17.38 4.39 18.17 5 18.72V20.5C5 20.7652 5.10536 21.0196 5.29289 21.2071C5.48043 21.3946 5.73478 21.5 6 21.5H7C7.26522 21.5 7.51957 21.3946 7.70711 21.2071C7.89464 21.0196 8 20.7652 8 20.5V19.5H16V20.5C16 20.7652 16.1054 21.0196 16.2929 21.2071C16.4804 21.3946 16.7348 21.5 17 21.5H18C18.2652 21.5 18.5196 21.3946 18.7071 21.2071C18.8946 21.0196 19 20.7652 19 20.5V18.72C19.61 18.17 20 17.38 20 16.5V6.5C20 3 16.42 2.5 12 2.5C7.58 2.5 4 3 4 6.5V16.5Z" fill="white"/>
</svg>
