<svg width="24" height="24" viewBox="0 0 24 24" fill="none" xmlns="http://www.w3.org/2000/svg">
<path d="M2.09961 19.2334H21.9004C22.0545 19.2335 22.2057 19.296 22.3193 19.4131C22.4335 19.5307 22.4999 19.6937 22.5 19.8662C22.5 20.0387 22.4333 20.2017 22.3193 20.3193C22.2057 20.4364 22.0545 20.4999 21.9004 20.5H2.09961C1.94551 20.4999 1.79432 20.4364 1.68066 20.3193C1.56666 20.2017 1.5 20.0387 1.5 19.8662C1.50012 19.6937 1.56652 19.5307 1.68066 19.4131C1.79431 19.296 1.94554 19.2335 2.09961 19.2334ZM2.09961 4.5H10.9004C14.4739 4.50006 17.3454 5.36386 19.3291 6.82324C21.178 8.1835 22.2784 10.0752 22.4697 12.3438L22.4961 12.8027L22.5 13.0742C22.4981 13.8453 22.1999 14.582 21.6748 15.123C21.1485 15.6652 20.4378 15.9667 19.7002 15.9668H2.09961C1.94551 15.9667 1.79432 15.9032 1.68066 15.7861C1.56662 15.6685 1.5 15.5056 1.5 15.333V5.13379C1.5 4.96128 1.56666 4.79834 1.68066 4.68066C1.79432 4.56357 1.94551 4.50011 2.09961 4.5ZM2.7002 10.167H7V5.7666H2.7002V10.167ZM13.7012 6.55762L13.7002 9.66602V10.167H20.7129L20.1514 9.37695C18.9783 7.72647 16.9645 6.57788 14.2949 6.06641L13.7012 5.95312V6.55762ZM12.5 5.82227L12.0273 5.79688C11.6522 5.77663 11.2761 5.76648 10.9004 5.7666H8.2002V10.167H12.5V5.82227Z" fill="#001A7D" stroke="#001A7D"/>
</svg>
