<svg width="24" height="24" viewBox="0 0 24 24" fill="none" xmlns="http://www.w3.org/2000/svg">
<path d="M6.50098 14.499C5.97048 14.4989 5.46118 14.709 5.08594 15.084C4.71065 15.459 4.50018 15.9685 4.5 16.499C4.49987 17.0295 4.71094 17.5388 5.08594 17.9141C5.46093 18.2891 5.96966 18.4998 6.5 18.5C7.03051 18.5001 7.53979 18.2891 7.91504 17.9141C8.29004 17.5391 8.5008 17.0303 8.50098 16.5C8.50111 15.9695 8.29101 15.4602 7.91602 15.085C7.54097 14.7097 7.03154 14.4992 6.50098 14.499ZM17.501 14.499C16.9705 14.4989 16.4612 14.709 16.0859 15.084C15.7106 15.459 15.5002 15.9685 15.5 16.499C15.4999 17.0295 15.7109 17.5388 16.0859 17.9141C16.4609 18.2891 16.9697 18.4998 17.5 18.5C18.0305 18.5001 18.5398 18.2891 18.915 17.9141C19.29 17.5391 19.5008 17.0303 19.501 16.5C19.5011 15.9695 19.291 15.4602 18.916 15.085C18.541 14.7097 18.0315 14.4992 17.501 14.499ZM4.5 13.5H11.5V7.5H4.5V13.5ZM12.5 13.5H19.5V7.5H12.5V13.5ZM8.5 6.5H15.5V3.5H8.5V6.5ZM4.5 19.4346L4.25293 19.29C3.80073 19.0251 3.5 18.5437 3.5 18V11.5H2.5V9.5H3.5V6C3.5 5.93802 3.5154 4.80329 4.64453 3.65234C5.73482 2.54052 6.84013 2.5 6.99609 2.5H17C17.0648 2.5 18.2021 2.51584 19.3496 3.64258C20.5092 4.78152 20.5014 5.94386 20.5 6.01074V9.5H21.5V11.5H20.5V18C20.4994 18.2616 20.4301 18.5189 20.2988 18.7451C20.1674 18.9715 19.978 19.1588 19.751 19.2891L19.5 19.4336V21C19.5 21.1326 19.4473 21.2597 19.3535 21.3535C19.2597 21.4473 19.1326 21.5 19 21.5H18C17.8674 21.5 17.7403 21.4473 17.6465 21.3535C17.5527 21.2597 17.5 21.1326 17.5 21V19.5H6.5V21C6.5 21.1326 6.44728 21.2597 6.35352 21.3535C6.25975 21.4473 6.13261 21.5 6 21.5H5C4.86739 21.5 4.74025 21.4473 4.64648 21.3535C4.55272 21.2597 4.5 21.1326 4.5 21V19.4346Z" fill="#E03A3E" stroke="#E03A3E"/>
</svg>
