<svg width="27" height="82" viewBox="0 0 27 82" fill="none" xmlns="http://www.w3.org/2000/svg">
<path d="M21.0912 0.841222L13.7025 0L19.5559 82L26.0618 81.3117L21.0912 0.841222Z" fill="#E5AF66"/>
<path d="M12.2631 37.052C12.0712 35.1592 10.8046 33.7253 9.38442 33.7062L9.13493 30.6664L12.6854 1.128L13.7025 0L19.5559 82L12.954 77.9851L12.244 69.0567C12.244 69.0567 15.0651 64.8505 14.3742 59.8797C13.6833 54.9088 10.9005 52.3852 10.9005 52.3852L9.97936 40.9522C11.4571 40.7419 12.4742 39.0212 12.2631 37.052Z" fill="#D8A940"/>
<path d="M1.28571 0.994141C1.28571 0.994141 6.50578 1.66329 6.52498 1.58682C6.54417 1.51034 10.8239 16.6715 10.8239 16.6715L9.15421 30.6472L1.28571 0.994141Z" fill="#E5AF66"/>
<path d="M9.4422 56.7061C10.0563 54.3162 10.9008 52.3661 10.9008 52.3661L9.97956 40.9332C9.97956 40.9332 9.92199 40.9332 9.88361 40.9332C8.36748 41.0861 6.94731 39.5949 6.73621 37.5874C6.5251 35.5799 7.59982 33.8401 9.11595 33.6681C9.21191 33.6681 9.28867 33.6681 9.38463 33.6681L9.13514 30.6282L1.28583 0.994258L0 0.841309L3.89587 56.3619L9.4422 56.687V56.7061Z" fill="#FACD80"/>
</svg>
