<svg width="20" height="20" viewBox="0 0 20 20" fill="none" xmlns="http://www.w3.org/2000/svg">
<path d="M17.5 10C17.8917 10 18.0894 10.0004 18.2119 10.1221C18.3332 10.2446 18.333 10.4411 18.333 10.833V15C18.333 16.5717 18.3331 17.3564 17.8447 17.8447C17.3564 18.3331 16.5717 18.333 15 18.333H5C3.42833 18.333 2.64361 18.3331 2.15527 17.8447C1.66694 17.3564 1.66699 16.5717 1.66699 15V10.833C1.66699 10.4419 1.66678 10.2446 1.78809 10.1221C1.91059 10.0004 2.1075 10 2.5 10H17.5ZM6.66699 15C6.27449 15 6.07758 15.0004 5.95508 15.1221C5.83361 15.2445 5.83301 15.4417 5.83301 15.833C5.83301 16.2247 5.83341 16.4224 5.95508 16.5449C6.07758 16.6666 6.27533 16.667 6.66699 16.667H8.33301C8.72551 16.667 8.92242 16.6666 9.04492 16.5449C9.16659 16.4224 9.16699 16.2247 9.16699 15.833C9.16699 15.4417 9.16639 15.2445 9.04492 15.1221C8.92242 15.0004 8.72467 15 8.33301 15H6.66699ZM11.667 15C11.2745 15 11.0776 15.0004 10.9551 15.1221C10.8336 15.2445 10.833 15.4417 10.833 15.833C10.833 16.2247 10.8334 16.4224 10.9551 16.5449C11.0776 16.6666 11.2745 16.667 11.667 16.667H13.333C13.7255 16.667 13.9224 16.6666 14.0449 16.5449C14.1666 16.4224 14.167 16.2247 14.167 15.833C14.167 15.4417 14.1664 15.2445 14.0449 15.1221C13.9224 15.0004 13.7247 15 13.333 15H11.667ZM6.66699 11.667C6.2755 11.667 6.07759 11.6666 5.95508 11.7881C5.83341 11.9106 5.83301 12.1075 5.83301 12.5C5.83301 12.8917 5.83341 13.0894 5.95508 13.2119C6.07759 13.3334 6.27467 13.333 6.66699 13.333H8.33301C8.7245 13.333 8.92241 13.3334 9.04492 13.2119C9.16659 13.0894 9.16699 12.8925 9.16699 12.5C9.16699 12.1075 9.16659 11.9106 9.04492 11.7881C8.92241 11.6666 8.72533 11.667 8.33301 11.667H6.66699ZM11.667 11.667C11.2755 11.667 11.0776 11.6666 10.9551 11.7881C10.8334 11.9106 10.833 12.1075 10.833 12.5C10.833 12.8917 10.8334 13.0894 10.9551 13.2119C11.0776 13.3334 11.2747 13.333 11.667 13.333H13.333C13.7245 13.333 13.9224 13.3334 14.0449 13.2119C14.1666 13.0894 14.167 12.8925 14.167 12.5C14.167 12.1075 14.1666 11.9106 14.0449 11.7881C13.9224 11.6666 13.7253 11.667 13.333 11.667H11.667ZM14.166 1.5C14.7183 1.5 15.166 1.94772 15.166 2.5V4.16797C16.6276 4.16857 17.3739 4.18445 17.8447 4.65527C18.3331 5.14361 18.333 5.92833 18.333 7.5C18.333 7.8925 18.3336 8.08941 18.2119 8.21191C18.0894 8.33358 17.8917 8.33301 17.5 8.33301H2.5C2.1075 8.33301 1.91059 8.33358 1.78809 8.21191C1.66642 8.08941 1.66699 7.89167 1.66699 7.5C1.66699 5.92833 1.66694 5.14361 2.15527 4.65527C2.626 4.18455 3.3721 4.16858 4.83301 4.16797V2.5C4.83301 1.94782 5.28087 1.50018 5.83301 1.5C6.38529 1.5 6.83301 1.94772 6.83301 2.5V4.16699H13.166V2.5C13.166 1.94793 13.614 1.50035 14.166 1.5Z" fill="#6A8AC6"/>
</svg>
