<svg width="24" height="24" viewBox="0 0 24 24" fill="none" xmlns="http://www.w3.org/2000/svg">
<path d="M9.32727 3.00004C7.60909 2.99107 5.93636 4.62335 6.7 6.65025H3.81818C3.33597 6.65025 2.87351 6.83923 2.53253 7.17562C2.19156 7.51201 2 7.96825 2 8.44397V10.2377C2 10.4756 2.09578 10.7037 2.26627 10.8719C2.43675 11.0401 2.66799 11.1345 2.90909 11.1345H11.0909V8.44397H12.9091V11.1345H21.0909C21.332 11.1345 21.5632 11.0401 21.7337 10.8719C21.9042 10.7037 22 10.4756 22 10.2377V8.44397C22 7.96825 21.8084 7.51201 21.4675 7.17562C21.1265 6.83923 20.664 6.65025 20.1818 6.65025H17.3C18.3636 3.71752 14.3636 1.64578 12.5182 4.17492L12 4.85654L11.4818 4.15699C10.9091 3.35878 10.1182 3.00901 9.32727 3.00004ZM9.27273 4.85654C10.0818 4.85654 10.4909 5.82514 9.91818 6.39016C9.34545 6.95519 8.36364 6.5516 8.36364 5.75339C8.36364 5.51553 8.45942 5.28741 8.6299 5.11922C8.80039 4.95103 9.03162 4.85654 9.27273 4.85654ZM14.7273 4.85654C15.5364 4.85654 15.9455 5.82514 15.3727 6.39016C14.8 6.95519 13.8182 6.5516 13.8182 5.75339C13.8182 5.51553 13.914 5.28741 14.0844 5.11922C14.2549 4.95103 14.4862 4.85654 14.7273 4.85654ZM2.90909 12.0314V19.2063C2.90909 19.682 3.10065 20.1382 3.44162 20.4746C3.7826 20.811 4.24506 21 4.72727 21H19.2727C19.7549 21 20.2174 20.811 20.5584 20.4746C20.8994 20.1382 21.0909 19.682 21.0909 19.2063V12.0314H12.9091V19.2063H11.0909V12.0314H2.90909Z" fill="white"/>
</svg>
