<svg width="24" height="25" viewBox="0 0 24 25" fill="none" xmlns="http://www.w3.org/2000/svg">
<path d="M23.5228 11.8464C23.3046 10.9893 22.7155 10.1964 21.8754 9.75714L21.4172 7.93571C21.9409 7.76429 22.4427 7.58214 22.9118 7.38929V5C20.7299 6.14643 16.9442 7.175 12.002 7.175C7.05982 7.175 3.2741 6.14643 1.09213 5V7.38929C1.56125 7.58214 2.0631 7.76429 2.58678 7.93571L2.12856 9.75714C1.72181 9.97461 1.3654 10.2726 1.08184 10.6322C0.798292 10.9918 0.593763 11.4052 0.481175 11.8464C-0.102502 14.1821 -0.669815 18.1893 2.09583 18.8536C3.2741 19.1429 5.45607 18.8107 6.84162 13.3786C7.04891 12.5 6.90708 11.5571 6.3725 10.775L6.83071 8.93214C7.79078 9.08214 8.78358 9.17857 9.82001 9.24286V11.15C9.11087 11.7821 8.72903 12.6821 8.72903 13.5714C8.72903 15.9714 9.15451 20 12.002 20C13.2239 20 15.2749 19.1643 15.2749 13.5714C15.2749 12.6821 14.8931 11.7821 14.184 11.15V9.24286C15.2204 9.17857 16.2132 9.08214 17.1733 8.93214L17.6315 10.775C17.3759 11.1543 17.2024 11.5811 17.1217 12.029C17.041 12.4768 17.0549 12.9362 17.1623 13.3786C18.5479 18.8107 20.7299 19.1429 21.9081 18.8536C24.6683 18.1893 24.101 14.1821 23.5228 11.8464ZM5.24878 13.0036C5.24878 13.0036 4.08143 17.6857 2.48859 17.3214C0.89575 16.9143 2.07401 12.2321 2.07401 12.2321C2.07401 12.2321 2.46677 10.6679 4.0487 11.0536C5.63063 11.4393 5.24878 13.0036 5.24878 13.0036ZM12.002 18.3929C10.3655 18.3929 10.3655 13.5714 10.3655 13.5714C10.3655 13.5714 10.3655 11.9643 12.002 11.9643C13.6385 11.9643 13.6385 13.5714 13.6385 13.5714C13.6385 13.5714 13.6385 18.3929 12.002 18.3929ZM21.5154 17.3214C19.9335 17.6857 18.7552 13.0036 18.7552 13.0036C18.7552 13.0036 18.3624 11.4286 19.9553 11.0536C21.5481 10.6786 21.93 12.2321 21.93 12.2321C21.93 12.2321 23.1082 16.9143 21.5154 17.3214Z" fill="white"/>
</svg>
