<svg width="20" height="20" viewBox="0 0 20 20" fill="none" xmlns="http://www.w3.org/2000/svg">
<path d="M9.36915 18.7501L9.17223 18.612C8.18667 17.8976 7.27086 17.0851 6.43787 16.1861C4.97428 14.5975 3.33325 12.2163 3.33325 9.40575C3.33325 5.94809 6.04197 2.5 9.99992 2.5C13.9579 2.5 16.6666 5.94809 16.6666 9.40681C16.6666 12.2174 15.0256 14.5986 13.562 16.185C12.729 17.084 11.8132 17.8965 10.8276 18.6109C10.7442 18.6711 10.6786 18.7172 10.6307 18.7491C10.4225 18.8925 10.2102 19.0285 9.99992 19.1667C9.78966 19.0285 9.57735 18.8925 9.36915 18.7501ZM9.99992 11.532C10.544 11.532 11.0657 11.3081 11.4504 10.9095C11.8351 10.511 12.0512 9.97044 12.0512 9.40681C12.0512 8.84318 11.8351 8.30263 11.4504 7.90409C11.0657 7.50554 10.544 7.28164 9.99992 7.28164C9.45588 7.28164 8.93413 7.50554 8.54944 7.90409C8.16475 8.30263 7.94864 8.84318 7.94864 9.40681C7.94864 9.97044 8.16475 10.511 8.54944 10.9095C8.93413 11.3081 9.45588 11.532 9.99992 11.532Z" fill="#6A8AC6"/>
</svg>
