<svg width="24" height="24" viewBox="0 0 24 24" fill="none" xmlns="http://www.w3.org/2000/svg">
<path d="M11.2431 22.5002L11.0068 22.3344C9.8241 21.4771 8.72513 20.5021 7.72554 19.4233C5.96923 17.5171 4 14.6595 4 11.2869C4 7.13771 7.25046 3 12 3C16.7495 3 20 7.13771 20 11.2882C20 14.6608 18.0308 17.5183 16.2745 19.4221C15.2749 20.5008 14.1759 21.4758 12.9932 22.3331C12.8931 22.4054 12.8144 22.4606 12.7569 22.4989C12.5071 22.671 12.2523 22.8342 12 23C11.7477 22.8342 11.4929 22.671 11.2431 22.5002ZM12 13.8384C12.6528 13.8384 13.2789 13.5697 13.7406 13.0914C14.2022 12.6132 14.4615 11.9645 14.4615 11.2882C14.4615 10.6118 14.2022 9.96316 13.7406 9.4849C13.2789 9.00665 12.6528 8.73797 12 8.73797C11.3472 8.73797 10.7211 9.00665 10.2594 9.4849C9.7978 9.96316 9.53846 10.6118 9.53846 11.2882C9.53846 11.9645 9.7978 12.6132 10.2594 13.0914C10.7211 13.5697 11.3472 13.8384 12 13.8384Z" fill="white"/>
</svg>
