<svg width="24" height="24" viewBox="0 0 24 24" fill="none" xmlns="http://www.w3.org/2000/svg">
<path fill-rule="evenodd" clip-rule="evenodd" d="M12 21C14.3869 21 16.6761 20.0518 18.364 18.364C20.0518 16.6761 21 14.3869 21 12C21 9.61305 20.0518 7.32387 18.364 5.63604C16.6761 3.94821 14.3869 3 12 3C9.61305 3 7.32387 3.94821 5.63604 5.63604C3.94821 7.32387 3 9.61305 3 12C3 14.3869 3.94821 16.6761 5.63604 18.364C7.32387 20.0518 9.61305 21 12 21ZM11.4994 8.814C11.3299 8.70096 11.133 8.63604 10.9296 8.62616C10.7261 8.61627 10.5238 8.66181 10.3443 8.75789C10.1647 8.85398 10.0146 8.99701 9.90989 9.17174C9.80523 9.34647 9.74997 9.54633 9.75 9.75V14.25C9.74997 14.4537 9.80523 14.6535 9.90989 14.8283C10.0146 15.003 10.1647 15.146 10.3443 15.2421C10.5238 15.3382 10.7261 15.3837 10.9296 15.3738C11.133 15.364 11.3299 15.299 11.4994 15.186L14.8744 12.936C15.0285 12.8333 15.1548 12.6941 15.2422 12.5308C15.3295 12.3675 15.3753 12.1852 15.3753 12C15.3753 11.8148 15.3295 11.6325 15.2422 11.4692C15.1548 11.3059 15.0285 11.1667 14.8744 11.064L11.4994 8.814Z" fill="white"/>
</svg>
