<svg width="24" height="24" viewBox="0 0 24 24" fill="none" xmlns="http://www.w3.org/2000/svg">
<path d="M9.939 14.98L13.775 12.51C13.9697 12.388 14.067 12.2187 14.067 12.002C14.067 11.7853 13.9697 11.6147 13.775 11.49L9.938 9.02C9.73933 8.87867 9.53333 8.86633 9.32 8.983C9.10667 9.09967 9 9.28167 9 9.529V14.471C9 14.7183 9.10667 14.9003 9.32 15.017C9.53333 15.1337 9.73933 15.1217 9.938 14.981M11.003 21C9.759 21 8.589 20.764 7.493 20.292C6.39767 19.8193 5.44467 19.178 4.634 18.368C3.82333 17.558 3.18167 16.606 2.709 15.512C2.23633 14.418 2 13.2483 2 12.003C2 10.7577 2.23633 9.58767 2.709 8.493C3.181 7.39767 3.82133 6.44467 4.63 5.634C5.43867 4.82333 6.391 4.18167 7.487 3.709C8.583 3.23633 9.753 3 10.997 3C12.241 3 13.411 3.23633 14.507 3.709C15.6023 4.181 16.5553 4.82167 17.366 5.631C18.1767 6.44033 18.8183 7.39267 19.291 8.488C19.7637 9.58333 20 10.753 20 11.997C20 13.241 19.764 14.411 19.292 15.507C18.82 16.603 18.1787 17.556 17.368 18.366C16.5573 19.176 15.6053 19.8177 14.512 20.291C13.4187 20.7643 12.249 21.0007 11.003 21Z" fill="#3277E1"/>
</svg>
