<svg width="113" height="66" viewBox="0 0 113 66" fill="none" xmlns="http://www.w3.org/2000/svg">
<path d="M104.335 1.5C107.896 1.5 110.984 4.19873 110.984 7.7666V58.2334C110.984 61.8013 107.896 64.5 104.335 64.5H8.14941C4.58829 64.4999 1.50028 61.8012 1.5 58.2334V7.7666C1.50028 4.19876 4.58829 1.50005 8.14941 1.5H104.335Z" fill="#FF5660" stroke="white" stroke-width="3"/>
<path d="M11.935 13.74H12.9619V14.7331C12.8086 14.8466 12.5481 14.9034 12.3029 14.9034C11.1381 14.9034 10.571 14.2224 10.571 13.0448C10.571 11.8672 11.2454 11.2004 12.1956 11.2004C12.732 11.2004 13.0538 11.399 13.3604 11.6544L14.096 10.8315C13.6822 10.4484 13.0385 10.0938 12.1496 10.0938C10.4944 10.0938 9.1304 11.2004 9.1304 13.0874C9.1304 14.9743 10.4484 16.0242 12.1649 16.0242C13.0232 16.0242 13.7742 15.7121 14.2033 15.329V12.6901H11.935V13.74Z" fill="white"/>
<path d="M16.87 10.1929H15.4753V15.9105H16.87V10.1929Z" fill="white"/>
<path d="M18.3259 15.9105H19.7359V13.6972H21.8662V12.6048H19.7359V11.2711H22.234V10.1929H18.3259V15.9105Z" fill="white"/>
<path d="M22.8164 11.2711H24.5176V15.9105H25.9123V11.2711H27.6135V10.1929H22.8164V11.2711Z" fill="white"/>
<path d="M33.1155 14.9034C32.2112 14.9034 31.6135 14.2224 31.6135 13.0448C31.6135 11.8672 32.2879 11.2004 33.1308 11.2004C33.5752 11.2004 33.9124 11.3848 34.2189 11.6544L34.9546 10.8315C34.5408 10.4343 33.8971 10.0938 33.1001 10.0938C31.5369 10.0938 30.1882 11.2004 30.1882 13.0874C30.1882 14.9743 31.4909 16.0242 33.0695 16.0242C33.8664 16.0242 34.5561 15.7405 35.0619 15.1872L34.3262 14.3785C34.0197 14.6764 33.6212 14.9176 33.1155 14.9176V14.9034Z" fill="white"/>
<path d="M37.1462 10.1929L35.1998 15.9105H36.6251L37.0083 14.5485H38.8934L39.2765 15.9105H40.7631L38.8167 10.1929H37.1462ZM37.2995 13.5412L37.4527 13.0162C37.6213 12.4487 37.7899 11.7677 37.9431 11.1718H37.9738C38.1424 11.7677 38.311 12.4487 38.4795 13.0162L38.6328 13.5412H37.3148H37.2995Z" fill="white"/>
<path d="M45.9739 11.9805C45.9739 10.6185 44.9011 10.1929 43.5831 10.1929H41.3608V15.9105H42.7555V13.8533H43.5218L44.7019 15.9105H46.2651L44.8704 13.6263C45.5295 13.3567 45.9739 12.8176 45.9739 11.9805ZM42.7555 11.2144H43.4758C44.2114 11.2144 44.6099 11.3988 44.6099 11.9663C44.6099 12.5339 44.2114 12.8176 43.4758 12.8176H42.7555V11.2144Z" fill="white"/>
<path d="M48.9165 10.1929H47.1693V15.9105H48.9931C50.8016 15.9105 52.0123 14.9883 52.0123 13.0304C52.0123 11.0725 50.8016 10.1929 48.9012 10.1929H48.9165ZM48.8245 14.8748H48.564V11.2286H48.8245C49.8667 11.2286 50.587 11.6542 50.587 13.0304C50.587 14.4066 49.882 14.8748 48.8245 14.8748Z" fill="white"/>
<g style="mix-blend-mode:screen">
<path d="M85.3818 38.5042H73.6436V54.9973H85.3818V38.5042Z" fill="#FF5660"/>
<path d="M100.907 38.5042H89.1687V54.9973H100.907V38.5042Z" fill="#FF5660"/>
<path d="M105.356 33.1844L81.8413 14.3745L77.7528 18.7546L101.268 37.5645L105.356 33.1844Z" fill="#FF5660"/>
<path d="M105.139 22.1485C104.357 21.5247 102.012 20.9632 100.179 20.7137C99.1011 20.564 97.8612 20.4642 96.81 20.5765C96.5405 20.6014 96.3114 20.4143 96.2979 20.1648C96.2575 19.1917 95.9745 18.0564 95.6645 17.0957C95.1254 15.4489 94.1955 13.3904 93.4139 12.7541C92.0123 11.6313 89.8965 11.781 88.6836 13.0785C87.6593 14.1764 87.7402 15.6984 88.9261 17.3452C89.4382 18.0688 90.1256 18.7301 90.7859 19.3289C91.635 20.0899 92.4975 20.826 93.3869 21.5621C95.0985 22.9843 96.8639 24.4066 98.7372 25.6542C99.4245 26.1158 100.139 26.6023 100.907 26.9267C102.834 27.7751 104.465 27.6254 105.489 26.5275C106.702 25.23 106.54 23.2713 105.139 22.1485ZM92.5244 19.3289C91.3115 18.2685 90.2603 17.1706 89.9369 16.7215C89.0609 15.4988 88.9531 14.5257 89.6134 13.8146C90.3816 12.9912 91.7428 12.8914 92.6322 13.615C93.05 13.9518 93.9125 15.5612 94.519 17.4326C94.9502 18.755 95.112 19.778 95.112 20.4517C95.112 20.7886 94.6807 20.9882 94.3842 20.7886C93.953 20.5016 93.3465 20.0525 92.5379 19.3414L92.5244 19.3289ZM101.419 25.9037C100.893 25.6791 99.5727 24.8682 98.2655 23.9076C97.3895 23.2713 96.8235 22.7847 96.4461 22.4354C96.1901 22.1859 96.3383 21.7742 96.7022 21.7243C97.4165 21.6245 98.535 21.6245 100.004 21.8241C102.079 22.111 103.926 22.66 104.357 22.9968C105.246 23.7079 105.354 24.968 104.573 25.7914C103.912 26.5025 102.848 26.54 101.419 25.9162V25.9037Z" fill="#FF5660"/>
<path d="M80.3684 33.1902C80.815 33.1902 81.177 32.8551 81.177 32.4417C81.177 32.0283 80.815 31.6931 80.3684 31.6931C79.9219 31.6931 79.5598 32.0283 79.5598 32.4417C79.5598 32.8551 79.9219 33.1902 80.3684 33.1902Z" fill="#FF5660"/>
<path d="M74.3039 25.5674C74.9291 25.5674 75.436 25.0982 75.436 24.5194C75.436 23.9406 74.9291 23.4714 74.3039 23.4714C73.6787 23.4714 73.1719 23.9406 73.1719 24.5194C73.1719 25.0982 73.6787 25.5674 74.3039 25.5674Z" fill="#FF5660"/>
<path d="M89.1687 32.2918C89.4367 32.2918 89.6539 32.0907 89.6539 31.8427C89.6539 31.5946 89.4367 31.3936 89.1687 31.3936C88.9008 31.3936 88.6836 31.5946 88.6836 31.8427C88.6836 32.0907 88.9008 32.2918 89.1687 32.2918Z" fill="#FF5660"/>
<path d="M86.5812 37.7432C86.8491 37.7432 87.0664 37.5421 87.0664 37.2941C87.0664 37.0461 86.8491 36.845 86.5812 36.845C86.3133 36.845 86.096 37.0461 86.096 37.2941C86.096 37.5421 86.3133 37.7432 86.5812 37.7432Z" fill="#FF5660"/>
<path d="M94.3303 36.396C94.7322 36.396 95.0581 36.0944 95.0581 35.7223C95.0581 35.3502 94.7322 35.0486 94.3303 35.0486C93.9284 35.0486 93.6026 35.3502 93.6026 35.7223C93.6026 36.0944 93.9284 36.396 94.3303 36.396Z" fill="#FF5660"/>
<path d="M72.781 34.4501C73.0936 34.4501 73.347 34.2155 73.347 33.9261C73.347 33.6367 73.0936 33.4021 72.781 33.4021C72.4684 33.4021 72.215 33.6367 72.215 33.9261C72.215 34.2155 72.4684 34.4501 72.781 34.4501Z" fill="#FF5660"/>
<path d="M81.0153 26.4652C81.3279 26.4652 81.5813 26.2306 81.5813 25.9412C81.5813 25.6518 81.3279 25.4172 81.0153 25.4172C80.7027 25.4172 80.4493 25.6518 80.4493 25.9412C80.4493 26.2306 80.7027 26.4652 81.0153 26.4652Z" fill="#FF5660"/>
<path d="M78.1717 29.3595C78.1987 29.2846 78.1717 29.1973 78.1043 29.1474L77.6731 28.8355L77.8618 28.3614C77.8887 28.2865 77.8618 28.1992 77.7944 28.1493C77.727 28.0994 77.6192 28.0994 77.5518 28.1493L77.1071 28.4362L76.6758 28.1243C76.6084 28.0744 76.5006 28.0744 76.4332 28.1243C76.3524 28.1742 76.3254 28.2616 76.3524 28.3364L76.5006 28.823L76.0559 29.1099C75.975 29.1598 75.9481 29.2472 75.975 29.322C76.002 29.3969 76.0828 29.4593 76.1637 29.4593H76.7162L76.8645 29.9583C76.8914 30.0332 76.9723 30.0955 77.0532 30.0955C77.1475 30.0955 77.2149 30.0456 77.2418 29.9708L77.4305 29.4967H77.983C78.0774 29.5092 78.1582 29.4593 78.1852 29.3844L78.1717 29.3595Z" fill="#FF5660"/>
<path d="M79.5059 36.1464L79.1555 35.9593L79.2364 35.5975C79.2499 35.5226 79.2229 35.4353 79.1421 35.3979C79.0747 35.3604 78.9803 35.3604 78.913 35.4228L78.6165 35.6723L78.2661 35.4852C78.1987 35.4478 78.1043 35.4478 78.037 35.5101C77.9696 35.56 77.9561 35.6474 77.9831 35.7222L78.1448 36.0591L77.8483 36.3086C77.8483 36.3086 77.7674 36.4458 77.7944 36.5207C77.8348 36.5955 77.9157 36.633 77.9965 36.633L78.4008 36.5955L78.5626 36.9324C78.5895 36.9948 78.6704 37.0447 78.7378 37.0447C78.7378 37.0447 78.7377 37.0447 78.7512 37.0447C78.8321 37.0447 78.8995 36.9823 78.9264 36.9074L79.0073 36.5456L79.4116 36.5082C79.4924 36.5082 79.5598 36.4458 79.5868 36.371C79.6003 36.2961 79.5733 36.2088 79.4924 36.1714L79.5059 36.1464Z" fill="#FF5660"/>
<path d="M85.4761 29.0102L85.2335 28.873L85.2874 28.611C85.3009 28.5361 85.274 28.4613 85.1931 28.4239C85.1257 28.3864 85.0314 28.3989 84.9775 28.4488L84.7618 28.6235L84.5193 28.4862C84.4519 28.4488 84.3576 28.4613 84.3036 28.5112C84.2497 28.5611 84.2228 28.6484 84.2632 28.7108L84.3845 28.9478L84.1689 29.1225C84.1689 29.1225 84.088 29.2597 84.1284 29.3221C84.1554 29.397 84.2363 29.4344 84.3171 29.4219L84.6001 29.397L84.7214 29.634C84.7484 29.6964 84.8158 29.7338 84.8966 29.7338C84.8966 29.7338 84.8966 29.7338 84.9101 29.7338C84.991 29.7338 85.0583 29.6714 85.0718 29.5966L85.1257 29.3346L85.4087 29.3096C85.4896 29.3096 85.557 29.2473 85.5705 29.1724C85.5839 29.0976 85.557 29.0227 85.4761 28.9853V29.0102Z" fill="#FF5660"/>
<path d="M90.2604 34.7241L90.1256 34.6742V34.537C90.1391 34.4621 90.0986 34.3997 90.0312 34.3748C89.9639 34.3498 89.8695 34.3748 89.8291 34.4247L89.7348 34.537L89.6 34.4871C89.5326 34.4621 89.4517 34.4871 89.3978 34.537C89.3439 34.5869 89.3439 34.6742 89.3844 34.7366L89.4652 34.8613L89.3709 34.9736C89.3709 34.9736 89.317 35.1109 89.3574 35.1732C89.3978 35.2356 89.4787 35.2606 89.5461 35.2481L89.6943 35.2107L89.7752 35.3354C89.7752 35.3354 89.8695 35.4103 89.9234 35.4103C89.9369 35.4103 89.9504 35.4103 89.9639 35.4103C90.0447 35.3978 90.0986 35.3354 90.0986 35.2606V35.1233L90.2604 35.0859C90.3412 35.0734 90.3951 35.011 90.3951 34.9362C90.3951 34.8613 90.3547 34.799 90.2873 34.774L90.2604 34.7241Z" fill="#FF5660"/>
<path d="M85.1796 33.7884L84.8427 33.6637L84.8696 33.3268C84.8696 33.252 84.8292 33.1771 84.7483 33.1397C84.6675 33.1147 84.5866 33.1397 84.5327 33.1896L84.3036 33.4391L83.9667 33.3143C83.8858 33.2894 83.805 33.3143 83.7511 33.3642C83.6972 33.4266 83.6837 33.5139 83.7376 33.5763L83.9263 33.8633L83.6972 34.1128C83.6972 34.1128 83.6298 34.2625 83.6837 34.3249C83.7241 34.3873 83.8184 34.4247 83.8993 34.4122L84.2497 34.3374L84.4384 34.6243C84.4384 34.6243 84.5327 34.7116 84.6001 34.7116C84.6136 34.7116 84.6271 34.7116 84.6405 34.7116C84.7214 34.6992 84.7888 34.6243 84.7888 34.5494L84.8157 34.2126L85.1661 34.1377C85.247 34.1253 85.3144 34.0504 85.3144 33.9756C85.3144 33.9007 85.2739 33.8258 85.1931 33.7884H85.1796Z" fill="#FF5660"/>
</g>
<g style="mix-blend-mode:multiply" opacity="0.3">
<path d="M109.485 7.76678V58.2184C109.485 60.8573 107.17 62.9855 104.335 62.9855H8.14952C6.1878 62.9855 4.50194 61.9782 3.61304 60.4885C8.68592 68.4478 112.412 11.8529 107.354 3.90771C108.642 4.77317 109.485 6.17775 109.485 7.76678Z" fill="#FF5660"/>
</g>
<path d="M14.1732 56.4545V41.9091H15.105V56.4545H14.1732ZM16.8607 46.5625C16.8076 46.0663 16.5841 45.6799 16.1902 45.4034C15.8001 45.1269 15.2925 44.9886 14.6675 44.9886C14.2281 44.9886 13.8512 45.0549 13.5368 45.1875C13.2224 45.3201 12.9819 45.5 12.8152 45.7273C12.6485 45.9545 12.5633 46.214 12.5595 46.5057C12.5595 46.7481 12.6144 46.9583 12.7243 47.1364C12.8379 47.3144 12.9913 47.4659 13.1845 47.5909C13.3777 47.7121 13.5917 47.8144 13.8266 47.8977C14.0614 47.9811 14.2982 48.0511 14.5368 48.108L15.6277 48.3807C16.0671 48.483 16.4894 48.6212 16.8948 48.7955C17.3038 48.9697 17.6694 49.1894 17.9913 49.4545C18.3171 49.7197 18.5747 50.0398 18.7641 50.4148C18.9535 50.7898 19.0482 51.2292 19.0482 51.733C19.0482 52.4148 18.8739 53.0152 18.5254 53.5341C18.1769 54.0492 17.6732 54.4527 17.0141 54.7443C16.3588 55.0322 15.5652 55.1761 14.6334 55.1761C13.7281 55.1761 12.9421 55.036 12.2754 54.7557C11.6126 54.4754 11.0936 54.0663 10.7186 53.5284C10.3474 52.9905 10.1466 52.3352 10.1163 51.5625H12.1902C12.2205 51.9678 12.3455 52.3049 12.5652 52.5739C12.7849 52.8428 13.0709 53.0436 13.4232 53.1761C13.7792 53.3087 14.1769 53.375 14.6163 53.375C15.0747 53.375 15.4762 53.3068 15.8209 53.1705C16.1694 53.0303 16.4421 52.8371 16.6391 52.5909C16.836 52.3409 16.9364 52.0492 16.9402 51.7159C16.9364 51.4129 16.8474 51.1629 16.6732 50.9659C16.4989 50.7652 16.2546 50.5985 15.9402 50.4659C15.6296 50.3295 15.266 50.2083 14.8493 50.1023L13.5254 49.7614C12.5671 49.5152 11.8095 49.142 11.2527 48.642C10.6997 48.1383 10.4232 47.4697 10.4232 46.6364C10.4232 45.9508 10.6088 45.3504 10.98 44.8352C11.355 44.3201 11.8644 43.9205 12.5084 43.6364C13.1523 43.3485 13.8815 43.2045 14.6959 43.2045C15.5216 43.2045 16.2451 43.3485 16.8663 43.6364C17.4913 43.9205 17.9819 44.3163 18.3379 44.8239C18.694 45.3277 18.8777 45.9072 18.8891 46.5625H16.8607ZM24.9899 55.1591C24.1717 55.1591 23.4445 55.0189 22.8081 54.7386C22.1755 54.4583 21.6755 54.0682 21.3081 53.5682C20.9407 53.0682 20.7456 52.4905 20.7229 51.8352H22.8592C22.8782 52.1496 22.9823 52.4242 23.1717 52.6591C23.3611 52.8902 23.613 53.0701 23.9274 53.1989C24.2418 53.3277 24.5941 53.392 24.9842 53.392C25.4009 53.392 25.7702 53.3201 26.0922 53.1761C26.4142 53.0284 26.6661 52.8239 26.8479 52.5625C27.0297 52.3011 27.1187 52 27.1149 51.6591C27.1187 51.3068 27.0278 50.9962 26.8422 50.7273C26.6566 50.4583 26.3876 50.2481 26.0354 50.0966C25.6869 49.9451 25.2664 49.8693 24.774 49.8693H23.7456V48.2443H24.774C25.1793 48.2443 25.5335 48.1742 25.8365 48.0341C26.1433 47.8939 26.3839 47.697 26.5581 47.4432C26.7323 47.1856 26.8176 46.8883 26.8138 46.5511C26.8176 46.2216 26.7437 45.9356 26.5922 45.6932C26.4445 45.447 26.2342 45.2557 25.9615 45.1193C25.6926 44.983 25.3763 44.9148 25.0126 44.9148C24.6566 44.9148 24.327 44.9792 24.024 45.108C23.721 45.2367 23.4767 45.4205 23.2911 45.6591C23.1055 45.8939 23.007 46.1742 22.9956 46.5H20.9672C20.9823 45.8485 21.1698 45.2765 21.5297 44.7841C21.8933 44.2879 22.3782 43.9015 22.9842 43.625C23.5903 43.3447 24.2702 43.2045 25.024 43.2045C25.8005 43.2045 26.4748 43.3504 27.0467 43.642C27.6225 43.9299 28.0676 44.3182 28.382 44.8068C28.6964 45.2955 28.8536 45.8352 28.8536 46.4261C28.8573 47.0814 28.6642 47.6307 28.274 48.0739C27.8876 48.517 27.3801 48.8068 26.7513 48.9432V49.0341C27.5695 49.1477 28.1964 49.4508 28.632 49.9432C29.0714 50.4318 29.2892 51.0398 29.2854 51.767C29.2854 52.4186 29.0998 53.0019 28.7286 53.517C28.3611 54.0284 27.8536 54.4299 27.2058 54.7216C26.5619 55.0133 25.8233 55.1591 24.9899 55.1591ZM35.5368 55.2216C34.6012 55.2216 33.7982 54.9848 33.1277 54.5114C32.461 54.0341 31.9478 53.3466 31.5879 52.4489C31.2319 51.5473 31.0538 50.4621 31.0538 49.1932C31.0576 47.9242 31.2376 46.8447 31.5936 45.9545C31.9535 45.0606 32.4667 44.3788 33.1334 43.9091C33.8038 43.4394 34.605 43.2045 35.5368 43.2045C36.4686 43.2045 37.2698 43.4394 37.9402 43.9091C38.6107 44.3788 39.1239 45.0606 39.48 45.9545C39.8398 46.8485 40.0198 47.928 40.0198 49.1932C40.0198 50.4659 39.8398 51.553 39.48 52.4545C39.1239 53.3523 38.6107 54.0379 37.9402 54.5114C37.2735 54.9848 36.4724 55.2216 35.5368 55.2216ZM35.5368 53.4432C36.2641 53.4432 36.8379 53.0852 37.2584 52.3693C37.6826 51.6496 37.8948 50.5909 37.8948 49.1932C37.8948 48.2689 37.7982 47.4924 37.605 46.8636C37.4118 46.2348 37.1391 45.7614 36.7868 45.4432C36.4345 45.1212 36.0179 44.9602 35.5368 44.9602C34.8133 44.9602 34.2413 45.3201 33.8209 46.0398C33.4004 46.7557 33.1883 47.8068 33.1845 49.1932C33.1807 50.1212 33.2735 50.9015 33.4629 51.5341C33.6561 52.1667 33.9288 52.6439 34.2811 52.9659C34.6334 53.2841 35.0519 53.4432 35.5368 53.4432ZM43.8919 53.4091L43.818 54.0341C43.765 54.5114 43.6703 54.9962 43.534 55.4886C43.4014 55.9848 43.2612 56.4413 43.1135 56.858C42.9658 57.2746 42.8465 57.6023 42.7555 57.8409H41.3692C41.4222 57.6098 41.4942 57.2955 41.5851 56.8977C41.6798 56.5 41.7707 56.053 41.8578 55.5568C41.9449 55.0606 42.0037 54.5568 42.034 54.0455L42.0737 53.4091H43.8919ZM50.0212 55.2216C49.0856 55.2216 48.2825 54.9848 47.6121 54.5114C46.9454 54.0341 46.4322 53.3466 46.0723 52.4489C45.7162 51.5473 45.5382 50.4621 45.5382 49.1932C45.542 47.9242 45.7219 46.8447 46.078 45.9545C46.4378 45.0606 46.9511 44.3788 47.6178 43.9091C48.2882 43.4394 49.0894 43.2045 50.0212 43.2045C50.953 43.2045 51.7541 43.4394 52.4246 43.9091C53.095 44.3788 53.6083 45.0606 53.9644 45.9545C54.3242 46.8485 54.5041 47.928 54.5041 49.1932C54.5041 50.4659 54.3242 51.553 53.9644 52.4545C53.6083 53.3523 53.095 54.0379 52.4246 54.5114C51.7579 54.9848 50.9568 55.2216 50.0212 55.2216ZM50.0212 53.4432C50.7484 53.4432 51.3223 53.0852 51.7428 52.3693C52.167 51.6496 52.3791 50.5909 52.3791 49.1932C52.3791 48.2689 52.2825 47.4924 52.0894 46.8636C51.8962 46.2348 51.6234 45.7614 51.2712 45.4432C50.9189 45.1212 50.5022 44.9602 50.0212 44.9602C49.2977 44.9602 48.7257 45.3201 48.3053 46.0398C47.8848 46.7557 47.6727 47.8068 47.6689 49.1932C47.6651 50.1212 47.7579 50.9015 47.9473 51.5341C48.1405 52.1667 48.4132 52.6439 48.7655 52.9659C49.1178 53.2841 49.5363 53.4432 50.0212 53.4432ZM60.693 55.2216C59.7574 55.2216 58.9544 54.9848 58.284 54.5114C57.6173 54.0341 57.104 53.3466 56.7442 52.4489C56.3881 51.5473 56.2101 50.4621 56.2101 49.1932C56.2139 47.9242 56.3938 46.8447 56.7499 45.9545C57.1097 45.0606 57.623 44.3788 58.2896 43.9091C58.9601 43.4394 59.7612 43.2045 60.693 43.2045C61.6249 43.2045 62.426 43.4394 63.0965 43.9091C63.7669 44.3788 64.2802 45.0606 64.6362 45.9545C64.9961 46.8485 65.176 47.928 65.176 49.1932C65.176 50.4659 64.9961 51.553 64.6362 52.4545C64.2802 53.3523 63.7669 54.0379 63.0965 54.5114C62.4298 54.9848 61.6287 55.2216 60.693 55.2216ZM60.693 53.4432C61.4203 53.4432 61.9942 53.0852 62.4146 52.3693C62.8389 51.6496 63.051 50.5909 63.051 49.1932C63.051 48.2689 62.9544 47.4924 62.7612 46.8636C62.568 46.2348 62.2953 45.7614 61.943 45.4432C61.5908 45.1212 61.1741 44.9602 60.693 44.9602C59.9696 44.9602 59.3976 45.3201 58.9771 46.0398C58.5567 46.7557 58.3446 47.8068 58.3408 49.1932C58.337 50.1212 58.4298 50.9015 58.6192 51.5341C58.8124 52.1667 59.0851 52.6439 59.4374 52.9659C59.7896 53.2841 60.2082 53.4432 60.693 53.4432ZM71.3649 55.2216C70.4293 55.2216 69.6263 54.9848 68.9558 54.5114C68.2892 54.0341 67.7759 53.3466 67.4161 52.4489C67.06 51.5473 66.882 50.4621 66.882 49.1932C66.8858 47.9242 67.0657 46.8447 67.4217 45.9545C67.7816 45.0606 68.2948 44.3788 68.9615 43.9091C69.632 43.4394 70.4331 43.2045 71.3649 43.2045C72.2967 43.2045 73.0979 43.4394 73.7683 43.9091C74.4388 44.3788 74.952 45.0606 75.3081 45.9545C75.668 46.8485 75.8479 47.928 75.8479 49.1932C75.8479 50.4659 75.668 51.553 75.3081 52.4545C74.952 53.3523 74.4388 54.0379 73.7683 54.5114C73.1017 54.9848 72.3005 55.2216 71.3649 55.2216ZM71.3649 53.4432C72.0922 53.4432 72.6661 53.0852 73.0865 52.3693C73.5108 51.6496 73.7229 50.5909 73.7229 49.1932C73.7229 48.2689 73.6263 47.4924 73.4331 46.8636C73.2399 46.2348 72.9672 45.7614 72.6149 45.4432C72.2626 45.1212 71.846 44.9602 71.3649 44.9602C70.6414 44.9602 70.0695 45.3201 69.649 46.0398C69.2286 46.7557 69.0164 47.8068 69.0126 49.1932C69.0089 50.1212 69.1017 50.9015 69.2911 51.5341C69.4842 52.1667 69.757 52.6439 70.1092 52.9659C70.4615 53.2841 70.8801 53.4432 71.3649 53.4432Z" fill="white"/>
</svg>
