<svg width="113" height="66" viewBox="0 0 113 66" fill="none" xmlns="http://www.w3.org/2000/svg">
<path d="M104.335 1.5C107.896 1.5 110.984 4.19873 110.984 7.7666V58.2334C110.984 61.8013 107.896 64.5 104.335 64.5H8.14941C4.58829 64.4999 1.50028 61.8012 1.5 58.2334V7.7666C1.50028 4.19876 4.58829 1.50005 8.14941 1.5H104.335Z" fill="#F4AA1C" stroke="white" stroke-width="3"/>
<path d="M11.9351 13.7402H12.9619V14.7334C12.8087 14.8469 12.5481 14.9036 12.3029 14.9036C11.1381 14.9036 10.5711 14.2226 10.5711 13.045C10.5711 11.8675 11.2454 11.2006 12.1956 11.2006C12.732 11.2006 13.0539 11.3993 13.3604 11.6546L14.096 10.8318C13.6822 10.4487 13.0385 10.094 12.1496 10.094C10.4944 10.094 9.13043 11.2006 9.13043 13.0876C9.13043 14.9746 10.4485 16.0245 12.165 16.0245C13.0232 16.0245 13.7742 15.7123 14.2033 15.3293V12.6904H11.9351V13.7402Z" fill="white"/>
<path d="M16.87 10.1929H15.4753V15.9105H16.87V10.1929Z" fill="white"/>
<path d="M18.326 15.9105H19.7359V13.6972H21.8663V12.6048H19.7359V11.2711H22.2341V10.1929H18.326V15.9105Z" fill="white"/>
<path d="M22.8165 11.2711H24.5176V15.9105H25.9123V11.2711H27.6135V10.1929H22.8165V11.2711Z" fill="white"/>
<path d="M33.1155 14.9034C32.2113 14.9034 31.6135 14.2224 31.6135 13.0448C31.6135 11.8672 32.2879 11.2004 33.1308 11.2004C33.5753 11.2004 33.9124 11.3848 34.219 11.6544L34.9546 10.8315C34.5408 10.4343 33.8971 10.0938 33.1002 10.0938C31.5369 10.0938 30.1882 11.2004 30.1882 13.0874C30.1882 14.9743 31.4909 16.0242 33.0695 16.0242C33.8665 16.0242 34.5561 15.7405 35.0619 15.1872L34.3262 14.3785C34.0197 14.6764 33.6212 14.9176 33.1155 14.9176V14.9034Z" fill="white"/>
<path d="M37.1462 10.1929L35.1998 15.9105H36.6251L37.0083 14.5485H38.8934L39.2765 15.9105H40.7631L38.8168 10.1929H37.1462ZM37.2995 13.5412L37.4527 13.0162C37.6213 12.4487 37.7899 11.7677 37.9432 11.1718H37.9738C38.1424 11.7677 38.311 12.4487 38.4796 13.0162L38.6328 13.5412H37.3148H37.2995Z" fill="white"/>
<path d="M45.9739 11.9805C45.9739 10.6185 44.9011 10.1929 43.5831 10.1929H41.3608V15.9105H42.7555V13.8533H43.5218L44.7019 15.9105H46.2651L44.8705 13.6263C45.5295 13.3567 45.9739 12.8176 45.9739 11.9805ZM42.7555 11.2144H43.4758C44.2115 11.2144 44.6099 11.3988 44.6099 11.9663C44.6099 12.5339 44.2115 12.8176 43.4758 12.8176H42.7555V11.2144Z" fill="white"/>
<path d="M48.9165 10.1929H47.1694V15.9105H48.9932C50.8016 15.9105 52.0124 14.9883 52.0124 13.0304C52.0124 11.0725 50.8016 10.1929 48.9012 10.1929H48.9165ZM48.8246 14.8748H48.564V11.2286H48.8246C49.8667 11.2286 50.5871 11.6542 50.5871 13.0304C50.5871 14.4066 49.8821 14.8748 48.8246 14.8748Z" fill="white"/>
<g style="mix-blend-mode:screen">
<path d="M85.3818 38.5046H73.6436V54.9977H85.3818V38.5046Z" fill="#F4AA1C"/>
<path d="M100.907 38.5046H89.1687V54.9977H100.907V38.5046Z" fill="#F4AA1C"/>
<path d="M105.356 33.1849L81.8413 14.375L77.7529 18.7551L101.268 37.565L105.356 33.1849Z" fill="#F4AA1C"/>
<path d="M105.139 22.1487C104.357 21.5249 102.012 20.9635 100.179 20.714C99.1011 20.5643 97.8612 20.4645 96.8101 20.5767C96.5405 20.6017 96.3114 20.4146 96.2979 20.165C96.2575 19.1919 95.9745 18.0566 95.6645 17.096C95.1255 15.4492 94.1956 13.3906 93.4139 12.7544C92.0123 11.6315 89.8965 11.7813 88.6836 13.0787C87.6594 14.1766 87.7402 15.6987 88.9262 17.3455C89.4383 18.0691 90.1256 18.7303 90.786 19.3292C91.635 20.0902 92.4975 20.8263 93.387 21.5623C95.0985 22.9846 96.864 24.4068 98.7372 25.6544C99.4245 26.116 100.139 26.6026 100.907 26.927C102.834 27.7753 104.465 27.6256 105.489 26.5277C106.702 25.2302 106.54 23.2715 105.139 22.1487ZM92.5245 19.3292C91.3115 18.2687 90.2604 17.1708 89.9369 16.7217C89.0609 15.4991 88.9531 14.5259 89.6135 13.8148C90.3817 12.9914 91.7428 12.8916 92.6323 13.6152C93.05 13.9521 93.9126 15.5614 94.519 17.4328C94.9503 18.7553 95.112 19.7783 95.112 20.452C95.112 20.7888 94.6807 20.9884 94.3842 20.7888C93.953 20.5019 93.3465 20.0528 92.5379 19.3416L92.5245 19.3292ZM101.419 25.9039C100.893 25.6794 99.5728 24.8684 98.2655 23.9078C97.3895 23.2715 96.8235 22.785 96.4462 22.4356C96.1901 22.1861 96.3384 21.7744 96.7022 21.7245C97.4165 21.6247 98.5351 21.6247 100.004 21.8243C102.079 22.1113 103.926 22.6602 104.357 22.9971C105.246 23.7082 105.354 24.9682 104.573 25.7917C103.912 26.5028 102.848 26.5402 101.419 25.9164V25.9039Z" fill="#F4AA1C"/>
<path d="M80.3684 33.1905C80.815 33.1905 81.177 32.8553 81.177 32.4419C81.177 32.0285 80.815 31.6934 80.3684 31.6934C79.9219 31.6934 79.5598 32.0285 79.5598 32.4419C79.5598 32.8553 79.9219 33.1905 80.3684 33.1905Z" fill="#F4AA1C"/>
<path d="M74.3039 25.5674C74.9291 25.5674 75.436 25.0982 75.436 24.5194C75.436 23.9406 74.9291 23.4714 74.3039 23.4714C73.6787 23.4714 73.1719 23.9406 73.1719 24.5194C73.1719 25.0982 73.6787 25.5674 74.3039 25.5674Z" fill="#F4AA1C"/>
<path d="M89.1687 32.2918C89.4367 32.2918 89.6539 32.0907 89.6539 31.8427C89.6539 31.5946 89.4367 31.3936 89.1687 31.3936C88.9008 31.3936 88.6836 31.5946 88.6836 31.8427C88.6836 32.0907 88.9008 32.2918 89.1687 32.2918Z" fill="#F4AA1C"/>
<path d="M86.5812 37.7435C86.8492 37.7435 87.0664 37.5424 87.0664 37.2943C87.0664 37.0463 86.8492 36.8452 86.5812 36.8452C86.3133 36.8452 86.0961 37.0463 86.0961 37.2943C86.0961 37.5424 86.3133 37.7435 86.5812 37.7435Z" fill="#F4AA1C"/>
<path d="M94.3303 36.3962C94.7323 36.3962 95.0581 36.0946 95.0581 35.7225C95.0581 35.3505 94.7323 35.0488 94.3303 35.0488C93.9284 35.0488 93.6026 35.3505 93.6026 35.7225C93.6026 36.0946 93.9284 36.3962 94.3303 36.3962Z" fill="#F4AA1C"/>
<path d="M72.781 34.4501C73.0937 34.4501 73.3471 34.2155 73.3471 33.9261C73.3471 33.6367 73.0937 33.4021 72.781 33.4021C72.4684 33.4021 72.215 33.6367 72.215 33.9261C72.215 34.2155 72.4684 34.4501 72.781 34.4501Z" fill="#F4AA1C"/>
<path d="M81.0153 26.4655C81.3279 26.4655 81.5814 26.2309 81.5814 25.9415C81.5814 25.6521 81.3279 25.4175 81.0153 25.4175C80.7027 25.4175 80.4493 25.6521 80.4493 25.9415C80.4493 26.2309 80.7027 26.4655 81.0153 26.4655Z" fill="#F4AA1C"/>
<path d="M78.1717 29.3595C78.1987 29.2846 78.1717 29.1973 78.1043 29.1474L77.6731 28.8355L77.8618 28.3614C77.8887 28.2865 77.8618 28.1992 77.7944 28.1493C77.727 28.0994 77.6192 28.0994 77.5518 28.1493L77.1071 28.4362L76.6758 28.1243C76.6084 28.0744 76.5006 28.0744 76.4332 28.1243C76.3524 28.1742 76.3254 28.2616 76.3524 28.3364L76.5006 28.823L76.0559 29.1099C75.975 29.1598 75.9481 29.2472 75.975 29.322C76.002 29.3969 76.0828 29.4593 76.1637 29.4593H76.7162L76.8645 29.9583C76.8914 30.0332 76.9723 30.0955 77.0532 30.0955C77.1475 30.0955 77.2149 30.0456 77.2418 29.9708L77.4305 29.4967H77.9831C78.0774 29.5092 78.1583 29.4593 78.1852 29.3844L78.1717 29.3595Z" fill="#F4AA1C"/>
<path d="M79.5059 36.1467L79.1555 35.9595L79.2364 35.5977C79.2499 35.5229 79.2229 35.4355 79.142 35.3981C79.0747 35.3607 78.9803 35.3607 78.9129 35.4231L78.6164 35.6726L78.266 35.4854C78.1987 35.448 78.1043 35.448 78.0369 35.5104C77.9696 35.5603 77.9561 35.6476 77.983 35.7225L78.1448 36.0593L77.8483 36.3088C77.8483 36.3088 77.7674 36.4461 77.7944 36.5209C77.8348 36.5958 77.9157 36.6332 77.9965 36.6332L78.4008 36.5958L78.5625 36.9326C78.5895 36.995 78.6704 37.0449 78.7377 37.0449C78.7377 37.0449 78.7377 37.0449 78.7512 37.0449C78.8321 37.0449 78.8995 36.9825 78.9264 36.9077L79.0073 36.5459L79.4116 36.5085C79.4924 36.5085 79.5598 36.4461 79.5868 36.3712C79.6002 36.2964 79.5733 36.209 79.4924 36.1716L79.5059 36.1467Z" fill="#F4AA1C"/>
<path d="M85.4761 29.0105L85.2335 28.8732L85.2874 28.6112C85.3009 28.5364 85.274 28.4615 85.1931 28.4241C85.1257 28.3867 85.0314 28.3992 84.9775 28.4491L84.7618 28.6237L84.5193 28.4865C84.4519 28.4491 84.3576 28.4615 84.3036 28.5114C84.2497 28.5613 84.2228 28.6487 84.2632 28.7111L84.3845 28.9481L84.1689 29.1228C84.1689 29.1228 84.088 29.26 84.1284 29.3224C84.1554 29.3972 84.2363 29.4347 84.3171 29.4222L84.6001 29.3972L84.7214 29.6343C84.7484 29.6966 84.8158 29.7341 84.8966 29.7341C84.8966 29.7341 84.8966 29.7341 84.9101 29.7341C84.991 29.7341 85.0583 29.6717 85.0718 29.5968L85.1257 29.3348L85.4087 29.3099C85.4896 29.3099 85.557 29.2475 85.5705 29.1727C85.5839 29.0978 85.557 29.0229 85.4761 28.9855V29.0105Z" fill="#F4AA1C"/>
<path d="M90.2604 34.7243L90.1256 34.6744V34.5372C90.1391 34.4624 90.0987 34.4 90.0313 34.375C89.9639 34.3501 89.8696 34.375 89.8291 34.4249L89.7348 34.5372L89.6 34.4873C89.5326 34.4624 89.4518 34.4873 89.3979 34.5372C89.344 34.5871 89.344 34.6744 89.3844 34.7368L89.4653 34.8616L89.3709 34.9739C89.3709 34.9739 89.317 35.1111 89.3574 35.1735C89.3979 35.2359 89.4787 35.2608 89.5461 35.2483L89.6944 35.2109L89.7752 35.3357C89.7752 35.3357 89.8696 35.4105 89.9235 35.4105C89.9369 35.4105 89.9504 35.4105 89.9639 35.4105C90.0448 35.398 90.0987 35.3357 90.0987 35.2608V35.1236L90.2604 35.0861C90.3412 35.0737 90.3951 35.0113 90.3951 34.9364C90.3951 34.8616 90.3547 34.7992 90.2873 34.7743L90.2604 34.7243Z" fill="#F4AA1C"/>
<path d="M85.1796 33.7887L84.8427 33.6639L84.8697 33.3271C84.8697 33.2522 84.8292 33.1773 84.7484 33.1399C84.6675 33.115 84.5867 33.1399 84.5327 33.1898L84.3036 33.4393L83.9667 33.3146C83.8859 33.2896 83.805 33.3146 83.7511 33.3645C83.6972 33.4269 83.6837 33.5142 83.7376 33.5766L83.9263 33.8635L83.6972 34.113C83.6972 34.113 83.6298 34.2627 83.6837 34.3251C83.7241 34.3875 83.8185 34.4249 83.8993 34.4125L84.2497 34.3376L84.4384 34.6245C84.4384 34.6245 84.5327 34.7119 84.6001 34.7119C84.6136 34.7119 84.6271 34.7119 84.6406 34.7119C84.7214 34.6994 84.7888 34.6245 84.7888 34.5497L84.8158 34.2128L85.1662 34.138C85.247 34.1255 85.3144 34.0507 85.3144 33.9758C85.3144 33.9009 85.274 33.8261 85.1931 33.7887H85.1796Z" fill="#F4AA1C"/>
</g>
<g style="mix-blend-mode:multiply" opacity="0.3">
<path d="M109.485 7.76678V58.2184C109.485 60.8573 107.17 62.9855 104.335 62.9855H8.14952C6.1878 62.9855 4.50194 61.9782 3.61304 60.4885C8.68592 68.4478 112.412 11.8529 107.354 3.90771C108.642 4.77317 109.485 6.17775 109.485 7.76678Z" fill="#F4AA1C"/>
</g>
<path d="M14.1732 56.4545V41.9091H15.105V56.4545H14.1732ZM16.8607 46.5625C16.8076 46.0663 16.5841 45.6799 16.1902 45.4034C15.8001 45.1269 15.2925 44.9886 14.6675 44.9886C14.2281 44.9886 13.8512 45.0549 13.5368 45.1875C13.2224 45.3201 12.9819 45.5 12.8152 45.7273C12.6485 45.9545 12.5633 46.214 12.5595 46.5057C12.5595 46.7481 12.6144 46.9583 12.7243 47.1364C12.8379 47.3144 12.9913 47.4659 13.1845 47.5909C13.3777 47.7121 13.5917 47.8144 13.8266 47.8977C14.0614 47.9811 14.2982 48.0511 14.5368 48.108L15.6277 48.3807C16.0671 48.483 16.4894 48.6212 16.8948 48.7955C17.3038 48.9697 17.6694 49.1894 17.9913 49.4545C18.3171 49.7197 18.5747 50.0398 18.7641 50.4148C18.9535 50.7898 19.0482 51.2292 19.0482 51.733C19.0482 52.4148 18.8739 53.0152 18.5254 53.5341C18.1769 54.0492 17.6732 54.4527 17.0141 54.7443C16.3588 55.0322 15.5652 55.1761 14.6334 55.1761C13.7281 55.1761 12.9421 55.036 12.2754 54.7557C11.6126 54.4754 11.0936 54.0663 10.7186 53.5284C10.3474 52.9905 10.1466 52.3352 10.1163 51.5625H12.1902C12.2205 51.9678 12.3455 52.3049 12.5652 52.5739C12.7849 52.8428 13.0709 53.0436 13.4232 53.1761C13.7792 53.3087 14.1769 53.375 14.6163 53.375C15.0747 53.375 15.4762 53.3068 15.8209 53.1705C16.1694 53.0303 16.4421 52.8371 16.6391 52.5909C16.836 52.3409 16.9364 52.0492 16.9402 51.7159C16.9364 51.4129 16.8474 51.1629 16.6732 50.9659C16.4989 50.7652 16.2546 50.5985 15.9402 50.4659C15.6296 50.3295 15.266 50.2083 14.8493 50.1023L13.5254 49.7614C12.5671 49.5152 11.8095 49.142 11.2527 48.642C10.6997 48.1383 10.4232 47.4697 10.4232 46.6364C10.4232 45.9508 10.6088 45.3504 10.98 44.8352C11.355 44.3201 11.8644 43.9205 12.5084 43.6364C13.1523 43.3485 13.8815 43.2045 14.6959 43.2045C15.5216 43.2045 16.2451 43.3485 16.8663 43.6364C17.4913 43.9205 17.9819 44.3163 18.3379 44.8239C18.694 45.3277 18.8777 45.9072 18.8891 46.5625H16.8607ZM20.8138 55V53.4773L24.8536 49.517C25.2399 49.1269 25.5619 48.7803 25.8195 48.4773C26.077 48.1742 26.2702 47.8807 26.399 47.5966C26.5278 47.3125 26.5922 47.0095 26.5922 46.6875C26.5922 46.3201 26.5089 46.0057 26.3422 45.7443C26.1755 45.4792 25.9464 45.2746 25.6547 45.1307C25.363 44.9867 25.0316 44.9148 24.6604 44.9148C24.2778 44.9148 23.9426 44.9943 23.6547 45.1534C23.3668 45.3087 23.1433 45.5303 22.9842 45.8182C22.8289 46.1061 22.7513 46.4489 22.7513 46.8466H20.7456C20.7456 46.108 20.9142 45.4659 21.2513 44.9205C21.5884 44.375 22.0524 43.9527 22.6433 43.6534C23.238 43.3542 23.9198 43.2045 24.6888 43.2045C25.4691 43.2045 26.1547 43.3504 26.7456 43.642C27.3365 43.9337 27.7948 44.3333 28.1206 44.8409C28.4501 45.3485 28.6149 45.928 28.6149 46.5795C28.6149 47.0152 28.5316 47.4432 28.3649 47.8636C28.1983 48.2841 27.9047 48.75 27.4842 49.2614C27.0676 49.7727 26.4823 50.392 25.7286 51.1193L23.7229 53.1591V53.2386H28.7911V55H20.8138ZM33.1888 53.4091L33.1149 54.0341C33.0619 54.5114 32.9672 54.9962 32.8308 55.4886C32.6983 55.9848 32.5581 56.4413 32.4104 56.858C32.2626 57.2746 32.1433 57.6023 32.0524 57.8409H30.6661C30.7191 57.6098 30.7911 57.2955 30.882 56.8977C30.9767 56.5 31.0676 56.053 31.1547 55.5568C31.2418 55.0606 31.3005 54.5568 31.3308 54.0455L31.3706 53.4091H33.1888ZM39.318 55.2216C38.3824 55.2216 37.5794 54.9848 36.909 54.5114C36.2423 54.0341 35.729 53.3466 35.3692 52.4489C35.0131 51.5473 34.8351 50.4621 34.8351 49.1932C34.8389 47.9242 35.0188 46.8447 35.3749 45.9545C35.7347 45.0606 36.248 44.3788 36.9146 43.9091C37.5851 43.4394 38.3862 43.2045 39.318 43.2045C40.2499 43.2045 41.051 43.4394 41.7215 43.9091C42.3919 44.3788 42.9052 45.0606 43.2612 45.9545C43.6211 46.8485 43.801 47.928 43.801 49.1932C43.801 50.4659 43.6211 51.553 43.2612 52.4545C42.9052 53.3523 42.3919 54.0379 41.7215 54.5114C41.0548 54.9848 40.2537 55.2216 39.318 55.2216ZM39.318 53.4432C40.0453 53.4432 40.6192 53.0852 41.0396 52.3693C41.4639 51.6496 41.676 50.5909 41.676 49.1932C41.676 48.2689 41.5794 47.4924 41.3862 46.8636C41.193 46.2348 40.9203 45.7614 40.568 45.4432C40.2158 45.1212 39.7991 44.9602 39.318 44.9602C38.5946 44.9602 38.0226 45.3201 37.6021 46.0398C37.1817 46.7557 36.9696 47.8068 36.9658 49.1932C36.962 50.1212 37.0548 50.9015 37.2442 51.5341C37.4374 52.1667 37.7101 52.6439 38.0624 52.9659C38.4146 53.2841 38.8332 53.4432 39.318 53.4432ZM49.9899 55.2216C49.0543 55.2216 48.2513 54.9848 47.5808 54.5114C46.9142 54.0341 46.4009 53.3466 46.0411 52.4489C45.685 51.5473 45.507 50.4621 45.507 49.1932C45.5108 47.9242 45.6907 46.8447 46.0467 45.9545C46.4066 45.0606 46.9198 44.3788 47.5865 43.9091C48.257 43.4394 49.0581 43.2045 49.9899 43.2045C50.9217 43.2045 51.7229 43.4394 52.3933 43.9091C53.0638 44.3788 53.577 45.0606 53.9331 45.9545C54.293 46.8485 54.4729 47.928 54.4729 49.1932C54.4729 50.4659 54.293 51.553 53.9331 52.4545C53.577 53.3523 53.0638 54.0379 52.3933 54.5114C51.7267 54.9848 50.9255 55.2216 49.9899 55.2216ZM49.9899 53.4432C50.7172 53.4432 51.2911 53.0852 51.7115 52.3693C52.1358 51.6496 52.3479 50.5909 52.3479 49.1932C52.3479 48.2689 52.2513 47.4924 52.0581 46.8636C51.8649 46.2348 51.5922 45.7614 51.2399 45.4432C50.8876 45.1212 50.471 44.9602 49.9899 44.9602C49.2664 44.9602 48.6945 45.3201 48.274 46.0398C47.8536 46.7557 47.6414 47.8068 47.6376 49.1932C47.6339 50.1212 47.7267 50.9015 47.9161 51.5341C48.1092 52.1667 48.382 52.6439 48.7342 52.9659C49.0865 53.2841 49.5051 53.4432 49.9899 53.4432ZM60.6618 55.2216C59.7262 55.2216 58.9232 54.9848 58.2527 54.5114C57.586 54.0341 57.0728 53.3466 56.7129 52.4489C56.3569 51.5473 56.1788 50.4621 56.1788 49.1932C56.1826 47.9242 56.3626 46.8447 56.7186 45.9545C57.0785 45.0606 57.5917 44.3788 58.2584 43.9091C58.9288 43.4394 59.73 43.2045 60.6618 43.2045C61.5936 43.2045 62.3948 43.4394 63.0652 43.9091C63.7357 44.3788 64.2489 45.0606 64.605 45.9545C64.9648 46.8485 65.1448 47.928 65.1448 49.1932C65.1448 50.4659 64.9648 51.553 64.605 52.4545C64.2489 53.3523 63.7357 54.0379 63.0652 54.5114C62.3985 54.9848 61.5974 55.2216 60.6618 55.2216ZM60.6618 53.4432C61.3891 53.4432 61.9629 53.0852 62.3834 52.3693C62.8076 51.6496 63.0198 50.5909 63.0198 49.1932C63.0198 48.2689 62.9232 47.4924 62.73 46.8636C62.5368 46.2348 62.2641 45.7614 61.9118 45.4432C61.5595 45.1212 61.1429 44.9602 60.6618 44.9602C59.9383 44.9602 59.3663 45.3201 58.9459 46.0398C58.5254 46.7557 58.3133 47.8068 58.3095 49.1932C58.3057 50.1212 58.3985 50.9015 58.5879 51.5341C58.7811 52.1667 59.0538 52.6439 59.4061 52.9659C59.7584 53.2841 60.1769 53.4432 60.6618 53.4432Z" fill="white"/>
</svg>
