<svg width="113" height="66" viewBox="0 0 113 66" fill="none" xmlns="http://www.w3.org/2000/svg">
<path d="M104.335 1.5C107.896 1.5 110.984 4.19873 110.984 7.7666V58.2334C110.984 61.8013 107.896 64.5 104.335 64.5H8.14941C4.58829 64.4999 1.50028 61.8012 1.5 58.2334V7.7666C1.50028 4.19876 4.58829 1.50005 8.14941 1.5H104.335Z" fill="#F4AA1C" stroke="white" stroke-width="3"/>
<path d="M11.9351 13.74H12.9619V14.7331C12.8087 14.8466 12.5481 14.9034 12.3029 14.9034C11.1381 14.9034 10.5711 14.2224 10.5711 13.0448C10.5711 11.8672 11.2454 11.2004 12.1956 11.2004C12.732 11.2004 13.0539 11.399 13.3604 11.6544L14.096 10.8315C13.6822 10.4484 13.0385 10.0938 12.1496 10.0938C10.4944 10.0938 9.13043 11.2004 9.13043 13.0874C9.13043 14.9743 10.4485 16.0242 12.165 16.0242C13.0232 16.0242 13.7742 15.7121 14.2033 15.329V12.6901H11.9351V13.74Z" fill="white"/>
<path d="M16.87 10.1931H15.4753V15.9108H16.87V10.1931Z" fill="white"/>
<path d="M18.326 15.9108H19.7359V13.6975H21.8663V12.605H19.7359V11.2714H22.2341V10.1931H18.326V15.9108Z" fill="white"/>
<path d="M22.8165 11.2714H24.5176V15.9108H25.9123V11.2714H27.6135V10.1931H22.8165V11.2714Z" fill="white"/>
<path d="M33.1155 14.9036C32.2113 14.9036 31.6135 14.2226 31.6135 13.045C31.6135 11.8675 32.2879 11.2006 33.1308 11.2006C33.5753 11.2006 33.9124 11.3851 34.219 11.6546L34.9546 10.8318C34.5408 10.4345 33.8971 10.094 33.1002 10.094C31.5369 10.094 30.1882 11.2006 30.1882 13.0876C30.1882 14.9746 31.4909 16.0245 33.0695 16.0245C33.8665 16.0245 34.5561 15.7407 35.0619 15.1874L34.3262 14.3787C34.0197 14.6766 33.6212 14.9178 33.1155 14.9178V14.9036Z" fill="white"/>
<path d="M37.1462 10.1931L35.1998 15.9108H36.6251L37.0083 14.5488H38.8934L39.2765 15.9108H40.7631L38.8168 10.1931H37.1462ZM37.2995 13.5414L37.4527 13.0165C37.6213 12.449 37.7899 11.768 37.9432 11.1721H37.9738C38.1424 11.768 38.311 12.449 38.4796 13.0165L38.6328 13.5414H37.3148H37.2995Z" fill="white"/>
<path d="M45.9739 11.9808C45.9739 10.6187 44.9011 10.1931 43.5831 10.1931H41.3608V15.9108H42.7555V13.8536H43.5218L44.7019 15.9108H46.2651L44.8705 13.6266C45.5295 13.357 45.9739 12.8178 45.9739 11.9808ZM42.7555 11.2146H43.4758C44.2115 11.2146 44.6099 11.3991 44.6099 11.9666C44.6099 12.5341 44.2115 12.8178 43.4758 12.8178H42.7555V11.2146Z" fill="white"/>
<path d="M48.9165 10.1931H47.1694V15.9108H48.9932C50.8016 15.9108 52.0124 14.9886 52.0124 13.0307C52.0124 11.0728 50.8016 10.1931 48.9012 10.1931H48.9165ZM48.8246 14.8751H48.564V11.2288H48.8246C49.8667 11.2288 50.5871 11.6545 50.5871 13.0307C50.5871 14.4069 49.8821 14.8751 48.8246 14.8751Z" fill="white"/>
<g style="mix-blend-mode:screen">
<path d="M85.3818 38.5044H73.6436V54.9975H85.3818V38.5044Z" fill="#F4AA1C"/>
<path d="M100.907 38.5044H89.1687V54.9975H100.907V38.5044Z" fill="#F4AA1C"/>
<path d="M105.356 33.1846L81.8413 14.3748L77.7529 18.7549L101.268 37.5648L105.356 33.1846Z" fill="#F4AA1C"/>
<path d="M105.139 22.1485C104.357 21.5247 102.012 20.9632 100.179 20.7137C99.1011 20.564 97.8612 20.4642 96.8101 20.5765C96.5405 20.6014 96.3114 20.4143 96.2979 20.1648C96.2575 19.1917 95.9745 18.0564 95.6645 17.0957C95.1255 15.4489 94.1956 13.3904 93.4139 12.7541C92.0123 11.6313 89.8965 11.781 88.6836 13.0785C87.6594 14.1764 87.7402 15.6984 88.9262 17.3452C89.4383 18.0688 90.1256 18.7301 90.786 19.3289C91.635 20.0899 92.4975 20.826 93.387 21.5621C95.0985 22.9843 96.864 24.4066 98.7372 25.6542C99.4245 26.1158 100.139 26.6023 100.907 26.9267C102.834 27.7751 104.465 27.6254 105.489 26.5275C106.702 25.23 106.54 23.2713 105.139 22.1485ZM92.5245 19.3289C91.3115 18.2685 90.2604 17.1706 89.9369 16.7215C89.0609 15.4988 88.9531 14.5257 89.6135 13.8146C90.3817 12.9912 91.7428 12.8914 92.6323 13.615C93.05 13.9518 93.9126 15.5612 94.519 17.4326C94.9503 18.755 95.112 19.778 95.112 20.4517C95.112 20.7886 94.6807 20.9882 94.3842 20.7886C93.953 20.5016 93.3465 20.0525 92.5379 19.3414L92.5245 19.3289ZM101.419 25.9037C100.893 25.6791 99.5728 24.8682 98.2655 23.9076C97.3895 23.2713 96.8235 22.7847 96.4462 22.4354C96.1901 22.1859 96.3384 21.7742 96.7022 21.7243C97.4165 21.6245 98.5351 21.6245 100.004 21.8241C102.079 22.111 103.926 22.66 104.357 22.9968C105.246 23.7079 105.354 24.968 104.573 25.7914C103.912 26.5025 102.848 26.54 101.419 25.9162V25.9037Z" fill="#F4AA1C"/>
<path d="M80.3684 33.19C80.815 33.19 81.177 32.8548 81.177 32.4414C81.177 32.028 80.815 31.6929 80.3684 31.6929C79.9219 31.6929 79.5598 32.028 79.5598 32.4414C79.5598 32.8548 79.9219 33.19 80.3684 33.19Z" fill="#F4AA1C"/>
<path d="M74.3039 25.5671C74.9291 25.5671 75.436 25.0979 75.436 24.5192C75.436 23.9404 74.9291 23.4712 74.3039 23.4712C73.6787 23.4712 73.1719 23.9404 73.1719 24.5192C73.1719 25.0979 73.6787 25.5671 74.3039 25.5671Z" fill="#F4AA1C"/>
<path d="M89.1687 32.2913C89.4367 32.2913 89.6539 32.0902 89.6539 31.8422C89.6539 31.5942 89.4367 31.3931 89.1687 31.3931C88.9008 31.3931 88.6836 31.5942 88.6836 31.8422C88.6836 32.0902 88.9008 32.2913 89.1687 32.2913Z" fill="#F4AA1C"/>
<path d="M86.5812 37.743C86.8492 37.743 87.0664 37.5419 87.0664 37.2939C87.0664 37.0458 86.8492 36.8447 86.5812 36.8447C86.3133 36.8447 86.0961 37.0458 86.0961 37.2939C86.0961 37.5419 86.3133 37.743 86.5812 37.743Z" fill="#F4AA1C"/>
<path d="M94.3303 36.3957C94.7323 36.3957 95.0581 36.0941 95.0581 35.722C95.0581 35.35 94.7323 35.0483 94.3303 35.0483C93.9284 35.0483 93.6026 35.35 93.6026 35.722C93.6026 36.0941 93.9284 36.3957 94.3303 36.3957Z" fill="#F4AA1C"/>
<path d="M72.781 34.4498C73.0937 34.4498 73.3471 34.2152 73.3471 33.9258C73.3471 33.6365 73.0937 33.4019 72.781 33.4019C72.4684 33.4019 72.215 33.6365 72.215 33.9258C72.215 34.2152 72.4684 34.4498 72.781 34.4498Z" fill="#F4AA1C"/>
<path d="M81.0153 26.465C81.3279 26.465 81.5814 26.2304 81.5814 25.941C81.5814 25.6516 81.3279 25.417 81.0153 25.417C80.7027 25.417 80.4493 25.6516 80.4493 25.941C80.4493 26.2304 80.7027 26.465 81.0153 26.465Z" fill="#F4AA1C"/>
<path d="M78.1717 29.359C78.1987 29.2841 78.1717 29.1968 78.1043 29.1469L77.6731 28.835L77.8618 28.3609C77.8887 28.286 77.8618 28.1987 77.7944 28.1488C77.727 28.0989 77.6192 28.0989 77.5518 28.1488L77.1071 28.4358L76.6758 28.1239C76.6084 28.0739 76.5006 28.0739 76.4332 28.1239C76.3524 28.1738 76.3254 28.2611 76.3524 28.3359L76.5006 28.8225L76.0559 29.1094C75.975 29.1594 75.9481 29.2467 75.975 29.3215C76.002 29.3964 76.0828 29.4588 76.1637 29.4588H76.7162L76.8645 29.9578C76.8914 30.0327 76.9723 30.095 77.0532 30.095C77.1475 30.095 77.2149 30.0451 77.2418 29.9703L77.4305 29.4962H77.9831C78.0774 29.5087 78.1583 29.4588 78.1852 29.3839L78.1717 29.359Z" fill="#F4AA1C"/>
<path d="M79.5059 36.1462L79.1555 35.959L79.2364 35.5972C79.2499 35.5224 79.2229 35.435 79.142 35.3976C79.0747 35.3602 78.9803 35.3602 78.9129 35.4226L78.6164 35.6721L78.266 35.4849C78.1987 35.4475 78.1043 35.4475 78.0369 35.5099C77.9696 35.5598 77.9561 35.6471 77.983 35.722L78.1448 36.0588L77.8483 36.3084C77.8483 36.3084 77.7674 36.4456 77.7944 36.5204C77.8348 36.5953 77.9157 36.6327 77.9965 36.6327L78.4008 36.5953L78.5625 36.9321C78.5895 36.9945 78.6704 37.0444 78.7377 37.0444C78.7377 37.0444 78.7377 37.0444 78.7512 37.0444C78.8321 37.0444 78.8995 36.982 78.9264 36.9072L79.0073 36.5454L79.4116 36.508C79.4924 36.508 79.5598 36.4456 79.5868 36.3707C79.6002 36.2959 79.5733 36.2085 79.4924 36.1711L79.5059 36.1462Z" fill="#F4AA1C"/>
<path d="M85.4761 29.01L85.2335 28.8727L85.2874 28.6108C85.3009 28.5359 85.274 28.461 85.1931 28.4236C85.1257 28.3862 85.0314 28.3987 84.9775 28.4486L84.7618 28.6232L84.5193 28.486C84.4519 28.4486 84.3576 28.461 84.3036 28.5109C84.2497 28.5609 84.2228 28.6482 84.2632 28.7106L84.3845 28.9476L84.1689 29.1223C84.1689 29.1223 84.088 29.2595 84.1284 29.3219C84.1554 29.3967 84.2363 29.4342 84.3171 29.4217L84.6001 29.3967L84.7214 29.6338C84.7484 29.6962 84.8158 29.7336 84.8966 29.7336C84.8966 29.7336 84.8966 29.7336 84.9101 29.7336C84.991 29.7336 85.0583 29.6712 85.0718 29.5963L85.1257 29.3344L85.4087 29.3094C85.4896 29.3094 85.557 29.247 85.5705 29.1722C85.5839 29.0973 85.557 29.0225 85.4761 28.985V29.01Z" fill="#F4AA1C"/>
<path d="M90.2604 34.7239L90.1256 34.674V34.5367C90.1391 34.4619 90.0987 34.3995 90.0313 34.3745C89.9639 34.3496 89.8696 34.3745 89.8291 34.4244L89.7348 34.5367L89.6 34.4868C89.5326 34.4619 89.4518 34.4868 89.3979 34.5367C89.344 34.5866 89.344 34.674 89.3844 34.7363L89.4653 34.8611L89.3709 34.9734C89.3709 34.9734 89.317 35.1106 89.3574 35.173C89.3979 35.2354 89.4787 35.2603 89.5461 35.2478L89.6944 35.2104L89.7752 35.3352C89.7752 35.3352 89.8696 35.41 89.9235 35.41C89.9369 35.41 89.9504 35.41 89.9639 35.41C90.0448 35.3976 90.0987 35.3352 90.0987 35.2603V35.1231L90.2604 35.0857C90.3412 35.0732 90.3951 35.0108 90.3951 34.9359C90.3951 34.8611 90.3547 34.7987 90.2873 34.7738L90.2604 34.7239Z" fill="#F4AA1C"/>
<path d="M85.1796 33.7884L84.8427 33.6637L84.8697 33.3268C84.8697 33.252 84.8292 33.1771 84.7484 33.1397C84.6675 33.1147 84.5867 33.1397 84.5327 33.1896L84.3036 33.4391L83.9667 33.3143C83.8859 33.2894 83.805 33.3143 83.7511 33.3642C83.6972 33.4266 83.6837 33.5139 83.7376 33.5763L83.9263 33.8633L83.6972 34.1128C83.6972 34.1128 83.6298 34.2625 83.6837 34.3249C83.7241 34.3873 83.8185 34.4247 83.8993 34.4122L84.2497 34.3374L84.4384 34.6243C84.4384 34.6243 84.5327 34.7116 84.6001 34.7116C84.6136 34.7116 84.6271 34.7116 84.6406 34.7116C84.7214 34.6992 84.7888 34.6243 84.7888 34.5494L84.8158 34.2126L85.1662 34.1377C85.247 34.1253 85.3144 34.0504 85.3144 33.9756C85.3144 33.9007 85.274 33.8258 85.1931 33.7884H85.1796Z" fill="#F4AA1C"/>
</g>
<g style="mix-blend-mode:multiply" opacity="0.3">
<path d="M109.485 7.76678V58.2184C109.485 60.8573 107.17 62.9855 104.335 62.9855H8.14952C6.1878 62.9855 4.50194 61.9782 3.61304 60.4885C8.68592 68.4478 112.412 11.8529 107.354 3.90771C108.642 4.77317 109.485 6.17775 109.485 7.76678Z" fill="#F4AA1C"/>
</g>
<path d="M14.1732 56.4545V41.9091H15.105V56.4545H14.1732ZM16.8607 46.5625C16.8076 46.0663 16.5841 45.6799 16.1902 45.4034C15.8001 45.1269 15.2925 44.9886 14.6675 44.9886C14.2281 44.9886 13.8512 45.0549 13.5368 45.1875C13.2224 45.3201 12.9819 45.5 12.8152 45.7273C12.6485 45.9545 12.5633 46.214 12.5595 46.5057C12.5595 46.7481 12.6144 46.9583 12.7243 47.1364C12.8379 47.3144 12.9913 47.4659 13.1845 47.5909C13.3777 47.7121 13.5917 47.8144 13.8266 47.8977C14.0614 47.9811 14.2982 48.0511 14.5368 48.108L15.6277 48.3807C16.0671 48.483 16.4894 48.6212 16.8948 48.7955C17.3038 48.9697 17.6694 49.1894 17.9913 49.4545C18.3171 49.7197 18.5747 50.0398 18.7641 50.4148C18.9535 50.7898 19.0482 51.2292 19.0482 51.733C19.0482 52.4148 18.8739 53.0152 18.5254 53.5341C18.1769 54.0492 17.6732 54.4527 17.0141 54.7443C16.3588 55.0322 15.5652 55.1761 14.6334 55.1761C13.7281 55.1761 12.9421 55.036 12.2754 54.7557C11.6126 54.4754 11.0936 54.0663 10.7186 53.5284C10.3474 52.9905 10.1466 52.3352 10.1163 51.5625H12.1902C12.2205 51.9678 12.3455 52.3049 12.5652 52.5739C12.7849 52.8428 13.0709 53.0436 13.4232 53.1761C13.7792 53.3087 14.1769 53.375 14.6163 53.375C15.0747 53.375 15.4762 53.3068 15.8209 53.1705C16.1694 53.0303 16.4421 52.8371 16.6391 52.5909C16.836 52.3409 16.9364 52.0492 16.9402 51.7159C16.9364 51.4129 16.8474 51.1629 16.6732 50.9659C16.4989 50.7652 16.2546 50.5985 15.9402 50.4659C15.6296 50.3295 15.266 50.2083 14.8493 50.1023L13.5254 49.7614C12.5671 49.5152 11.8095 49.142 11.2527 48.642C10.6997 48.1383 10.4232 47.4697 10.4232 46.6364C10.4232 45.9508 10.6088 45.3504 10.98 44.8352C11.355 44.3201 11.8644 43.9205 12.5084 43.6364C13.1523 43.3485 13.8815 43.2045 14.6959 43.2045C15.5216 43.2045 16.2451 43.3485 16.8663 43.6364C17.4913 43.9205 17.9819 44.3163 18.3379 44.8239C18.694 45.3277 18.8777 45.9072 18.8891 46.5625H16.8607ZM20.8138 55V53.4773L24.8536 49.517C25.2399 49.1269 25.5619 48.7803 25.8195 48.4773C26.077 48.1742 26.2702 47.8807 26.399 47.5966C26.5278 47.3125 26.5922 47.0095 26.5922 46.6875C26.5922 46.3201 26.5089 46.0057 26.3422 45.7443C26.1755 45.4792 25.9464 45.2746 25.6547 45.1307C25.363 44.9867 25.0316 44.9148 24.6604 44.9148C24.2778 44.9148 23.9426 44.9943 23.6547 45.1534C23.3668 45.3087 23.1433 45.5303 22.9842 45.8182C22.8289 46.1061 22.7513 46.4489 22.7513 46.8466H20.7456C20.7456 46.108 20.9142 45.4659 21.2513 44.9205C21.5884 44.375 22.0524 43.9527 22.6433 43.6534C23.238 43.3542 23.9198 43.2045 24.6888 43.2045C25.4691 43.2045 26.1547 43.3504 26.7456 43.642C27.3365 43.9337 27.7948 44.3333 28.1206 44.8409C28.4501 45.3485 28.6149 45.928 28.6149 46.5795C28.6149 47.0152 28.5316 47.4432 28.3649 47.8636C28.1983 48.2841 27.9047 48.75 27.4842 49.2614C27.0676 49.7727 26.4823 50.392 25.7286 51.1193L23.7229 53.1591V53.2386H28.7911V55H20.8138ZM35.0524 55.2216C34.1168 55.2216 33.3138 54.9848 32.6433 54.5114C31.9767 54.0341 31.4634 53.3466 31.1036 52.4489C30.7475 51.5473 30.5695 50.4621 30.5695 49.1932C30.5733 47.9242 30.7532 46.8447 31.1092 45.9545C31.4691 45.0606 31.9823 44.3788 32.649 43.9091C33.3195 43.4394 34.1206 43.2045 35.0524 43.2045C35.9842 43.2045 36.7854 43.4394 37.4558 43.9091C38.1263 44.3788 38.6395 45.0606 38.9956 45.9545C39.3555 46.8485 39.5354 47.928 39.5354 49.1932C39.5354 50.4659 39.3555 51.553 38.9956 52.4545C38.6395 53.3523 38.1263 54.0379 37.4558 54.5114C36.7892 54.9848 35.988 55.2216 35.0524 55.2216ZM35.0524 53.4432C35.7797 53.4432 36.3536 53.0852 36.774 52.3693C37.1983 51.6496 37.4104 50.5909 37.4104 49.1932C37.4104 48.2689 37.3138 47.4924 37.1206 46.8636C36.9274 46.2348 36.6547 45.7614 36.3024 45.4432C35.9501 45.1212 35.5335 44.9602 35.0524 44.9602C34.3289 44.9602 33.757 45.3201 33.3365 46.0398C32.9161 46.7557 32.7039 47.8068 32.7001 49.1932C32.6964 50.1212 32.7892 50.9015 32.9786 51.5341C33.1717 52.1667 33.4445 52.6439 33.7967 52.9659C34.149 53.2841 34.5676 53.4432 35.0524 53.4432ZM45.7243 55.2216C44.7887 55.2216 43.9857 54.9848 43.3152 54.5114C42.6485 54.0341 42.1353 53.3466 41.7754 52.4489C41.4194 51.5473 41.2413 50.4621 41.2413 49.1932C41.2451 47.9242 41.4251 46.8447 41.7811 45.9545C42.141 45.0606 42.6542 44.3788 43.3209 43.9091C43.9913 43.4394 44.7925 43.2045 45.7243 43.2045C46.6561 43.2045 47.4573 43.4394 48.1277 43.9091C48.7982 44.3788 49.3114 45.0606 49.6675 45.9545C50.0273 46.8485 50.2073 47.928 50.2073 49.1932C50.2073 50.4659 50.0273 51.553 49.6675 52.4545C49.3114 53.3523 48.7982 54.0379 48.1277 54.5114C47.461 54.9848 46.6599 55.2216 45.7243 55.2216ZM45.7243 53.4432C46.4516 53.4432 47.0254 53.0852 47.4459 52.3693C47.8701 51.6496 48.0823 50.5909 48.0823 49.1932C48.0823 48.2689 47.9857 47.4924 47.7925 46.8636C47.5993 46.2348 47.3266 45.7614 46.9743 45.4432C46.622 45.1212 46.2054 44.9602 45.7243 44.9602C45.0008 44.9602 44.4288 45.3201 44.0084 46.0398C43.5879 46.7557 43.3758 47.8068 43.372 49.1932C43.3682 50.1212 43.461 50.9015 43.6504 51.5341C43.8436 52.1667 44.1163 52.6439 44.4686 52.9659C44.8209 53.2841 45.2394 53.4432 45.7243 53.4432Z" fill="white"/>
</svg>
