<svg width="113" height="66" viewBox="0 0 113 66" fill="none" xmlns="http://www.w3.org/2000/svg">
<path d="M104.335 1.5C107.896 1.5 110.984 4.19873 110.984 7.7666V58.2334C110.984 61.8013 107.896 64.5 104.335 64.5H8.14941C4.58829 64.4999 1.50028 61.8012 1.5 58.2334V7.7666C1.50028 4.19876 4.58829 1.50005 8.14941 1.5H104.335Z" fill="#FF5660" stroke="white" stroke-width="3"/>
<path d="M11.935 13.7407H12.9619V14.7339C12.8086 14.8474 12.5481 14.9041 12.3029 14.9041C11.1381 14.9041 10.571 14.2231 10.571 13.0455C10.571 11.868 11.2454 11.2011 12.1956 11.2011C12.732 11.2011 13.0538 11.3998 13.3604 11.6551L14.096 10.8322C13.6822 10.4492 13.0385 10.0945 12.1496 10.0945C10.4944 10.0945 9.1304 11.2011 9.1304 13.0881C9.1304 14.9751 10.4484 16.025 12.1649 16.025C13.0232 16.025 13.7742 15.7128 14.2033 15.3298V12.6908H11.935V13.7407Z" fill="white"/>
<path d="M16.87 10.1934H15.4753V15.911H16.87V10.1934Z" fill="white"/>
<path d="M18.3259 15.911H19.7359V13.6977H21.8662V12.6053H19.7359V11.2716H22.234V10.1934H18.3259V15.911Z" fill="white"/>
<path d="M22.8164 11.2716H24.5176V15.911H25.9123V11.2716H27.6135V10.1934H22.8164V11.2716Z" fill="white"/>
<path d="M33.1155 14.9039C32.2112 14.9039 31.6135 14.2229 31.6135 13.0453C31.6135 11.8677 32.2879 11.2009 33.1308 11.2009C33.5752 11.2009 33.9124 11.3853 34.2189 11.6549L34.9546 10.832C34.5408 10.4347 33.8971 10.0942 33.1001 10.0942C31.5369 10.0942 30.1882 11.2009 30.1882 13.0879C30.1882 14.9748 31.4909 16.0247 33.0695 16.0247C33.8664 16.0247 34.5561 15.741 35.0619 15.1876L34.3262 14.3789C34.0197 14.6769 33.6212 14.9181 33.1155 14.9181V14.9039Z" fill="white"/>
<path d="M37.1462 10.1934L35.1998 15.911H36.6251L37.0083 14.549H38.8934L39.2765 15.911H40.7631L38.8167 10.1934H37.1462ZM37.2995 13.5417L37.4527 13.0167C37.6213 12.4492 37.7899 11.7682 37.9431 11.1723H37.9738C38.1424 11.7682 38.311 12.4492 38.4795 13.0167L38.6328 13.5417H37.3148H37.2995Z" fill="white"/>
<path d="M45.9739 11.981C45.9739 10.619 44.9011 10.1934 43.5831 10.1934H41.3608V15.911H42.7555V13.8538H43.5218L44.7019 15.911H46.2651L44.8704 13.6268C45.5295 13.3572 45.9739 12.8181 45.9739 11.981ZM42.7555 11.2149H43.4758C44.2114 11.2149 44.6099 11.3993 44.6099 11.9668C44.6099 12.5343 44.2114 12.8181 43.4758 12.8181H42.7555V11.2149Z" fill="white"/>
<path d="M48.9165 10.1934H47.1693V15.911H48.9931C50.8016 15.911 52.0123 14.9888 52.0123 13.0309C52.0123 11.073 50.8016 10.1934 48.9012 10.1934H48.9165ZM48.8245 14.8753H48.564V11.2291H48.8245C49.8667 11.2291 50.587 11.6547 50.587 13.0309C50.587 14.4071 49.882 14.8753 48.8245 14.8753Z" fill="white"/>
<g style="mix-blend-mode:screen">
<path d="M85.3818 38.5046H73.6436V54.9977H85.3818V38.5046Z" fill="#FF5660"/>
<path d="M100.907 38.5046H89.1687V54.9977H100.907V38.5046Z" fill="#FF5660"/>
<path d="M105.356 33.1844L81.8413 14.3745L77.7528 18.7546L101.268 37.5645L105.356 33.1844Z" fill="#FF5660"/>
<path d="M105.139 22.1485C104.357 21.5247 102.012 20.9632 100.179 20.7137C99.1011 20.564 97.8612 20.4642 96.81 20.5765C96.5405 20.6014 96.3114 20.4143 96.2979 20.1648C96.2575 19.1917 95.9745 18.0564 95.6645 17.0957C95.1254 15.4489 94.1955 13.3904 93.4139 12.7541C92.0123 11.6313 89.8965 11.781 88.6836 13.0785C87.6593 14.1764 87.7402 15.6984 88.9261 17.3452C89.4382 18.0688 90.1256 18.7301 90.7859 19.3289C91.635 20.0899 92.4975 20.826 93.3869 21.5621C95.0985 22.9843 96.8639 24.4066 98.7372 25.6542C99.4245 26.1158 100.139 26.6023 100.907 26.9267C102.834 27.7751 104.465 27.6254 105.489 26.5275C106.702 25.23 106.54 23.2713 105.139 22.1485ZM92.5244 19.3289C91.3115 18.2685 90.2603 17.1706 89.9369 16.7215C89.0609 15.4988 88.9531 14.5257 89.6134 13.8146C90.3816 12.9912 91.7428 12.8914 92.6322 13.615C93.05 13.9518 93.9125 15.5612 94.519 17.4326C94.9502 18.755 95.112 19.778 95.112 20.4517C95.112 20.7886 94.6807 20.9882 94.3842 20.7886C93.953 20.5016 93.3465 20.0525 92.5379 19.3414L92.5244 19.3289ZM101.419 25.9037C100.893 25.6791 99.5727 24.8682 98.2655 23.9076C97.3895 23.2713 96.8235 22.7847 96.4461 22.4354C96.1901 22.1859 96.3383 21.7742 96.7022 21.7243C97.4165 21.6245 98.535 21.6245 100.004 21.8241C102.079 22.111 103.926 22.66 104.357 22.9968C105.246 23.7079 105.354 24.968 104.573 25.7914C103.912 26.5025 102.848 26.54 101.419 25.9162V25.9037Z" fill="#FF5660"/>
<path d="M80.3684 33.19C80.815 33.19 81.177 32.8548 81.177 32.4414C81.177 32.028 80.815 31.6929 80.3684 31.6929C79.9219 31.6929 79.5598 32.028 79.5598 32.4414C79.5598 32.8548 79.9219 33.19 80.3684 33.19Z" fill="#FF5660"/>
<path d="M74.3039 25.5671C74.9291 25.5671 75.436 25.0979 75.436 24.5192C75.436 23.9404 74.9291 23.4712 74.3039 23.4712C73.6787 23.4712 73.1719 23.9404 73.1719 24.5192C73.1719 25.0979 73.6787 25.5671 74.3039 25.5671Z" fill="#FF5660"/>
<path d="M89.1687 32.2916C89.4367 32.2916 89.6539 32.0905 89.6539 31.8424C89.6539 31.5944 89.4367 31.3933 89.1687 31.3933C88.9008 31.3933 88.6836 31.5944 88.6836 31.8424C88.6836 32.0905 88.9008 32.2916 89.1687 32.2916Z" fill="#FF5660"/>
<path d="M86.5812 37.7432C86.8491 37.7432 87.0664 37.5421 87.0664 37.2941C87.0664 37.0461 86.8491 36.845 86.5812 36.845C86.3133 36.845 86.096 37.0461 86.096 37.2941C86.096 37.5421 86.3133 37.7432 86.5812 37.7432Z" fill="#FF5660"/>
<path d="M94.3303 36.396C94.7322 36.396 95.0581 36.0944 95.0581 35.7223C95.0581 35.3502 94.7322 35.0486 94.3303 35.0486C93.9284 35.0486 93.6026 35.3502 93.6026 35.7223C93.6026 36.0944 93.9284 36.396 94.3303 36.396Z" fill="#FF5660"/>
<path d="M72.781 34.4498C73.0936 34.4498 73.347 34.2152 73.347 33.9258C73.347 33.6365 73.0936 33.4019 72.781 33.4019C72.4684 33.4019 72.215 33.6365 72.215 33.9258C72.215 34.2152 72.4684 34.4498 72.781 34.4498Z" fill="#FF5660"/>
<path d="M81.0153 26.465C81.3279 26.465 81.5813 26.2304 81.5813 25.941C81.5813 25.6516 81.3279 25.417 81.0153 25.417C80.7027 25.417 80.4493 25.6516 80.4493 25.941C80.4493 26.2304 80.7027 26.465 81.0153 26.465Z" fill="#FF5660"/>
<path d="M78.1717 29.3592C78.1987 29.2844 78.1717 29.197 78.1043 29.1471L77.6731 28.8352L77.8618 28.3611C77.8887 28.2863 77.8618 28.199 77.7944 28.149C77.727 28.0991 77.6192 28.0991 77.5518 28.149L77.1071 28.436L76.6758 28.1241C76.6084 28.0742 76.5006 28.0742 76.4332 28.1241C76.3524 28.174 76.3254 28.2613 76.3524 28.3362L76.5006 28.8227L76.0559 29.1097C75.975 29.1596 75.9481 29.2469 75.975 29.3218C76.002 29.3966 76.0828 29.459 76.1637 29.459H76.7162L76.8645 29.9581C76.8914 30.0329 76.9723 30.0953 77.0532 30.0953C77.1475 30.0953 77.2149 30.0454 77.2418 29.9705L77.4305 29.4964H77.983C78.0774 29.5089 78.1582 29.459 78.1852 29.3842L78.1717 29.3592Z" fill="#FF5660"/>
<path d="M79.5059 36.1464L79.1555 35.9593L79.2364 35.5975C79.2499 35.5226 79.2229 35.4353 79.1421 35.3979C79.0747 35.3604 78.9803 35.3604 78.913 35.4228L78.6165 35.6723L78.2661 35.4852C78.1987 35.4478 78.1043 35.4478 78.037 35.5101C77.9696 35.56 77.9561 35.6474 77.9831 35.7222L78.1448 36.0591L77.8483 36.3086C77.8483 36.3086 77.7674 36.4458 77.7944 36.5207C77.8348 36.5955 77.9157 36.633 77.9965 36.633L78.4008 36.5955L78.5626 36.9324C78.5895 36.9948 78.6704 37.0447 78.7378 37.0447C78.7378 37.0447 78.7377 37.0447 78.7512 37.0447C78.8321 37.0447 78.8995 36.9823 78.9264 36.9074L79.0073 36.5456L79.4116 36.5082C79.4924 36.5082 79.5598 36.4458 79.5868 36.371C79.6003 36.2961 79.5733 36.2088 79.4924 36.1714L79.5059 36.1464Z" fill="#FF5660"/>
<path d="M85.4761 29.0102L85.2335 28.873L85.2874 28.611C85.3009 28.5361 85.274 28.4613 85.1931 28.4239C85.1257 28.3864 85.0314 28.3989 84.9775 28.4488L84.7618 28.6235L84.5193 28.4862C84.4519 28.4488 84.3576 28.4613 84.3036 28.5112C84.2497 28.5611 84.2228 28.6484 84.2632 28.7108L84.3845 28.9478L84.1689 29.1225C84.1689 29.1225 84.088 29.2597 84.1284 29.3221C84.1554 29.397 84.2363 29.4344 84.3171 29.4219L84.6001 29.397L84.7214 29.634C84.7484 29.6964 84.8158 29.7338 84.8966 29.7338C84.8966 29.7338 84.8966 29.7338 84.9101 29.7338C84.991 29.7338 85.0583 29.6714 85.0718 29.5966L85.1257 29.3346L85.4087 29.3096C85.4896 29.3096 85.557 29.2473 85.5705 29.1724C85.5839 29.0976 85.557 29.0227 85.4761 28.9853V29.0102Z" fill="#FF5660"/>
<path d="M90.2604 34.7241L90.1256 34.6742V34.537C90.1391 34.4621 90.0986 34.3997 90.0312 34.3748C89.9639 34.3498 89.8695 34.3748 89.8291 34.4247L89.7348 34.537L89.6 34.4871C89.5326 34.4621 89.4517 34.4871 89.3978 34.537C89.3439 34.5869 89.3439 34.6742 89.3844 34.7366L89.4652 34.8613L89.3709 34.9736C89.3709 34.9736 89.317 35.1109 89.3574 35.1732C89.3978 35.2356 89.4787 35.2606 89.5461 35.2481L89.6943 35.2107L89.7752 35.3354C89.7752 35.3354 89.8695 35.4103 89.9234 35.4103C89.9369 35.4103 89.9504 35.4103 89.9639 35.4103C90.0447 35.3978 90.0986 35.3354 90.0986 35.2606V35.1233L90.2604 35.0859C90.3412 35.0734 90.3951 35.011 90.3951 34.9362C90.3951 34.8613 90.3547 34.799 90.2873 34.774L90.2604 34.7241Z" fill="#FF5660"/>
<path d="M85.1796 33.7884L84.8427 33.6637L84.8696 33.3268C84.8696 33.252 84.8292 33.1771 84.7483 33.1397C84.6675 33.1147 84.5866 33.1397 84.5327 33.1896L84.3036 33.4391L83.9667 33.3143C83.8858 33.2894 83.805 33.3143 83.7511 33.3642C83.6972 33.4266 83.6837 33.5139 83.7376 33.5763L83.9263 33.8633L83.6972 34.1128C83.6972 34.1128 83.6298 34.2625 83.6837 34.3249C83.7241 34.3873 83.8184 34.4247 83.8993 34.4122L84.2497 34.3374L84.4384 34.6243C84.4384 34.6243 84.5327 34.7116 84.6001 34.7116C84.6136 34.7116 84.6271 34.7116 84.6405 34.7116C84.7214 34.6992 84.7888 34.6243 84.7888 34.5494L84.8157 34.2126L85.1661 34.1377C85.247 34.1253 85.3144 34.0504 85.3144 33.9756C85.3144 33.9007 85.2739 33.8258 85.1931 33.7884H85.1796Z" fill="#FF5660"/>
</g>
<g style="mix-blend-mode:multiply" opacity="0.3">
<path d="M109.485 7.76678V58.2184C109.485 60.8573 107.17 62.9855 104.335 62.9855H8.14952C6.1878 62.9855 4.50194 61.9782 3.61304 60.4885C8.68592 68.4478 112.412 11.8529 107.354 3.90771C108.642 4.77317 109.485 6.17775 109.485 7.76678Z" fill="#FF5660"/>
</g>
<path d="M14.1732 56.4545V41.9091H15.105V56.4545H14.1732ZM16.8607 46.5625C16.8076 46.0663 16.5841 45.6799 16.1902 45.4034C15.8001 45.1269 15.2925 44.9886 14.6675 44.9886C14.2281 44.9886 13.8512 45.0549 13.5368 45.1875C13.2224 45.3201 12.9819 45.5 12.8152 45.7273C12.6485 45.9545 12.5633 46.214 12.5595 46.5057C12.5595 46.7481 12.6144 46.9583 12.7243 47.1364C12.8379 47.3144 12.9913 47.4659 13.1845 47.5909C13.3777 47.7121 13.5917 47.8144 13.8266 47.8977C14.0614 47.9811 14.2982 48.0511 14.5368 48.108L15.6277 48.3807C16.0671 48.483 16.4894 48.6212 16.8948 48.7955C17.3038 48.9697 17.6694 49.1894 17.9913 49.4545C18.3171 49.7197 18.5747 50.0398 18.7641 50.4148C18.9535 50.7898 19.0482 51.2292 19.0482 51.733C19.0482 52.4148 18.8739 53.0152 18.5254 53.5341C18.1769 54.0492 17.6732 54.4527 17.0141 54.7443C16.3588 55.0322 15.5652 55.1761 14.6334 55.1761C13.7281 55.1761 12.9421 55.036 12.2754 54.7557C11.6126 54.4754 11.0936 54.0663 10.7186 53.5284C10.3474 52.9905 10.1466 52.3352 10.1163 51.5625H12.1902C12.2205 51.9678 12.3455 52.3049 12.5652 52.5739C12.7849 52.8428 13.0709 53.0436 13.4232 53.1761C13.7792 53.3087 14.1769 53.375 14.6163 53.375C15.0747 53.375 15.4762 53.3068 15.8209 53.1705C16.1694 53.0303 16.4421 52.8371 16.6391 52.5909C16.836 52.3409 16.9364 52.0492 16.9402 51.7159C16.9364 51.4129 16.8474 51.1629 16.6732 50.9659C16.4989 50.7652 16.2546 50.5985 15.9402 50.4659C15.6296 50.3295 15.266 50.2083 14.8493 50.1023L13.5254 49.7614C12.5671 49.5152 11.8095 49.142 11.2527 48.642C10.6997 48.1383 10.4232 47.4697 10.4232 46.6364C10.4232 45.9508 10.6088 45.3504 10.98 44.8352C11.355 44.3201 11.8644 43.9205 12.5084 43.6364C13.1523 43.3485 13.8815 43.2045 14.6959 43.2045C15.5216 43.2045 16.2451 43.3485 16.8663 43.6364C17.4913 43.9205 17.9819 44.3163 18.3379 44.8239C18.694 45.3277 18.8777 45.9072 18.8891 46.5625H16.8607ZM25.5467 43.3636V55H23.4388V45.4148H23.3706L20.649 47.1534V45.2216L23.5411 43.3636H25.5467ZM32.8024 55.2216C31.8668 55.2216 31.0638 54.9848 30.3933 54.5114C29.7267 54.0341 29.2134 53.3466 28.8536 52.4489C28.4975 51.5473 28.3195 50.4621 28.3195 49.1932C28.3233 47.9242 28.5032 46.8447 28.8592 45.9545C29.2191 45.0606 29.7323 44.3788 30.399 43.9091C31.0695 43.4394 31.8706 43.2045 32.8024 43.2045C33.7342 43.2045 34.5354 43.4394 35.2058 43.9091C35.8763 44.3788 36.3895 45.0606 36.7456 45.9545C37.1055 46.8485 37.2854 47.928 37.2854 49.1932C37.2854 50.4659 37.1055 51.553 36.7456 52.4545C36.3895 53.3523 35.8763 54.0379 35.2058 54.5114C34.5392 54.9848 33.738 55.2216 32.8024 55.2216ZM32.8024 53.4432C33.5297 53.4432 34.1036 53.0852 34.524 52.3693C34.9483 51.6496 35.1604 50.5909 35.1604 49.1932C35.1604 48.2689 35.0638 47.4924 34.8706 46.8636C34.6774 46.2348 34.4047 45.7614 34.0524 45.4432C33.7001 45.1212 33.2835 44.9602 32.8024 44.9602C32.0789 44.9602 31.507 45.3201 31.0865 46.0398C30.6661 46.7557 30.4539 47.8068 30.4501 49.1932C30.4464 50.1212 30.5392 50.9015 30.7286 51.5341C30.9217 52.1667 31.1945 52.6439 31.5467 52.9659C31.899 53.2841 32.3176 53.4432 32.8024 53.4432ZM43.4743 55.2216C42.5387 55.2216 41.7357 54.9848 41.0652 54.5114C40.3985 54.0341 39.8853 53.3466 39.5254 52.4489C39.1694 51.5473 38.9913 50.4621 38.9913 49.1932C38.9951 47.9242 39.1751 46.8447 39.5311 45.9545C39.891 45.0606 40.4042 44.3788 41.0709 43.9091C41.7413 43.4394 42.5425 43.2045 43.4743 43.2045C44.4061 43.2045 45.2073 43.4394 45.8777 43.9091C46.5482 44.3788 47.0614 45.0606 47.4175 45.9545C47.7773 46.8485 47.9573 47.928 47.9573 49.1932C47.9573 50.4659 47.7773 51.553 47.4175 52.4545C47.0614 53.3523 46.5482 54.0379 45.8777 54.5114C45.211 54.9848 44.4099 55.2216 43.4743 55.2216ZM43.4743 53.4432C44.2016 53.4432 44.7754 53.0852 45.1959 52.3693C45.6201 51.6496 45.8323 50.5909 45.8323 49.1932C45.8323 48.2689 45.7357 47.4924 45.5425 46.8636C45.3493 46.2348 45.0766 45.7614 44.7243 45.4432C44.372 45.1212 43.9554 44.9602 43.4743 44.9602C42.7508 44.9602 42.1788 45.3201 41.7584 46.0398C41.3379 46.7557 41.1258 47.8068 41.122 49.1932C41.1182 50.1212 41.211 50.9015 41.4004 51.5341C41.5936 52.1667 41.8663 52.6439 42.2186 52.9659C42.5709 53.2841 42.9894 53.4432 43.4743 53.4432ZM51.8294 53.4091L51.7555 54.0341C51.7025 54.5114 51.6078 54.9962 51.4715 55.4886C51.3389 55.9848 51.1987 56.4413 51.051 56.858C50.9033 57.2746 50.784 57.6023 50.693 57.8409H49.3067C49.3597 57.6098 49.4317 57.2955 49.5226 56.8977C49.6173 56.5 49.7082 56.053 49.7953 55.5568C49.8824 55.0606 49.9412 54.5568 49.9715 54.0455L50.0112 53.4091H51.8294ZM57.9587 55.2216C57.0231 55.2216 56.22 54.9848 55.5496 54.5114C54.8829 54.0341 54.3697 53.3466 54.0098 52.4489C53.6537 51.5473 53.4757 50.4621 53.4757 49.1932C53.4795 47.9242 53.6594 46.8447 54.0155 45.9545C54.3753 45.0606 54.8886 44.3788 55.5553 43.9091C56.2257 43.4394 57.0269 43.2045 57.9587 43.2045C58.8905 43.2045 59.6916 43.4394 60.3621 43.9091C61.0325 44.3788 61.5458 45.0606 61.9019 45.9545C62.2617 46.8485 62.4416 47.928 62.4416 49.1932C62.4416 50.4659 62.2617 51.553 61.9019 52.4545C61.5458 53.3523 61.0325 54.0379 60.3621 54.5114C59.6954 54.9848 58.8943 55.2216 57.9587 55.2216ZM57.9587 53.4432C58.6859 53.4432 59.2598 53.0852 59.6803 52.3693C60.1045 51.6496 60.3166 50.5909 60.3166 49.1932C60.3166 48.2689 60.22 47.4924 60.0269 46.8636C59.8337 46.2348 59.5609 45.7614 59.2087 45.4432C58.8564 45.1212 58.4397 44.9602 57.9587 44.9602C57.2352 44.9602 56.6632 45.3201 56.2428 46.0398C55.8223 46.7557 55.6102 47.8068 55.6064 49.1932C55.6026 50.1212 55.6954 50.9015 55.8848 51.5341C56.078 52.1667 56.3507 52.6439 56.703 52.9659C57.0553 53.2841 57.4738 53.4432 57.9587 53.4432ZM68.6305 55.2216C67.6949 55.2216 66.8919 54.9848 66.2215 54.5114C65.5548 54.0341 65.0415 53.3466 64.6817 52.4489C64.3256 51.5473 64.1476 50.4621 64.1476 49.1932C64.1514 47.9242 64.3313 46.8447 64.6874 45.9545C65.0472 45.0606 65.5605 44.3788 66.2271 43.9091C66.8976 43.4394 67.6987 43.2045 68.6305 43.2045C69.5624 43.2045 70.3635 43.4394 71.034 43.9091C71.7044 44.3788 72.2177 45.0606 72.5737 45.9545C72.9336 46.8485 73.1135 47.928 73.1135 49.1932C73.1135 50.4659 72.9336 51.553 72.5737 52.4545C72.2177 53.3523 71.7044 54.0379 71.034 54.5114C70.3673 54.9848 69.5662 55.2216 68.6305 55.2216ZM68.6305 53.4432C69.3578 53.4432 69.9317 53.0852 70.3521 52.3693C70.7764 51.6496 70.9885 50.5909 70.9885 49.1932C70.9885 48.2689 70.8919 47.4924 70.6987 46.8636C70.5055 46.2348 70.2328 45.7614 69.8805 45.4432C69.5283 45.1212 69.1116 44.9602 68.6305 44.9602C67.9071 44.9602 67.3351 45.3201 66.9146 46.0398C66.4942 46.7557 66.2821 47.8068 66.2783 49.1932C66.2745 50.1212 66.3673 50.9015 66.5567 51.5341C66.7499 52.1667 67.0226 52.6439 67.3749 52.9659C67.7271 53.2841 68.1457 53.4432 68.6305 53.4432ZM79.3024 55.2216C78.3668 55.2216 77.5638 54.9848 76.8933 54.5114C76.2267 54.0341 75.7134 53.3466 75.3536 52.4489C74.9975 51.5473 74.8195 50.4621 74.8195 49.1932C74.8233 47.9242 75.0032 46.8447 75.3592 45.9545C75.7191 45.0606 76.2323 44.3788 76.899 43.9091C77.5695 43.4394 78.3706 43.2045 79.3024 43.2045C80.2342 43.2045 81.0354 43.4394 81.7058 43.9091C82.3763 44.3788 82.8895 45.0606 83.2456 45.9545C83.6055 46.8485 83.7854 47.928 83.7854 49.1932C83.7854 50.4659 83.6055 51.553 83.2456 52.4545C82.8895 53.3523 82.3763 54.0379 81.7058 54.5114C81.0392 54.9848 80.238 55.2216 79.3024 55.2216ZM79.3024 53.4432C80.0297 53.4432 80.6036 53.0852 81.024 52.3693C81.4483 51.6496 81.6604 50.5909 81.6604 49.1932C81.6604 48.2689 81.5638 47.4924 81.3706 46.8636C81.1774 46.2348 80.9047 45.7614 80.5524 45.4432C80.2001 45.1212 79.7835 44.9602 79.3024 44.9602C78.5789 44.9602 78.007 45.3201 77.5865 46.0398C77.1661 46.7557 76.9539 47.8068 76.9501 49.1932C76.9464 50.1212 77.0392 50.9015 77.2286 51.5341C77.4217 52.1667 77.6945 52.6439 78.0467 52.9659C78.399 53.2841 78.8176 53.4432 79.3024 53.4432Z" fill="white"/>
</svg>
