<svg width="113" height="66" viewBox="0 0 113 66" fill="none" xmlns="http://www.w3.org/2000/svg">
<path d="M104.335 1.5C107.896 1.5 110.984 4.19873 110.984 7.7666V58.2334C110.984 61.8013 107.896 64.5 104.335 64.5H8.14941C4.58829 64.4999 1.50028 61.8012 1.5 58.2334V7.7666C1.50028 4.19876 4.58829 1.50005 8.14941 1.5H104.335Z" fill="#F4AA1C" stroke="white" stroke-width="3"/>
<path d="M11.9351 13.74H12.9619V14.7331C12.8087 14.8466 12.5481 14.9034 12.3029 14.9034C11.1381 14.9034 10.5711 14.2224 10.5711 13.0448C10.5711 11.8672 11.2454 11.2004 12.1956 11.2004C12.732 11.2004 13.0539 11.399 13.3604 11.6544L14.096 10.8315C13.6822 10.4484 13.0385 10.0938 12.1496 10.0938C10.4944 10.0938 9.13043 11.2004 9.13043 13.0874C9.13043 14.9743 10.4485 16.0242 12.165 16.0242C13.0232 16.0242 13.7742 15.7121 14.2033 15.329V12.6901H11.9351V13.74Z" fill="white"/>
<path d="M16.87 10.1929H15.4753V15.9105H16.87V10.1929Z" fill="white"/>
<path d="M18.326 15.9105H19.7359V13.6972H21.8663V12.6048H19.7359V11.2711H22.2341V10.1929H18.326V15.9105Z" fill="white"/>
<path d="M22.8165 11.2711H24.5176V15.9105H25.9123V11.2711H27.6135V10.1929H22.8165V11.2711Z" fill="white"/>
<path d="M33.1155 14.9034C32.2113 14.9034 31.6135 14.2224 31.6135 13.0448C31.6135 11.8672 32.2879 11.2004 33.1308 11.2004C33.5753 11.2004 33.9124 11.3848 34.219 11.6544L34.9546 10.8315C34.5408 10.4343 33.8971 10.0938 33.1002 10.0938C31.5369 10.0938 30.1882 11.2004 30.1882 13.0874C30.1882 14.9743 31.4909 16.0242 33.0695 16.0242C33.8665 16.0242 34.5561 15.7405 35.0619 15.1872L34.3262 14.3785C34.0197 14.6764 33.6212 14.9176 33.1155 14.9176V14.9034Z" fill="white"/>
<path d="M37.1462 10.1929L35.1998 15.9105H36.6251L37.0083 14.5485H38.8934L39.2765 15.9105H40.7631L38.8168 10.1929H37.1462ZM37.2995 13.5412L37.4527 13.0162C37.6213 12.4487 37.7899 11.7677 37.9432 11.1718H37.9738C38.1424 11.7677 38.311 12.4487 38.4796 13.0162L38.6328 13.5412H37.3148H37.2995Z" fill="white"/>
<path d="M45.9739 11.9805C45.9739 10.6185 44.9011 10.1929 43.5831 10.1929H41.3608V15.9105H42.7555V13.8533H43.5218L44.7019 15.9105H46.2651L44.8705 13.6263C45.5295 13.3567 45.9739 12.8176 45.9739 11.9805ZM42.7555 11.2144H43.4758C44.2115 11.2144 44.6099 11.3988 44.6099 11.9663C44.6099 12.5339 44.2115 12.8176 43.4758 12.8176H42.7555V11.2144Z" fill="white"/>
<path d="M48.9165 10.1929H47.1694V15.9105H48.9932C50.8016 15.9105 52.0124 14.9883 52.0124 13.0304C52.0124 11.0725 50.8016 10.1929 48.9012 10.1929H48.9165ZM48.8246 14.8748H48.564V11.2286H48.8246C49.8667 11.2286 50.5871 11.6542 50.5871 13.0304C50.5871 14.4066 49.8821 14.8748 48.8246 14.8748Z" fill="white"/>
<g style="mix-blend-mode:screen">
<path d="M85.3818 38.5042H73.6436V54.9973H85.3818V38.5042Z" fill="#F4AA1C"/>
<path d="M100.907 38.5042H89.1687V54.9973H100.907V38.5042Z" fill="#F4AA1C"/>
<path d="M105.356 33.1844L81.8413 14.3745L77.7529 18.7546L101.268 37.5645L105.356 33.1844Z" fill="#F4AA1C"/>
<path d="M105.139 22.1485C104.357 21.5247 102.012 20.9632 100.179 20.7137C99.1011 20.564 97.8612 20.4642 96.8101 20.5765C96.5405 20.6014 96.3114 20.4143 96.2979 20.1648C96.2575 19.1917 95.9745 18.0564 95.6645 17.0957C95.1255 15.4489 94.1956 13.3904 93.4139 12.7541C92.0123 11.6313 89.8965 11.781 88.6836 13.0785C87.6594 14.1764 87.7402 15.6984 88.9262 17.3452C89.4383 18.0688 90.1256 18.7301 90.786 19.3289C91.635 20.0899 92.4975 20.826 93.387 21.5621C95.0985 22.9843 96.864 24.4066 98.7372 25.6542C99.4245 26.1158 100.139 26.6023 100.907 26.9267C102.834 27.7751 104.465 27.6254 105.489 26.5275C106.702 25.23 106.54 23.2713 105.139 22.1485ZM92.5245 19.3289C91.3115 18.2685 90.2604 17.1706 89.9369 16.7215C89.0609 15.4988 88.9531 14.5257 89.6135 13.8146C90.3817 12.9912 91.7428 12.8914 92.6323 13.615C93.05 13.9518 93.9126 15.5612 94.519 17.4326C94.9503 18.755 95.112 19.778 95.112 20.4517C95.112 20.7886 94.6807 20.9882 94.3842 20.7886C93.953 20.5016 93.3465 20.0525 92.5379 19.3414L92.5245 19.3289ZM101.419 25.9037C100.893 25.6791 99.5728 24.8682 98.2655 23.9076C97.3895 23.2713 96.8235 22.7847 96.4462 22.4354C96.1901 22.1859 96.3384 21.7742 96.7022 21.7243C97.4165 21.6245 98.5351 21.6245 100.004 21.8241C102.079 22.111 103.926 22.66 104.357 22.9968C105.246 23.7079 105.354 24.968 104.573 25.7914C103.912 26.5025 102.848 26.54 101.419 25.9162V25.9037Z" fill="#F4AA1C"/>
<path d="M80.3684 33.1902C80.815 33.1902 81.177 32.8551 81.177 32.4417C81.177 32.0283 80.815 31.6931 80.3684 31.6931C79.9219 31.6931 79.5598 32.0283 79.5598 32.4417C79.5598 32.8551 79.9219 33.1902 80.3684 33.1902Z" fill="#F4AA1C"/>
<path d="M74.3039 25.5674C74.9291 25.5674 75.436 25.0982 75.436 24.5194C75.436 23.9406 74.9291 23.4714 74.3039 23.4714C73.6787 23.4714 73.1719 23.9406 73.1719 24.5194C73.1719 25.0982 73.6787 25.5674 74.3039 25.5674Z" fill="#F4AA1C"/>
<path d="M89.1687 32.2918C89.4367 32.2918 89.6539 32.0907 89.6539 31.8427C89.6539 31.5946 89.4367 31.3936 89.1687 31.3936C88.9008 31.3936 88.6836 31.5946 88.6836 31.8427C88.6836 32.0907 88.9008 32.2918 89.1687 32.2918Z" fill="#F4AA1C"/>
<path d="M86.5812 37.7432C86.8492 37.7432 87.0664 37.5421 87.0664 37.2941C87.0664 37.0461 86.8492 36.845 86.5812 36.845C86.3133 36.845 86.0961 37.0461 86.0961 37.2941C86.0961 37.5421 86.3133 37.7432 86.5812 37.7432Z" fill="#F4AA1C"/>
<path d="M94.3303 36.396C94.7323 36.396 95.0581 36.0944 95.0581 35.7223C95.0581 35.3502 94.7323 35.0486 94.3303 35.0486C93.9284 35.0486 93.6026 35.3502 93.6026 35.7223C93.6026 36.0944 93.9284 36.396 94.3303 36.396Z" fill="#F4AA1C"/>
<path d="M72.781 34.4501C73.0937 34.4501 73.3471 34.2155 73.3471 33.9261C73.3471 33.6367 73.0937 33.4021 72.781 33.4021C72.4684 33.4021 72.215 33.6367 72.215 33.9261C72.215 34.2155 72.4684 34.4501 72.781 34.4501Z" fill="#F4AA1C"/>
<path d="M81.0153 26.4652C81.3279 26.4652 81.5814 26.2306 81.5814 25.9412C81.5814 25.6518 81.3279 25.4172 81.0153 25.4172C80.7027 25.4172 80.4493 25.6518 80.4493 25.9412C80.4493 26.2306 80.7027 26.4652 81.0153 26.4652Z" fill="#F4AA1C"/>
<path d="M78.1717 29.3595C78.1987 29.2846 78.1717 29.1973 78.1043 29.1474L77.6731 28.8355L77.8618 28.3614C77.8887 28.2865 77.8618 28.1992 77.7944 28.1493C77.727 28.0994 77.6192 28.0994 77.5518 28.1493L77.1071 28.4362L76.6758 28.1243C76.6084 28.0744 76.5006 28.0744 76.4332 28.1243C76.3524 28.1742 76.3254 28.2616 76.3524 28.3364L76.5006 28.823L76.0559 29.1099C75.975 29.1598 75.9481 29.2472 75.975 29.322C76.002 29.3969 76.0828 29.4593 76.1637 29.4593H76.7162L76.8645 29.9583C76.8914 30.0332 76.9723 30.0955 77.0532 30.0955C77.1475 30.0955 77.2149 30.0456 77.2418 29.9708L77.4305 29.4967H77.9831C78.0774 29.5092 78.1583 29.4593 78.1852 29.3844L78.1717 29.3595Z" fill="#F4AA1C"/>
<path d="M79.5059 36.1464L79.1555 35.9593L79.2364 35.5975C79.2499 35.5226 79.2229 35.4353 79.142 35.3979C79.0747 35.3604 78.9803 35.3604 78.9129 35.4228L78.6164 35.6723L78.266 35.4852C78.1987 35.4478 78.1043 35.4478 78.0369 35.5101C77.9696 35.56 77.9561 35.6474 77.983 35.7222L78.1448 36.0591L77.8483 36.3086C77.8483 36.3086 77.7674 36.4458 77.7944 36.5207C77.8348 36.5955 77.9157 36.633 77.9965 36.633L78.4008 36.5955L78.5625 36.9324C78.5895 36.9948 78.6704 37.0447 78.7377 37.0447C78.7377 37.0447 78.7377 37.0447 78.7512 37.0447C78.8321 37.0447 78.8995 36.9823 78.9264 36.9074L79.0073 36.5456L79.4116 36.5082C79.4924 36.5082 79.5598 36.4458 79.5868 36.371C79.6002 36.2961 79.5733 36.2088 79.4924 36.1714L79.5059 36.1464Z" fill="#F4AA1C"/>
<path d="M85.4761 29.0102L85.2335 28.873L85.2874 28.611C85.3009 28.5361 85.274 28.4613 85.1931 28.4239C85.1257 28.3864 85.0314 28.3989 84.9775 28.4488L84.7618 28.6235L84.5193 28.4862C84.4519 28.4488 84.3576 28.4613 84.3036 28.5112C84.2497 28.5611 84.2228 28.6484 84.2632 28.7108L84.3845 28.9478L84.1689 29.1225C84.1689 29.1225 84.088 29.2597 84.1284 29.3221C84.1554 29.397 84.2363 29.4344 84.3171 29.4219L84.6001 29.397L84.7214 29.634C84.7484 29.6964 84.8158 29.7338 84.8966 29.7338C84.8966 29.7338 84.8966 29.7338 84.9101 29.7338C84.991 29.7338 85.0583 29.6714 85.0718 29.5966L85.1257 29.3346L85.4087 29.3096C85.4896 29.3096 85.557 29.2473 85.5705 29.1724C85.5839 29.0976 85.557 29.0227 85.4761 28.9853V29.0102Z" fill="#F4AA1C"/>
<path d="M90.2604 34.7241L90.1256 34.6742V34.537C90.1391 34.4621 90.0987 34.3997 90.0313 34.3748C89.9639 34.3498 89.8696 34.3748 89.8291 34.4247L89.7348 34.537L89.6 34.4871C89.5326 34.4621 89.4518 34.4871 89.3979 34.537C89.344 34.5869 89.344 34.6742 89.3844 34.7366L89.4653 34.8613L89.3709 34.9736C89.3709 34.9736 89.317 35.1109 89.3574 35.1732C89.3979 35.2356 89.4787 35.2606 89.5461 35.2481L89.6944 35.2107L89.7752 35.3354C89.7752 35.3354 89.8696 35.4103 89.9235 35.4103C89.9369 35.4103 89.9504 35.4103 89.9639 35.4103C90.0448 35.3978 90.0987 35.3354 90.0987 35.2606V35.1233L90.2604 35.0859C90.3412 35.0734 90.3951 35.011 90.3951 34.9362C90.3951 34.8613 90.3547 34.799 90.2873 34.774L90.2604 34.7241Z" fill="#F4AA1C"/>
<path d="M85.1796 33.7884L84.8427 33.6637L84.8697 33.3268C84.8697 33.252 84.8292 33.1771 84.7484 33.1397C84.6675 33.1147 84.5867 33.1397 84.5327 33.1896L84.3036 33.4391L83.9667 33.3143C83.8859 33.2894 83.805 33.3143 83.7511 33.3642C83.6972 33.4266 83.6837 33.5139 83.7376 33.5763L83.9263 33.8633L83.6972 34.1128C83.6972 34.1128 83.6298 34.2625 83.6837 34.3249C83.7241 34.3873 83.8185 34.4247 83.8993 34.4122L84.2497 34.3374L84.4384 34.6243C84.4384 34.6243 84.5327 34.7116 84.6001 34.7116C84.6136 34.7116 84.6271 34.7116 84.6406 34.7116C84.7214 34.6992 84.7888 34.6243 84.7888 34.5494L84.8158 34.2126L85.1662 34.1377C85.247 34.1253 85.3144 34.0504 85.3144 33.9756C85.3144 33.9007 85.274 33.8258 85.1931 33.7884H85.1796Z" fill="#F4AA1C"/>
</g>
<g style="mix-blend-mode:multiply" opacity="0.3">
<path d="M109.485 7.76678V58.2184C109.485 60.8573 107.17 62.9855 104.335 62.9855H8.14952C6.1878 62.9855 4.50194 61.9782 3.61304 60.4885C8.68592 68.4478 112.412 11.8529 107.354 3.90771C108.642 4.77317 109.485 6.17775 109.485 7.76678Z" fill="#F4AA1C"/>
</g>
<path d="M14.1732 56.4545V41.9091H15.105V56.4545H14.1732ZM16.8607 46.5625C16.8076 46.0663 16.5841 45.6799 16.1902 45.4034C15.8001 45.1269 15.2925 44.9886 14.6675 44.9886C14.2281 44.9886 13.8512 45.0549 13.5368 45.1875C13.2224 45.3201 12.9819 45.5 12.8152 45.7273C12.6485 45.9545 12.5633 46.214 12.5595 46.5057C12.5595 46.7481 12.6144 46.9583 12.7243 47.1364C12.8379 47.3144 12.9913 47.4659 13.1845 47.5909C13.3777 47.7121 13.5917 47.8144 13.8266 47.8977C14.0614 47.9811 14.2982 48.0511 14.5368 48.108L15.6277 48.3807C16.0671 48.483 16.4894 48.6212 16.8948 48.7955C17.3038 48.9697 17.6694 49.1894 17.9913 49.4545C18.3171 49.7197 18.5747 50.0398 18.7641 50.4148C18.9535 50.7898 19.0482 51.2292 19.0482 51.733C19.0482 52.4148 18.8739 53.0152 18.5254 53.5341C18.1769 54.0492 17.6732 54.4527 17.0141 54.7443C16.3588 55.0322 15.5652 55.1761 14.6334 55.1761C13.7281 55.1761 12.9421 55.036 12.2754 54.7557C11.6126 54.4754 11.0936 54.0663 10.7186 53.5284C10.3474 52.9905 10.1466 52.3352 10.1163 51.5625H12.1902C12.2205 51.9678 12.3455 52.3049 12.5652 52.5739C12.7849 52.8428 13.0709 53.0436 13.4232 53.1761C13.7792 53.3087 14.1769 53.375 14.6163 53.375C15.0747 53.375 15.4762 53.3068 15.8209 53.1705C16.1694 53.0303 16.4421 52.8371 16.6391 52.5909C16.836 52.3409 16.9364 52.0492 16.9402 51.7159C16.9364 51.4129 16.8474 51.1629 16.6732 50.9659C16.4989 50.7652 16.2546 50.5985 15.9402 50.4659C15.6296 50.3295 15.266 50.2083 14.8493 50.1023L13.5254 49.7614C12.5671 49.5152 11.8095 49.142 11.2527 48.642C10.6997 48.1383 10.4232 47.4697 10.4232 46.6364C10.4232 45.9508 10.6088 45.3504 10.98 44.8352C11.355 44.3201 11.8644 43.9205 12.5084 43.6364C13.1523 43.3485 13.8815 43.2045 14.6959 43.2045C15.5216 43.2045 16.2451 43.3485 16.8663 43.6364C17.4913 43.9205 17.9819 44.3163 18.3379 44.8239C18.694 45.3277 18.8777 45.9072 18.8891 46.5625H16.8607ZM24.8592 55.1591C24.1017 55.1591 23.4236 55.017 22.8251 54.733C22.2267 54.4451 21.7513 54.0511 21.399 53.5511C21.0505 53.0511 20.8649 52.4792 20.8422 51.8352H22.8876C22.9255 52.3125 23.132 52.7027 23.507 53.0057C23.882 53.3049 24.3327 53.4545 24.8592 53.4545C25.2721 53.4545 25.6395 53.3598 25.9615 53.1705C26.2835 52.9811 26.5373 52.7178 26.7229 52.3807C26.9085 52.0436 26.9994 51.6591 26.9956 51.2273C26.9994 50.7879 26.9066 50.3977 26.7172 50.0568C26.5278 49.7159 26.2683 49.4489 25.9388 49.2557C25.6092 49.0587 25.2305 48.9602 24.8024 48.9602C24.4539 48.9564 24.1111 49.0208 23.774 49.1534C23.4369 49.286 23.1698 49.4602 22.9729 49.6761L21.0695 49.3636L21.6774 43.3636H28.4274V45.125H23.4217L23.0865 48.2102H23.1547C23.3706 47.9564 23.6755 47.7462 24.0695 47.5795C24.4634 47.4091 24.8952 47.3239 25.3649 47.3239C26.0695 47.3239 26.6983 47.4905 27.2513 47.8239C27.8043 48.1534 28.2399 48.608 28.5581 49.1875C28.8763 49.767 29.0354 50.4299 29.0354 51.1761C29.0354 51.9451 28.8573 52.6307 28.5013 53.233C28.149 53.8314 27.6585 54.303 27.0297 54.6477C26.4047 54.9886 25.6812 55.1591 24.8592 55.1591ZM35.2399 55.2216C34.3043 55.2216 33.5013 54.9848 32.8308 54.5114C32.1642 54.0341 31.6509 53.3466 31.2911 52.4489C30.935 51.5473 30.757 50.4621 30.757 49.1932C30.7608 47.9242 30.9407 46.8447 31.2967 45.9545C31.6566 45.0606 32.1698 44.3788 32.8365 43.9091C33.507 43.4394 34.3081 43.2045 35.2399 43.2045C36.1717 43.2045 36.9729 43.4394 37.6433 43.9091C38.3138 44.3788 38.827 45.0606 39.1831 45.9545C39.543 46.8485 39.7229 47.928 39.7229 49.1932C39.7229 50.4659 39.543 51.553 39.1831 52.4545C38.827 53.3523 38.3138 54.0379 37.6433 54.5114C36.9767 54.9848 36.1755 55.2216 35.2399 55.2216ZM35.2399 53.4432C35.9672 53.4432 36.5411 53.0852 36.9615 52.3693C37.3858 51.6496 37.5979 50.5909 37.5979 49.1932C37.5979 48.2689 37.5013 47.4924 37.3081 46.8636C37.1149 46.2348 36.8422 45.7614 36.4899 45.4432C36.1376 45.1212 35.721 44.9602 35.2399 44.9602C34.5164 44.9602 33.9445 45.3201 33.524 46.0398C33.1036 46.7557 32.8914 47.8068 32.8876 49.1932C32.8839 50.1212 32.9767 50.9015 33.1661 51.5341C33.3592 52.1667 33.632 52.6439 33.9842 52.9659C34.3365 53.2841 34.7551 53.4432 35.2399 53.4432ZM45.9118 55.2216C44.9762 55.2216 44.1732 54.9848 43.5027 54.5114C42.836 54.0341 42.3228 53.3466 41.9629 52.4489C41.6069 51.5473 41.4288 50.4621 41.4288 49.1932C41.4326 47.9242 41.6126 46.8447 41.9686 45.9545C42.3285 45.0606 42.8417 44.3788 43.5084 43.9091C44.1788 43.4394 44.98 43.2045 45.9118 43.2045C46.8436 43.2045 47.6448 43.4394 48.3152 43.9091C48.9857 44.3788 49.4989 45.0606 49.855 45.9545C50.2148 46.8485 50.3948 47.928 50.3948 49.1932C50.3948 50.4659 50.2148 51.553 49.855 52.4545C49.4989 53.3523 48.9857 54.0379 48.3152 54.5114C47.6485 54.9848 46.8474 55.2216 45.9118 55.2216ZM45.9118 53.4432C46.6391 53.4432 47.2129 53.0852 47.6334 52.3693C48.0576 51.6496 48.2698 50.5909 48.2698 49.1932C48.2698 48.2689 48.1732 47.4924 47.98 46.8636C47.7868 46.2348 47.5141 45.7614 47.1618 45.4432C46.8095 45.1212 46.3929 44.9602 45.9118 44.9602C45.1883 44.9602 44.6163 45.3201 44.1959 46.0398C43.7754 46.7557 43.5633 47.8068 43.5595 49.1932C43.5557 50.1212 43.6485 50.9015 43.8379 51.5341C44.0311 52.1667 44.3038 52.6439 44.6561 52.9659C45.0084 53.2841 45.4269 53.4432 45.9118 53.4432Z" fill="white"/>
</svg>
