<svg width="124" height="80" viewBox="0 0 124 80" fill="none" xmlns="http://www.w3.org/2000/svg">
<path d="M86.0773 21.1011H47.4062V50.4822H86.0773V21.1011Z" fill="#DC0003"/>
<path d="M89.7988 8.82617H44.4308V21.1009H89.7988V8.82617Z" fill="white"/>
<path d="M89.7988 8.82617H44.4308V15.8871H89.7988V8.82617Z" fill="#FBCE81"/>
<path d="M67.4788 8.82617H65.6225V50.4729H67.4788V8.82617Z" fill="white"/>
<path d="M81.2184 1.34667C80.0264 0.473155 78.5523 0 77.0783 0C76.5596 0 76.0501 0.0545948 75.5496 0.172883C73.5205 0.636939 72.1011 2.0564 70.8545 3.31208C70.7453 3.43037 70.627 3.53956 70.5178 3.64875C69.3532 4.80434 68.1612 5.95083 66.9965 7.05182C66.9146 7.12462 66.8418 7.19741 66.7599 7.2793C66.678 7.20651 66.6052 7.13371 66.5233 7.05182C65.3678 5.94173 64.1667 4.80434 63.002 3.64875C62.8928 3.53956 62.7745 3.42127 62.6653 3.31208C61.4188 2.0564 60.0084 0.636939 57.9702 0.172883C57.4698 0.0636939 56.9602 0 56.4416 0C54.9584 0 53.4935 0.482254 52.3015 1.34667C49.1805 3.62145 48.5072 8.02543 50.8001 11.1555C52.1104 12.9572 54.2214 13.9854 56.569 13.9854C57.8974 13.9854 59.235 13.6578 60.4543 13.0481L60.5726 12.9936C61.1185 12.7115 61.6917 12.4385 62.2377 12.1746C62.8655 11.8744 63.5116 11.5559 64.1485 11.2374C64.5761 11.019 64.9856 10.7643 65.3951 10.5277C65.8773 10.2365 66.3323 9.96354 66.769 9.75426C67.2149 9.96354 67.6698 10.2365 68.1521 10.5277C68.5524 10.7734 68.971 11.019 69.3987 11.2465C70.0356 11.5741 70.6816 11.8835 71.3095 12.1928C71.8554 12.4567 72.4286 12.7388 72.9746 13.0117L73.0929 13.0845C74.3031 13.6942 75.6406 14.04 76.9691 14.04C79.3257 14.04 81.4276 12.9936 82.7379 11.1919C85.0218 8.06182 84.3484 3.63965 81.2366 1.36487L81.2184 1.34667ZM63.2022 9.42669C62.5925 9.74516 61.9556 10.0454 61.346 10.3457C60.7909 10.6187 60.2086 10.8917 59.6444 11.1828L59.5262 11.2465C58.598 11.7197 57.579 11.9653 56.569 11.9653C54.8492 11.9653 53.3752 11.2556 52.438 9.97264C50.8092 7.74336 51.2915 4.62236 53.5026 3.00271C54.3488 2.38397 55.3952 2.0473 56.4507 2.0473C56.8146 2.0473 57.1786 2.0837 57.5335 2.16559C58.9893 2.49316 60.0812 3.59415 61.2368 4.74974C61.3551 4.86803 61.4643 4.98632 61.5825 5.09551C62.7108 6.2238 63.8664 7.3248 64.9947 8.39849C64.7763 8.52588 64.5579 8.65327 64.3396 8.78975C63.9483 9.02633 63.5843 9.24471 63.2204 9.43579L63.2022 9.42669ZM81.0728 9.97264C80.1356 11.2556 78.6615 11.9835 76.9418 11.9835C75.9318 11.9835 74.9127 11.7197 73.9755 11.2465L73.8663 11.1737C73.3022 10.8826 72.7198 10.6096 72.1648 10.3366C71.5551 10.0363 70.9182 9.73606 70.3086 9.41759C69.9446 9.22651 69.5806 9.00813 69.1894 8.77156C68.971 8.64417 68.7617 8.50768 68.5342 8.38029C69.6534 7.3066 70.8181 6.2056 71.9464 5.07731C72.0647 4.95902 72.1739 4.84983 72.2922 4.73154C73.4477 3.56686 74.5396 2.47496 75.9955 2.14739C76.3503 2.0655 76.7143 2.0291 77.0783 2.0291C78.1338 2.0291 79.1802 2.37487 80.0264 2.99361C82.2374 4.60416 82.7106 7.74336 81.091 9.97264H81.0728Z" fill="#F4AA1C"/>
<path d="M83.4749 48.2436H69.5624L83.4749 34.1582V48.2436Z" fill="#9F1F24"/>
<path d="M81.7916 23.5125C73.0201 23.5125 65.9137 30.6189 65.9137 39.3904V63.6669H97.6786V39.3904C97.6786 30.6189 90.5722 23.5125 81.8007 23.5125H81.7916Z" fill="#D1D4D5"/>
<path d="M74.1484 38.3805L72.2649 37.2886L74.0301 36.2695C74.1848 36.1785 74.2394 35.9784 74.1484 35.8146C74.0574 35.6599 73.8572 35.6053 73.6934 35.6963L71.9282 36.7154V34.5407C71.9282 34.3587 71.7826 34.2131 71.6006 34.2131C71.4187 34.2131 71.2731 34.3587 71.2731 34.5407V36.7154L69.5079 35.6963C69.3532 35.6053 69.1439 35.6599 69.0529 35.8146C68.9619 35.9693 69.0165 36.1785 69.1712 36.2695L70.9364 37.2886L69.0529 38.3805C68.8982 38.4715 68.8436 38.6717 68.9346 38.8355C68.9983 38.9447 69.1075 38.9993 69.2167 38.9993C69.2713 38.9993 69.3259 38.9811 69.3805 38.9538L71.264 37.8619V39.9001C71.264 40.0821 71.4096 40.2277 71.5915 40.2277C71.7735 40.2277 71.9191 40.0821 71.9191 39.9001V37.8619L73.8026 38.9538C73.8572 38.9811 73.9118 38.9993 73.9664 38.9993C74.0847 38.9993 74.1939 38.9356 74.2485 38.8355C74.3395 38.6808 74.2849 38.4715 74.1302 38.3805H74.1484Z" fill="white"/>
<path d="M81.2275 31.0922L79.344 30.0003L81.1092 28.9812C81.2639 28.8902 81.3185 28.69 81.2275 28.5263C81.1365 28.3716 80.9363 28.317 80.7725 28.408L79.0073 29.4271V27.2524C79.0073 27.0704 78.8617 26.9248 78.6797 26.9248C78.4977 26.9248 78.3522 27.0704 78.3522 27.2524V29.4271L76.5869 28.408C76.4323 28.317 76.2321 28.3716 76.132 28.5263C76.041 28.6809 76.0956 28.8902 76.2503 28.9812L78.0155 30.0003L76.132 31.0922C75.9773 31.1832 75.9227 31.3834 76.0137 31.5472C76.0774 31.6563 76.1866 31.7109 76.2958 31.7109C76.3504 31.7109 76.405 31.6927 76.4596 31.6654L78.3431 30.5736V32.6118C78.3431 32.7937 78.4886 32.9393 78.6706 32.9393C78.8526 32.9393 78.9982 32.7937 78.9982 32.6118V30.5736L80.8817 31.6654C80.9363 31.6927 80.9909 31.7109 81.0455 31.7109C81.1638 31.7109 81.273 31.6472 81.3276 31.5472C81.4185 31.3925 81.364 31.1832 81.2093 31.0922H81.2275Z" fill="white"/>
<path d="M91.0817 35.933L89.1982 34.8411L90.9635 33.822C91.1181 33.731 91.1727 33.5309 91.0817 33.3671C90.9908 33.2124 90.7906 33.1578 90.6268 33.2488L88.8616 34.2679V32.0932C88.8616 31.9112 88.716 31.7656 88.534 31.7656C88.352 31.7656 88.2064 31.9112 88.2064 32.0932V34.2679L86.4412 33.2488C86.2865 33.1578 86.0773 33.2124 85.9863 33.3671C85.8953 33.5218 85.9499 33.731 86.1045 33.822L87.8698 34.8411L85.9863 35.933C85.8316 36.024 85.777 36.2242 85.868 36.388C85.9317 36.4972 86.0409 36.5518 86.15 36.5518C86.2046 36.5518 86.2592 36.5336 86.3138 36.5063L88.1973 35.4144V37.4526C88.1973 37.6346 88.3429 37.7801 88.5249 37.7801C88.7069 37.7801 88.8525 37.6346 88.8525 37.4526V35.4144L90.736 36.5063C90.7906 36.5336 90.8452 36.5518 90.8998 36.5518C91.0181 36.5518 91.1272 36.4881 91.1818 36.388C91.2728 36.2333 91.2182 36.024 91.0635 35.933H91.0817Z" fill="white"/>
<path d="M95.6677 46.1239L93.7842 45.032L95.5494 44.0129C95.7041 43.922 95.7587 43.7218 95.6677 43.558C95.5767 43.4033 95.3765 43.3487 95.2127 43.4397L93.4475 44.4588V42.2841C93.4475 42.1021 93.3019 41.9565 93.12 41.9565C92.938 41.9565 92.7924 42.1021 92.7924 42.2841V44.4588L91.0272 43.4397C90.8725 43.3487 90.6723 43.4033 90.5722 43.558C90.4812 43.7127 90.5358 43.922 90.6905 44.0129L92.4557 45.032L90.5722 46.1239C90.4175 46.2149 90.3629 46.4151 90.4539 46.5789C90.5176 46.6881 90.6268 46.7427 90.736 46.7427C90.7906 46.7427 90.8452 46.7245 90.8998 46.6972L92.7833 45.6053V47.6435C92.7833 47.8255 92.9289 47.9711 93.1109 47.9711C93.2928 47.9711 93.4384 47.8255 93.4384 47.6435V45.6053L95.3219 46.6972C95.3765 46.7245 95.4311 46.7427 95.4857 46.7427C95.604 46.7427 95.7132 46.679 95.7678 46.5789C95.8588 46.4242 95.8042 46.2149 95.6495 46.1239H95.6677Z" fill="white"/>
<path d="M91.8461 57.8434L86.6596 51.4467H90.6905L85.4949 45.0409H89.4803L81.8007 35.5869L74.1029 45.0591H78.0974L72.8836 51.474L76.9327 51.4649L71.728 57.8707L91.8461 57.8434Z" fill="#006539"/>
<path d="M82.2374 57.8525L71.728 57.8707L76.9327 51.4649L72.8836 51.474L78.0974 45.0591H74.1029L81.8007 35.5869L82.2374 57.8525Z" fill="#004B2C"/>
<path d="M83.8116 56.2969H80.2721V61.4652H83.8116V56.2969Z" fill="#57585B"/>
<path d="M83.3111 44.9227C84.1705 44.9227 84.8671 44.2261 84.8671 43.3667C84.8671 42.5074 84.1705 41.8108 83.3111 41.8108C82.4518 41.8108 81.7552 42.5074 81.7552 43.3667C81.7552 44.2261 82.4518 44.9227 83.3111 44.9227Z" fill="#DC0003"/>
<path d="M78.525 50.7188C79.3843 50.7188 80.081 50.0222 80.081 49.1629C80.081 48.3036 79.3843 47.6069 78.525 47.6069C77.6657 47.6069 76.9691 48.3036 76.9691 49.1629C76.9691 50.0222 77.6657 50.7188 78.525 50.7188Z" fill="#DC0003"/>
<path d="M101.527 65.0592C101.527 67.0701 99.8987 68.7079 97.8788 68.7079H65.6953C63.6844 68.7079 62.0466 67.0792 62.0466 65.0592C62.0466 63.0482 63.6753 61.4104 65.6953 61.4104H97.8788C99.8896 61.4104 101.527 63.0391 101.527 65.0592Z" fill="#F4AA1C"/>
<path d="M62.0466 65.0593C62.0466 67.0702 63.6753 68.7081 65.6953 68.7081H97.8788C99.8896 68.7081 101.527 67.0793 101.527 65.0593H62.0466Z" fill="#FBCE81"/>
<path d="M118.98 58.636C107.597 58.2629 109.171 71.8661 109.171 71.8661L112.519 70.5649C117.324 68.6905 118.188 65.6332 118.98 58.636Z" fill="#9F1F24"/>
<path d="M103.884 27.2349L100.008 55.3967L84.4667 61.4476C79.6624 63.322 77.2876 68.7269 79.1529 73.5403C81.0273 78.3447 86.4321 80.7195 91.2456 78.8542L109.18 71.8661C109.18 71.8661 107.606 58.2629 118.989 58.6359L122.947 29.8645L103.884 27.2349Z" fill="#DC0003"/>
<path d="M102.836 25.9057L101.669 34.3789L122.663 37.2696L123.829 28.7964L102.836 25.9057Z" fill="white"/>
<path d="M119.535 43.5957L118.343 43.4319C117.806 43.3591 117.424 42.9133 117.505 42.3764C117.587 41.8396 118.07 41.512 118.597 41.5848L119.789 41.7486C120.326 41.8214 120.708 42.2672 120.626 42.8041C120.545 43.3409 120.062 43.6685 119.535 43.5957Z" fill="white"/>
<path d="M115.067 42.9861L113.129 42.7223C112.592 42.6495 112.21 42.2036 112.292 41.6668C112.374 41.1299 112.856 40.8024 113.384 40.8751L115.322 41.139C115.859 41.2118 116.241 41.6577 116.159 42.1945C116.077 42.7314 115.595 43.0589 115.067 42.9861ZM109.853 42.2673L107.915 42.0034C107.378 41.9306 106.996 41.4848 107.078 40.9479C107.16 40.4111 107.642 40.0835 108.17 40.1563L110.108 40.4202C110.645 40.493 111.027 40.9388 110.945 41.4757C110.863 42.0125 110.381 42.3401 109.853 42.2673Z" fill="white"/>
<path d="M104.348 41.5029L103.156 41.3391C102.619 41.2663 102.237 40.8205 102.319 40.2836C102.401 39.7468 102.883 39.4192 103.411 39.492L104.603 39.6558C105.14 39.7286 105.522 40.1744 105.44 40.7113C105.358 41.2481 104.876 41.5757 104.348 41.5029Z" fill="white"/>
<path d="M118.525 48.7181L116.141 48.3905C115.604 48.3177 115.222 47.8718 115.304 47.335C115.385 46.7981 115.868 46.4706 116.395 46.5434L118.779 46.8709C119.316 46.9437 119.698 47.3896 119.616 47.9264C119.535 48.4633 119.052 48.7909 118.525 48.7181ZM112.128 47.8354L109.744 47.5079C109.207 47.4351 108.825 46.9892 108.907 46.4524C108.989 45.9155 109.471 45.588 109.999 45.6608L112.383 45.9883C112.92 46.0611 113.302 46.507 113.22 47.0438C113.138 47.5807 112.656 47.9082 112.128 47.8354ZM105.722 46.9528L103.338 46.6253C102.801 46.5525 102.419 46.1066 102.501 45.5698C102.583 45.0329 103.065 44.7053 103.593 44.7781L105.977 45.1057C106.514 45.1785 106.896 45.6244 106.814 46.1612C106.732 46.6981 106.25 47.0256 105.722 46.9528Z" fill="#FBCE81"/>
<path d="M91.2456 78.8546C86.4413 80.729 81.0273 78.3451 79.1529 73.5407C77.2785 68.7364 79.6624 63.3224 84.4668 61.448L91.2456 78.8455V78.8546Z" fill="#9F1F24"/>
<path d="M22.2473 29.5173C22.2473 35.2589 26.8969 39.9085 32.6384 39.9085C38.3799 39.9085 43.0295 35.2589 43.0295 29.5173H22.2473Z" fill="white"/>
<path d="M36.7876 31.3374H25.4774C25.4774 34.8224 28.2982 37.6431 31.7831 37.6431L36.7876 31.3374Z" fill="white"/>
<path d="M64.4761 29.5173C64.4761 35.2589 59.8265 39.9085 54.085 39.9085C48.3434 39.9085 43.6938 35.2589 43.6938 29.5173H64.4761Z" fill="white"/>
<path d="M49.9357 31.3374H61.2459C61.2459 34.8224 58.4252 37.6431 54.9402 37.6431L49.9357 31.3374Z" fill="white"/>
<path d="M43.2479 27.625C36.8058 27.625 31.5829 32.8479 31.5829 39.2901V53.9397C31.5829 55.805 33.1024 57.3245 34.9677 57.3245C36.1051 57.3245 37.1151 56.7604 37.7248 55.896C38.3344 56.7604 39.3444 57.3245 40.4818 57.3245C41.6192 57.3245 42.6292 56.7604 43.2388 55.896C43.8484 56.7604 44.8584 57.3245 45.9958 57.3245C47.1332 57.3245 48.1432 56.7604 48.7528 55.896C49.3625 56.7604 50.3725 57.3245 51.5099 57.3245C53.3752 57.3245 54.8947 55.805 54.8947 53.9397V39.2901C54.8947 32.8479 49.6719 27.625 43.2297 27.625H43.2479Z" fill="#D1D4D5"/>
<path d="M43.2479 19.1353C41.4645 21.5192 38.6256 23.057 35.4227 23.057C34.7585 23.057 34.1215 22.9933 33.4937 22.8659C33.6484 28.1252 37.9523 32.3381 43.2479 32.3381C48.5436 32.3381 52.8475 28.1252 53.0021 22.8659C52.3743 22.9933 51.7374 23.057 51.0731 23.057C47.8703 23.057 45.0313 21.5192 43.2479 19.1353Z" fill="#FBCE81"/>
<path d="M43.2479 12.8296C37.8613 12.8296 33.4937 17.1972 33.4937 22.5839C33.4937 22.6748 33.4937 22.7749 33.4937 22.8659C34.1215 22.9933 34.7585 23.057 35.4227 23.057C38.6256 23.057 41.4645 21.5193 43.2479 19.1353C45.0313 21.5193 47.8703 23.057 51.0731 23.057C51.7374 23.057 52.3743 22.9933 53.0021 22.8659C53.0021 22.7749 53.0021 22.6748 53.0021 22.5839C53.0021 17.1972 48.6346 12.8296 43.2479 12.8296Z" fill="#F4AA1C"/>
<path d="M40.9095 24.1124C40.9095 24.6947 40.4363 25.1679 39.854 25.1679C39.2716 25.1679 38.7985 24.6947 38.7985 24.1124C38.7985 23.53 39.2716 23.0569 39.854 23.0569C40.4363 23.0569 40.9095 23.53 40.9095 24.1124Z" fill="#57585B"/>
<path d="M47.6974 24.1126C47.6974 24.695 47.2242 25.1681 46.6419 25.1681C46.0595 25.1681 45.5864 24.695 45.5864 24.1126C45.5864 23.5303 46.0595 23.0571 46.6419 23.0571C47.2242 23.0571 47.6974 23.5303 47.6974 24.1126Z" fill="#57585B"/>
<path d="M40.9004 26.3604C40.9004 27.6615 41.9559 28.7079 43.2479 28.7079C44.54 28.7079 45.5955 27.6524 45.5955 26.3604H40.8913H40.9004Z" fill="#9F1F24"/>
<path d="M36.5055 54.0944C36.5055 54.9224 35.8322 55.5957 35.0042 55.5957C34.1761 55.5957 33.5028 54.9224 33.5028 54.0944C33.5028 53.2664 34.1761 52.593 35.0042 52.593C35.8322 52.593 36.5055 53.2664 36.5055 54.0944Z" fill="white"/>
<path d="M42.0377 54.0944C42.0377 54.9224 41.3644 55.5957 40.5364 55.5957C39.7084 55.5957 39.035 54.9224 39.035 54.0944C39.035 53.2664 39.7084 52.593 40.5364 52.593C41.3644 52.593 42.0377 53.2664 42.0377 54.0944Z" fill="white"/>
<path d="M47.5791 54.0944C47.5791 54.9224 46.9057 55.5957 46.0777 55.5957C45.2497 55.5957 44.5764 54.9224 44.5764 54.0944C44.5764 53.2664 45.2497 52.593 46.0777 52.593C46.9057 52.593 47.5791 53.2664 47.5791 54.0944Z" fill="white"/>
<path d="M53.1113 54.0944C53.1113 54.9224 52.438 55.5957 51.61 55.5957C50.782 55.5957 50.1086 54.9224 50.1086 54.0944C50.1086 53.2664 50.782 52.593 51.61 52.593C52.438 52.593 53.1113 53.2664 53.1113 54.0944Z" fill="white"/>
<path d="M29.0079 19.7632L27.097 18.6622L28.8896 17.634C29.0533 17.543 29.1079 17.3337 29.0079 17.179C28.9169 17.0153 28.7076 16.9607 28.5529 17.0607L26.7604 18.0889V15.887C26.7604 15.705 26.6148 15.5503 26.4237 15.5503C26.2326 15.5503 26.087 15.6959 26.087 15.887V18.0889L24.2945 17.0607C24.1307 16.9698 23.9306 17.0244 23.8396 17.179C23.7486 17.3428 23.8032 17.543 23.9579 17.634L25.7504 18.6622L23.8396 19.7632C23.6758 19.8542 23.6212 20.0635 23.7213 20.2181C23.785 20.3273 23.8942 20.3819 24.0125 20.3819C24.0671 20.3819 24.1307 20.3637 24.1762 20.3364L26.087 19.2354V21.3009C26.087 21.4829 26.2326 21.6376 26.4237 21.6376C26.6148 21.6376 26.7604 21.492 26.7604 21.3009V19.2354L28.6712 20.3364C28.7258 20.3637 28.7804 20.3819 28.835 20.3819C28.9533 20.3819 29.0624 20.3182 29.1261 20.2181C29.2171 20.0544 29.1625 19.8542 29.0079 19.7632Z" fill="#FBCE81"/>
<path d="M65.2222 26.3696L63.3114 25.2686L65.1039 24.2404C65.2677 24.1494 65.3223 23.9402 65.2222 23.7855C65.1312 23.6217 64.9219 23.5671 64.7673 23.6672L62.9747 24.6954V22.4934C62.9747 22.3114 62.8291 22.1567 62.6381 22.1567C62.447 22.1567 62.3014 22.3023 62.3014 22.4934V24.6954L60.5089 23.6672C60.3451 23.5762 60.1449 23.6308 60.0539 23.7855C59.9629 23.9493 60.0175 24.1494 60.1722 24.2404L61.9647 25.2686L60.0539 26.3696C59.8901 26.4606 59.8356 26.6699 59.9356 26.8246C59.9993 26.9338 60.1085 26.9884 60.2268 26.9884C60.2814 26.9884 60.3451 26.9702 60.3906 26.9429L62.3014 25.8419V27.9074C62.3014 28.0894 62.447 28.2441 62.6381 28.2441C62.8291 28.2441 62.9747 28.0985 62.9747 27.9074V25.8419L64.8855 26.9429C64.9401 26.9702 64.9947 26.9884 65.0493 26.9884C65.1676 26.9884 65.2768 26.9247 65.3405 26.8246C65.4315 26.6608 65.3769 26.4606 65.2222 26.3696Z" fill="#FBCE81"/>
<path d="M24.8314 46.033L22.9206 44.932L24.7131 43.9038C24.8769 43.8128 24.9315 43.6035 24.8314 43.4488C24.7404 43.285 24.5311 43.2304 24.3764 43.3305L22.5839 44.3587V42.1567C22.5839 41.9748 22.4383 41.8201 22.2472 41.8201C22.0561 41.8201 21.9106 41.9657 21.9106 42.1567V44.3587L20.118 43.3305C19.9543 43.2395 19.7541 43.2941 19.6631 43.4488C19.5721 43.6126 19.6267 43.8128 19.7814 43.9038L21.5739 44.932L19.6631 46.033C19.4993 46.124 19.4447 46.3332 19.5448 46.4879C19.6085 46.5971 19.7177 46.6517 19.836 46.6517C19.8906 46.6517 19.9543 46.6335 19.9998 46.6062L21.9106 45.5052V47.5707C21.9106 47.7527 22.0561 47.9074 22.2472 47.9074C22.4383 47.9074 22.5839 47.7618 22.5839 47.5707V45.5052L24.4947 46.6062C24.5493 46.6335 24.6039 46.6517 24.6585 46.6517C24.7768 46.6517 24.886 46.588 24.9497 46.4879C25.0406 46.3241 24.9861 46.124 24.8314 46.033Z" fill="#FBCE81"/>
<path d="M17.5612 29.6816H0.828003V70.6732H17.5612V29.6816Z" fill="#DC0003"/>
<path d="M9.40845 26.2242C11.7553 26.2242 13.6577 23.1281 13.6577 19.3089C13.6577 15.4897 11.7553 12.3936 9.40845 12.3936C7.06164 12.3936 5.15918 15.4897 5.15918 19.3089C5.15918 23.1281 7.06164 26.2242 9.40845 26.2242Z" fill="#FBCE81"/>
<path d="M9.40848 12.3936V26.2242C11.756 26.2242 13.6577 23.1305 13.6577 19.3089C13.6577 15.4873 11.756 12.3936 9.40848 12.3936Z" fill="#F4AA1C"/>
<path d="M9.40847 29.0176C9.0991 29.0176 8.85342 28.772 8.85342 28.4626V20.2643C8.85342 19.9549 9.0991 19.7092 9.40847 19.7092C9.71784 19.7092 9.96351 19.9549 9.96351 20.2643V28.4626C9.96351 28.772 9.71784 29.0176 9.40847 29.0176Z" fill="#57585B"/>
<path d="M14.7132 32.7209H0V35.6691H14.7132V32.7209Z" fill="#9F1F24"/>
<path d="M14.7132 40.446H0V43.3942H14.7132V40.446Z" fill="#9F1F24"/>
<path d="M14.7132 48.1624H0V51.1105H14.7132V48.1624Z" fill="#9F1F24"/>
<path d="M14.7132 55.8782H0V58.8263H14.7132V55.8782Z" fill="#9F1F24"/>
<path d="M14.7132 63.5942H0V66.5424H14.7132V63.5942Z" fill="#9F1F24"/>
<path d="M34.4582 46.7064C36.805 46.7064 38.7075 43.6103 38.7075 39.7911C38.7075 35.9718 36.805 32.8757 34.4582 32.8757C32.1114 32.8757 30.2089 35.9718 30.2089 39.7911C30.2089 43.6103 32.1114 46.7064 34.4582 46.7064Z" fill="#FBCE81"/>
<path d="M34.4582 32.876V46.7066C36.8058 46.7066 38.7075 43.6129 38.7075 39.7913C38.7075 35.9697 36.8058 32.876 34.4582 32.876Z" fill="#F4AA1C"/>
<path d="M34.4582 49.5091C34.1488 49.5091 33.9031 49.2634 33.9031 48.954V40.7557C33.9031 40.4464 34.1488 40.2007 34.4582 40.2007C34.7676 40.2007 35.0132 40.4464 35.0132 40.7557V48.954C35.0132 49.2634 34.7676 49.5091 34.4582 49.5091Z" fill="#57585B"/>
<path d="M45.8412 50.51L25.6776 70.6737H34.2944L45.8412 59.1269V50.51Z" fill="#DC0003"/>
<path d="M23.0844 50.1824V59.4089L32.3199 50.1824H23.0844Z" fill="#DC0003"/>
<path d="M35.1224 50.1824L35.1861 50.237L23.0844 62.3388V70.3369L43.2388 50.1824H35.1224Z" fill="#DC0003"/>
<path d="M45.8411 62.0569L37.2243 70.6738H45.8411V62.0569Z" fill="#DC0003"/>
<path d="M35.1224 50.1824H32.3199L23.0844 59.4089V62.3388L35.1861 50.237L35.1224 50.1824Z" fill="white"/>
<path d="M45.8412 59.127L34.2944 70.6737H37.2243L45.8412 62.0569V59.127Z" fill="white"/>
<path d="M45.8411 50.1824H43.2388L23.0844 70.3369V70.6736H25.6776L45.8411 50.5099V50.1824Z" fill="white"/>
<path d="M63.6663 58.9716L59.5262 53.0844C56.1322 48.2619 49.4808 47.1063 44.6583 50.4912C39.8358 53.8761 38.6802 60.5366 42.0651 65.3592L46.2051 71.2463C45.0223 72.5748 44.8585 74.5948 45.9322 76.1143C47.1787 77.8887 49.6355 78.3163 51.4098 77.0697L67.3969 65.8323C69.1712 64.5857 69.5989 62.129 68.3523 60.3546C67.2786 58.8351 65.3314 58.3073 63.6754 58.9716H63.6663Z" fill="#FBCE81"/>
<path d="M63.0202 60.4823L60.9911 68.7261L66.2322 65.041C67.4879 64.1584 67.7972 62.4113 66.9055 61.1556C66.0138 59.9 64.2759 59.5906 63.0202 60.4823Z" fill="#F4AA1C"/>
<path d="M57.2332 74.1036C58.2796 75.5959 60.336 75.9507 61.8191 74.9043C63.3023 73.8579 63.6662 71.8015 62.6199 70.3184L57.2332 74.1036Z" fill="#F4AA1C"/>
<path d="M44.6583 50.4913C39.8358 53.8853 38.6802 60.5367 42.0651 65.3593L46.2051 71.2464C45.0223 72.5749 44.8585 74.5949 45.9322 76.1144C47.1787 77.8887 49.6355 78.3164 51.4098 77.0698L59.3988 71.4466L44.6583 50.4822V50.4913Z" fill="#F4AA1C"/>
<path d="M48.1342 52.2202L56.8966 53.7489C54.8948 50.91 50.9731 50.2275 48.1342 52.2202Z" fill="white"/>
<path d="M47.0514 42.1384L43.5573 48.9264L35.9869 49.9273L41.2552 57.4159L44.7584 50.637L52.3288 49.6361L47.0514 42.1384Z" fill="#DC0003"/>
<path d="M44.9403 49.2263L47.4608 44.3401L50.3907 48.5075L44.9403 49.2263Z" fill="#9F1F24"/>
<path d="M63.1078 58.1877L45.6454 70.4651L46.9485 72.3185L64.4109 60.0411L63.1078 58.1877Z" fill="#57585B"/>
</svg>
