<svg width="60" height="60" viewBox="0 0 60 60" fill="none" xmlns="http://www.w3.org/2000/svg">
<rect x="1" y="1" width="58" height="58" rx="7" fill="#001A7D" stroke="white" stroke-width="2"/>
<g clip-path="url(#clip0_5122_1467)">
<path d="M10 11.25C10 10.9185 10.1317 10.6005 10.3661 10.3661C10.6005 10.1317 10.9185 10 11.25 10H18.75C19.0815 10 19.3995 10.1317 19.6339 10.3661C19.8683 10.6005 20 10.9185 20 11.25C20 11.5815 19.8683 11.8995 19.6339 12.1339C19.3995 12.3683 19.0815 12.5 18.75 12.5H12.5V18.75C12.5 19.0815 12.3683 19.3995 12.1339 19.6339C11.8995 19.8683 11.5815 20 11.25 20C10.9185 20 10.6005 19.8683 10.3661 19.6339C10.1317 19.3995 10 19.0815 10 18.75V11.25ZM40 11.25C40 10.9185 40.1317 10.6005 40.3661 10.3661C40.6005 10.1317 40.9185 10 41.25 10H48.75C49.0815 10 49.3995 10.1317 49.6339 10.3661C49.8683 10.6005 50 10.9185 50 11.25V18.75C50 19.0815 49.8683 19.3995 49.6339 19.6339C49.3995 19.8683 49.0815 20 48.75 20C48.4185 20 48.1005 19.8683 47.8661 19.6339C47.6317 19.3995 47.5 19.0815 47.5 18.75V12.5H41.25C40.9185 12.5 40.6005 12.3683 40.3661 12.1339C40.1317 11.8995 40 11.5815 40 11.25ZM11.25 40C11.5815 40 11.8995 40.1317 12.1339 40.3661C12.3683 40.6005 12.5 40.9185 12.5 41.25V47.5H18.75C19.0815 47.5 19.3995 47.6317 19.6339 47.8661C19.8683 48.1005 20 48.4185 20 48.75C20 49.0815 19.8683 49.3995 19.6339 49.6339C19.3995 49.8683 19.0815 50 18.75 50H11.25C10.9185 50 10.6005 49.8683 10.3661 49.6339C10.1317 49.3995 10 49.0815 10 48.75V41.25C10 40.9185 10.1317 40.6005 10.3661 40.3661C10.6005 40.1317 10.9185 40 11.25 40ZM48.75 40C49.0815 40 49.3995 40.1317 49.6339 40.3661C49.8683 40.6005 50 40.9185 50 41.25V48.75C50 49.0815 49.8683 49.3995 49.6339 49.6339C49.3995 49.8683 49.0815 50 48.75 50H41.25C40.9185 50 40.6005 49.8683 40.3661 49.6339C40.1317 49.3995 40 49.0815 40 48.75C40 48.4185 40.1317 48.1005 40.3661 47.8661C40.6005 47.6317 40.9185 47.5 41.25 47.5H47.5V41.25C47.5 40.9185 47.6317 40.6005 47.8661 40.3661C48.1005 40.1317 48.4185 40 48.75 40ZM20 20H22.5V22.5H20V20Z" fill="white"/>
<path d="M27.5 15H15V27.5H27.5V15ZM17.5 17.5H25V25H17.5V17.5ZM22.5 37.5H20V40H22.5V37.5Z" fill="white"/>
<path d="M27.5 32.5H15V45H27.5V32.5ZM17.5 35H25V42.5H17.5V35ZM37.5 20H40V22.5H37.5V20Z" fill="white"/>
<path d="M32.5 15H45V27.5H32.5V15ZM35 17.5V25H42.5V17.5H35ZM30 30V35H32.5V37.5H30V40H35V35H37.5V40H40V37.5H45V35H37.5V30H30ZM35 35H32.5V32.5H35V35ZM45 40H42.5V42.5H37.5V45H45V40ZM35 45V42.5H30V45H35Z" fill="white"/>
<path d="M40 32.5H45V30H40V32.5Z" fill="white"/>
</g>
<defs>
<clipPath id="clip0_5122_1467">
<rect width="40" height="40" fill="white" transform="translate(10 10)"/>
</clipPath>
</defs>
</svg>
