<svg width="40" height="40" viewBox="0 0 40 40" fill="none" xmlns="http://www.w3.org/2000/svg">
<path fill-rule="evenodd" clip-rule="evenodd" d="M20 6.66666C21.425 6.66666 22.8867 6.70332 24.3034 6.76332L25.9767 6.84332L27.5784 6.93832L29.0784 7.03999L30.4484 7.14666C31.9353 7.25981 33.3347 7.89405 34.4 8.93766C35.4652 9.98127 36.1281 11.3673 36.2717 12.8517L36.3384 13.56L36.4634 15.0767C36.58 16.6483 36.6667 18.3617 36.6667 20C36.6667 21.6383 36.58 23.3517 36.4634 24.9233L36.3384 26.44L36.2717 27.1483C36.128 28.6329 35.4649 30.0192 34.3993 31.0628C33.3337 32.1065 31.934 32.7405 30.4467 32.8533L29.08 32.9583L27.58 33.0617L25.9767 33.1567L24.3034 33.2367C22.8698 33.2988 21.435 33.331 20 33.3333C18.5651 33.331 17.1303 33.2988 15.6967 33.2367L14.0234 33.1567L12.4217 33.0617L10.9217 32.9583L9.55171 32.8533C8.06473 32.7402 6.66537 32.1059 5.60011 31.0623C4.53485 30.0187 3.87203 28.6327 3.72837 27.1483L3.66171 26.44L3.53671 24.9233C3.40976 23.2852 3.34194 21.643 3.33337 20C3.33337 18.3617 3.42004 16.6483 3.53671 15.0767L3.66171 13.56L3.72837 12.8517C3.87197 11.3676 4.53456 9.98174 5.59948 8.93817C6.6644 7.89459 8.06336 7.26018 9.55004 7.14666L10.9184 7.03999L12.4184 6.93832L14.0217 6.84332L15.695 6.76332C17.1292 6.7012 18.5645 6.66897 20 6.66666ZM16.6667 15.9583V24.0417C16.6667 24.8117 17.5 25.2917 18.1667 24.9083L25.1667 20.8667C25.319 20.779 25.4455 20.6527 25.5335 20.5005C25.6215 20.3484 25.6678 20.1757 25.6678 20C25.6678 19.8242 25.6215 19.6516 25.5335 19.4994C25.4455 19.3473 25.319 19.221 25.1667 19.1333L18.1667 15.0933C18.0146 15.0055 17.8421 14.9593 17.6665 14.9593C17.491 14.9594 17.3185 15.0056 17.1664 15.0935C17.0144 15.1813 16.8882 15.3077 16.8004 15.4598C16.7127 15.6119 16.6666 15.7844 16.6667 15.96V15.9583Z" fill="white"/>
</svg>
