<svg width="24" height="24" viewBox="0 0 24 24" fill="none" xmlns="http://www.w3.org/2000/svg">
<path d="M12.42 4.77595C11.725 3.00595 11.378 2.11995 10.651 2.01095C9.92498 1.90095 9.30098 2.64095 8.05098 4.11995L7.72898 4.50195C7.37398 4.92195 7.19598 5.13195 6.95498 5.25195C6.71398 5.37195 6.43598 5.38895 5.87998 5.42195L5.37498 5.45095C3.41998 5.56495 2.44198 5.62295 2.10298 6.26095C1.76298 6.90095 2.28698 7.69895 3.33498 9.29395L3.60498 9.70695C3.90398 10.16 4.05198 10.387 4.09298 10.646C4.13398 10.905 4.05998 11.166 3.91298 11.689L3.78098 12.166C3.26698 14.008 3.01098 14.928 3.52798 15.432C4.04398 15.937 4.99198 15.69 6.88798 15.197L7.37898 15.07C7.91798 14.93 8.18698 14.86 8.45398 14.9C8.72098 14.94 8.95198 15.085 9.41798 15.376L9.84098 15.641C11.479 16.665 12.298 17.177 12.956 16.849C13.615 16.522 13.677 15.572 13.802 13.672L13.834 13.18C13.869 12.64 13.887 12.37 14.011 12.136C14.136 11.902 14.352 11.73 14.786 11.386L15.181 11.074C16.706 9.86495 17.469 9.25995 17.359 8.55395C17.249 7.84795 16.339 7.50695 14.521 6.82495L14.05 6.64895C13.533 6.45495 13.274 6.35895 13.085 6.17395C12.895 5.98895 12.797 5.73695 12.6 5.23395L12.42 4.77595ZM18.69 9.59295C21.127 11.92 22.725 15.806 21.669 22C20.726 19.3969 18.143 17.24 15.088 15.953C15.194 15.36 15.242 14.636 15.292 13.873L15.331 13.278C15.3402 13.1345 15.3509 12.9912 15.363 12.848L15.449 12.777L15.717 12.562L16.192 12.186C16.886 11.636 17.532 11.126 17.975 10.654C18.228 10.385 18.511 10.03 18.69 9.59295Z" fill="white"/>
<path d="M10.347 15.4231L10.332 15.3091L10.388 15.4101L10.347 15.4231Z" fill="white"/>
</svg>
