<svg width="24" height="24" viewBox="0 0 24 24" fill="none" xmlns="http://www.w3.org/2000/svg">
<path d="M11.58 4.77595C12.275 3.00595 12.622 2.11995 13.349 2.01095C14.075 1.90095 14.699 2.64095 15.949 4.11995L16.271 4.50195C16.626 4.92195 16.804 5.13195 17.045 5.25195C17.286 5.37195 17.564 5.38895 18.12 5.42195L18.625 5.45095C20.58 5.56495 21.558 5.62295 21.897 6.26095C22.237 6.90095 21.713 7.69895 20.665 9.29395L20.395 9.70695C20.096 10.16 19.948 10.387 19.907 10.646C19.866 10.905 19.94 11.166 20.087 11.689L20.219 12.166C20.733 14.008 20.989 14.928 20.472 15.432C19.956 15.937 19.008 15.69 17.112 15.197L16.621 15.07C16.082 14.93 15.813 14.86 15.546 14.9C15.279 14.94 15.048 15.085 14.582 15.376L14.159 15.641C12.521 16.665 11.702 17.177 11.044 16.849C10.385 16.522 10.323 15.572 10.198 13.672L10.166 13.18C10.131 12.64 10.113 12.37 9.98899 12.136C9.86399 11.902 9.64799 11.73 9.21399 11.386L8.81899 11.074C7.29399 9.86495 6.53099 9.25995 6.64099 8.55395C6.75099 7.84795 7.66099 7.50695 9.47899 6.82495L9.94999 6.64895C10.467 6.45495 10.726 6.35895 10.915 6.17395C11.105 5.98895 11.203 5.73695 11.4 5.23395L11.58 4.77595ZM5.30999 9.59295C2.87299 11.92 1.27499 15.806 2.33099 22C3.27399 19.3969 5.85699 17.24 8.91199 15.953C8.80599 15.36 8.75799 14.636 8.70799 13.873L8.66899 13.278C8.65973 13.1345 8.64906 12.9912 8.63699 12.848L8.55099 12.777L8.28299 12.562L7.80799 12.186C7.11399 11.636 6.46799 11.126 6.02499 10.654C5.77199 10.385 5.48899 10.03 5.30999 9.59295Z" fill="white"/>
<path d="M10.347 15.4231L10.332 15.3091L10.388 15.4101L10.347 15.4231Z" fill="white"/>
</svg>
