<svg width="592" height="330" viewBox="0 0 592 330" fill="none" xmlns="http://www.w3.org/2000/svg">
<rect width="592" height="330" rx="20" fill="white"/>
<path opacity="0.4" d="M104 109C126.091 109 144 91.0914 144 69C144 46.9086 126.091 29 104 29C81.9086 29 64 46.9086 64 69C64 91.0914 81.9086 109 104 109Z" fill="#BCD5EF"/>
<path d="M104 30.9753C124.968 30.9753 142.025 48.0321 142.025 69C142.025 89.9679 124.968 107.025 104 107.025C83.0321 107.025 65.9753 89.9679 65.9753 69C65.9753 48.0321 83.0321 30.9753 104 30.9753ZM104 29C81.9062 29 64 46.9111 64 69C64 91.0889 81.9062 109 104 109C126.094 109 144 91.0938 144 69C144 46.9062 126.094 29 104 29Z" fill="#BCD5EF"/>
<path d="M112.167 52.9091L107.337 82H100.32L104.07 59.4716H103.9L96.7262 63.4489L97.7205 57.3693L105.647 52.9091H112.167Z" fill="#BCD5EF"/>
<path opacity="0.4" d="M104 205C126.091 205 144 187.091 144 165C144 142.909 126.091 125 104 125C81.9086 125 64 142.909 64 165C64 187.091 81.9086 205 104 205Z" fill="#BCD5EF"/>
<path d="M104 126.975C124.968 126.975 142.025 144.032 142.025 165C142.025 185.968 124.968 203.025 104 203.025C83.0321 203.025 65.9753 185.968 65.9753 165C65.9753 144.032 83.0321 126.975 104 126.975ZM104 125C81.9062 125 64 142.911 64 165C64 187.089 81.9062 205 104 205C126.094 205 144 187.094 144 165C144 142.906 126.094 125 104 125Z" fill="#BCD5EF"/>
<path d="M102.287 178.398C100.649 178.398 99.1291 178.128 97.7276 177.588C96.3261 177.048 95.1377 176.196 94.1623 175.031C93.1964 173.857 92.5335 172.328 92.1737 170.443C91.8233 168.559 91.8754 166.277 92.3299 163.597C92.7276 161.229 93.3621 159.117 94.2333 157.261C95.1045 155.396 96.1699 153.814 97.4293 152.517C98.6888 151.21 100.109 150.216 101.691 149.534C103.272 148.852 104.972 148.511 106.79 148.511C108.845 148.511 110.602 148.9 112.06 149.676C113.518 150.453 114.622 151.504 115.37 152.83C116.127 154.155 116.463 155.637 116.378 157.276H109.56C109.551 156.338 109.248 155.642 108.651 155.188C108.054 154.733 107.292 154.506 106.364 154.506C104.536 154.506 103.016 155.301 101.804 156.892C100.592 158.483 99.7447 160.59 99.2617 163.213L99.489 162.858C100.038 161.987 100.725 161.253 101.549 160.656C102.373 160.06 103.277 159.605 104.262 159.293C105.256 158.98 106.279 158.824 107.33 158.824C109.12 158.824 110.635 159.245 111.875 160.088C113.116 160.921 114.001 162.067 114.532 163.526C115.071 164.984 115.185 166.636 114.873 168.483C114.551 170.462 113.802 172.195 112.628 173.682C111.463 175.169 109.991 176.329 108.211 177.162C106.43 177.986 104.456 178.398 102.287 178.398ZM102.543 173C103.462 173 104.319 172.782 105.114 172.347C105.919 171.911 106.591 171.314 107.131 170.557C107.68 169.799 108.021 168.942 108.154 167.986C108.286 167.162 108.225 166.433 107.969 165.798C107.723 165.154 107.316 164.648 106.748 164.278C106.189 163.909 105.498 163.724 104.674 163.724C103.992 163.724 103.338 163.852 102.713 164.108C102.088 164.364 101.516 164.719 100.995 165.173C100.483 165.628 100.057 166.158 99.7163 166.764C99.3754 167.37 99.1481 168.024 99.0344 168.724C98.9113 169.567 98.9776 170.311 99.2333 170.955C99.489 171.589 99.9009 172.091 100.469 172.46C101.037 172.82 101.729 173 102.543 173Z" fill="#BCD5EF"/>
<path opacity="0.4" d="M104 301C126.091 301 144 283.091 144 261C144 238.909 126.091 221 104 221C81.9086 221 64 238.909 64 261C64 283.091 81.9086 301 104 301Z" fill="#BCD5EF"/>
<path d="M104 222.975C124.968 222.975 142.025 240.032 142.025 261C142.025 281.968 124.968 299.025 104 299.025C83.0321 299.025 65.9753 281.968 65.9753 261C65.9753 240.032 83.0321 222.975 104 222.975ZM104 221C81.9062 221 64 238.911 64 261C64 283.089 81.9062 301 104 301C126.094 301 144 283.094 144 261C144 238.906 126.094 221 104 221Z" fill="#BCD5EF"/>
<path d="M102.225 244.909L97.3956 274H90.3786L94.1286 251.472H93.9581L86.7848 255.449L87.7791 249.369L95.7053 244.909H102.225ZM122.108 244.909L117.278 274H110.261L114.011 251.472H113.841L106.668 255.449L107.662 249.369L115.588 244.909H122.108Z" fill="#BCD5EF"/>
<path opacity="0.4" d="M200 109C222.091 109 240 91.0914 240 69C240 46.9086 222.091 29 200 29C177.909 29 160 46.9086 160 69C160 91.0914 177.909 109 200 109Z" fill="#BCD5EF"/>
<path d="M200 30.9753C220.968 30.9753 238.025 48.0321 238.025 69C238.025 89.9679 220.968 107.025 200 107.025C179.032 107.025 161.975 89.9679 161.975 69C161.975 48.0321 179.032 30.9753 200 30.9753ZM200 29C177.906 29 160 46.9111 160 69C160 91.0889 177.906 109 200 109C222.094 109 240 91.0938 240 69C240 46.9062 222.094 29 200 29Z" fill="#BCD5EF"/>
<path d="M187.073 82L187.911 76.9432L200.07 67.6534C200.989 66.9337 201.775 66.2708 202.428 65.6648C203.091 65.0587 203.621 64.4527 204.019 63.8466C204.417 63.2405 204.672 62.5777 204.786 61.858C204.918 61.053 204.857 60.3617 204.601 59.7841C204.346 59.2064 203.938 58.7661 203.38 58.4631C202.821 58.1506 202.149 57.9943 201.363 57.9943C200.558 57.9943 199.819 58.16 199.147 58.4915C198.474 58.8134 197.916 59.2869 197.471 59.9119C197.035 60.5275 196.746 61.2708 196.604 62.142H189.928C190.259 60.1629 190.993 58.4536 192.13 57.0142C193.266 55.5748 194.705 54.4669 196.448 53.6903C198.19 52.9044 200.136 52.5114 202.286 52.5114C204.483 52.5114 206.334 52.8807 207.84 53.6193C209.355 54.358 210.449 55.3902 211.121 56.7159C211.803 58.0322 211.997 59.5616 211.703 61.304C211.514 62.4119 211.102 63.5104 210.468 64.5994C209.843 65.679 208.844 66.8816 207.471 68.2074C206.097 69.5237 204.208 71.1004 201.803 72.9375L197.797 76.1477L197.755 76.3324H209.559L208.607 82H187.073Z" fill="#BCD5EF"/>
<path opacity="0.4" d="M200 205C222.091 205 240 187.091 240 165C240 142.909 222.091 125 200 125C177.909 125 160 142.909 160 165C160 187.091 177.909 205 200 205Z" fill="#BCD5EF"/>
<path d="M200 126.975C220.968 126.975 238.025 144.032 238.025 165C238.025 185.968 220.968 203.025 200 203.025C179.032 203.025 161.975 185.968 161.975 165C161.975 144.032 179.032 126.975 200 126.975ZM200 125C177.906 125 160 142.911 160 165C160 187.089 177.906 205 200 205C222.094 205 240 187.094 240 165C240 142.906 222.094 125 200 125Z" fill="#BCD5EF"/>
<path d="M189.012 178L204.594 154.761L204.651 154.577H190.929L191.853 148.909H212.847L211.909 154.619L196.242 178H189.012Z" fill="#BCD5EF"/>
<path opacity="0.4" d="M200 301C222.091 301 240 283.091 240 261C240 238.909 222.091 221 200 221C177.909 221 160 238.909 160 261C160 283.091 177.909 301 200 301Z" fill="#BCD5EF"/>
<path d="M200 222.975C220.968 222.975 238.025 240.032 238.025 261C238.025 281.968 220.968 299.025 200 299.025C179.032 299.025 161.975 281.968 161.975 261C161.975 240.032 179.032 222.975 200 222.975ZM200 221C177.906 221 160 238.911 160 261C160 283.089 177.906 301 200 301C222.094 301 240 283.094 240 261C240 238.906 222.094 221 200 221Z" fill="#BCD5EF"/>
<path d="M195.413 244.909L190.583 274H183.566L187.316 251.472H187.146L179.972 255.449L180.967 249.369L188.893 244.909H195.413ZM197.014 274L197.852 268.943L210.011 259.653C210.93 258.934 211.716 258.271 212.369 257.665C213.032 257.059 213.563 256.453 213.96 255.847C214.358 255.241 214.614 254.578 214.727 253.858C214.86 253.053 214.798 252.362 214.543 251.784C214.287 251.206 213.88 250.766 213.321 250.463C212.762 250.151 212.09 249.994 211.304 249.994C210.499 249.994 209.76 250.16 209.088 250.491C208.416 250.813 207.857 251.287 207.412 251.912C206.976 252.527 206.688 253.271 206.545 254.142H199.869C200.201 252.163 200.935 250.454 202.071 249.014C203.207 247.575 204.647 246.467 206.389 245.69C208.132 244.904 210.078 244.511 212.227 244.511C214.424 244.511 216.276 244.881 217.781 245.619C219.296 246.358 220.39 247.39 221.062 248.716C221.744 250.032 221.938 251.562 221.645 253.304C221.455 254.412 221.044 255.51 220.409 256.599C219.784 257.679 218.785 258.882 217.412 260.207C216.039 261.524 214.15 263.1 211.744 264.938L207.739 268.148L207.696 268.332H219.5L218.548 274H197.014Z" fill="#BCD5EF"/>
<path opacity="0.4" d="M296 109C318.091 109 336 91.0914 336 69C336 46.9086 318.091 29 296 29C273.909 29 256 46.9086 256 69C256 91.0914 273.909 109 296 109Z" fill="#BCD5EF"/>
<path d="M296 30.9753C316.968 30.9753 334.025 48.0321 334.025 69C334.025 89.9679 316.968 107.025 296 107.025C275.032 107.025 257.975 89.9679 257.975 69C257.975 48.0321 275.032 30.9753 296 30.9753ZM296 29C273.906 29 256 46.9111 256 69C256 91.0889 273.906 109 296 109C318.094 109 336 91.0938 336 69C336 46.9062 318.094 29 296 29Z" fill="#BCD5EF"/>
<path d="M293.836 82.3977C291.564 82.3977 289.608 82.0189 287.97 81.2614C286.341 80.4943 285.138 79.4432 284.362 78.108C283.585 76.7633 283.344 75.2102 283.637 73.4489H290.612C290.517 74.0833 290.607 74.6468 290.882 75.1392C291.166 75.6222 291.597 76.0009 292.174 76.2756C292.761 76.5502 293.443 76.6875 294.22 76.6875C295.11 76.6875 295.924 76.5123 296.663 76.1619C297.411 75.8116 298.027 75.3428 298.51 74.7557C298.993 74.1686 299.291 73.5246 299.404 72.8239C299.518 72.142 299.414 71.5691 299.092 71.1051C298.77 70.6411 298.278 70.2907 297.615 70.054C296.961 69.8172 296.161 69.6989 295.214 69.6989H292.245L293.069 64.6989H295.74C296.611 64.6989 297.411 64.5379 298.14 64.2159C298.879 63.8939 299.49 63.4489 299.973 62.8807C300.456 62.3125 300.759 61.6591 300.882 60.9205C300.976 60.3333 300.929 59.822 300.74 59.3864C300.55 58.9413 300.219 58.6004 299.745 58.3636C299.281 58.1174 298.675 57.9943 297.927 57.9943C297.132 57.9943 296.365 58.1316 295.626 58.4062C294.897 58.6809 294.281 59.0691 293.779 59.571C293.278 60.0729 292.975 60.6553 292.87 61.3182H286.194C286.488 59.5947 287.208 58.0748 288.353 56.7585C289.499 55.4328 290.929 54.3958 292.643 53.6477C294.367 52.8902 296.242 52.5114 298.268 52.5114C300.408 52.5114 302.217 52.9138 303.694 53.7188C305.181 54.5142 306.265 55.5748 306.947 56.9006C307.638 58.2169 307.851 59.6515 307.586 61.2045C307.312 62.8996 306.564 64.2112 305.342 65.1392C304.12 66.0578 302.6 66.6307 300.782 66.858V67.071C302.79 67.3172 304.324 68.089 305.385 69.3864C306.455 70.6742 306.838 72.2462 306.535 74.1023C306.279 75.7027 305.565 77.1278 304.39 78.3778C303.216 79.6278 301.715 80.6127 299.887 81.3324C298.069 82.0426 296.052 82.3977 293.836 82.3977Z" fill="#BCD5EF"/>
<path opacity="0.4" d="M296 205C318.091 205 336 187.091 336 165C336 142.909 318.091 125 296 125C273.909 125 256 142.909 256 165C256 187.091 273.909 205 296 205Z" fill="#BCD5EF"/>
<path d="M296 126.975C316.968 126.975 334.025 144.032 334.025 165C334.025 185.968 316.968 203.025 296 203.025C275.032 203.025 257.975 185.968 257.975 165C257.975 144.032 275.032 126.975 296 126.975ZM296 125C273.906 125 256 142.911 256 165C256 187.089 273.906 205 296 205C318.094 205 336 187.094 336 165C336 142.906 318.094 125 296 125Z" fill="#BCD5EF"/>
<path d="M293.637 178.398C291.374 178.398 289.409 178.038 287.743 177.318C286.076 176.589 284.835 175.595 284.021 174.335C283.216 173.076 282.946 171.66 283.211 170.088C283.42 168.895 283.898 167.801 284.646 166.807C285.394 165.803 286.313 164.97 287.402 164.307C288.5 163.644 289.67 163.218 290.91 163.028V162.815C289.386 162.512 288.216 161.759 287.402 160.557C286.587 159.345 286.313 157.934 286.578 156.324C286.824 154.818 287.501 153.478 288.609 152.304C289.726 151.12 291.142 150.192 292.856 149.52C294.57 148.848 296.45 148.511 298.495 148.511C300.55 148.511 302.326 148.857 303.822 149.548C305.328 150.23 306.445 151.168 307.174 152.361C307.904 153.554 308.145 154.908 307.899 156.423C307.634 158.052 306.89 159.454 305.669 160.628C304.447 161.793 303.008 162.522 301.35 162.815V163.028C302.525 163.218 303.552 163.649 304.433 164.321C305.323 164.993 305.976 165.836 306.393 166.849C306.81 167.853 306.909 168.966 306.691 170.188C306.436 171.741 305.702 173.137 304.49 174.378C303.278 175.618 301.729 176.598 299.845 177.318C297.97 178.038 295.901 178.398 293.637 178.398ZM294.39 173.412C295.261 173.412 296.052 173.246 296.762 172.915C297.482 172.574 298.074 172.11 298.538 171.523C299.011 170.926 299.31 170.254 299.433 169.506C299.556 168.748 299.48 168.08 299.206 167.503C298.931 166.925 298.491 166.475 297.885 166.153C297.288 165.822 296.568 165.656 295.725 165.656C294.873 165.656 294.087 165.827 293.368 166.168C292.648 166.509 292.051 166.977 291.578 167.574C291.104 168.161 290.801 168.838 290.669 169.605C290.546 170.344 290.621 171.002 290.896 171.58C291.18 172.157 291.62 172.607 292.217 172.929C292.823 173.251 293.547 173.412 294.39 173.412ZM296.478 160.699C297.236 160.699 297.927 160.543 298.552 160.23C299.177 159.918 299.698 159.491 300.115 158.952C300.531 158.402 300.797 157.787 300.91 157.105C301.033 156.414 300.976 155.812 300.74 155.301C300.512 154.78 300.138 154.378 299.618 154.094C299.106 153.81 298.486 153.668 297.757 153.668C296.999 153.668 296.303 153.819 295.669 154.122C295.044 154.425 294.518 154.842 294.092 155.372C293.666 155.893 293.396 156.499 293.282 157.19C293.159 157.872 293.216 158.478 293.453 159.009C293.699 159.529 294.083 159.941 294.603 160.244C295.124 160.547 295.749 160.699 296.478 160.699Z" fill="#BCD5EF"/>
<path opacity="0.4" d="M296 301C318.091 301 336 283.091 336 261C336 238.909 318.091 221 296 221C273.909 221 256 238.909 256 261C256 283.091 273.909 301 296 301Z" fill="#BCD5EF"/>
<path d="M296 222.975C316.968 222.975 334.025 240.032 334.025 261C334.025 281.968 316.968 299.025 296 299.025C275.032 299.025 257.975 281.968 257.975 261C257.975 240.032 275.032 222.975 296 222.975ZM296 221C273.906 221 256 238.911 256 261C256 283.089 273.906 301 296 301C318.094 301 336 283.094 336 261C336 238.906 318.094 221 296 221Z" fill="#BCD5EF"/>
<path d="M290.827 244.909L285.997 274H278.98L282.73 251.472H282.56L275.386 255.449L276.381 249.369L284.307 244.909H290.827ZM303.778 274.398C301.505 274.398 299.549 274.019 297.911 273.261C296.282 272.494 295.08 271.443 294.303 270.108C293.527 268.763 293.285 267.21 293.579 265.449H300.553C300.459 266.083 300.549 266.647 300.823 267.139C301.107 267.622 301.538 268.001 302.116 268.276C302.703 268.55 303.385 268.688 304.161 268.688C305.051 268.688 305.866 268.512 306.604 268.162C307.353 267.812 307.968 267.343 308.451 266.756C308.934 266.169 309.232 265.525 309.346 264.824C309.46 264.142 309.355 263.569 309.033 263.105C308.711 262.641 308.219 262.291 307.556 262.054C306.903 261.817 306.103 261.699 305.156 261.699H302.187L303.011 256.699H305.681C306.552 256.699 307.353 256.538 308.082 256.216C308.82 255.894 309.431 255.449 309.914 254.881C310.397 254.312 310.7 253.659 310.823 252.92C310.918 252.333 310.871 251.822 310.681 251.386C310.492 250.941 310.16 250.6 309.687 250.364C309.223 250.117 308.617 249.994 307.869 249.994C307.073 249.994 306.306 250.132 305.567 250.406C304.838 250.681 304.223 251.069 303.721 251.571C303.219 252.073 302.916 252.655 302.812 253.318H296.136C296.429 251.595 297.149 250.075 298.295 248.759C299.441 247.433 300.871 246.396 302.585 245.648C304.308 244.89 306.183 244.511 308.21 244.511C310.35 244.511 312.158 244.914 313.636 245.719C315.122 246.514 316.207 247.575 316.888 248.901C317.58 250.217 317.793 251.652 317.528 253.205C317.253 254.9 316.505 256.211 315.283 257.139C314.062 258.058 312.542 258.631 310.724 258.858V259.071C312.731 259.317 314.265 260.089 315.326 261.386C316.396 262.674 316.78 264.246 316.477 266.102C316.221 267.703 315.506 269.128 314.332 270.378C313.157 271.628 311.656 272.613 309.829 273.332C308.011 274.043 305.994 274.398 303.778 274.398Z" fill="#BCD5EF"/>
<path opacity="0.4" d="M392 109C414.091 109 432 91.0914 432 69C432 46.9086 414.091 29 392 29C369.909 29 352 46.9086 352 69C352 91.0914 369.909 109 392 109Z" fill="#BCD5EF"/>
<path d="M392 30.9753C412.968 30.9753 430.025 48.0321 430.025 69C430.025 89.9679 412.968 107.025 392 107.025C371.032 107.025 353.975 89.9679 353.975 69C353.975 48.0321 371.032 30.9753 392 30.9753ZM392 29C369.906 29 352 46.9111 352 69C352 91.0889 369.906 109 392 109C414.094 109 432 91.0938 432 69C432 46.9062 414.094 29 392 29Z" fill="#BCD5EF"/>
<path d="M378.478 77.1705L379.387 71.6875L394.43 52.9091H399.302L398.066 60.3523H395.239L386.433 71.4034L386.376 71.6307H403.648L402.725 77.1705H378.478ZM391.731 82L392.825 75.4943L393.364 73.0938L396.702 52.9091H403.279L398.45 82H391.731Z" fill="#BCD5EF"/>
<path opacity="0.4" d="M392 205C414.091 205 432 187.091 432 165C432 142.909 414.091 125 392 125C369.909 125 352 142.909 352 165C352 187.091 369.909 205 392 205Z" fill="#BCD5EF"/>
<path d="M392 126.975C412.968 126.975 430.025 144.032 430.025 165C430.025 185.968 412.968 203.025 392 203.025C371.032 203.025 353.975 185.968 353.975 165C353.975 144.032 371.032 126.975 392 126.975ZM392 125C369.906 125 352 142.911 352 165C352 187.089 369.906 205 392 205C414.094 205 432 187.094 432 165C432 142.906 414.094 125 392 125Z" fill="#BCD5EF"/>
<path d="M393.938 148.511C395.576 148.511 397.096 148.781 398.498 149.321C399.908 149.861 401.097 150.713 402.063 151.878C403.029 153.033 403.692 154.544 404.051 156.409C404.411 158.275 404.364 160.543 403.909 163.213C403.502 165.599 402.863 167.735 401.992 169.619C401.13 171.494 400.065 173.085 398.796 174.392C397.536 175.689 396.116 176.684 394.534 177.375C392.962 178.057 391.263 178.398 389.435 178.398C387.39 178.398 385.633 178.009 384.165 177.233C382.707 176.447 381.604 175.386 380.855 174.051C380.117 172.706 379.785 171.201 379.861 169.534H386.665C386.675 170.538 386.978 171.267 387.574 171.722C388.171 172.176 388.938 172.403 389.875 172.403C391.703 172.403 393.223 171.603 394.435 170.003C395.657 168.402 396.504 166.267 396.978 163.597L396.75 163.952C396.211 164.823 395.529 165.557 394.705 166.153C393.881 166.75 392.972 167.205 391.978 167.517C390.993 167.82 389.97 167.972 388.909 167.972C387.129 167.972 385.619 167.555 384.378 166.722C383.138 165.888 382.248 164.747 381.708 163.298C381.168 161.849 381.054 160.206 381.367 158.369C381.698 156.409 382.446 154.69 383.611 153.213C384.776 151.726 386.248 150.571 388.029 149.747C389.809 148.914 391.779 148.502 393.938 148.511ZM393.696 153.909C392.787 153.909 391.926 154.127 391.111 154.562C390.306 154.998 389.629 155.59 389.08 156.338C388.54 157.086 388.204 157.929 388.071 158.866C387.958 159.671 388.024 160.396 388.27 161.04C388.516 161.674 388.919 162.176 389.478 162.545C390.046 162.905 390.742 163.085 391.566 163.085C392.248 163.085 392.901 162.957 393.526 162.702C394.16 162.446 394.733 162.096 395.245 161.651C395.766 161.196 396.196 160.666 396.537 160.06C396.878 159.454 397.101 158.81 397.205 158.128C397.328 157.313 397.262 156.589 397.006 155.955C396.76 155.32 396.353 154.823 395.784 154.463C395.216 154.094 394.52 153.909 393.696 153.909Z" fill="#BCD5EF"/>
<path opacity="0.4" d="M392 301C414.091 301 432 283.091 432 261C432 238.909 414.091 221 392 221C369.909 221 352 238.909 352 261C352 283.091 369.909 301 392 301Z" fill="#BCD5EF"/>
<path d="M392 222.975C412.968 222.975 430.025 240.032 430.025 261C430.025 281.968 412.968 299.025 392 299.025C371.032 299.025 353.975 281.968 353.975 261C353.975 240.032 371.032 222.975 392 222.975ZM392 221C369.906 221 352 238.911 352 261C352 283.089 369.906 301 392 301C414.094 301 432 283.094 432 261C432 238.906 414.094 221 392 221Z" fill="#BCD5EF"/>
<path d="M386.377 244.909L381.548 274H374.531L378.281 251.472H378.11L370.937 255.449L371.931 249.369L379.858 244.909H386.377ZM388.419 269.17L389.328 263.688L404.371 244.909H409.243L408.007 252.352H405.181L396.374 263.403L396.317 263.631H413.59L412.667 269.17H388.419ZM401.672 274L402.766 267.494L403.306 265.094L406.644 244.909H413.221L408.391 274H401.672Z" fill="#BCD5EF"/>
<path opacity="0.4" d="M488 109C510.091 109 528 91.0914 528 69C528 46.9086 510.091 29 488 29C465.909 29 448 46.9086 448 69C448 91.0914 465.909 109 488 109Z" fill="#BCD5EF"/>
<path d="M488 30.9753C508.968 30.9753 526.025 48.0321 526.025 69C526.025 89.9679 508.968 107.025 488 107.025C467.032 107.025 449.975 89.9679 449.975 69C449.975 48.0321 467.032 30.9753 488 30.9753ZM488 29C465.906 29 448 46.9111 448 69C448 91.0889 465.906 109 488 109C510.094 109 528 91.0938 528 69C528 46.9062 510.094 29 488 29Z" fill="#BCD5EF"/>
<path d="M485.762 82.3977C483.65 82.3977 481.832 82.0142 480.307 81.2472C478.783 80.4801 477.656 79.4242 476.926 78.0795C476.197 76.7348 475.956 75.1913 476.202 73.4489H483.02C482.897 74.5095 483.186 75.3665 483.887 76.0199C484.597 76.6733 485.516 77 486.642 77C487.542 77 488.361 76.8059 489.1 76.4176C489.848 76.0294 490.473 75.4848 490.975 74.7841C491.477 74.0833 491.803 73.2689 491.955 72.3409C492.116 71.4034 492.059 70.5843 491.784 69.8835C491.51 69.1733 491.06 68.6241 490.435 68.2358C489.81 67.8475 489.052 67.6534 488.162 67.6534C487.31 67.6534 486.477 67.8428 485.662 68.2216C484.857 68.5909 484.204 69.1023 483.702 69.7557L477.679 68.5909L481.557 52.9091H500.222L499.299 58.5767H486.415L484.611 65.4375H484.782C485.397 64.6326 486.287 63.9697 487.452 63.4489C488.617 62.9186 489.886 62.6534 491.259 62.6534C493.001 62.6534 494.483 63.0606 495.705 63.875C496.936 64.6799 497.826 65.8021 498.375 67.2415C498.925 68.6714 499.043 70.3049 498.73 72.142C498.418 74.1402 497.665 75.911 496.472 77.4545C495.288 78.9886 493.773 80.196 491.926 81.0767C490.089 81.9574 488.034 82.3977 485.762 82.3977Z" fill="#BCD5EF"/>
<path opacity="0.4" d="M488 205C510.091 205 528 187.091 528 165C528 142.909 510.091 125 488 125C465.909 125 448 142.909 448 165C448 187.091 465.909 205 488 205Z" fill="#BCD5EF"/>
<path d="M488 126.975C508.968 126.975 526.025 144.032 526.025 165C526.025 185.968 508.968 203.025 488 203.025C467.032 203.025 449.975 185.968 449.975 165C449.975 144.032 467.032 126.975 488 126.975ZM488 125C465.906 125 448 142.911 448 165C448 187.089 465.906 205 488 205C510.094 205 528 187.094 528 165C528 142.906 510.094 125 488 125Z" fill="#BCD5EF"/>
<path d="M481.987 148.909L477.157 178H470.14L473.89 155.472H473.72L466.547 159.449L467.541 153.369L475.467 148.909H481.987ZM495.52 178.71C492.973 178.71 490.875 178.109 489.228 176.906C487.58 175.694 486.448 173.956 485.833 171.693C485.217 169.42 485.184 166.688 485.733 163.497C486.273 160.306 487.225 157.598 488.588 155.372C489.952 153.137 491.647 151.437 493.674 150.273C495.7 149.098 497.978 148.511 500.506 148.511C503.044 148.511 505.132 149.098 506.77 150.273C508.418 151.437 509.554 153.137 510.179 155.372C510.804 157.598 510.852 160.306 510.321 163.497C509.791 166.688 508.839 169.42 507.466 171.693C506.103 173.966 504.403 175.704 502.367 176.906C500.34 178.109 498.058 178.71 495.52 178.71ZM496.486 172.957C498.001 172.957 499.346 172.181 500.52 170.628C501.694 169.075 502.551 166.698 503.091 163.497C503.451 161.404 503.532 159.671 503.333 158.298C503.143 156.925 502.722 155.902 502.069 155.23C501.425 154.558 500.601 154.222 499.597 154.222C498.082 154.222 496.728 154.984 495.534 156.509C494.341 158.024 493.48 160.353 492.949 163.497C492.599 165.637 492.523 167.408 492.722 168.81C492.921 170.202 493.347 171.243 494 171.935C494.654 172.616 495.482 172.957 496.486 172.957Z" fill="#BCD5EF"/>
<path opacity="0.4" d="M488 301C510.091 301 528 283.091 528 261C528 238.909 510.091 221 488 221C465.909 221 448 238.909 448 261C448 283.091 465.909 301 488 301Z" fill="#BCD5EF"/>
<path d="M488 222.975C508.968 222.975 526.025 240.032 526.025 261C526.025 281.968 508.968 299.025 488 299.025C467.032 299.025 449.975 281.968 449.975 261C449.975 240.032 467.032 222.975 488 222.975ZM488 221C465.906 221 448 238.911 448 261C448 283.089 465.906 301 488 301C510.094 301 528 283.094 528 261C528 238.906 510.094 221 488 221Z" fill="#BCD5EF"/>
<path d="M483.022 244.909L478.192 274H471.175L474.925 251.472H474.755L467.582 255.449L468.576 249.369L476.502 244.909H483.022ZM495.703 274.398C493.591 274.398 491.773 274.014 490.249 273.247C488.724 272.48 487.597 271.424 486.868 270.08C486.139 268.735 485.897 267.191 486.143 265.449H492.962C492.839 266.509 493.127 267.366 493.828 268.02C494.538 268.673 495.457 269 496.584 269C497.483 269 498.303 268.806 499.041 268.418C499.789 268.029 500.414 267.485 500.916 266.784C501.418 266.083 501.745 265.269 501.896 264.341C502.057 263.403 502 262.584 501.726 261.884C501.451 261.173 501.001 260.624 500.376 260.236C499.751 259.848 498.994 259.653 498.104 259.653C497.251 259.653 496.418 259.843 495.604 260.222C494.799 260.591 494.145 261.102 493.643 261.756L487.621 260.591L491.499 244.909H510.163L509.24 250.577H496.357L494.553 257.438H494.723C495.339 256.633 496.229 255.97 497.393 255.449C498.558 254.919 499.827 254.653 501.2 254.653C502.943 254.653 504.425 255.061 505.646 255.875C506.877 256.68 507.768 257.802 508.317 259.241C508.866 260.671 508.984 262.305 508.672 264.142C508.359 266.14 507.607 267.911 506.413 269.455C505.23 270.989 503.714 272.196 501.868 273.077C500.031 273.957 497.976 274.398 495.703 274.398Z" fill="#BCD5EF"/>
<path d="M488 204.012C466.489 204.012 448.988 186.511 448.988 165C448.988 143.489 466.489 125.988 488 125.988C509.511 125.988 527.012 143.489 527.012 165C527.012 186.511 509.511 204.012 488 204.012Z" fill="#FF5660"/>
<path d="M488 126.975C508.968 126.975 526.025 144.032 526.025 165C526.025 185.968 508.968 203.025 488 203.025C467.032 203.025 449.975 185.968 449.975 165C449.975 144.032 467.032 126.975 488 126.975ZM488 125C465.906 125 448 142.906 448 165C448 187.094 465.906 205 488 205C510.094 205 528 187.089 528 165C528 142.911 510.094 125 488 125Z" fill="#FF5660"/>
<path d="M516.262 149.81L496.81 147.178L482.622 133.597L474.36 151.247L456.805 160.58L471.368 174.101L474.494 193.474L491.763 184.062L511.239 186.812L507.743 167.509L516.262 149.81Z" fill="white" stroke="white" stroke-width="5" stroke-miterlimit="10"/>
<path opacity="0.5" d="M482.622 133.597L479.516 156.467L456.805 160.58L477.595 170.6L474.494 193.474L490.449 176.792L511.239 186.817L500.306 166.486L516.262 149.81L493.551 153.923L482.622 133.597Z" fill="#141417"/>
<path d="M516.262 149.81L505.16 151.82L508.494 157.933L516.262 149.81Z" fill="#F4E19D"/>
<path d="M497.047 160.121L505.16 151.82L508.494 157.933L497.047 160.121Z" fill="#F2CD61"/>
<path d="M500.306 166.486L497.047 160.121L508.494 157.933L500.306 166.486Z" fill="#BE9C21"/>
<path d="M493.551 153.923L497.047 160.121L505.16 151.82L493.551 153.923Z" fill="#EDC946"/>
<path d="M488.212 164.896L493.551 153.923L497.047 160.121L488.212 164.896Z" fill="#7F6814"/>
<path d="M500.306 166.486L488.212 164.896L497.047 160.121L500.306 166.486Z" fill="#F3C527"/>
<path d="M488.212 164.896L495.402 171.993L500.306 166.486L488.212 164.896Z" fill="#F2CD61"/>
<path d="M505.901 176.891L500.306 166.486L495.402 171.993L505.901 176.891Z" fill="#7F6814"/>
<path d="M500.988 181.874L495.402 171.992L505.901 176.891L500.988 181.874Z" fill="#F3C527"/>
<path d="M511.24 186.817L500.988 181.874L505.901 176.891L511.24 186.817Z" fill="#BE9C21"/>
<path d="M490.449 176.792L495.402 171.992L500.988 181.874L490.449 176.792Z" fill="#EDC946"/>
<path d="M488.212 164.896L495.402 171.993L490.449 176.793L483.936 174.067L488.212 164.896Z" fill="#F4E19D"/>
<path d="M482.232 185.385L483.936 174.067L490.449 176.793L482.232 185.385Z" fill="#F2CD61"/>
<path d="M474.494 193.474L482.232 185.385L475.985 182.476L474.494 193.474Z" fill="#7F6814"/>
<path d="M475.985 182.476L477.595 170.6L483.936 174.067L475.985 182.476Z" fill="#EDC946"/>
<path d="M482.232 185.385L475.985 182.477L483.936 174.067L482.232 185.385Z" fill="#BE9C21"/>
<path d="M477.595 170.6L488.212 164.896L483.936 174.067L477.595 170.6Z" fill="#F3C527"/>
<path d="M478.459 163.553L477.595 170.6L488.212 164.896L478.459 163.553Z" fill="#F2CD61"/>
<path d="M467.2 165.592L477.595 170.6L478.459 163.553L467.2 165.592Z" fill="#BE9C21"/>
<path d="M467.906 158.57L478.459 163.553L467.2 165.593" fill="#F4E19D"/>
<path d="M467.2 165.593L456.805 160.58L467.906 158.57L467.2 165.593Z" fill="#EDC946"/>
<path d="M467.906 158.57L479.516 156.467L478.459 163.553L467.906 158.57Z" fill="#7F6814"/>
<path d="M488.212 164.896L478.459 163.553L479.516 156.467L488.212 164.896Z" fill="#BE9C21"/>
<path d="M486.44 155.212L479.516 156.466L488.212 164.896L486.44 155.212Z" fill="#F3C527"/>
<path d="M493.551 153.923L486.44 155.212L488.212 164.896L493.551 153.923Z" fill="#F2CD61"/>
<path d="M488.104 143.79L486.44 155.212L493.551 153.923L488.104 143.79Z" fill="#F4E19D"/>
<path d="M482.622 133.597L488.104 143.79L481.062 145.069L482.622 133.597Z" fill="#F2CD61"/>
<path d="M479.516 156.467L481.062 145.069L486.44 155.212L479.516 156.467Z" fill="#EDC946"/>
<path d="M488.104 143.79L481.062 145.069L486.439 155.212L488.104 143.79Z" fill="#BE9C21"/>
<path d="M504.686 166.916L500.306 166.486L516.262 149.81L504.686 166.916Z" fill="#F3C527"/>
<path d="M511.239 186.817L504.686 166.916L500.306 166.486L511.239 186.817Z" fill="#EDC946"/>
<path d="M507.743 167.509L504.686 166.916L511.239 186.817L507.743 167.509Z" fill="#BE9C21"/>
<path d="M516.262 149.81L507.743 167.509L504.686 166.916L516.262 149.81Z" fill="#F2CD61"/>
<path d="M491.126 180.551L490.449 176.792L511.24 186.817L491.126 180.551Z" fill="#F4E19D"/>
<path d="M491.763 184.062L491.126 180.551L511.239 186.817L491.763 184.062Z" fill="#F3C527"/>
<path d="M474.494 193.474L491.763 184.062L491.126 180.551L474.494 193.474Z" fill="#F2CD61"/>
<path d="M490.449 176.792L491.126 180.551L474.494 193.474L490.449 176.792Z" fill="#EDC946"/>
<path d="M474.257 172.427L477.595 170.6L474.494 193.474L474.257 172.427Z" fill="#F4E19D"/>
<path d="M456.805 160.58L474.257 172.427L477.595 170.6L456.805 160.58Z" fill="#F2CD61"/>
<path d="M471.368 174.101L474.257 172.427L474.494 193.474L471.368 174.101Z" fill="#F3C527"/>
<path d="M456.805 160.58L471.368 174.101L474.257 172.427L456.805 160.58Z" fill="#EDC946"/>
<path d="M476.657 153.602L479.516 156.466L456.805 160.58L476.657 153.602Z" fill="#F2CD61"/>
<path d="M474.36 151.247L476.657 153.602L456.805 160.58L474.36 151.247Z" fill="#EDC946"/>
<path d="M482.622 133.597L474.36 151.247L476.657 153.602L482.622 133.597Z" fill="#F4E19D"/>
<path d="M479.516 156.467L476.657 153.602L482.622 133.597L479.516 156.467Z" fill="#F3C527"/>
<path d="M495.254 150.234L493.551 153.923L482.622 133.597L495.254 150.234Z" fill="#EDC946"/>
<path d="M516.262 149.81L493.551 153.923L495.254 150.235L516.262 149.81Z" fill="#F2CD61"/>
<path d="M496.81 147.178L495.254 150.235L516.262 149.81L496.81 147.178Z" fill="#F3C527"/>
<path d="M482.622 133.597L496.81 147.178L495.254 150.234L482.622 133.597Z" fill="#F4E19D"/>
<path d="M495.081 161.617C495.072 161.573 495.057 161.533 495.047 161.489C494.919 160.965 494.79 160.437 494.662 159.913C494.42 158.931 494.173 157.953 493.931 156.97C493.802 156.466 493.679 155.963 493.551 155.454C493.551 155.439 493.551 155.425 493.541 155.41C493.531 155.395 493.521 155.38 493.511 155.365C493.501 155.375 493.491 155.385 493.486 155.4C493.472 155.434 493.462 155.464 493.447 155.499C492.948 156.783 492.454 158.062 491.956 159.341C491.936 159.385 491.906 159.429 491.881 159.469C491.891 159.42 491.896 159.37 491.911 159.326C492.286 158.136 492.662 156.946 493.037 155.755C493.062 155.671 493.091 155.592 493.116 155.508C493.116 155.499 493.116 155.484 493.106 155.469C493.096 155.474 493.081 155.479 493.072 155.489C492.968 155.632 492.864 155.775 492.76 155.918C491.625 157.484 490.449 159.025 489.225 160.526C488.504 161.405 487.758 162.264 487.027 163.133C487.012 163.153 486.998 163.173 486.978 163.192C486.963 163.202 486.948 163.207 486.928 163.217C486.928 163.202 486.938 163.187 486.943 163.178C487.042 162.98 487.146 162.783 487.249 162.585C487.99 161.178 488.81 159.825 489.674 158.486C490.469 157.252 491.299 156.037 492.153 154.837C492.188 154.787 492.217 154.733 492.247 154.684C492.193 154.708 492.133 154.728 492.079 154.758C490.938 155.385 489.798 156.017 488.657 156.644C488.612 156.669 488.558 156.679 488.514 156.699C488.558 156.669 488.598 156.644 488.642 156.615C489.442 156.106 490.242 155.597 491.047 155.089C491.412 154.857 491.778 154.62 492.143 154.387C492.163 154.373 492.188 154.363 492.207 154.348C492.217 154.338 492.222 154.323 492.232 154.313C492.217 154.313 492.207 154.304 492.198 154.304C492.123 154.308 492.044 154.318 491.97 154.323C491.23 154.397 490.494 154.476 489.753 154.546C488.923 154.629 488.094 154.708 487.264 154.792C486.78 154.842 486.301 154.891 485.817 154.941C485.723 154.95 485.63 154.95 485.526 154.955C485.867 154.891 486.198 154.832 486.533 154.768C487.022 154.679 487.506 154.59 487.995 154.506C488.894 154.343 489.798 154.18 490.696 154.017C491.032 153.958 491.373 153.899 491.714 153.839C491.733 153.839 491.753 153.825 491.778 153.815C491.753 153.805 491.733 153.79 491.709 153.79C491.21 153.706 490.711 153.627 490.212 153.548C489.486 153.429 488.756 153.311 488.03 153.192C488.005 153.192 487.98 153.183 487.956 153.178C487.946 153.178 487.936 153.173 487.931 153.168C487.941 153.168 487.951 153.153 487.956 153.153C487.995 153.153 488.035 153.158 488.074 153.163C488.701 153.227 489.328 153.291 489.96 153.35C490.533 153.41 491.106 153.464 491.679 153.523C491.714 153.523 491.748 153.533 491.783 153.533C491.798 153.533 491.807 153.523 491.822 153.523C491.812 153.513 491.807 153.499 491.793 153.494C491.531 153.331 491.264 153.173 491.007 153.005C490.286 152.546 489.565 152.086 488.854 151.617C487.442 150.684 486.059 149.706 484.716 148.674C484.573 148.565 484.43 148.452 484.286 148.338C484.262 148.318 484.237 148.289 484.217 148.264C484.247 148.269 484.281 148.274 484.311 148.284C484.84 148.526 485.368 148.763 485.891 149.02C487.61 149.854 489.294 150.763 490.953 151.711C491.526 152.042 492.099 152.373 492.672 152.708C492.691 152.723 492.716 152.733 492.736 152.748C492.741 152.748 492.756 152.748 492.76 152.748C492.76 152.743 492.76 152.728 492.76 152.723C492.716 152.649 492.672 152.575 492.627 152.501C491.995 151.454 491.363 150.407 490.731 149.365C490.711 149.331 490.686 149.296 490.667 149.262C490.657 149.247 490.662 149.222 490.657 149.207C490.672 149.222 490.686 149.237 490.696 149.252C490.914 149.568 491.131 149.884 491.353 150.2C491.886 150.97 492.425 151.746 492.958 152.516C492.978 152.546 493.012 152.575 493.037 152.6C493.037 152.565 493.042 152.526 493.037 152.491C492.958 151.755 492.874 151.015 492.79 150.279C492.706 149.533 492.617 148.783 492.533 148.037C492.474 147.499 492.415 146.96 492.356 146.427C492.351 146.363 492.336 146.299 492.331 146.229C492.331 146.22 492.331 146.205 492.336 146.19C492.346 146.205 492.356 146.215 492.356 146.229C492.37 146.289 492.38 146.348 492.395 146.407C492.543 147.173 492.696 147.933 492.844 148.699C493.012 149.553 493.175 150.407 493.343 151.257C493.412 151.622 493.486 151.992 493.556 152.358C493.56 152.392 493.57 152.427 493.58 152.462H493.61C493.62 152.427 493.63 152.392 493.64 152.358C493.832 151.666 494.02 150.975 494.212 150.284C494.341 149.815 494.469 149.35 494.602 148.881C494.607 148.857 494.617 148.832 494.627 148.812C494.627 148.812 494.632 148.802 494.637 148.802C494.642 148.807 494.652 148.817 494.652 148.822C494.652 148.847 494.647 148.871 494.642 148.896C494.41 150.012 494.178 151.128 493.946 152.249C493.936 152.299 493.936 152.353 493.931 152.407C493.96 152.368 493.995 152.333 494.025 152.294C495.244 150.654 496.494 149.039 497.768 147.449C498.425 146.634 499.091 145.825 499.748 145.015C499.758 145.005 499.768 144.99 499.778 144.98C499.793 144.97 499.807 144.96 499.822 144.95C499.822 144.97 499.822 144.99 499.812 145.005C499.659 145.276 499.506 145.553 499.348 145.82C498.751 146.822 498.168 147.834 497.551 148.827C496.914 149.854 496.252 150.866 495.595 151.879C495.358 152.244 495.111 152.6 494.864 152.96C494.84 152.995 494.82 153.029 494.8 153.064C494.795 153.074 494.795 153.084 494.79 153.094C494.805 153.094 494.82 153.094 494.83 153.094C494.859 153.084 494.884 153.064 494.909 153.049C496.074 152.422 497.24 151.795 498.405 151.168C498.459 151.138 498.514 151.113 498.568 151.084C498.578 151.084 498.588 151.084 498.598 151.084C498.593 151.089 498.588 151.099 498.578 151.104C498.548 151.123 498.519 151.143 498.489 151.163C497.353 151.869 496.217 152.58 495.081 153.286C495.042 153.311 495.007 153.341 494.973 153.365C495.017 153.365 495.067 153.37 495.111 153.365C495.481 153.316 495.852 153.262 496.222 153.207C496.879 153.113 497.531 153.02 498.188 152.926C498.672 152.857 499.156 152.783 499.644 152.713C500.202 152.634 500.765 152.555 501.323 152.471C501.338 152.471 501.358 152.471 501.373 152.471C501.358 152.476 501.343 152.486 501.328 152.486C501.249 152.506 501.17 152.521 501.091 152.541C500.341 152.708 499.59 152.876 498.84 153.044C497.758 153.286 496.681 153.533 495.6 153.78C495.467 153.81 495.333 153.844 495.2 153.874C495.19 153.874 495.175 153.889 495.165 153.894C495.175 153.904 495.185 153.913 495.2 153.918C495.481 153.987 495.758 154.052 496.04 154.121C496.933 154.333 497.827 154.545 498.726 154.758C498.765 154.768 498.8 154.787 498.835 154.802C498.795 154.802 498.756 154.802 498.716 154.792C497.536 154.59 496.356 154.387 495.175 154.185C495.16 154.185 495.146 154.18 495.131 154.18C495.121 154.18 495.116 154.185 495.106 154.19C495.111 154.2 495.116 154.21 495.121 154.215C495.17 154.244 495.225 154.279 495.279 154.308C496.44 155.039 497.6 155.76 498.756 156.501C499.649 157.074 500.538 157.652 501.427 158.234C502.064 158.654 502.696 159.084 503.328 159.508C503.368 159.533 503.402 159.573 503.437 159.602C503.393 159.592 503.343 159.587 503.299 159.568C502.306 159.108 501.319 158.654 500.331 158.185C499.17 157.637 498.03 157.049 496.899 156.442C496.094 156.007 495.294 155.563 494.494 155.118C494.469 155.104 494.444 155.084 494.415 155.074C494.39 155.064 494.36 155.054 494.336 155.044C494.346 155.069 494.356 155.099 494.37 155.123C494.81 155.82 495.249 156.516 495.689 157.212C496.015 157.726 496.346 158.244 496.672 158.758C496.686 158.783 496.706 158.807 496.721 158.837C496.726 158.847 496.721 158.862 496.721 158.876C496.716 158.866 496.706 158.862 496.701 158.852C496.657 158.792 496.612 158.733 496.568 158.669C495.763 157.563 494.963 156.452 494.158 155.346C494.128 155.306 494.094 155.271 494.064 155.237C494.064 155.291 494.059 155.341 494.064 155.395C494.188 156.141 494.316 156.891 494.444 157.637C494.607 158.625 494.775 159.612 494.938 160.6C494.998 160.95 495.047 161.296 495.106 161.647H495.096L495.081 161.617Z" fill="white"/>
<path d="M488 108.012C466.489 108.012 448.988 90.511 448.988 68.9999C448.988 47.4888 466.489 29.9875 488 29.9875C509.511 29.9875 527.012 47.4888 527.012 68.9999C527.012 90.511 509.511 108.012 488 108.012Z" fill="#FF5660"/>
<path d="M488 30.9753C508.968 30.9753 526.025 48.0321 526.025 69C526.025 89.9679 508.968 107.025 488 107.025C467.032 107.025 449.975 89.9679 449.975 69C449.975 48.0321 467.032 30.9753 488 30.9753ZM488 29C465.906 29 448 46.9062 448 69C448 91.0938 465.906 109 488 109C510.094 109 528 91.0889 528 69C528 46.9111 510.094 29 488 29Z" fill="#FF5660"/>
<path d="M516.262 53.8098L496.81 51.1777L482.622 37.5974L474.36 55.2468L456.805 64.5801L471.368 78.1011L474.494 97.474L491.763 88.0616L511.239 90.8122L507.743 71.5085L516.262 53.8098Z" fill="white" stroke="white" stroke-width="5" stroke-miterlimit="10"/>
<path opacity="0.5" d="M482.622 37.5974L479.516 60.4665L456.805 64.5801L477.595 74.5999L474.494 97.474L490.449 80.7925L511.239 90.8172L500.306 70.4863L516.262 53.8098L493.551 57.9233L482.622 37.5974Z" fill="#141417"/>
<path d="M516.262 53.8098L505.16 55.8197L508.494 61.9333L516.262 53.8098Z" fill="#F4E19D"/>
<path d="M497.047 64.1208L505.16 55.8196L508.494 61.9332L497.047 64.1208Z" fill="#F2CD61"/>
<path d="M500.306 70.4862L497.047 64.1208L508.494 61.9331L500.306 70.4862Z" fill="#BE9C21"/>
<path d="M493.551 57.9233L497.047 64.1208L505.16 55.8196L493.551 57.9233Z" fill="#EDC946"/>
<path d="M488.212 68.8962L493.551 57.9233L497.047 64.1209L488.212 68.8962Z" fill="#7F6814"/>
<path d="M500.306 70.4863L488.212 68.8962L497.047 64.1208L500.306 70.4863Z" fill="#F3C527"/>
<path d="M488.212 68.8962L495.402 75.9925L500.306 70.4864L488.212 68.8962Z" fill="#F2CD61"/>
<path d="M505.901 80.8913L500.306 70.4863L495.402 75.9925L505.901 80.8913Z" fill="#7F6814"/>
<path d="M500.988 85.8739L495.402 75.9924L505.901 80.8912L500.988 85.8739Z" fill="#F3C527"/>
<path d="M511.24 90.8173L500.988 85.8741L505.901 80.8914L511.24 90.8173Z" fill="#BE9C21"/>
<path d="M490.449 80.7924L495.402 75.9924L500.988 85.8739L490.449 80.7924Z" fill="#EDC946"/>
<path d="M488.212 68.8962L495.402 75.9925L490.449 80.7925L483.936 78.0666L488.212 68.8962Z" fill="#F4E19D"/>
<path d="M482.232 89.3852L483.936 78.0667L490.449 80.7926L482.232 89.3852Z" fill="#F2CD61"/>
<path d="M474.494 97.4739L482.232 89.385L475.985 86.4763L474.494 97.4739Z" fill="#7F6814"/>
<path d="M475.985 86.4764L477.595 74.5999L483.936 78.0665L475.985 86.4764Z" fill="#EDC946"/>
<path d="M482.232 89.3852L475.985 86.4765L483.936 78.0667L482.232 89.3852Z" fill="#BE9C21"/>
<path d="M477.595 74.5999L488.212 68.8962L483.936 78.0666L477.595 74.5999Z" fill="#F3C527"/>
<path d="M478.459 67.553L477.595 74.5999L488.212 68.8962L478.459 67.553Z" fill="#F2CD61"/>
<path d="M467.2 69.5925L477.595 74.5999L478.459 67.553L467.2 69.5925Z" fill="#BE9C21"/>
<path d="M467.906 62.5703L478.459 67.553L467.2 69.5925" fill="#F4E19D"/>
<path d="M467.2 69.5925L456.805 64.5802L467.906 62.5703L467.2 69.5925Z" fill="#EDC946"/>
<path d="M467.906 62.5703L479.516 60.4666L478.459 67.553L467.906 62.5703Z" fill="#7F6814"/>
<path d="M488.212 68.8962L478.459 67.553L479.516 60.4666L488.212 68.8962Z" fill="#BE9C21"/>
<path d="M486.44 59.2122L479.516 60.4665L488.212 68.8961L486.44 59.2122Z" fill="#F3C527"/>
<path d="M493.551 57.9233L486.44 59.2122L488.212 68.8962L493.551 57.9233Z" fill="#F2CD61"/>
<path d="M488.104 47.79L486.44 59.2123L493.551 57.9234L488.104 47.79Z" fill="#F4E19D"/>
<path d="M482.622 37.5974L488.104 47.79L481.062 49.069L482.622 37.5974Z" fill="#F2CD61"/>
<path d="M479.516 60.4666L481.062 49.0691L486.44 59.2123L479.516 60.4666Z" fill="#EDC946"/>
<path d="M488.104 47.79L481.062 49.0691L486.439 59.2123L488.104 47.79Z" fill="#BE9C21"/>
<path d="M504.686 70.916L500.306 70.4864L516.262 53.8098L504.686 70.916Z" fill="#F3C527"/>
<path d="M511.239 90.8172L504.686 70.916L500.306 70.4863L511.239 90.8172Z" fill="#EDC946"/>
<path d="M507.743 71.5086L504.686 70.916L511.239 90.8173L507.743 71.5086Z" fill="#BE9C21"/>
<path d="M516.262 53.8098L507.743 71.5086L504.686 70.916L516.262 53.8098Z" fill="#F2CD61"/>
<path d="M491.126 84.5505L490.449 80.7925L511.24 90.8172L491.126 84.5505Z" fill="#F4E19D"/>
<path d="M491.763 88.0616L491.126 84.5505L511.239 90.8172L491.763 88.0616Z" fill="#F3C527"/>
<path d="M474.494 97.474L491.763 88.0616L491.126 84.5505L474.494 97.474Z" fill="#F2CD61"/>
<path d="M490.449 80.7925L491.126 84.5505L474.494 97.474L490.449 80.7925Z" fill="#EDC946"/>
<path d="M474.257 76.427L477.595 74.5999L474.494 97.4739L474.257 76.427Z" fill="#F4E19D"/>
<path d="M456.805 64.5801L474.257 76.427L477.595 74.5998L456.805 64.5801Z" fill="#F2CD61"/>
<path d="M471.368 78.1011L474.257 76.427L474.494 97.4739L471.368 78.1011Z" fill="#F3C527"/>
<path d="M456.805 64.5801L471.368 78.1011L474.257 76.427L456.805 64.5801Z" fill="#EDC946"/>
<path d="M476.657 57.6023L479.516 60.4665L456.805 64.5801L476.657 57.6023Z" fill="#F2CD61"/>
<path d="M474.36 55.2468L476.657 57.6024L456.805 64.5802L474.36 55.2468Z" fill="#EDC946"/>
<path d="M482.622 37.5974L474.36 55.2468L476.657 57.6024L482.622 37.5974Z" fill="#F4E19D"/>
<path d="M479.516 60.4665L476.657 57.6024L482.622 37.5974L479.516 60.4665Z" fill="#F3C527"/>
<path d="M495.254 54.2344L493.551 57.9233L482.622 37.5974L495.254 54.2344Z" fill="#EDC946"/>
<path d="M516.262 53.8098L493.551 57.9234L495.254 54.2345L516.262 53.8098Z" fill="#F2CD61"/>
<path d="M496.81 51.1777L495.254 54.2345L516.262 53.8098L496.81 51.1777Z" fill="#F3C527"/>
<path d="M482.622 37.5974L496.81 51.1777L495.254 54.2344L482.622 37.5974Z" fill="#F4E19D"/>
<path d="M495.081 65.6171C495.072 65.5727 495.057 65.5332 495.047 65.4887C494.919 64.9653 494.79 64.4369 494.662 63.9134C494.42 62.9307 494.173 61.9529 493.931 60.9702C493.802 60.4665 493.679 59.9628 493.551 59.4541C493.551 59.4393 493.551 59.4245 493.541 59.4097C493.531 59.3949 493.521 59.3801 493.511 59.3653C493.501 59.3751 493.491 59.385 493.486 59.3998C493.472 59.4344 493.462 59.464 493.447 59.4986C492.948 60.7825 492.454 62.0616 491.956 63.3406C491.936 63.385 491.906 63.4295 491.881 63.469C491.891 63.4196 491.896 63.3702 491.911 63.3257C492.286 62.1356 492.662 60.9455 493.037 59.7554C493.062 59.6714 493.091 59.5924 493.116 59.5085C493.116 59.4986 493.116 59.4838 493.106 59.469C493.096 59.4739 493.081 59.4788 493.072 59.4887C492.968 59.6319 492.864 59.7751 492.76 59.9183C491.625 61.4838 490.449 63.0245 489.225 64.5257C488.504 65.4048 487.758 66.264 487.027 67.1332C487.012 67.1529 486.998 67.1727 486.978 67.1924C486.963 67.2023 486.948 67.2072 486.928 67.2171C486.928 67.2023 486.938 67.1875 486.943 67.1776C487.042 66.9801 487.146 66.7825 487.249 66.585C487.99 65.1776 488.81 63.8245 489.674 62.4862C490.469 61.2517 491.299 60.0369 492.153 58.8369C492.188 58.7875 492.217 58.7332 492.247 58.6838C492.193 58.7085 492.133 58.7282 492.079 58.7578C490.938 59.385 489.798 60.0171 488.657 60.6443C488.612 60.669 488.558 60.6788 488.514 60.6986C488.558 60.669 488.598 60.6443 488.642 60.6146C489.442 60.106 490.242 59.5974 491.047 59.0887C491.412 58.8566 491.778 58.6196 492.143 58.3875C492.163 58.3727 492.188 58.3628 492.207 58.348C492.217 58.3381 492.222 58.3233 492.232 58.3134C492.217 58.3134 492.207 58.3035 492.198 58.3035C492.123 58.3085 492.044 58.3183 491.97 58.3233C491.23 58.3974 490.494 58.4764 489.753 58.5455C488.923 58.6295 488.094 58.7085 487.264 58.7924C486.78 58.8418 486.301 58.8912 485.817 58.9406C485.723 58.9504 485.63 58.9504 485.526 58.9554C485.867 58.8912 486.198 58.8319 486.533 58.7677C487.022 58.6788 487.506 58.5899 487.995 58.506C488.894 58.343 489.798 58.1801 490.696 58.0171C491.032 57.9578 491.373 57.8986 491.714 57.8393C491.733 57.8393 491.753 57.8245 491.778 57.8146C491.753 57.8048 491.733 57.7899 491.709 57.7899C491.21 57.706 490.711 57.627 490.212 57.548C489.486 57.4295 488.756 57.3109 488.03 57.1924C488.005 57.1924 487.98 57.1825 487.956 57.1776C487.946 57.1776 487.936 57.1727 487.931 57.1677C487.941 57.1677 487.951 57.1529 487.956 57.1529C487.995 57.1529 488.035 57.1578 488.074 57.1628C488.701 57.227 489.328 57.2912 489.96 57.3504C490.533 57.4097 491.106 57.464 491.679 57.5233C491.714 57.5233 491.748 57.5332 491.783 57.5332C491.798 57.5332 491.807 57.5233 491.822 57.5233C491.812 57.5134 491.807 57.4986 491.793 57.4936C491.531 57.3307 491.264 57.1727 491.007 57.0048C490.286 56.5455 489.565 56.0862 488.854 55.6171C487.442 54.6838 486.059 53.706 484.716 52.6739C484.573 52.5653 484.43 52.4517 484.286 52.3381C484.262 52.3183 484.237 52.2887 484.217 52.264C484.247 52.269 484.281 52.2739 484.311 52.2838C484.84 52.5257 485.368 52.7628 485.891 53.0196C487.61 53.8541 489.294 54.7628 490.953 55.7109C491.526 56.0418 492.099 56.3727 492.672 56.7085C492.691 56.7233 492.716 56.7332 492.736 56.748C492.741 56.748 492.756 56.748 492.76 56.748C492.76 56.743 492.76 56.7282 492.76 56.7233C492.716 56.6492 492.672 56.5751 492.627 56.5011C491.995 55.4541 491.363 54.4072 490.731 53.3653C490.711 53.3307 490.686 53.2961 490.667 53.2616C490.657 53.2467 490.662 53.222 490.657 53.2072C490.672 53.222 490.686 53.2369 490.696 53.2517C490.914 53.5677 491.131 53.8838 491.353 54.1998C491.886 54.9702 492.425 55.7455 492.958 56.5159C492.978 56.5455 493.012 56.5751 493.037 56.5998C493.037 56.5653 493.042 56.5257 493.037 56.4912C492.958 55.7554 492.874 55.0146 492.79 54.2788C492.706 53.5332 492.617 52.7825 492.533 52.0369C492.474 51.4986 492.415 50.9603 492.356 50.427C492.351 50.3628 492.336 50.2986 492.331 50.2295C492.331 50.2196 492.331 50.2048 492.336 50.1899C492.346 50.2048 492.356 50.2146 492.356 50.2295C492.37 50.2887 492.38 50.348 492.395 50.4072C492.543 51.1727 492.696 51.9332 492.844 52.6986C493.012 53.5529 493.175 54.4072 493.343 55.2566C493.412 55.622 493.486 55.9924 493.556 56.3578C493.56 56.3924 493.57 56.427 493.58 56.4616H493.61C493.62 56.427 493.63 56.3924 493.64 56.3578C493.832 55.6665 494.02 54.9751 494.212 54.2838C494.341 53.8146 494.469 53.3504 494.602 52.8813C494.607 52.8566 494.617 52.8319 494.627 52.8122C494.627 52.8122 494.632 52.8023 494.637 52.8023C494.642 52.8072 494.652 52.8171 494.652 52.822C494.652 52.8467 494.647 52.8714 494.642 52.8961C494.41 54.0122 494.178 55.1282 493.946 56.2492C493.936 56.2986 493.936 56.3529 493.931 56.4072C493.96 56.3677 493.995 56.3332 494.025 56.2936C495.244 54.6541 496.494 53.0393 497.768 51.4492C498.425 50.6344 499.091 49.8245 499.748 49.0146C499.758 49.0048 499.768 48.9899 499.778 48.9801C499.793 48.9702 499.807 48.9603 499.822 48.9504C499.822 48.9702 499.822 48.9899 499.812 49.0048C499.659 49.2764 499.506 49.5529 499.348 49.8196C498.751 50.822 498.168 51.8344 497.551 52.827C496.914 53.8541 496.252 54.8665 495.595 55.8788C495.358 56.2443 495.111 56.5998 494.864 56.9603C494.84 56.9949 494.82 57.0295 494.8 57.064C494.795 57.0739 494.795 57.0838 494.79 57.0936C494.805 57.0936 494.82 57.0936 494.83 57.0936C494.859 57.0838 494.884 57.064 494.909 57.0492C496.074 56.422 497.24 55.7949 498.405 55.1677C498.459 55.1381 498.514 55.1134 498.568 55.0838C498.578 55.0838 498.588 55.0838 498.598 55.0838C498.593 55.0887 498.588 55.0986 498.578 55.1035C498.548 55.1233 498.519 55.143 498.489 55.1628C497.353 55.869 496.217 56.5801 495.081 57.2862C495.042 57.3109 495.007 57.3406 494.973 57.3653C495.017 57.3653 495.067 57.3702 495.111 57.3653C495.481 57.3159 495.852 57.2615 496.222 57.2072C496.879 57.1134 497.531 57.0196 498.188 56.9257C498.672 56.8566 499.156 56.7825 499.644 56.7134C500.202 56.6344 500.765 56.5554 501.323 56.4714C501.338 56.4714 501.358 56.4714 501.373 56.4714C501.358 56.4764 501.343 56.4862 501.328 56.4862C501.249 56.506 501.17 56.5208 501.091 56.5406C500.341 56.7085 499.59 56.8764 498.84 57.0443C497.758 57.2862 496.681 57.5332 495.6 57.7801C495.467 57.8097 495.333 57.8443 495.2 57.8739C495.19 57.8739 495.175 57.8887 495.165 57.8936C495.175 57.9035 495.185 57.9134 495.2 57.9183C495.481 57.9875 495.758 58.0517 496.04 58.1208C496.933 58.3332 497.827 58.5455 498.726 58.7578C498.765 58.7677 498.8 58.7875 498.835 58.8023C498.795 58.8023 498.756 58.8023 498.716 58.7924C497.536 58.5899 496.356 58.3875 495.175 58.185C495.16 58.185 495.146 58.1801 495.131 58.1801C495.121 58.1801 495.116 58.185 495.106 58.1899C495.111 58.1998 495.116 58.2097 495.121 58.2146C495.17 58.2443 495.225 58.2788 495.279 58.3085C496.44 59.0393 497.6 59.7603 498.756 60.5011C499.649 61.0739 500.538 61.6517 501.427 62.2344C502.064 62.6541 502.696 63.0838 503.328 63.5085C503.368 63.5332 503.402 63.5727 503.437 63.6023C503.393 63.5924 503.343 63.5875 503.299 63.5677C502.306 63.1085 501.319 62.6541 500.331 62.185C499.17 61.6369 498.03 61.0492 496.899 60.4418C496.094 60.0072 495.294 59.5628 494.494 59.1183C494.469 59.1035 494.444 59.0838 494.415 59.0739C494.39 59.064 494.36 59.0541 494.336 59.0443C494.346 59.069 494.356 59.0986 494.37 59.1233C494.81 59.8196 495.249 60.5159 495.689 61.2122C496.015 61.7257 496.346 62.2443 496.672 62.7578C496.686 62.7825 496.706 62.8072 496.721 62.8369C496.726 62.8467 496.721 62.8616 496.721 62.8764C496.716 62.8665 496.706 62.8616 496.701 62.8517C496.657 62.7924 496.612 62.7332 496.568 62.669C495.763 61.5628 494.963 60.4517 494.158 59.3455C494.128 59.306 494.094 59.2714 494.064 59.2369C494.064 59.2912 494.059 59.3406 494.064 59.3949C494.188 60.1406 494.316 60.8912 494.444 61.6369C494.607 62.6245 494.775 63.6122 494.938 64.5998C494.998 64.9504 495.047 65.2961 495.106 65.6467H495.096L495.081 65.6171Z" fill="white"/>
<path d="M488 300.012C466.489 300.012 448.988 282.511 448.988 261C448.988 239.489 466.489 221.988 488 221.988C509.511 221.988 527.012 239.489 527.012 261C527.012 282.511 509.511 300.012 488 300.012Z" fill="#FF5660"/>
<path d="M488 222.975C508.968 222.975 526.025 240.032 526.025 261C526.025 281.968 508.968 299.025 488 299.025C467.032 299.025 449.975 281.968 449.975 261C449.975 240.032 467.032 222.975 488 222.975ZM488 221C465.906 221 448 238.906 448 261C448 283.094 465.906 301 488 301C510.094 301 528 283.089 528 261C528 238.911 510.094 221 488 221Z" fill="#FF5660"/>
<path d="M516.262 245.81L496.81 243.178L482.622 229.597L474.36 247.247L456.805 256.58L471.368 270.101L474.494 289.474L491.763 280.062L511.239 282.812L507.743 263.509L516.262 245.81Z" fill="white" stroke="white" stroke-width="5" stroke-miterlimit="10"/>
<path opacity="0.5" d="M482.622 229.597L479.516 252.467L456.805 256.58L477.595 266.6L474.494 289.474L490.449 272.792L511.239 282.817L500.306 262.486L516.262 245.81L493.551 249.923L482.622 229.597Z" fill="#141417"/>
<path d="M516.262 245.81L505.16 247.82L508.494 253.933L516.262 245.81Z" fill="#F4E19D"/>
<path d="M497.047 256.121L505.16 247.82L508.494 253.933L497.047 256.121Z" fill="#F2CD61"/>
<path d="M500.306 262.486L497.047 256.121L508.494 253.933L500.306 262.486Z" fill="#BE9C21"/>
<path d="M493.551 249.923L497.047 256.121L505.16 247.82L493.551 249.923Z" fill="#EDC946"/>
<path d="M488.212 260.896L493.551 249.923L497.047 256.121L488.212 260.896Z" fill="#7F6814"/>
<path d="M500.306 262.486L488.212 260.896L497.047 256.121L500.306 262.486Z" fill="#F3C527"/>
<path d="M488.212 260.896L495.402 267.993L500.306 262.486L488.212 260.896Z" fill="#F2CD61"/>
<path d="M505.901 272.891L500.306 262.486L495.402 267.993L505.901 272.891Z" fill="#7F6814"/>
<path d="M500.988 277.874L495.402 267.992L505.901 272.891L500.988 277.874Z" fill="#F3C527"/>
<path d="M511.24 282.817L500.988 277.874L505.901 272.891L511.24 282.817Z" fill="#BE9C21"/>
<path d="M490.449 272.792L495.402 267.992L500.988 277.874L490.449 272.792Z" fill="#EDC946"/>
<path d="M488.212 260.896L495.402 267.993L490.449 272.793L483.936 270.067L488.212 260.896Z" fill="#F4E19D"/>
<path d="M482.232 281.385L483.936 270.067L490.449 272.793L482.232 281.385Z" fill="#F2CD61"/>
<path d="M474.494 289.474L482.232 281.385L475.985 278.476L474.494 289.474Z" fill="#7F6814"/>
<path d="M475.985 278.476L477.595 266.6L483.936 270.067L475.985 278.476Z" fill="#EDC946"/>
<path d="M482.232 281.385L475.985 278.477L483.936 270.067L482.232 281.385Z" fill="#BE9C21"/>
<path d="M477.595 266.6L488.212 260.896L483.936 270.067L477.595 266.6Z" fill="#F3C527"/>
<path d="M478.459 259.553L477.595 266.6L488.212 260.896L478.459 259.553Z" fill="#F2CD61"/>
<path d="M467.2 261.592L477.595 266.6L478.459 259.553L467.2 261.592Z" fill="#BE9C21"/>
<path d="M467.906 254.57L478.459 259.553L467.2 261.593" fill="#F4E19D"/>
<path d="M467.2 261.593L456.805 256.58L467.906 254.57L467.2 261.593Z" fill="#EDC946"/>
<path d="M467.906 254.57L479.516 252.467L478.459 259.553L467.906 254.57Z" fill="#7F6814"/>
<path d="M488.212 260.896L478.459 259.553L479.516 252.467L488.212 260.896Z" fill="#BE9C21"/>
<path d="M486.44 251.212L479.516 252.466L488.212 260.896L486.44 251.212Z" fill="#F3C527"/>
<path d="M493.551 249.923L486.44 251.212L488.212 260.896L493.551 249.923Z" fill="#F2CD61"/>
<path d="M488.104 239.79L486.44 251.212L493.551 249.923L488.104 239.79Z" fill="#F4E19D"/>
<path d="M482.622 229.597L488.104 239.79L481.062 241.069L482.622 229.597Z" fill="#F2CD61"/>
<path d="M479.516 252.467L481.062 241.069L486.44 251.212L479.516 252.467Z" fill="#EDC946"/>
<path d="M488.104 239.79L481.062 241.069L486.439 251.212L488.104 239.79Z" fill="#BE9C21"/>
<path d="M504.686 262.916L500.306 262.486L516.262 245.81L504.686 262.916Z" fill="#F3C527"/>
<path d="M511.239 282.817L504.686 262.916L500.306 262.486L511.239 282.817Z" fill="#EDC946"/>
<path d="M507.743 263.509L504.686 262.916L511.239 282.817L507.743 263.509Z" fill="#BE9C21"/>
<path d="M516.262 245.81L507.743 263.509L504.686 262.916L516.262 245.81Z" fill="#F2CD61"/>
<path d="M491.126 276.551L490.449 272.792L511.24 282.817L491.126 276.551Z" fill="#F4E19D"/>
<path d="M491.763 280.062L491.126 276.551L511.239 282.817L491.763 280.062Z" fill="#F3C527"/>
<path d="M474.494 289.474L491.763 280.062L491.126 276.551L474.494 289.474Z" fill="#F2CD61"/>
<path d="M490.449 272.792L491.126 276.551L474.494 289.474L490.449 272.792Z" fill="#EDC946"/>
<path d="M474.257 268.427L477.595 266.6L474.494 289.474L474.257 268.427Z" fill="#F4E19D"/>
<path d="M456.805 256.58L474.257 268.427L477.595 266.6L456.805 256.58Z" fill="#F2CD61"/>
<path d="M471.368 270.101L474.257 268.427L474.494 289.474L471.368 270.101Z" fill="#F3C527"/>
<path d="M456.805 256.58L471.368 270.101L474.257 268.427L456.805 256.58Z" fill="#EDC946"/>
<path d="M476.657 249.602L479.516 252.466L456.805 256.58L476.657 249.602Z" fill="#F2CD61"/>
<path d="M474.36 247.247L476.657 249.602L456.805 256.58L474.36 247.247Z" fill="#EDC946"/>
<path d="M482.622 229.597L474.36 247.247L476.657 249.602L482.622 229.597Z" fill="#F4E19D"/>
<path d="M479.516 252.467L476.657 249.602L482.622 229.597L479.516 252.467Z" fill="#F3C527"/>
<path d="M495.254 246.234L493.551 249.923L482.622 229.597L495.254 246.234Z" fill="#EDC946"/>
<path d="M516.262 245.81L493.551 249.923L495.254 246.235L516.262 245.81Z" fill="#F2CD61"/>
<path d="M496.81 243.178L495.254 246.235L516.262 245.81L496.81 243.178Z" fill="#F3C527"/>
<path d="M482.622 229.597L496.81 243.178L495.254 246.234L482.622 229.597Z" fill="#F4E19D"/>
<path d="M495.081 257.617C495.072 257.573 495.057 257.533 495.047 257.489C494.919 256.965 494.79 256.437 494.662 255.913C494.42 254.931 494.173 253.953 493.931 252.97C493.802 252.466 493.679 251.963 493.551 251.454C493.551 251.439 493.551 251.425 493.541 251.41C493.531 251.395 493.521 251.38 493.511 251.365C493.501 251.375 493.491 251.385 493.486 251.4C493.472 251.434 493.462 251.464 493.447 251.499C492.948 252.783 492.454 254.062 491.956 255.341C491.936 255.385 491.906 255.429 491.881 255.469C491.891 255.42 491.896 255.37 491.911 255.326C492.286 254.136 492.662 252.946 493.037 251.755C493.062 251.671 493.091 251.592 493.116 251.508C493.116 251.499 493.116 251.484 493.106 251.469C493.096 251.474 493.081 251.479 493.072 251.489C492.968 251.632 492.864 251.775 492.76 251.918C491.625 253.484 490.449 255.025 489.225 256.526C488.504 257.405 487.758 258.264 487.027 259.133C487.012 259.153 486.998 259.173 486.978 259.192C486.963 259.202 486.948 259.207 486.928 259.217C486.928 259.202 486.938 259.187 486.943 259.178C487.042 258.98 487.146 258.783 487.249 258.585C487.99 257.178 488.81 255.825 489.674 254.486C490.469 253.252 491.299 252.037 492.153 250.837C492.188 250.787 492.217 250.733 492.247 250.684C492.193 250.708 492.133 250.728 492.079 250.758C490.938 251.385 489.798 252.017 488.657 252.644C488.612 252.669 488.558 252.679 488.514 252.699C488.558 252.669 488.598 252.644 488.642 252.615C489.442 252.106 490.242 251.597 491.047 251.089C491.412 250.857 491.778 250.62 492.143 250.387C492.163 250.373 492.188 250.363 492.207 250.348C492.217 250.338 492.222 250.323 492.232 250.313C492.217 250.313 492.207 250.304 492.198 250.304C492.123 250.308 492.044 250.318 491.97 250.323C491.23 250.397 490.494 250.476 489.753 250.546C488.923 250.629 488.094 250.708 487.264 250.792C486.78 250.842 486.301 250.891 485.817 250.941C485.723 250.95 485.63 250.95 485.526 250.955C485.867 250.891 486.198 250.832 486.533 250.768C487.022 250.679 487.506 250.59 487.995 250.506C488.894 250.343 489.798 250.18 490.696 250.017C491.032 249.958 491.373 249.899 491.714 249.839C491.733 249.839 491.753 249.825 491.778 249.815C491.753 249.805 491.733 249.79 491.709 249.79C491.21 249.706 490.711 249.627 490.212 249.548C489.486 249.429 488.756 249.311 488.03 249.192C488.005 249.192 487.98 249.183 487.956 249.178C487.946 249.178 487.936 249.173 487.931 249.168C487.941 249.168 487.951 249.153 487.956 249.153C487.995 249.153 488.035 249.158 488.074 249.163C488.701 249.227 489.328 249.291 489.96 249.35C490.533 249.41 491.106 249.464 491.679 249.523C491.714 249.523 491.748 249.533 491.783 249.533C491.798 249.533 491.807 249.523 491.822 249.523C491.812 249.513 491.807 249.499 491.793 249.494C491.531 249.331 491.264 249.173 491.007 249.005C490.286 248.546 489.565 248.086 488.854 247.617C487.442 246.684 486.059 245.706 484.716 244.674C484.573 244.565 484.43 244.452 484.286 244.338C484.262 244.318 484.237 244.289 484.217 244.264C484.247 244.269 484.281 244.274 484.311 244.284C484.84 244.526 485.368 244.763 485.891 245.02C487.61 245.854 489.294 246.763 490.953 247.711C491.526 248.042 492.099 248.373 492.672 248.708C492.691 248.723 492.716 248.733 492.736 248.748C492.741 248.748 492.756 248.748 492.76 248.748C492.76 248.743 492.76 248.728 492.76 248.723C492.716 248.649 492.672 248.575 492.627 248.501C491.995 247.454 491.363 246.407 490.731 245.365C490.711 245.331 490.686 245.296 490.667 245.262C490.657 245.247 490.662 245.222 490.657 245.207C490.672 245.222 490.686 245.237 490.696 245.252C490.914 245.568 491.131 245.884 491.353 246.2C491.886 246.97 492.425 247.746 492.958 248.516C492.978 248.546 493.012 248.575 493.037 248.6C493.037 248.565 493.042 248.526 493.037 248.491C492.958 247.755 492.874 247.015 492.79 246.279C492.706 245.533 492.617 244.783 492.533 244.037C492.474 243.499 492.415 242.96 492.356 242.427C492.351 242.363 492.336 242.299 492.331 242.229C492.331 242.22 492.331 242.205 492.336 242.19C492.346 242.205 492.356 242.215 492.356 242.229C492.37 242.289 492.38 242.348 492.395 242.407C492.543 243.173 492.696 243.933 492.844 244.699C493.012 245.553 493.175 246.407 493.343 247.257C493.412 247.622 493.486 247.992 493.556 248.358C493.56 248.392 493.57 248.427 493.58 248.462H493.61C493.62 248.427 493.63 248.392 493.64 248.358C493.832 247.666 494.02 246.975 494.212 246.284C494.341 245.815 494.469 245.35 494.602 244.881C494.607 244.857 494.617 244.832 494.627 244.812C494.627 244.812 494.632 244.802 494.637 244.802C494.642 244.807 494.652 244.817 494.652 244.822C494.652 244.847 494.647 244.871 494.642 244.896C494.41 246.012 494.178 247.128 493.946 248.249C493.936 248.299 493.936 248.353 493.931 248.407C493.96 248.368 493.995 248.333 494.025 248.294C495.244 246.654 496.494 245.039 497.768 243.449C498.425 242.634 499.091 241.825 499.748 241.015C499.758 241.005 499.768 240.99 499.778 240.98C499.793 240.97 499.807 240.96 499.822 240.95C499.822 240.97 499.822 240.99 499.812 241.005C499.659 241.276 499.506 241.553 499.348 241.82C498.751 242.822 498.168 243.834 497.551 244.827C496.914 245.854 496.252 246.866 495.595 247.879C495.358 248.244 495.111 248.6 494.864 248.96C494.84 248.995 494.82 249.029 494.8 249.064C494.795 249.074 494.795 249.084 494.79 249.094C494.805 249.094 494.82 249.094 494.83 249.094C494.859 249.084 494.884 249.064 494.909 249.049C496.074 248.422 497.24 247.795 498.405 247.168C498.459 247.138 498.514 247.113 498.568 247.084C498.578 247.084 498.588 247.084 498.598 247.084C498.593 247.089 498.588 247.099 498.578 247.104C498.548 247.123 498.519 247.143 498.489 247.163C497.353 247.869 496.217 248.58 495.081 249.286C495.042 249.311 495.007 249.341 494.973 249.365C495.017 249.365 495.067 249.37 495.111 249.365C495.481 249.316 495.852 249.262 496.222 249.207C496.879 249.113 497.531 249.02 498.188 248.926C498.672 248.857 499.156 248.783 499.644 248.713C500.202 248.634 500.765 248.555 501.323 248.471C501.338 248.471 501.358 248.471 501.373 248.471C501.358 248.476 501.343 248.486 501.328 248.486C501.249 248.506 501.17 248.521 501.091 248.541C500.341 248.708 499.59 248.876 498.84 249.044C497.758 249.286 496.681 249.533 495.6 249.78C495.467 249.81 495.333 249.844 495.2 249.874C495.19 249.874 495.175 249.889 495.165 249.894C495.175 249.904 495.185 249.913 495.2 249.918C495.481 249.987 495.758 250.052 496.04 250.121C496.933 250.333 497.827 250.545 498.726 250.758C498.765 250.768 498.8 250.787 498.835 250.802C498.795 250.802 498.756 250.802 498.716 250.792C497.536 250.59 496.356 250.387 495.175 250.185C495.16 250.185 495.146 250.18 495.131 250.18C495.121 250.18 495.116 250.185 495.106 250.19C495.111 250.2 495.116 250.21 495.121 250.215C495.17 250.244 495.225 250.279 495.279 250.308C496.44 251.039 497.6 251.76 498.756 252.501C499.649 253.074 500.538 253.652 501.427 254.234C502.064 254.654 502.696 255.084 503.328 255.508C503.368 255.533 503.402 255.573 503.437 255.602C503.393 255.592 503.343 255.587 503.299 255.568C502.306 255.108 501.319 254.654 500.331 254.185C499.17 253.637 498.03 253.049 496.899 252.442C496.094 252.007 495.294 251.563 494.494 251.118C494.469 251.104 494.444 251.084 494.415 251.074C494.39 251.064 494.36 251.054 494.336 251.044C494.346 251.069 494.356 251.099 494.37 251.123C494.81 251.82 495.249 252.516 495.689 253.212C496.015 253.726 496.346 254.244 496.672 254.758C496.686 254.783 496.706 254.807 496.721 254.837C496.726 254.847 496.721 254.862 496.721 254.876C496.716 254.866 496.706 254.862 496.701 254.852C496.657 254.792 496.612 254.733 496.568 254.669C495.763 253.563 494.963 252.452 494.158 251.346C494.128 251.306 494.094 251.271 494.064 251.237C494.064 251.291 494.059 251.341 494.064 251.395C494.188 252.141 494.316 252.891 494.444 253.637C494.607 254.625 494.775 255.612 494.938 256.6C494.998 256.95 495.047 257.296 495.106 257.647H495.096L495.081 257.617Z" fill="white"/>
</svg>
