<svg width="592" height="330" viewBox="0 0 592 330" fill="none" xmlns="http://www.w3.org/2000/svg">
<rect width="592" height="330" rx="20" fill="white"/>
<path opacity="0.4" d="M104 109C126.091 109 144 91.0914 144 69C144 46.9086 126.091 29 104 29C81.9086 29 64 46.9086 64 69C64 91.0914 81.9086 109 104 109Z" fill="#BCD5EF"/>
<path d="M104 30.9753C124.968 30.9753 142.025 48.0321 142.025 69C142.025 89.9679 124.968 107.025 104 107.025C83.0321 107.025 65.9753 89.9679 65.9753 69C65.9753 48.0321 83.0321 30.9753 104 30.9753ZM104 29C81.9062 29 64 46.9111 64 69C64 91.0889 81.9062 109 104 109C126.094 109 144 91.0938 144 69C144 46.9062 126.094 29 104 29Z" fill="#BCD5EF"/>
<path d="M112.167 52.9091L107.337 82H100.32L104.07 59.4716H103.9L96.7262 63.4489L97.7205 57.3693L105.647 52.9091H112.167Z" fill="#BCD5EF"/>
<path opacity="0.4" d="M104 205C126.091 205 144 187.091 144 165C144 142.909 126.091 125 104 125C81.9086 125 64 142.909 64 165C64 187.091 81.9086 205 104 205Z" fill="#BCD5EF"/>
<path d="M104 126.975C124.968 126.975 142.025 144.032 142.025 165C142.025 185.968 124.968 203.025 104 203.025C83.0321 203.025 65.9753 185.968 65.9753 165C65.9753 144.032 83.0321 126.975 104 126.975ZM104 125C81.9062 125 64 142.911 64 165C64 187.089 81.9062 205 104 205C126.094 205 144 187.094 144 165C144 142.906 126.094 125 104 125Z" fill="#BCD5EF"/>
<path d="M102.287 178.398C100.649 178.398 99.1291 178.128 97.7276 177.588C96.3261 177.048 95.1377 176.196 94.1623 175.031C93.1964 173.857 92.5335 172.328 92.1737 170.443C91.8233 168.559 91.8754 166.277 92.3299 163.597C92.7276 161.229 93.3621 159.117 94.2333 157.261C95.1045 155.396 96.1699 153.814 97.4293 152.517C98.6888 151.21 100.109 150.216 101.691 149.534C103.272 148.852 104.972 148.511 106.79 148.511C108.845 148.511 110.602 148.9 112.06 149.676C113.518 150.453 114.622 151.504 115.37 152.83C116.127 154.155 116.463 155.637 116.378 157.276H109.56C109.551 156.338 109.248 155.642 108.651 155.188C108.054 154.733 107.292 154.506 106.364 154.506C104.536 154.506 103.016 155.301 101.804 156.892C100.592 158.483 99.7447 160.59 99.2617 163.213L99.489 162.858C100.038 161.987 100.725 161.253 101.549 160.656C102.373 160.06 103.277 159.605 104.262 159.293C105.256 158.98 106.279 158.824 107.33 158.824C109.12 158.824 110.635 159.245 111.875 160.088C113.116 160.921 114.001 162.067 114.532 163.526C115.071 164.984 115.185 166.636 114.873 168.483C114.551 170.462 113.802 172.195 112.628 173.682C111.463 175.169 109.991 176.329 108.211 177.162C106.43 177.986 104.456 178.398 102.287 178.398ZM102.543 173C103.462 173 104.319 172.782 105.114 172.347C105.919 171.911 106.591 171.314 107.131 170.557C107.68 169.799 108.021 168.942 108.154 167.986C108.286 167.162 108.225 166.433 107.969 165.798C107.723 165.154 107.316 164.648 106.748 164.278C106.189 163.909 105.498 163.724 104.674 163.724C103.992 163.724 103.338 163.852 102.713 164.108C102.088 164.364 101.516 164.719 100.995 165.173C100.483 165.628 100.057 166.158 99.7163 166.764C99.3754 167.37 99.1481 168.024 99.0344 168.724C98.9113 169.567 98.9776 170.311 99.2333 170.955C99.489 171.589 99.9009 172.091 100.469 172.46C101.037 172.82 101.729 173 102.543 173Z" fill="#BCD5EF"/>
<path opacity="0.4" d="M104 301C126.091 301 144 283.091 144 261C144 238.909 126.091 221 104 221C81.9086 221 64 238.909 64 261C64 283.091 81.9086 301 104 301Z" fill="#BCD5EF"/>
<path d="M104 222.975C124.968 222.975 142.025 240.032 142.025 261C142.025 281.968 124.968 299.025 104 299.025C83.0321 299.025 65.9753 281.968 65.9753 261C65.9753 240.032 83.0321 222.975 104 222.975ZM104 221C81.9062 221 64 238.911 64 261C64 283.089 81.9062 301 104 301C126.094 301 144 283.094 144 261C144 238.906 126.094 221 104 221Z" fill="#BCD5EF"/>
<path d="M102.225 244.909L97.3956 274H90.3786L94.1286 251.472H93.9581L86.7848 255.449L87.7791 249.369L95.7053 244.909H102.225ZM122.108 244.909L117.278 274H110.261L114.011 251.472H113.841L106.668 255.449L107.662 249.369L115.588 244.909H122.108Z" fill="#BCD5EF"/>
<path opacity="0.4" d="M200 109C222.091 109 240 91.0914 240 69C240 46.9086 222.091 29 200 29C177.909 29 160 46.9086 160 69C160 91.0914 177.909 109 200 109Z" fill="#BCD5EF"/>
<path d="M200 30.9753C220.968 30.9753 238.025 48.0321 238.025 69C238.025 89.9679 220.968 107.025 200 107.025C179.032 107.025 161.975 89.9679 161.975 69C161.975 48.0321 179.032 30.9753 200 30.9753ZM200 29C177.906 29 160 46.9111 160 69C160 91.0889 177.906 109 200 109C222.094 109 240 91.0938 240 69C240 46.9062 222.094 29 200 29Z" fill="#BCD5EF"/>
<path d="M187.073 82L187.911 76.9432L200.07 67.6534C200.989 66.9337 201.775 66.2708 202.428 65.6648C203.091 65.0587 203.621 64.4527 204.019 63.8466C204.417 63.2405 204.672 62.5777 204.786 61.858C204.918 61.053 204.857 60.3617 204.601 59.7841C204.346 59.2064 203.938 58.7661 203.38 58.4631C202.821 58.1506 202.149 57.9943 201.363 57.9943C200.558 57.9943 199.819 58.16 199.147 58.4915C198.474 58.8134 197.916 59.2869 197.471 59.9119C197.035 60.5275 196.746 61.2708 196.604 62.142H189.928C190.259 60.1629 190.993 58.4536 192.13 57.0142C193.266 55.5748 194.705 54.4669 196.448 53.6903C198.19 52.9044 200.136 52.5114 202.286 52.5114C204.483 52.5114 206.334 52.8807 207.84 53.6193C209.355 54.358 210.449 55.3902 211.121 56.7159C211.803 58.0322 211.997 59.5616 211.703 61.304C211.514 62.4119 211.102 63.5104 210.468 64.5994C209.843 65.679 208.844 66.8816 207.471 68.2074C206.097 69.5237 204.208 71.1004 201.803 72.9375L197.797 76.1477L197.755 76.3324H209.559L208.607 82H187.073Z" fill="#BCD5EF"/>
<path opacity="0.4" d="M200 205C222.091 205 240 187.091 240 165C240 142.909 222.091 125 200 125C177.909 125 160 142.909 160 165C160 187.091 177.909 205 200 205Z" fill="#BCD5EF"/>
<path d="M200 126.975C220.968 126.975 238.025 144.032 238.025 165C238.025 185.968 220.968 203.025 200 203.025C179.032 203.025 161.975 185.968 161.975 165C161.975 144.032 179.032 126.975 200 126.975ZM200 125C177.906 125 160 142.911 160 165C160 187.089 177.906 205 200 205C222.094 205 240 187.094 240 165C240 142.906 222.094 125 200 125Z" fill="#BCD5EF"/>
<path d="M189.012 178L204.594 154.761L204.651 154.577H190.929L191.853 148.909H212.847L211.909 154.619L196.242 178H189.012Z" fill="#BCD5EF"/>
<path opacity="0.4" d="M200 301C222.091 301 240 283.091 240 261C240 238.909 222.091 221 200 221C177.909 221 160 238.909 160 261C160 283.091 177.909 301 200 301Z" fill="#BCD5EF"/>
<path d="M200 222.975C220.968 222.975 238.025 240.032 238.025 261C238.025 281.968 220.968 299.025 200 299.025C179.032 299.025 161.975 281.968 161.975 261C161.975 240.032 179.032 222.975 200 222.975ZM200 221C177.906 221 160 238.911 160 261C160 283.089 177.906 301 200 301C222.094 301 240 283.094 240 261C240 238.906 222.094 221 200 221Z" fill="#BCD5EF"/>
<path d="M195.413 244.909L190.583 274H183.566L187.316 251.472H187.146L179.972 255.449L180.967 249.369L188.893 244.909H195.413ZM197.014 274L197.852 268.943L210.011 259.653C210.93 258.934 211.716 258.271 212.369 257.665C213.032 257.059 213.563 256.453 213.96 255.847C214.358 255.241 214.614 254.578 214.727 253.858C214.86 253.053 214.798 252.362 214.543 251.784C214.287 251.206 213.88 250.766 213.321 250.463C212.762 250.151 212.09 249.994 211.304 249.994C210.499 249.994 209.76 250.16 209.088 250.491C208.416 250.813 207.857 251.287 207.412 251.912C206.976 252.527 206.688 253.271 206.545 254.142H199.869C200.201 252.163 200.935 250.454 202.071 249.014C203.207 247.575 204.647 246.467 206.389 245.69C208.132 244.904 210.078 244.511 212.227 244.511C214.424 244.511 216.276 244.881 217.781 245.619C219.296 246.358 220.39 247.39 221.062 248.716C221.744 250.032 221.938 251.562 221.645 253.304C221.455 254.412 221.044 255.51 220.409 256.599C219.784 257.679 218.785 258.882 217.412 260.207C216.039 261.524 214.15 263.1 211.744 264.938L207.739 268.148L207.696 268.332H219.5L218.548 274H197.014Z" fill="#BCD5EF"/>
<path opacity="0.4" d="M296 109C318.091 109 336 91.0914 336 69C336 46.9086 318.091 29 296 29C273.909 29 256 46.9086 256 69C256 91.0914 273.909 109 296 109Z" fill="#BCD5EF"/>
<path d="M296 30.9753C316.968 30.9753 334.025 48.0321 334.025 69C334.025 89.9679 316.968 107.025 296 107.025C275.032 107.025 257.975 89.9679 257.975 69C257.975 48.0321 275.032 30.9753 296 30.9753ZM296 29C273.906 29 256 46.9111 256 69C256 91.0889 273.906 109 296 109C318.094 109 336 91.0938 336 69C336 46.9062 318.094 29 296 29Z" fill="#BCD5EF"/>
<path d="M293.836 82.3977C291.564 82.3977 289.608 82.0189 287.97 81.2614C286.341 80.4943 285.138 79.4432 284.362 78.108C283.585 76.7633 283.344 75.2102 283.637 73.4489H290.612C290.517 74.0833 290.607 74.6468 290.882 75.1392C291.166 75.6222 291.597 76.0009 292.174 76.2756C292.761 76.5502 293.443 76.6875 294.22 76.6875C295.11 76.6875 295.924 76.5123 296.663 76.1619C297.411 75.8116 298.027 75.3428 298.51 74.7557C298.993 74.1686 299.291 73.5246 299.404 72.8239C299.518 72.142 299.414 71.5691 299.092 71.1051C298.77 70.6411 298.278 70.2907 297.615 70.054C296.961 69.8172 296.161 69.6989 295.214 69.6989H292.245L293.069 64.6989H295.74C296.611 64.6989 297.411 64.5379 298.14 64.2159C298.879 63.8939 299.49 63.4489 299.973 62.8807C300.456 62.3125 300.759 61.6591 300.882 60.9205C300.976 60.3333 300.929 59.822 300.74 59.3864C300.55 58.9413 300.219 58.6004 299.745 58.3636C299.281 58.1174 298.675 57.9943 297.927 57.9943C297.132 57.9943 296.365 58.1316 295.626 58.4062C294.897 58.6809 294.281 59.0691 293.779 59.571C293.278 60.0729 292.975 60.6553 292.87 61.3182H286.194C286.488 59.5947 287.208 58.0748 288.353 56.7585C289.499 55.4328 290.929 54.3958 292.643 53.6477C294.367 52.8902 296.242 52.5114 298.268 52.5114C300.408 52.5114 302.217 52.9138 303.694 53.7188C305.181 54.5142 306.265 55.5748 306.947 56.9006C307.638 58.2169 307.851 59.6515 307.586 61.2045C307.312 62.8996 306.564 64.2112 305.342 65.1392C304.12 66.0578 302.6 66.6307 300.782 66.858V67.071C302.79 67.3172 304.324 68.089 305.385 69.3864C306.455 70.6742 306.838 72.2462 306.535 74.1023C306.279 75.7027 305.565 77.1278 304.39 78.3778C303.216 79.6278 301.715 80.6127 299.887 81.3324C298.069 82.0426 296.052 82.3977 293.836 82.3977Z" fill="#BCD5EF"/>
<path opacity="0.4" d="M296 205C318.091 205 336 187.091 336 165C336 142.909 318.091 125 296 125C273.909 125 256 142.909 256 165C256 187.091 273.909 205 296 205Z" fill="#BCD5EF"/>
<path d="M296 126.975C316.968 126.975 334.025 144.032 334.025 165C334.025 185.968 316.968 203.025 296 203.025C275.032 203.025 257.975 185.968 257.975 165C257.975 144.032 275.032 126.975 296 126.975ZM296 125C273.906 125 256 142.911 256 165C256 187.089 273.906 205 296 205C318.094 205 336 187.094 336 165C336 142.906 318.094 125 296 125Z" fill="#BCD5EF"/>
<path d="M293.637 178.398C291.374 178.398 289.409 178.038 287.743 177.318C286.076 176.589 284.835 175.595 284.021 174.335C283.216 173.076 282.946 171.66 283.211 170.088C283.42 168.895 283.898 167.801 284.646 166.807C285.394 165.803 286.313 164.97 287.402 164.307C288.5 163.644 289.67 163.218 290.91 163.028V162.815C289.386 162.512 288.216 161.759 287.402 160.557C286.587 159.345 286.313 157.934 286.578 156.324C286.824 154.818 287.501 153.478 288.609 152.304C289.726 151.12 291.142 150.192 292.856 149.52C294.57 148.848 296.45 148.511 298.495 148.511C300.55 148.511 302.326 148.857 303.822 149.548C305.328 150.23 306.445 151.168 307.174 152.361C307.904 153.554 308.145 154.908 307.899 156.423C307.634 158.052 306.89 159.454 305.669 160.628C304.447 161.793 303.008 162.522 301.35 162.815V163.028C302.525 163.218 303.552 163.649 304.433 164.321C305.323 164.993 305.976 165.836 306.393 166.849C306.81 167.853 306.909 168.966 306.691 170.188C306.436 171.741 305.702 173.137 304.49 174.378C303.278 175.618 301.729 176.598 299.845 177.318C297.97 178.038 295.901 178.398 293.637 178.398ZM294.39 173.412C295.261 173.412 296.052 173.246 296.762 172.915C297.482 172.574 298.074 172.11 298.538 171.523C299.011 170.926 299.31 170.254 299.433 169.506C299.556 168.748 299.48 168.08 299.206 167.503C298.931 166.925 298.491 166.475 297.885 166.153C297.288 165.822 296.568 165.656 295.725 165.656C294.873 165.656 294.087 165.827 293.368 166.168C292.648 166.509 292.051 166.977 291.578 167.574C291.104 168.161 290.801 168.838 290.669 169.605C290.546 170.344 290.621 171.002 290.896 171.58C291.18 172.157 291.62 172.607 292.217 172.929C292.823 173.251 293.547 173.412 294.39 173.412ZM296.478 160.699C297.236 160.699 297.927 160.543 298.552 160.23C299.177 159.918 299.698 159.491 300.115 158.952C300.531 158.402 300.797 157.787 300.91 157.105C301.033 156.414 300.976 155.812 300.74 155.301C300.512 154.78 300.138 154.378 299.618 154.094C299.106 153.81 298.486 153.668 297.757 153.668C296.999 153.668 296.303 153.819 295.669 154.122C295.044 154.425 294.518 154.842 294.092 155.372C293.666 155.893 293.396 156.499 293.282 157.19C293.159 157.872 293.216 158.478 293.453 159.009C293.699 159.529 294.083 159.941 294.603 160.244C295.124 160.547 295.749 160.699 296.478 160.699Z" fill="#BCD5EF"/>
<path opacity="0.4" d="M296 301C318.091 301 336 283.091 336 261C336 238.909 318.091 221 296 221C273.909 221 256 238.909 256 261C256 283.091 273.909 301 296 301Z" fill="#BCD5EF"/>
<path d="M296 222.975C316.968 222.975 334.025 240.032 334.025 261C334.025 281.968 316.968 299.025 296 299.025C275.032 299.025 257.975 281.968 257.975 261C257.975 240.032 275.032 222.975 296 222.975ZM296 221C273.906 221 256 238.911 256 261C256 283.089 273.906 301 296 301C318.094 301 336 283.094 336 261C336 238.906 318.094 221 296 221Z" fill="#BCD5EF"/>
<path d="M290.827 244.909L285.997 274H278.98L282.73 251.472H282.56L275.386 255.449L276.381 249.369L284.307 244.909H290.827ZM303.778 274.398C301.505 274.398 299.549 274.019 297.911 273.261C296.282 272.494 295.08 271.443 294.303 270.108C293.527 268.763 293.285 267.21 293.579 265.449H300.553C300.459 266.083 300.549 266.647 300.823 267.139C301.107 267.622 301.538 268.001 302.116 268.276C302.703 268.55 303.385 268.688 304.161 268.688C305.051 268.688 305.866 268.512 306.604 268.162C307.353 267.812 307.968 267.343 308.451 266.756C308.934 266.169 309.232 265.525 309.346 264.824C309.46 264.142 309.355 263.569 309.033 263.105C308.711 262.641 308.219 262.291 307.556 262.054C306.903 261.817 306.103 261.699 305.156 261.699H302.187L303.011 256.699H305.681C306.552 256.699 307.353 256.538 308.082 256.216C308.82 255.894 309.431 255.449 309.914 254.881C310.397 254.312 310.7 253.659 310.823 252.92C310.918 252.333 310.871 251.822 310.681 251.386C310.492 250.941 310.16 250.6 309.687 250.364C309.223 250.117 308.617 249.994 307.869 249.994C307.073 249.994 306.306 250.132 305.567 250.406C304.838 250.681 304.223 251.069 303.721 251.571C303.219 252.073 302.916 252.655 302.812 253.318H296.136C296.429 251.595 297.149 250.075 298.295 248.759C299.441 247.433 300.871 246.396 302.585 245.648C304.308 244.89 306.183 244.511 308.21 244.511C310.35 244.511 312.158 244.914 313.636 245.719C315.122 246.514 316.207 247.575 316.888 248.901C317.58 250.217 317.793 251.652 317.528 253.205C317.253 254.9 316.505 256.211 315.283 257.139C314.062 258.058 312.542 258.631 310.724 258.858V259.071C312.731 259.317 314.265 260.089 315.326 261.386C316.396 262.674 316.78 264.246 316.477 266.102C316.221 267.703 315.506 269.128 314.332 270.378C313.157 271.628 311.656 272.613 309.829 273.332C308.011 274.043 305.994 274.398 303.778 274.398Z" fill="#BCD5EF"/>
<path opacity="0.4" d="M392 109C414.091 109 432 91.0914 432 69C432 46.9086 414.091 29 392 29C369.909 29 352 46.9086 352 69C352 91.0914 369.909 109 392 109Z" fill="#BCD5EF"/>
<path d="M392 30.9753C412.968 30.9753 430.025 48.0321 430.025 69C430.025 89.9679 412.968 107.025 392 107.025C371.032 107.025 353.975 89.9679 353.975 69C353.975 48.0321 371.032 30.9753 392 30.9753ZM392 29C369.906 29 352 46.9111 352 69C352 91.0889 369.906 109 392 109C414.094 109 432 91.0938 432 69C432 46.9062 414.094 29 392 29Z" fill="#BCD5EF"/>
<path d="M378.478 77.1705L379.387 71.6875L394.43 52.9091H399.302L398.066 60.3523H395.239L386.433 71.4034L386.376 71.6307H403.648L402.725 77.1705H378.478ZM391.731 82L392.825 75.4943L393.364 73.0938L396.702 52.9091H403.279L398.45 82H391.731Z" fill="#BCD5EF"/>
<path opacity="0.4" d="M392 205C414.091 205 432 187.091 432 165C432 142.909 414.091 125 392 125C369.909 125 352 142.909 352 165C352 187.091 369.909 205 392 205Z" fill="#BCD5EF"/>
<path d="M392 126.975C412.968 126.975 430.025 144.032 430.025 165C430.025 185.968 412.968 203.025 392 203.025C371.032 203.025 353.975 185.968 353.975 165C353.975 144.032 371.032 126.975 392 126.975ZM392 125C369.906 125 352 142.911 352 165C352 187.089 369.906 205 392 205C414.094 205 432 187.094 432 165C432 142.906 414.094 125 392 125Z" fill="#BCD5EF"/>
<path d="M393.938 148.511C395.576 148.511 397.096 148.781 398.498 149.321C399.908 149.861 401.097 150.713 402.063 151.878C403.029 153.033 403.692 154.544 404.051 156.409C404.411 158.275 404.364 160.543 403.909 163.213C403.502 165.599 402.863 167.735 401.992 169.619C401.13 171.494 400.065 173.085 398.796 174.392C397.536 175.689 396.116 176.684 394.534 177.375C392.962 178.057 391.263 178.398 389.435 178.398C387.39 178.398 385.633 178.009 384.165 177.233C382.707 176.447 381.604 175.386 380.855 174.051C380.117 172.706 379.785 171.201 379.861 169.534H386.665C386.675 170.538 386.978 171.267 387.574 171.722C388.171 172.176 388.938 172.403 389.875 172.403C391.703 172.403 393.223 171.603 394.435 170.003C395.657 168.402 396.504 166.267 396.978 163.597L396.75 163.952C396.211 164.823 395.529 165.557 394.705 166.153C393.881 166.75 392.972 167.205 391.978 167.517C390.993 167.82 389.97 167.972 388.909 167.972C387.129 167.972 385.619 167.555 384.378 166.722C383.138 165.888 382.248 164.747 381.708 163.298C381.168 161.849 381.054 160.206 381.367 158.369C381.698 156.409 382.446 154.69 383.611 153.213C384.776 151.726 386.248 150.571 388.029 149.747C389.809 148.914 391.779 148.502 393.938 148.511ZM393.696 153.909C392.787 153.909 391.926 154.127 391.111 154.562C390.306 154.998 389.629 155.59 389.08 156.338C388.54 157.086 388.204 157.929 388.071 158.866C387.958 159.671 388.024 160.396 388.27 161.04C388.516 161.674 388.919 162.176 389.478 162.545C390.046 162.905 390.742 163.085 391.566 163.085C392.248 163.085 392.901 162.957 393.526 162.702C394.16 162.446 394.733 162.096 395.245 161.651C395.766 161.196 396.196 160.666 396.537 160.06C396.878 159.454 397.101 158.81 397.205 158.128C397.328 157.313 397.262 156.589 397.006 155.955C396.76 155.32 396.353 154.823 395.784 154.463C395.216 154.094 394.52 153.909 393.696 153.909Z" fill="#BCD5EF"/>
<path opacity="0.4" d="M392 301C414.091 301 432 283.091 432 261C432 238.909 414.091 221 392 221C369.909 221 352 238.909 352 261C352 283.091 369.909 301 392 301Z" fill="#BCD5EF"/>
<path d="M392 222.975C412.968 222.975 430.025 240.032 430.025 261C430.025 281.968 412.968 299.025 392 299.025C371.032 299.025 353.975 281.968 353.975 261C353.975 240.032 371.032 222.975 392 222.975ZM392 221C369.906 221 352 238.911 352 261C352 283.089 369.906 301 392 301C414.094 301 432 283.094 432 261C432 238.906 414.094 221 392 221Z" fill="#BCD5EF"/>
<path d="M386.377 244.909L381.548 274H374.531L378.281 251.472H378.11L370.937 255.449L371.931 249.369L379.858 244.909H386.377ZM388.419 269.17L389.328 263.688L404.371 244.909H409.243L408.007 252.352H405.181L396.374 263.403L396.317 263.631H413.59L412.667 269.17H388.419ZM401.672 274L402.766 267.494L403.306 265.094L406.644 244.909H413.221L408.391 274H401.672Z" fill="#BCD5EF"/>
<path opacity="0.4" d="M488 109C510.091 109 528 91.0914 528 69C528 46.9086 510.091 29 488 29C465.909 29 448 46.9086 448 69C448 91.0914 465.909 109 488 109Z" fill="#BCD5EF"/>
<path d="M488 30.9753C508.968 30.9753 526.025 48.0321 526.025 69C526.025 89.9679 508.968 107.025 488 107.025C467.032 107.025 449.975 89.9679 449.975 69C449.975 48.0321 467.032 30.9753 488 30.9753ZM488 29C465.906 29 448 46.9111 448 69C448 91.0889 465.906 109 488 109C510.094 109 528 91.0938 528 69C528 46.9062 510.094 29 488 29Z" fill="#BCD5EF"/>
<path d="M485.762 82.3977C483.65 82.3977 481.832 82.0142 480.307 81.2472C478.783 80.4801 477.656 79.4242 476.926 78.0795C476.197 76.7348 475.956 75.1913 476.202 73.4489H483.02C482.897 74.5095 483.186 75.3665 483.887 76.0199C484.597 76.6733 485.516 77 486.642 77C487.542 77 488.361 76.8059 489.1 76.4176C489.848 76.0294 490.473 75.4848 490.975 74.7841C491.477 74.0833 491.803 73.2689 491.955 72.3409C492.116 71.4034 492.059 70.5843 491.784 69.8835C491.51 69.1733 491.06 68.6241 490.435 68.2358C489.81 67.8475 489.052 67.6534 488.162 67.6534C487.31 67.6534 486.477 67.8428 485.662 68.2216C484.857 68.5909 484.204 69.1023 483.702 69.7557L477.679 68.5909L481.557 52.9091H500.222L499.299 58.5767H486.415L484.611 65.4375H484.782C485.397 64.6326 486.287 63.9697 487.452 63.4489C488.617 62.9186 489.886 62.6534 491.259 62.6534C493.001 62.6534 494.483 63.0606 495.705 63.875C496.936 64.6799 497.826 65.8021 498.375 67.2415C498.925 68.6714 499.043 70.3049 498.73 72.142C498.418 74.1402 497.665 75.911 496.472 77.4545C495.288 78.9886 493.773 80.196 491.926 81.0767C490.089 81.9574 488.034 82.3977 485.762 82.3977Z" fill="#BCD5EF"/>
<path opacity="0.4" d="M488 205C510.091 205 528 187.091 528 165C528 142.909 510.091 125 488 125C465.909 125 448 142.909 448 165C448 187.091 465.909 205 488 205Z" fill="#BCD5EF"/>
<path d="M488 126.975C508.968 126.975 526.025 144.032 526.025 165C526.025 185.968 508.968 203.025 488 203.025C467.032 203.025 449.975 185.968 449.975 165C449.975 144.032 467.032 126.975 488 126.975ZM488 125C465.906 125 448 142.911 448 165C448 187.089 465.906 205 488 205C510.094 205 528 187.094 528 165C528 142.906 510.094 125 488 125Z" fill="#BCD5EF"/>
<path d="M481.987 148.909L477.157 178H470.14L473.89 155.472H473.72L466.547 159.449L467.541 153.369L475.467 148.909H481.987ZM495.52 178.71C492.973 178.71 490.875 178.109 489.228 176.906C487.58 175.694 486.448 173.956 485.833 171.693C485.217 169.42 485.184 166.688 485.733 163.497C486.273 160.306 487.225 157.598 488.588 155.372C489.952 153.137 491.647 151.437 493.674 150.273C495.7 149.098 497.978 148.511 500.506 148.511C503.044 148.511 505.132 149.098 506.77 150.273C508.418 151.437 509.554 153.137 510.179 155.372C510.804 157.598 510.852 160.306 510.321 163.497C509.791 166.688 508.839 169.42 507.466 171.693C506.103 173.966 504.403 175.704 502.367 176.906C500.34 178.109 498.058 178.71 495.52 178.71ZM496.486 172.957C498.001 172.957 499.346 172.181 500.52 170.628C501.694 169.075 502.551 166.698 503.091 163.497C503.451 161.404 503.532 159.671 503.333 158.298C503.143 156.925 502.722 155.902 502.069 155.23C501.425 154.558 500.601 154.222 499.597 154.222C498.082 154.222 496.728 154.984 495.534 156.509C494.341 158.024 493.48 160.353 492.949 163.497C492.599 165.637 492.523 167.408 492.722 168.81C492.921 170.202 493.347 171.243 494 171.935C494.654 172.616 495.482 172.957 496.486 172.957Z" fill="#BCD5EF"/>
<path opacity="0.4" d="M488 301C510.091 301 528 283.091 528 261C528 238.909 510.091 221 488 221C465.909 221 448 238.909 448 261C448 283.091 465.909 301 488 301Z" fill="#BCD5EF"/>
<path d="M488 222.975C508.968 222.975 526.025 240.032 526.025 261C526.025 281.968 508.968 299.025 488 299.025C467.032 299.025 449.975 281.968 449.975 261C449.975 240.032 467.032 222.975 488 222.975ZM488 221C465.906 221 448 238.911 448 261C448 283.089 465.906 301 488 301C510.094 301 528 283.094 528 261C528 238.906 510.094 221 488 221Z" fill="#BCD5EF"/>
<path d="M483.022 244.909L478.192 274H471.175L474.925 251.472H474.755L467.582 255.449L468.576 249.369L476.502 244.909H483.022ZM495.703 274.398C493.591 274.398 491.773 274.014 490.249 273.247C488.724 272.48 487.597 271.424 486.868 270.08C486.139 268.735 485.897 267.191 486.143 265.449H492.962C492.839 266.509 493.127 267.366 493.828 268.02C494.538 268.673 495.457 269 496.584 269C497.483 269 498.303 268.806 499.041 268.418C499.789 268.029 500.414 267.485 500.916 266.784C501.418 266.083 501.745 265.269 501.896 264.341C502.057 263.403 502 262.584 501.726 261.884C501.451 261.173 501.001 260.624 500.376 260.236C499.751 259.848 498.994 259.653 498.104 259.653C497.251 259.653 496.418 259.843 495.604 260.222C494.799 260.591 494.145 261.102 493.643 261.756L487.621 260.591L491.499 244.909H510.163L509.24 250.577H496.357L494.553 257.438H494.723C495.339 256.633 496.229 255.97 497.393 255.449C498.558 254.919 499.827 254.653 501.2 254.653C502.943 254.653 504.425 255.061 505.646 255.875C506.877 256.68 507.768 257.802 508.317 259.241C508.866 260.671 508.984 262.305 508.672 264.142C508.359 266.14 507.607 267.911 506.413 269.455C505.23 270.989 503.714 272.196 501.868 273.077C500.031 273.957 497.976 274.398 495.703 274.398Z" fill="#BCD5EF"/>
<path d="M104 108.012C82.4889 108.012 64.9876 90.511 64.9876 68.9999C64.9876 47.4888 82.4889 29.9875 104 29.9875C125.511 29.9875 143.012 47.4888 143.012 68.9999C143.012 90.511 125.511 108.012 104 108.012Z" fill="#F4AA1C"/>
<path d="M104 30.9753C124.968 30.9753 142.025 48.0321 142.025 69C142.025 89.9679 124.968 107.025 104 107.025C83.0321 107.025 65.9753 89.9679 65.9753 69C65.9753 48.0321 83.0321 30.9753 104 30.9753ZM104 29C81.9062 29 64 46.9062 64 69C64 91.0938 81.9062 109 104 109C126.094 109 144 91.0889 144 69C144 46.9111 126.094 29 104 29Z" fill="#F4AA1C"/>
<path d="M132.262 53.8098L112.81 51.1777L98.6222 37.5974L90.3605 55.2468L72.8049 64.5801L87.3679 78.1011L90.4938 97.474L107.763 88.0616L127.239 90.8122L123.743 71.5085L132.262 53.8098Z" fill="white" stroke="white" stroke-width="5" stroke-miterlimit="10"/>
<path opacity="0.5" d="M98.6222 37.5974L95.516 60.4665L72.8049 64.5801L93.5951 74.5999L90.4938 97.474L106.449 80.7925L127.239 90.8172L116.306 70.4863L132.262 53.8098L109.551 57.9233L98.6222 37.5974Z" fill="#141417"/>
<path d="M132.262 53.8098L121.16 55.8197L124.494 61.9333L132.262 53.8098Z" fill="#F4E19D"/>
<path d="M113.047 64.1208L121.16 55.8196L124.494 61.9332L113.047 64.1208Z" fill="#F2CD61"/>
<path d="M116.306 70.4862L113.047 64.1208L124.494 61.9331L116.306 70.4862Z" fill="#BE9C21"/>
<path d="M109.551 57.9233L113.047 64.1208L121.16 55.8196L109.551 57.9233Z" fill="#EDC946"/>
<path d="M104.212 68.8962L109.551 57.9233L113.047 64.1209L104.212 68.8962Z" fill="#7F6814"/>
<path d="M116.306 70.4863L104.212 68.8962L113.047 64.1208L116.306 70.4863Z" fill="#F3C527"/>
<path d="M104.212 68.8962L111.402 75.9925L116.306 70.4864L104.212 68.8962Z" fill="#F2CD61"/>
<path d="M121.901 80.8913L116.306 70.4863L111.402 75.9925L121.901 80.8913Z" fill="#7F6814"/>
<path d="M116.988 85.8739L111.402 75.9924L121.901 80.8912L116.988 85.8739Z" fill="#F3C527"/>
<path d="M127.239 90.8173L116.988 85.8741L121.901 80.8914L127.239 90.8173Z" fill="#BE9C21"/>
<path d="M106.449 80.7924L111.402 75.9924L116.988 85.8739L106.449 80.7924Z" fill="#EDC946"/>
<path d="M104.212 68.8962L111.402 75.9925L106.449 80.7925L99.9358 78.0666L104.212 68.8962Z" fill="#F4E19D"/>
<path d="M98.2321 89.3852L99.9358 78.0667L106.449 80.7926L98.2321 89.3852Z" fill="#F2CD61"/>
<path d="M90.4938 97.4739L98.2321 89.385L91.9852 86.4763L90.4938 97.4739Z" fill="#7F6814"/>
<path d="M91.9852 86.4764L93.595 74.5999L99.9358 78.0665L91.9852 86.4764Z" fill="#EDC946"/>
<path d="M98.2321 89.3852L91.9852 86.4765L99.9358 78.0667L98.2321 89.3852Z" fill="#BE9C21"/>
<path d="M93.5951 74.5999L104.212 68.8962L99.9358 78.0666L93.5951 74.5999Z" fill="#F3C527"/>
<path d="M94.4593 67.553L93.5951 74.5999L104.212 68.8962L94.4593 67.553Z" fill="#F2CD61"/>
<path d="M83.2 69.5925L93.595 74.5999L94.4592 67.553L83.2 69.5925Z" fill="#BE9C21"/>
<path d="M83.9062 62.5703L94.4592 67.553L83.2 69.5925" fill="#F4E19D"/>
<path d="M83.2 69.5925L72.8049 64.5802L83.9062 62.5703L83.2 69.5925Z" fill="#EDC946"/>
<path d="M83.9062 62.5703L95.516 60.4666L94.4592 67.553L83.9062 62.5703Z" fill="#7F6814"/>
<path d="M104.212 68.8962L94.4593 67.553L95.516 60.4666L104.212 68.8962Z" fill="#BE9C21"/>
<path d="M102.44 59.2122L95.5161 60.4665L104.212 68.8961L102.44 59.2122Z" fill="#F3C527"/>
<path d="M109.551 57.9233L102.439 59.2122L104.212 68.8962L109.551 57.9233Z" fill="#F2CD61"/>
<path d="M104.104 47.79L102.439 59.2123L109.551 57.9234L104.104 47.79Z" fill="#F4E19D"/>
<path d="M98.6222 37.5974L104.104 47.79L97.0617 49.069L98.6222 37.5974Z" fill="#F2CD61"/>
<path d="M95.5161 60.4666L97.0617 49.0691L102.44 59.2123L95.5161 60.4666Z" fill="#EDC946"/>
<path d="M104.104 47.79L97.0617 49.0691L102.439 59.2123L104.104 47.79Z" fill="#BE9C21"/>
<path d="M120.686 70.916L116.306 70.4864L132.262 53.8098L120.686 70.916Z" fill="#F3C527"/>
<path d="M127.24 90.8172L120.686 70.916L116.306 70.4863L127.24 90.8172Z" fill="#EDC946"/>
<path d="M123.743 71.5086L120.686 70.916L127.24 90.8173L123.743 71.5086Z" fill="#BE9C21"/>
<path d="M132.262 53.8098L123.743 71.5086L120.686 70.916L132.262 53.8098Z" fill="#F2CD61"/>
<path d="M107.126 84.5505L106.449 80.7925L127.239 90.8172L107.126 84.5505Z" fill="#F4E19D"/>
<path d="M107.763 88.0616L107.126 84.5505L127.239 90.8172L107.763 88.0616Z" fill="#F3C527"/>
<path d="M90.4938 97.474L107.763 88.0616L107.126 84.5505L90.4938 97.474Z" fill="#F2CD61"/>
<path d="M106.449 80.7925L107.126 84.5505L90.4938 97.474L106.449 80.7925Z" fill="#EDC946"/>
<path d="M90.2568 76.427L93.595 74.5999L90.4938 97.4739L90.2568 76.427Z" fill="#F4E19D"/>
<path d="M72.8049 64.5801L90.2568 76.427L93.5951 74.5998L72.8049 64.5801Z" fill="#F2CD61"/>
<path d="M87.3679 78.1011L90.2568 76.427L90.4938 97.4739L87.3679 78.1011Z" fill="#F3C527"/>
<path d="M72.8049 64.5801L87.3679 78.1011L90.2568 76.427L72.8049 64.5801Z" fill="#EDC946"/>
<path d="M92.6568 57.6023L95.516 60.4665L72.8049 64.5801L92.6568 57.6023Z" fill="#F2CD61"/>
<path d="M90.3605 55.2468L92.6568 57.6024L72.8049 64.5802L90.3605 55.2468Z" fill="#EDC946"/>
<path d="M98.6222 37.5974L90.3605 55.2468L92.6568 57.6024L98.6222 37.5974Z" fill="#F4E19D"/>
<path d="M95.516 60.4665L92.6568 57.6024L98.6222 37.5974L95.516 60.4665Z" fill="#F3C527"/>
<path d="M111.254 54.2344L109.551 57.9233L98.6222 37.5974L111.254 54.2344Z" fill="#EDC946"/>
<path d="M132.262 53.8098L109.551 57.9234L111.254 54.2345L132.262 53.8098Z" fill="#F2CD61"/>
<path d="M112.81 51.1777L111.254 54.2345L132.262 53.8098L112.81 51.1777Z" fill="#F3C527"/>
<path d="M98.6222 37.5974L112.81 51.1777L111.254 54.2344L98.6222 37.5974Z" fill="#F4E19D"/>
<path d="M111.081 65.6171C111.072 65.5727 111.057 65.5332 111.047 65.4887C110.919 64.9653 110.79 64.4369 110.662 63.9134C110.42 62.9307 110.173 61.9529 109.931 60.9702C109.802 60.4665 109.679 59.9628 109.551 59.4541C109.551 59.4393 109.551 59.4245 109.541 59.4097C109.531 59.3949 109.521 59.3801 109.511 59.3653C109.501 59.3751 109.491 59.385 109.486 59.3998C109.472 59.4344 109.462 59.464 109.447 59.4986C108.948 60.7825 108.454 62.0616 107.956 63.3406C107.936 63.385 107.906 63.4295 107.881 63.469C107.891 63.4196 107.896 63.3702 107.911 63.3257C108.286 62.1356 108.662 60.9455 109.037 59.7554C109.062 59.6714 109.091 59.5924 109.116 59.5085C109.116 59.4986 109.116 59.4838 109.106 59.469C109.096 59.4739 109.081 59.4788 109.072 59.4887C108.968 59.6319 108.864 59.7751 108.76 59.9183C107.625 61.4838 106.449 63.0245 105.225 64.5257C104.504 65.4048 103.758 66.264 103.027 67.1332C103.012 67.1529 102.998 67.1727 102.978 67.1924C102.963 67.2023 102.948 67.2072 102.928 67.2171C102.928 67.2023 102.938 67.1875 102.943 67.1776C103.042 66.9801 103.146 66.7825 103.249 66.585C103.99 65.1776 104.81 63.8245 105.674 62.4862C106.469 61.2517 107.299 60.0369 108.153 58.8369C108.188 58.7875 108.217 58.7332 108.247 58.6838C108.193 58.7085 108.133 58.7282 108.079 58.7578C106.938 59.385 105.798 60.0171 104.657 60.6443C104.612 60.669 104.558 60.6788 104.514 60.6986C104.558 60.669 104.598 60.6443 104.642 60.6146C105.442 60.106 106.242 59.5974 107.047 59.0887C107.412 58.8566 107.778 58.6196 108.143 58.3875C108.163 58.3727 108.188 58.3628 108.207 58.348C108.217 58.3381 108.222 58.3233 108.232 58.3134C108.217 58.3134 108.207 58.3035 108.198 58.3035C108.123 58.3085 108.044 58.3183 107.97 58.3233C107.23 58.3974 106.494 58.4764 105.753 58.5455C104.923 58.6295 104.094 58.7085 103.264 58.7924C102.78 58.8418 102.301 58.8912 101.817 58.9406C101.723 58.9504 101.63 58.9504 101.526 58.9554C101.867 58.8912 102.198 58.8319 102.533 58.7677C103.022 58.6788 103.506 58.5899 103.995 58.506C104.894 58.343 105.798 58.1801 106.696 58.0171C107.032 57.9578 107.373 57.8986 107.714 57.8393C107.733 57.8393 107.753 57.8245 107.778 57.8146C107.753 57.8048 107.733 57.7899 107.709 57.7899C107.21 57.706 106.711 57.627 106.212 57.548C105.486 57.4295 104.756 57.3109 104.03 57.1924C104.005 57.1924 103.98 57.1825 103.956 57.1776C103.946 57.1776 103.936 57.1727 103.931 57.1677C103.941 57.1677 103.951 57.1529 103.956 57.1529C103.995 57.1529 104.035 57.1578 104.074 57.1628C104.701 57.227 105.328 57.2912 105.96 57.3504C106.533 57.4097 107.106 57.464 107.679 57.5233C107.714 57.5233 107.748 57.5332 107.783 57.5332C107.798 57.5332 107.807 57.5233 107.822 57.5233C107.812 57.5134 107.807 57.4986 107.793 57.4936C107.531 57.3307 107.264 57.1727 107.007 57.0048C106.286 56.5455 105.565 56.0862 104.854 55.6171C103.442 54.6838 102.059 53.706 100.716 52.6739C100.573 52.5653 100.43 52.4517 100.286 52.3381C100.262 52.3183 100.237 52.2887 100.217 52.264C100.247 52.269 100.281 52.2739 100.311 52.2838C100.84 52.5257 101.368 52.7628 101.891 53.0196C103.61 53.8541 105.294 54.7628 106.953 55.7109C107.526 56.0418 108.099 56.3727 108.672 56.7085C108.691 56.7233 108.716 56.7332 108.736 56.748C108.741 56.748 108.756 56.748 108.76 56.748C108.76 56.743 108.76 56.7282 108.76 56.7233C108.716 56.6492 108.672 56.5751 108.627 56.5011C107.995 55.4541 107.363 54.4072 106.731 53.3653C106.711 53.3307 106.686 53.2961 106.667 53.2616C106.657 53.2467 106.662 53.222 106.657 53.2072C106.672 53.222 106.686 53.2369 106.696 53.2517C106.914 53.5677 107.131 53.8838 107.353 54.1998C107.886 54.9702 108.425 55.7455 108.958 56.5159C108.978 56.5455 109.012 56.5751 109.037 56.5998C109.037 56.5653 109.042 56.5257 109.037 56.4912C108.958 55.7554 108.874 55.0146 108.79 54.2788C108.706 53.5332 108.617 52.7825 108.533 52.0369C108.474 51.4986 108.415 50.9603 108.356 50.427C108.351 50.3628 108.336 50.2986 108.331 50.2295C108.331 50.2196 108.331 50.2048 108.336 50.1899C108.346 50.2048 108.356 50.2146 108.356 50.2295C108.37 50.2887 108.38 50.348 108.395 50.4072C108.543 51.1727 108.696 51.9332 108.844 52.6986C109.012 53.5529 109.175 54.4072 109.343 55.2566C109.412 55.622 109.486 55.9924 109.556 56.3578C109.56 56.3924 109.57 56.427 109.58 56.4616H109.61C109.62 56.427 109.63 56.3924 109.64 56.3578C109.832 55.6665 110.02 54.9751 110.212 54.2838C110.341 53.8146 110.469 53.3504 110.602 52.8813C110.607 52.8566 110.617 52.8319 110.627 52.8122C110.627 52.8122 110.632 52.8023 110.637 52.8023C110.642 52.8072 110.652 52.8171 110.652 52.822C110.652 52.8467 110.647 52.8714 110.642 52.8961C110.41 54.0122 110.178 55.1282 109.946 56.2492C109.936 56.2986 109.936 56.3529 109.931 56.4072C109.96 56.3677 109.995 56.3332 110.025 56.2936C111.244 54.6541 112.494 53.0393 113.768 51.4492C114.425 50.6344 115.091 49.8245 115.748 49.0146C115.758 49.0048 115.768 48.9899 115.778 48.9801C115.793 48.9702 115.807 48.9603 115.822 48.9504C115.822 48.9702 115.822 48.9899 115.812 49.0048C115.659 49.2764 115.506 49.5529 115.348 49.8196C114.751 50.822 114.168 51.8344 113.551 52.827C112.914 53.8541 112.252 54.8665 111.595 55.8788C111.358 56.2443 111.111 56.5998 110.864 56.9603C110.84 56.9949 110.82 57.0295 110.8 57.064C110.795 57.0739 110.795 57.0838 110.79 57.0936C110.805 57.0936 110.82 57.0936 110.83 57.0936C110.859 57.0838 110.884 57.064 110.909 57.0492C112.074 56.422 113.24 55.7949 114.405 55.1677C114.459 55.1381 114.514 55.1134 114.568 55.0838C114.578 55.0838 114.588 55.0838 114.598 55.0838C114.593 55.0887 114.588 55.0986 114.578 55.1035C114.548 55.1233 114.519 55.143 114.489 55.1628C113.353 55.869 112.217 56.5801 111.081 57.2862C111.042 57.3109 111.007 57.3406 110.973 57.3653C111.017 57.3653 111.067 57.3702 111.111 57.3653C111.481 57.3159 111.852 57.2615 112.222 57.2072C112.879 57.1134 113.531 57.0196 114.188 56.9257C114.672 56.8566 115.156 56.7825 115.644 56.7134C116.202 56.6344 116.765 56.5554 117.323 56.4714C117.338 56.4714 117.358 56.4714 117.373 56.4714C117.358 56.4764 117.343 56.4862 117.328 56.4862C117.249 56.506 117.17 56.5208 117.091 56.5406C116.341 56.7085 115.59 56.8764 114.84 57.0443C113.758 57.2862 112.681 57.5332 111.6 57.7801C111.467 57.8097 111.333 57.8443 111.2 57.8739C111.19 57.8739 111.175 57.8887 111.165 57.8936C111.175 57.9035 111.185 57.9134 111.2 57.9183C111.481 57.9875 111.758 58.0517 112.04 58.1208C112.933 58.3332 113.827 58.5455 114.726 58.7578C114.765 58.7677 114.8 58.7875 114.835 58.8023C114.795 58.8023 114.756 58.8023 114.716 58.7924C113.536 58.5899 112.356 58.3875 111.175 58.185C111.16 58.185 111.146 58.1801 111.131 58.1801C111.121 58.1801 111.116 58.185 111.106 58.1899C111.111 58.1998 111.116 58.2097 111.121 58.2146C111.17 58.2443 111.225 58.2788 111.279 58.3085C112.44 59.0393 113.6 59.7603 114.756 60.5011C115.649 61.0739 116.538 61.6517 117.427 62.2344C118.064 62.6541 118.696 63.0838 119.328 63.5085C119.368 63.5332 119.402 63.5727 119.437 63.6023C119.393 63.5924 119.343 63.5875 119.299 63.5677C118.306 63.1085 117.319 62.6541 116.331 62.185C115.17 61.6369 114.03 61.0492 112.899 60.4418C112.094 60.0072 111.294 59.5628 110.494 59.1183C110.469 59.1035 110.444 59.0838 110.415 59.0739C110.39 59.064 110.36 59.0541 110.336 59.0443C110.346 59.069 110.356 59.0986 110.37 59.1233C110.81 59.8196 111.249 60.5159 111.689 61.2122C112.015 61.7257 112.346 62.2443 112.672 62.7578C112.686 62.7825 112.706 62.8072 112.721 62.8369C112.726 62.8467 112.721 62.8616 112.721 62.8764C112.716 62.8665 112.706 62.8616 112.701 62.8517C112.657 62.7924 112.612 62.7332 112.568 62.669C111.763 61.5628 110.963 60.4517 110.158 59.3455C110.128 59.306 110.094 59.2714 110.064 59.2369C110.064 59.2912 110.059 59.3406 110.064 59.3949C110.188 60.1406 110.316 60.8912 110.444 61.6369C110.607 62.6245 110.775 63.6122 110.938 64.5998C110.998 64.9504 111.047 65.2961 111.106 65.6467H111.096L111.081 65.6171Z" fill="white"/>
<path d="M200 204.012C178.489 204.012 160.988 186.511 160.988 165C160.988 143.489 178.489 125.988 200 125.988C221.511 125.988 239.012 143.489 239.012 165C239.012 186.511 221.511 204.012 200 204.012Z" fill="#F4AA1C"/>
<path d="M200 126.975C220.968 126.975 238.025 144.032 238.025 165C238.025 185.968 220.968 203.025 200 203.025C179.032 203.025 161.975 185.968 161.975 165C161.975 144.032 179.032 126.975 200 126.975ZM200 125C177.906 125 160 142.906 160 165C160 187.094 177.906 205 200 205C222.094 205 240 187.089 240 165C240 142.911 222.094 125 200 125Z" fill="#F4AA1C"/>
<path d="M228.262 149.81L208.81 147.178L194.622 133.597L186.36 151.247L168.805 160.58L183.368 174.101L186.494 193.474L203.763 184.062L223.239 186.812L219.743 167.509L228.262 149.81Z" fill="white" stroke="white" stroke-width="5" stroke-miterlimit="10"/>
<path opacity="0.5" d="M194.622 133.597L191.516 156.467L168.805 160.58L189.595 170.6L186.494 193.474L202.449 176.792L223.239 186.817L212.306 166.486L228.262 149.81L205.551 153.923L194.622 133.597Z" fill="#141417"/>
<path d="M228.262 149.81L217.16 151.82L220.494 157.933L228.262 149.81Z" fill="#F4E19D"/>
<path d="M209.047 160.121L217.16 151.82L220.494 157.933L209.047 160.121Z" fill="#F2CD61"/>
<path d="M212.306 166.486L209.047 160.121L220.494 157.933L212.306 166.486Z" fill="#BE9C21"/>
<path d="M205.551 153.923L209.047 160.121L217.16 151.82L205.551 153.923Z" fill="#EDC946"/>
<path d="M200.212 164.896L205.551 153.923L209.047 160.121L200.212 164.896Z" fill="#7F6814"/>
<path d="M212.306 166.486L200.212 164.896L209.047 160.121L212.306 166.486Z" fill="#F3C527"/>
<path d="M200.212 164.896L207.402 171.993L212.306 166.486L200.212 164.896Z" fill="#F2CD61"/>
<path d="M217.901 176.891L212.306 166.486L207.402 171.993L217.901 176.891Z" fill="#7F6814"/>
<path d="M212.988 181.874L207.402 171.992L217.901 176.891L212.988 181.874Z" fill="#F3C527"/>
<path d="M223.239 186.817L212.988 181.874L217.901 176.891L223.239 186.817Z" fill="#BE9C21"/>
<path d="M202.449 176.792L207.402 171.992L212.988 181.874L202.449 176.792Z" fill="#EDC946"/>
<path d="M200.212 164.896L207.402 171.993L202.449 176.793L195.936 174.067L200.212 164.896Z" fill="#F4E19D"/>
<path d="M194.232 185.385L195.936 174.067L202.449 176.793L194.232 185.385Z" fill="#F2CD61"/>
<path d="M186.494 193.474L194.232 185.385L187.985 182.476L186.494 193.474Z" fill="#7F6814"/>
<path d="M187.985 182.476L189.595 170.6L195.936 174.067L187.985 182.476Z" fill="#EDC946"/>
<path d="M194.232 185.385L187.985 182.477L195.936 174.067L194.232 185.385Z" fill="#BE9C21"/>
<path d="M189.595 170.6L200.212 164.896L195.936 174.067L189.595 170.6Z" fill="#F3C527"/>
<path d="M190.459 163.553L189.595 170.6L200.212 164.896L190.459 163.553Z" fill="#F2CD61"/>
<path d="M179.2 165.592L189.595 170.6L190.459 163.553L179.2 165.592Z" fill="#BE9C21"/>
<path d="M179.906 158.57L190.459 163.553L179.2 165.593" fill="#F4E19D"/>
<path d="M179.2 165.593L168.805 160.58L179.906 158.57L179.2 165.593Z" fill="#EDC946"/>
<path d="M179.906 158.57L191.516 156.467L190.459 163.553L179.906 158.57Z" fill="#7F6814"/>
<path d="M200.212 164.896L190.459 163.553L191.516 156.467L200.212 164.896Z" fill="#BE9C21"/>
<path d="M198.439 155.212L191.516 156.466L200.212 164.896L198.439 155.212Z" fill="#F3C527"/>
<path d="M205.551 153.923L198.439 155.212L200.212 164.896L205.551 153.923Z" fill="#F2CD61"/>
<path d="M200.104 143.79L198.439 155.212L205.551 153.923L200.104 143.79Z" fill="#F4E19D"/>
<path d="M194.622 133.597L200.104 143.79L193.062 145.069L194.622 133.597Z" fill="#F2CD61"/>
<path d="M191.516 156.467L193.062 145.069L198.439 155.212L191.516 156.467Z" fill="#EDC946"/>
<path d="M200.104 143.79L193.062 145.069L198.439 155.212L200.104 143.79Z" fill="#BE9C21"/>
<path d="M216.686 166.916L212.306 166.486L228.262 149.81L216.686 166.916Z" fill="#F3C527"/>
<path d="M223.24 186.817L216.686 166.916L212.306 166.486L223.24 186.817Z" fill="#EDC946"/>
<path d="M219.743 167.509L216.686 166.916L223.24 186.817L219.743 167.509Z" fill="#BE9C21"/>
<path d="M228.262 149.81L219.743 167.509L216.686 166.916L228.262 149.81Z" fill="#F2CD61"/>
<path d="M203.126 180.551L202.449 176.792L223.239 186.817L203.126 180.551Z" fill="#F4E19D"/>
<path d="M203.763 184.062L203.126 180.551L223.239 186.817L203.763 184.062Z" fill="#F3C527"/>
<path d="M186.494 193.474L203.763 184.062L203.126 180.551L186.494 193.474Z" fill="#F2CD61"/>
<path d="M202.449 176.792L203.126 180.551L186.494 193.474L202.449 176.792Z" fill="#EDC946"/>
<path d="M186.257 172.427L189.595 170.6L186.494 193.474L186.257 172.427Z" fill="#F4E19D"/>
<path d="M168.805 160.58L186.257 172.427L189.595 170.6L168.805 160.58Z" fill="#F2CD61"/>
<path d="M183.368 174.101L186.257 172.427L186.494 193.474L183.368 174.101Z" fill="#F3C527"/>
<path d="M168.805 160.58L183.368 174.101L186.257 172.427L168.805 160.58Z" fill="#EDC946"/>
<path d="M188.657 153.602L191.516 156.466L168.805 160.58L188.657 153.602Z" fill="#F2CD61"/>
<path d="M186.36 151.247L188.657 153.602L168.805 160.58L186.36 151.247Z" fill="#EDC946"/>
<path d="M194.622 133.597L186.36 151.247L188.657 153.602L194.622 133.597Z" fill="#F4E19D"/>
<path d="M191.516 156.467L188.657 153.602L194.622 133.597L191.516 156.467Z" fill="#F3C527"/>
<path d="M207.254 150.234L205.551 153.923L194.622 133.597L207.254 150.234Z" fill="#EDC946"/>
<path d="M228.262 149.81L205.551 153.923L207.254 150.235L228.262 149.81Z" fill="#F2CD61"/>
<path d="M208.81 147.178L207.254 150.235L228.262 149.81L208.81 147.178Z" fill="#F3C527"/>
<path d="M194.622 133.597L208.81 147.178L207.254 150.234L194.622 133.597Z" fill="#F4E19D"/>
<path d="M207.081 161.617C207.072 161.573 207.057 161.533 207.047 161.489C206.919 160.965 206.79 160.437 206.662 159.913C206.42 158.931 206.173 157.953 205.931 156.97C205.802 156.466 205.679 155.963 205.551 155.454C205.551 155.439 205.551 155.425 205.541 155.41C205.531 155.395 205.521 155.38 205.511 155.365C205.501 155.375 205.491 155.385 205.486 155.4C205.472 155.434 205.462 155.464 205.447 155.499C204.948 156.783 204.454 158.062 203.956 159.341C203.936 159.385 203.906 159.429 203.881 159.469C203.891 159.42 203.896 159.37 203.911 159.326C204.286 158.136 204.662 156.946 205.037 155.755C205.062 155.671 205.091 155.592 205.116 155.508C205.116 155.499 205.116 155.484 205.106 155.469C205.096 155.474 205.081 155.479 205.072 155.489C204.968 155.632 204.864 155.775 204.76 155.918C203.625 157.484 202.449 159.025 201.225 160.526C200.504 161.405 199.758 162.264 199.027 163.133C199.012 163.153 198.998 163.173 198.978 163.192C198.963 163.202 198.948 163.207 198.928 163.217C198.928 163.202 198.938 163.187 198.943 163.178C199.042 162.98 199.146 162.783 199.249 162.585C199.99 161.178 200.81 159.825 201.674 158.486C202.469 157.252 203.299 156.037 204.153 154.837C204.188 154.787 204.217 154.733 204.247 154.684C204.193 154.708 204.133 154.728 204.079 154.758C202.938 155.385 201.798 156.017 200.657 156.644C200.612 156.669 200.558 156.679 200.514 156.699C200.558 156.669 200.598 156.644 200.642 156.615C201.442 156.106 202.242 155.597 203.047 155.089C203.412 154.857 203.778 154.62 204.143 154.387C204.163 154.373 204.188 154.363 204.207 154.348C204.217 154.338 204.222 154.323 204.232 154.313C204.217 154.313 204.207 154.304 204.198 154.304C204.123 154.308 204.044 154.318 203.97 154.323C203.23 154.397 202.494 154.476 201.753 154.546C200.923 154.629 200.094 154.708 199.264 154.792C198.78 154.842 198.301 154.891 197.817 154.941C197.723 154.95 197.63 154.95 197.526 154.955C197.867 154.891 198.198 154.832 198.533 154.768C199.022 154.679 199.506 154.59 199.995 154.506C200.894 154.343 201.798 154.18 202.696 154.017C203.032 153.958 203.373 153.899 203.714 153.839C203.733 153.839 203.753 153.825 203.778 153.815C203.753 153.805 203.733 153.79 203.709 153.79C203.21 153.706 202.711 153.627 202.212 153.548C201.486 153.429 200.756 153.311 200.03 153.192C200.005 153.192 199.98 153.183 199.956 153.178C199.946 153.178 199.936 153.173 199.931 153.168C199.941 153.168 199.951 153.153 199.956 153.153C199.995 153.153 200.035 153.158 200.074 153.163C200.701 153.227 201.328 153.291 201.96 153.35C202.533 153.41 203.106 153.464 203.679 153.523C203.714 153.523 203.748 153.533 203.783 153.533C203.798 153.533 203.807 153.523 203.822 153.523C203.812 153.513 203.807 153.499 203.793 153.494C203.531 153.331 203.264 153.173 203.007 153.005C202.286 152.546 201.565 152.086 200.854 151.617C199.442 150.684 198.059 149.706 196.716 148.674C196.573 148.565 196.43 148.452 196.286 148.338C196.262 148.318 196.237 148.289 196.217 148.264C196.247 148.269 196.281 148.274 196.311 148.284C196.839 148.526 197.368 148.763 197.891 149.02C199.61 149.854 201.294 150.763 202.953 151.711C203.526 152.042 204.099 152.373 204.672 152.708C204.691 152.723 204.716 152.733 204.736 152.748C204.741 152.748 204.756 152.748 204.76 152.748C204.76 152.743 204.76 152.728 204.76 152.723C204.716 152.649 204.672 152.575 204.627 152.501C203.995 151.454 203.363 150.407 202.731 149.365C202.711 149.331 202.686 149.296 202.667 149.262C202.657 149.247 202.662 149.222 202.657 149.207C202.672 149.222 202.686 149.237 202.696 149.252C202.914 149.568 203.131 149.884 203.353 150.2C203.886 150.97 204.425 151.746 204.958 152.516C204.978 152.546 205.012 152.575 205.037 152.6C205.037 152.565 205.042 152.526 205.037 152.491C204.958 151.755 204.874 151.015 204.79 150.279C204.706 149.533 204.617 148.783 204.533 148.037C204.474 147.499 204.415 146.96 204.356 146.427C204.351 146.363 204.336 146.299 204.331 146.229C204.331 146.22 204.331 146.205 204.336 146.19C204.346 146.205 204.356 146.215 204.356 146.229C204.37 146.289 204.38 146.348 204.395 146.407C204.543 147.173 204.696 147.933 204.844 148.699C205.012 149.553 205.175 150.407 205.343 151.257C205.412 151.622 205.486 151.992 205.556 152.358C205.56 152.392 205.57 152.427 205.58 152.462H205.61C205.62 152.427 205.63 152.392 205.639 152.358C205.832 151.666 206.02 150.975 206.212 150.284C206.341 149.815 206.469 149.35 206.602 148.881C206.607 148.857 206.617 148.832 206.627 148.812C206.627 148.812 206.632 148.802 206.637 148.802C206.642 148.807 206.652 148.817 206.652 148.822C206.652 148.847 206.647 148.871 206.642 148.896C206.41 150.012 206.178 151.128 205.946 152.249C205.936 152.299 205.936 152.353 205.931 152.407C205.96 152.368 205.995 152.333 206.025 152.294C207.244 150.654 208.494 149.039 209.768 147.449C210.425 146.634 211.091 145.825 211.748 145.015C211.758 145.005 211.768 144.99 211.778 144.98C211.793 144.97 211.807 144.96 211.822 144.95C211.822 144.97 211.822 144.99 211.812 145.005C211.659 145.276 211.506 145.553 211.348 145.82C210.751 146.822 210.168 147.834 209.551 148.827C208.914 149.854 208.252 150.866 207.595 151.879C207.358 152.244 207.111 152.6 206.864 152.96C206.839 152.995 206.82 153.029 206.8 153.064C206.795 153.074 206.795 153.084 206.79 153.094C206.805 153.094 206.82 153.094 206.83 153.094C206.859 153.084 206.884 153.064 206.909 153.049C208.074 152.422 209.239 151.795 210.405 151.168C210.459 151.138 210.514 151.113 210.568 151.084C210.578 151.084 210.588 151.084 210.598 151.084C210.593 151.089 210.588 151.099 210.578 151.104C210.548 151.123 210.519 151.143 210.489 151.163C209.353 151.869 208.217 152.58 207.081 153.286C207.042 153.311 207.007 153.341 206.973 153.365C207.017 153.365 207.067 153.37 207.111 153.365C207.481 153.316 207.852 153.262 208.222 153.207C208.879 153.113 209.531 153.02 210.188 152.926C210.672 152.857 211.156 152.783 211.644 152.713C212.202 152.634 212.765 152.555 213.323 152.471C213.338 152.471 213.358 152.471 213.373 152.471C213.358 152.476 213.343 152.486 213.328 152.486C213.249 152.506 213.17 152.521 213.091 152.541C212.341 152.708 211.59 152.876 210.839 153.044C209.758 153.286 208.681 153.533 207.6 153.78C207.467 153.81 207.333 153.844 207.2 153.874C207.19 153.874 207.175 153.889 207.165 153.894C207.175 153.904 207.185 153.913 207.2 153.918C207.481 153.987 207.758 154.052 208.039 154.121C208.933 154.333 209.827 154.545 210.726 154.758C210.765 154.768 210.8 154.787 210.835 154.802C210.795 154.802 210.756 154.802 210.716 154.792C209.536 154.59 208.356 154.387 207.175 154.185C207.16 154.185 207.146 154.18 207.131 154.18C207.121 154.18 207.116 154.185 207.106 154.19C207.111 154.2 207.116 154.21 207.121 154.215C207.17 154.244 207.225 154.279 207.279 154.308C208.439 155.039 209.6 155.76 210.756 156.501C211.649 157.074 212.538 157.652 213.427 158.234C214.064 158.654 214.696 159.084 215.328 159.508C215.368 159.533 215.402 159.573 215.437 159.602C215.393 159.592 215.343 159.587 215.299 159.568C214.306 159.108 213.319 158.654 212.331 158.185C211.17 157.637 210.03 157.049 208.899 156.442C208.094 156.007 207.294 155.563 206.494 155.118C206.469 155.104 206.444 155.084 206.415 155.074C206.39 155.064 206.36 155.054 206.336 155.044C206.346 155.069 206.356 155.099 206.37 155.123C206.81 155.82 207.249 156.516 207.689 157.212C208.015 157.726 208.346 158.244 208.672 158.758C208.686 158.783 208.706 158.807 208.721 158.837C208.726 158.847 208.721 158.862 208.721 158.876C208.716 158.866 208.706 158.862 208.701 158.852C208.657 158.792 208.612 158.733 208.568 158.669C207.763 157.563 206.963 156.452 206.158 155.346C206.128 155.306 206.094 155.271 206.064 155.237C206.064 155.291 206.059 155.341 206.064 155.395C206.188 156.141 206.316 156.891 206.444 157.637C206.607 158.625 206.775 159.612 206.938 160.6C206.998 160.95 207.047 161.296 207.106 161.647H207.096L207.081 161.617Z" fill="white"/>
<path d="M392 204.012C370.489 204.012 352.988 186.511 352.988 165C352.988 143.489 370.489 125.988 392 125.988C413.511 125.988 431.012 143.489 431.012 165C431.012 186.511 413.511 204.012 392 204.012Z" fill="#F4AA1C"/>
<path d="M392 126.975C412.968 126.975 430.025 144.032 430.025 165C430.025 185.968 412.968 203.025 392 203.025C371.032 203.025 353.975 185.968 353.975 165C353.975 144.032 371.032 126.975 392 126.975ZM392 125C369.906 125 352 142.906 352 165C352 187.094 369.906 205 392 205C414.094 205 432 187.089 432 165C432 142.911 414.094 125 392 125Z" fill="#F4AA1C"/>
<path d="M420.262 149.81L400.81 147.178L386.622 133.597L378.36 151.247L360.805 160.58L375.368 174.101L378.494 193.474L395.763 184.062L415.239 186.812L411.743 167.509L420.262 149.81Z" fill="white" stroke="white" stroke-width="5" stroke-miterlimit="10"/>
<path opacity="0.5" d="M386.622 133.597L383.516 156.467L360.805 160.58L381.595 170.6L378.494 193.474L394.449 176.792L415.239 186.817L404.306 166.486L420.262 149.81L397.551 153.923L386.622 133.597Z" fill="#141417"/>
<path d="M420.262 149.81L409.16 151.82L412.494 157.933L420.262 149.81Z" fill="#F4E19D"/>
<path d="M401.047 160.121L409.16 151.82L412.494 157.933L401.047 160.121Z" fill="#F2CD61"/>
<path d="M404.306 166.486L401.047 160.121L412.494 157.933L404.306 166.486Z" fill="#BE9C21"/>
<path d="M397.551 153.923L401.047 160.121L409.16 151.82L397.551 153.923Z" fill="#EDC946"/>
<path d="M392.212 164.896L397.551 153.923L401.047 160.121L392.212 164.896Z" fill="#7F6814"/>
<path d="M404.306 166.486L392.212 164.896L401.047 160.121L404.306 166.486Z" fill="#F3C527"/>
<path d="M392.212 164.896L399.402 171.993L404.306 166.486L392.212 164.896Z" fill="#F2CD61"/>
<path d="M409.901 176.891L404.306 166.486L399.402 171.993L409.901 176.891Z" fill="#7F6814"/>
<path d="M404.988 181.874L399.402 171.992L409.901 176.891L404.988 181.874Z" fill="#F3C527"/>
<path d="M415.239 186.817L404.988 181.874L409.901 176.891L415.239 186.817Z" fill="#BE9C21"/>
<path d="M394.449 176.792L399.402 171.992L404.988 181.874L394.449 176.792Z" fill="#EDC946"/>
<path d="M392.212 164.896L399.402 171.993L394.449 176.793L387.936 174.067L392.212 164.896Z" fill="#F4E19D"/>
<path d="M386.232 185.385L387.936 174.067L394.449 176.793L386.232 185.385Z" fill="#F2CD61"/>
<path d="M378.494 193.474L386.232 185.385L379.985 182.476L378.494 193.474Z" fill="#7F6814"/>
<path d="M379.985 182.476L381.595 170.6L387.936 174.067L379.985 182.476Z" fill="#EDC946"/>
<path d="M386.232 185.385L379.985 182.477L387.936 174.067L386.232 185.385Z" fill="#BE9C21"/>
<path d="M381.595 170.6L392.212 164.896L387.936 174.067L381.595 170.6Z" fill="#F3C527"/>
<path d="M382.459 163.553L381.595 170.6L392.212 164.896L382.459 163.553Z" fill="#F2CD61"/>
<path d="M371.2 165.592L381.595 170.6L382.459 163.553L371.2 165.592Z" fill="#BE9C21"/>
<path d="M371.906 158.57L382.459 163.553L371.2 165.593" fill="#F4E19D"/>
<path d="M371.2 165.593L360.805 160.58L371.906 158.57L371.2 165.593Z" fill="#EDC946"/>
<path d="M371.906 158.57L383.516 156.467L382.459 163.553L371.906 158.57Z" fill="#7F6814"/>
<path d="M392.212 164.896L382.459 163.553L383.516 156.467L392.212 164.896Z" fill="#BE9C21"/>
<path d="M390.439 155.212L383.516 156.466L392.212 164.896L390.439 155.212Z" fill="#F3C527"/>
<path d="M397.551 153.923L390.439 155.212L392.212 164.896L397.551 153.923Z" fill="#F2CD61"/>
<path d="M392.104 143.79L390.439 155.212L397.551 153.923L392.104 143.79Z" fill="#F4E19D"/>
<path d="M386.622 133.597L392.104 143.79L385.062 145.069L386.622 133.597Z" fill="#F2CD61"/>
<path d="M383.516 156.467L385.062 145.069L390.439 155.212L383.516 156.467Z" fill="#EDC946"/>
<path d="M392.104 143.79L385.062 145.069L390.439 155.212L392.104 143.79Z" fill="#BE9C21"/>
<path d="M408.686 166.916L404.306 166.486L420.262 149.81L408.686 166.916Z" fill="#F3C527"/>
<path d="M415.239 186.817L408.686 166.916L404.306 166.486L415.239 186.817Z" fill="#EDC946"/>
<path d="M411.743 167.509L408.686 166.916L415.239 186.817L411.743 167.509Z" fill="#BE9C21"/>
<path d="M420.262 149.81L411.743 167.509L408.686 166.916L420.262 149.81Z" fill="#F2CD61"/>
<path d="M395.126 180.551L394.449 176.792L415.239 186.817L395.126 180.551Z" fill="#F4E19D"/>
<path d="M395.763 184.062L395.126 180.551L415.239 186.817L395.763 184.062Z" fill="#F3C527"/>
<path d="M378.494 193.474L395.763 184.062L395.126 180.551L378.494 193.474Z" fill="#F2CD61"/>
<path d="M394.449 176.792L395.126 180.551L378.494 193.474L394.449 176.792Z" fill="#EDC946"/>
<path d="M378.257 172.427L381.595 170.6L378.494 193.474L378.257 172.427Z" fill="#F4E19D"/>
<path d="M360.805 160.58L378.257 172.427L381.595 170.6L360.805 160.58Z" fill="#F2CD61"/>
<path d="M375.368 174.101L378.257 172.427L378.494 193.474L375.368 174.101Z" fill="#F3C527"/>
<path d="M360.805 160.58L375.368 174.101L378.257 172.427L360.805 160.58Z" fill="#EDC946"/>
<path d="M380.657 153.602L383.516 156.466L360.805 160.58L380.657 153.602Z" fill="#F2CD61"/>
<path d="M378.36 151.247L380.657 153.602L360.805 160.58L378.36 151.247Z" fill="#EDC946"/>
<path d="M386.622 133.597L378.36 151.247L380.657 153.602L386.622 133.597Z" fill="#F4E19D"/>
<path d="M383.516 156.467L380.657 153.602L386.622 133.597L383.516 156.467Z" fill="#F3C527"/>
<path d="M399.254 150.234L397.551 153.923L386.622 133.597L399.254 150.234Z" fill="#EDC946"/>
<path d="M420.262 149.81L397.551 153.923L399.254 150.235L420.262 149.81Z" fill="#F2CD61"/>
<path d="M400.81 147.178L399.254 150.235L420.262 149.81L400.81 147.178Z" fill="#F3C527"/>
<path d="M386.622 133.597L400.81 147.178L399.254 150.234L386.622 133.597Z" fill="#F4E19D"/>
<path d="M399.081 161.617C399.072 161.573 399.057 161.533 399.047 161.489C398.919 160.965 398.79 160.437 398.662 159.913C398.42 158.931 398.173 157.953 397.931 156.97C397.802 156.466 397.679 155.963 397.551 155.454C397.551 155.439 397.551 155.425 397.541 155.41C397.531 155.395 397.521 155.38 397.511 155.365C397.501 155.375 397.491 155.385 397.486 155.4C397.472 155.434 397.462 155.464 397.447 155.499C396.948 156.783 396.454 158.062 395.956 159.341C395.936 159.385 395.906 159.429 395.881 159.469C395.891 159.42 395.896 159.37 395.911 159.326C396.286 158.136 396.662 156.946 397.037 155.755C397.062 155.671 397.091 155.592 397.116 155.508C397.116 155.499 397.116 155.484 397.106 155.469C397.096 155.474 397.081 155.479 397.072 155.489C396.968 155.632 396.864 155.775 396.76 155.918C395.625 157.484 394.449 159.025 393.225 160.526C392.504 161.405 391.758 162.264 391.027 163.133C391.012 163.153 390.998 163.173 390.978 163.192C390.963 163.202 390.948 163.207 390.928 163.217C390.928 163.202 390.938 163.187 390.943 163.178C391.042 162.98 391.146 162.783 391.249 162.585C391.99 161.178 392.81 159.825 393.674 158.486C394.469 157.252 395.299 156.037 396.153 154.837C396.188 154.787 396.217 154.733 396.247 154.684C396.193 154.708 396.133 154.728 396.079 154.758C394.938 155.385 393.798 156.017 392.657 156.644C392.612 156.669 392.558 156.679 392.514 156.699C392.558 156.669 392.598 156.644 392.642 156.615C393.442 156.106 394.242 155.597 395.047 155.089C395.412 154.857 395.778 154.62 396.143 154.387C396.163 154.373 396.188 154.363 396.207 154.348C396.217 154.338 396.222 154.323 396.232 154.313C396.217 154.313 396.207 154.304 396.198 154.304C396.123 154.308 396.044 154.318 395.97 154.323C395.23 154.397 394.494 154.476 393.753 154.546C392.923 154.629 392.094 154.708 391.264 154.792C390.78 154.842 390.301 154.891 389.817 154.941C389.723 154.95 389.63 154.95 389.526 154.955C389.867 154.891 390.198 154.832 390.533 154.768C391.022 154.679 391.506 154.59 391.995 154.506C392.894 154.343 393.798 154.18 394.696 154.017C395.032 153.958 395.373 153.899 395.714 153.839C395.733 153.839 395.753 153.825 395.778 153.815C395.753 153.805 395.733 153.79 395.709 153.79C395.21 153.706 394.711 153.627 394.212 153.548C393.486 153.429 392.756 153.311 392.03 153.192C392.005 153.192 391.98 153.183 391.956 153.178C391.946 153.178 391.936 153.173 391.931 153.168C391.941 153.168 391.951 153.153 391.956 153.153C391.995 153.153 392.035 153.158 392.074 153.163C392.701 153.227 393.328 153.291 393.96 153.35C394.533 153.41 395.106 153.464 395.679 153.523C395.714 153.523 395.748 153.533 395.783 153.533C395.798 153.533 395.807 153.523 395.822 153.523C395.812 153.513 395.807 153.499 395.793 153.494C395.531 153.331 395.264 153.173 395.007 153.005C394.286 152.546 393.565 152.086 392.854 151.617C391.442 150.684 390.059 149.706 388.716 148.674C388.573 148.565 388.43 148.452 388.286 148.338C388.262 148.318 388.237 148.289 388.217 148.264C388.247 148.269 388.281 148.274 388.311 148.284C388.839 148.526 389.368 148.763 389.891 149.02C391.61 149.854 393.294 150.763 394.953 151.711C395.526 152.042 396.099 152.373 396.672 152.708C396.691 152.723 396.716 152.733 396.736 152.748C396.741 152.748 396.756 152.748 396.76 152.748C396.76 152.743 396.76 152.728 396.76 152.723C396.716 152.649 396.672 152.575 396.627 152.501C395.995 151.454 395.363 150.407 394.731 149.365C394.711 149.331 394.686 149.296 394.667 149.262C394.657 149.247 394.662 149.222 394.657 149.207C394.672 149.222 394.686 149.237 394.696 149.252C394.914 149.568 395.131 149.884 395.353 150.2C395.886 150.97 396.425 151.746 396.958 152.516C396.978 152.546 397.012 152.575 397.037 152.6C397.037 152.565 397.042 152.526 397.037 152.491C396.958 151.755 396.874 151.015 396.79 150.279C396.706 149.533 396.617 148.783 396.533 148.037C396.474 147.499 396.415 146.96 396.356 146.427C396.351 146.363 396.336 146.299 396.331 146.229C396.331 146.22 396.331 146.205 396.336 146.19C396.346 146.205 396.356 146.215 396.356 146.229C396.37 146.289 396.38 146.348 396.395 146.407C396.543 147.173 396.696 147.933 396.844 148.699C397.012 149.553 397.175 150.407 397.343 151.257C397.412 151.622 397.486 151.992 397.556 152.358C397.56 152.392 397.57 152.427 397.58 152.462H397.61C397.62 152.427 397.63 152.392 397.639 152.358C397.832 151.666 398.02 150.975 398.212 150.284C398.341 149.815 398.469 149.35 398.602 148.881C398.607 148.857 398.617 148.832 398.627 148.812C398.627 148.812 398.632 148.802 398.637 148.802C398.642 148.807 398.652 148.817 398.652 148.822C398.652 148.847 398.647 148.871 398.642 148.896C398.41 150.012 398.178 151.128 397.946 152.249C397.936 152.299 397.936 152.353 397.931 152.407C397.96 152.368 397.995 152.333 398.025 152.294C399.244 150.654 400.494 149.039 401.768 147.449C402.425 146.634 403.091 145.825 403.748 145.015C403.758 145.005 403.768 144.99 403.778 144.98C403.793 144.97 403.807 144.96 403.822 144.95C403.822 144.97 403.822 144.99 403.812 145.005C403.659 145.276 403.506 145.553 403.348 145.82C402.751 146.822 402.168 147.834 401.551 148.827C400.914 149.854 400.252 150.866 399.595 151.879C399.358 152.244 399.111 152.6 398.864 152.96C398.839 152.995 398.82 153.029 398.8 153.064C398.795 153.074 398.795 153.084 398.79 153.094C398.805 153.094 398.82 153.094 398.83 153.094C398.859 153.084 398.884 153.064 398.909 153.049C400.074 152.422 401.239 151.795 402.405 151.168C402.459 151.138 402.514 151.113 402.568 151.084C402.578 151.084 402.588 151.084 402.598 151.084C402.593 151.089 402.588 151.099 402.578 151.104C402.548 151.123 402.519 151.143 402.489 151.163C401.353 151.869 400.217 152.58 399.081 153.286C399.042 153.311 399.007 153.341 398.973 153.365C399.017 153.365 399.067 153.37 399.111 153.365C399.481 153.316 399.852 153.262 400.222 153.207C400.879 153.113 401.531 153.02 402.188 152.926C402.672 152.857 403.156 152.783 403.644 152.713C404.202 152.634 404.765 152.555 405.323 152.471C405.338 152.471 405.358 152.471 405.373 152.471C405.358 152.476 405.343 152.486 405.328 152.486C405.249 152.506 405.17 152.521 405.091 152.541C404.341 152.708 403.59 152.876 402.839 153.044C401.758 153.286 400.681 153.533 399.6 153.78C399.467 153.81 399.333 153.844 399.2 153.874C399.19 153.874 399.175 153.889 399.165 153.894C399.175 153.904 399.185 153.913 399.2 153.918C399.481 153.987 399.758 154.052 400.039 154.121C400.933 154.333 401.827 154.545 402.726 154.758C402.765 154.768 402.8 154.787 402.835 154.802C402.795 154.802 402.756 154.802 402.716 154.792C401.536 154.59 400.356 154.387 399.175 154.185C399.16 154.185 399.146 154.18 399.131 154.18C399.121 154.18 399.116 154.185 399.106 154.19C399.111 154.2 399.116 154.21 399.121 154.215C399.17 154.244 399.225 154.279 399.279 154.308C400.439 155.039 401.6 155.76 402.756 156.501C403.649 157.074 404.538 157.652 405.427 158.234C406.064 158.654 406.696 159.084 407.328 159.508C407.368 159.533 407.402 159.573 407.437 159.602C407.393 159.592 407.343 159.587 407.299 159.568C406.306 159.108 405.319 158.654 404.331 158.185C403.17 157.637 402.03 157.049 400.899 156.442C400.094 156.007 399.294 155.563 398.494 155.118C398.469 155.104 398.444 155.084 398.415 155.074C398.39 155.064 398.36 155.054 398.336 155.044C398.346 155.069 398.356 155.099 398.37 155.123C398.81 155.82 399.249 156.516 399.689 157.212C400.015 157.726 400.346 158.244 400.672 158.758C400.686 158.783 400.706 158.807 400.721 158.837C400.726 158.847 400.721 158.862 400.721 158.876C400.716 158.866 400.706 158.862 400.701 158.852C400.657 158.792 400.612 158.733 400.568 158.669C399.763 157.563 398.963 156.452 398.158 155.346C398.128 155.306 398.094 155.271 398.064 155.237C398.064 155.291 398.059 155.341 398.064 155.395C398.188 156.141 398.316 156.891 398.444 157.637C398.607 158.625 398.775 159.612 398.938 160.6C398.998 160.95 399.047 161.296 399.106 161.647H399.096L399.081 161.617Z" fill="white"/>
<path d="M296 108.012C274.489 108.012 256.988 90.511 256.988 68.9999C256.988 47.4888 274.489 29.9875 296 29.9875C317.511 29.9875 335.012 47.4888 335.012 68.9999C335.012 90.511 317.511 108.012 296 108.012Z" fill="#F4AA1C"/>
<path d="M296 30.9753C316.968 30.9753 334.025 48.0321 334.025 69C334.025 89.9679 316.968 107.025 296 107.025C275.032 107.025 257.975 89.9679 257.975 69C257.975 48.0321 275.032 30.9753 296 30.9753ZM296 29C273.906 29 256 46.9062 256 69C256 91.0938 273.906 109 296 109C318.094 109 336 91.0889 336 69C336 46.9111 318.094 29 296 29Z" fill="#F4AA1C"/>
<path d="M324.262 53.8098L304.81 51.1777L290.622 37.5974L282.36 55.2468L264.805 64.5801L279.368 78.1011L282.494 97.474L299.763 88.0616L319.239 90.8122L315.743 71.5085L324.262 53.8098Z" fill="white" stroke="white" stroke-width="5" stroke-miterlimit="10"/>
<path opacity="0.5" d="M290.622 37.5974L287.516 60.4665L264.805 64.5801L285.595 74.5999L282.494 97.474L298.449 80.7925L319.239 90.8172L308.306 70.4863L324.262 53.8098L301.551 57.9233L290.622 37.5974Z" fill="#141417"/>
<path d="M324.262 53.8098L313.16 55.8197L316.494 61.9333L324.262 53.8098Z" fill="#F4E19D"/>
<path d="M305.047 64.1208L313.16 55.8196L316.494 61.9332L305.047 64.1208Z" fill="#F2CD61"/>
<path d="M308.306 70.4862L305.047 64.1208L316.494 61.9331L308.306 70.4862Z" fill="#BE9C21"/>
<path d="M301.551 57.9233L305.047 64.1208L313.16 55.8196L301.551 57.9233Z" fill="#EDC946"/>
<path d="M296.212 68.8962L301.551 57.9233L305.047 64.1209L296.212 68.8962Z" fill="#7F6814"/>
<path d="M308.306 70.4863L296.212 68.8962L305.047 64.1208L308.306 70.4863Z" fill="#F3C527"/>
<path d="M296.212 68.8962L303.402 75.9925L308.306 70.4864L296.212 68.8962Z" fill="#F2CD61"/>
<path d="M313.901 80.8913L308.306 70.4863L303.402 75.9925L313.901 80.8913Z" fill="#7F6814"/>
<path d="M308.988 85.8739L303.402 75.9924L313.901 80.8912L308.988 85.8739Z" fill="#F3C527"/>
<path d="M319.239 90.8173L308.988 85.8741L313.901 80.8914L319.239 90.8173Z" fill="#BE9C21"/>
<path d="M298.449 80.7924L303.402 75.9924L308.988 85.8739L298.449 80.7924Z" fill="#EDC946"/>
<path d="M296.212 68.8962L303.402 75.9925L298.449 80.7925L291.936 78.0666L296.212 68.8962Z" fill="#F4E19D"/>
<path d="M290.232 89.3852L291.936 78.0667L298.449 80.7926L290.232 89.3852Z" fill="#F2CD61"/>
<path d="M282.494 97.4739L290.232 89.385L283.985 86.4763L282.494 97.4739Z" fill="#7F6814"/>
<path d="M283.985 86.4764L285.595 74.5999L291.936 78.0665L283.985 86.4764Z" fill="#EDC946"/>
<path d="M290.232 89.3852L283.985 86.4765L291.936 78.0667L290.232 89.3852Z" fill="#BE9C21"/>
<path d="M285.595 74.5999L296.212 68.8962L291.936 78.0666L285.595 74.5999Z" fill="#F3C527"/>
<path d="M286.459 67.553L285.595 74.5999L296.212 68.8962L286.459 67.553Z" fill="#F2CD61"/>
<path d="M275.2 69.5925L285.595 74.5999L286.459 67.553L275.2 69.5925Z" fill="#BE9C21"/>
<path d="M275.906 62.5703L286.459 67.553L275.2 69.5925" fill="#F4E19D"/>
<path d="M275.2 69.5925L264.805 64.5802L275.906 62.5703L275.2 69.5925Z" fill="#EDC946"/>
<path d="M275.906 62.5703L287.516 60.4666L286.459 67.553L275.906 62.5703Z" fill="#7F6814"/>
<path d="M296.212 68.8962L286.459 67.553L287.516 60.4666L296.212 68.8962Z" fill="#BE9C21"/>
<path d="M294.439 59.2122L287.516 60.4665L296.212 68.8961L294.439 59.2122Z" fill="#F3C527"/>
<path d="M301.551 57.9233L294.439 59.2122L296.212 68.8962L301.551 57.9233Z" fill="#F2CD61"/>
<path d="M296.104 47.79L294.439 59.2123L301.551 57.9234L296.104 47.79Z" fill="#F4E19D"/>
<path d="M290.622 37.5974L296.104 47.79L289.062 49.069L290.622 37.5974Z" fill="#F2CD61"/>
<path d="M287.516 60.4666L289.062 49.0691L294.439 59.2123L287.516 60.4666Z" fill="#EDC946"/>
<path d="M296.104 47.79L289.062 49.0691L294.439 59.2123L296.104 47.79Z" fill="#BE9C21"/>
<path d="M312.686 70.916L308.306 70.4864L324.262 53.8098L312.686 70.916Z" fill="#F3C527"/>
<path d="M319.239 90.8172L312.686 70.916L308.306 70.4863L319.239 90.8172Z" fill="#EDC946"/>
<path d="M315.743 71.5086L312.686 70.916L319.239 90.8173L315.743 71.5086Z" fill="#BE9C21"/>
<path d="M324.262 53.8098L315.743 71.5086L312.686 70.916L324.262 53.8098Z" fill="#F2CD61"/>
<path d="M299.126 84.5505L298.449 80.7925L319.239 90.8172L299.126 84.5505Z" fill="#F4E19D"/>
<path d="M299.763 88.0616L299.126 84.5505L319.239 90.8172L299.763 88.0616Z" fill="#F3C527"/>
<path d="M282.494 97.474L299.763 88.0616L299.126 84.5505L282.494 97.474Z" fill="#F2CD61"/>
<path d="M298.449 80.7925L299.126 84.5505L282.494 97.474L298.449 80.7925Z" fill="#EDC946"/>
<path d="M282.257 76.427L285.595 74.5999L282.494 97.4739L282.257 76.427Z" fill="#F4E19D"/>
<path d="M264.805 64.5801L282.257 76.427L285.595 74.5998L264.805 64.5801Z" fill="#F2CD61"/>
<path d="M279.368 78.1011L282.257 76.427L282.494 97.4739L279.368 78.1011Z" fill="#F3C527"/>
<path d="M264.805 64.5801L279.368 78.1011L282.257 76.427L264.805 64.5801Z" fill="#EDC946"/>
<path d="M284.657 57.6023L287.516 60.4665L264.805 64.5801L284.657 57.6023Z" fill="#F2CD61"/>
<path d="M282.36 55.2468L284.657 57.6024L264.805 64.5802L282.36 55.2468Z" fill="#EDC946"/>
<path d="M290.622 37.5974L282.36 55.2468L284.657 57.6024L290.622 37.5974Z" fill="#F4E19D"/>
<path d="M287.516 60.4665L284.657 57.6024L290.622 37.5974L287.516 60.4665Z" fill="#F3C527"/>
<path d="M303.254 54.2344L301.551 57.9233L290.622 37.5974L303.254 54.2344Z" fill="#EDC946"/>
<path d="M324.262 53.8098L301.551 57.9234L303.254 54.2345L324.262 53.8098Z" fill="#F2CD61"/>
<path d="M304.81 51.1777L303.254 54.2345L324.262 53.8098L304.81 51.1777Z" fill="#F3C527"/>
<path d="M290.622 37.5974L304.81 51.1777L303.254 54.2344L290.622 37.5974Z" fill="#F4E19D"/>
<path d="M303.081 65.6171C303.072 65.5727 303.057 65.5332 303.047 65.4887C302.919 64.9653 302.79 64.4369 302.662 63.9134C302.42 62.9307 302.173 61.9529 301.931 60.9702C301.802 60.4665 301.679 59.9628 301.551 59.4541C301.551 59.4393 301.551 59.4245 301.541 59.4097C301.531 59.3949 301.521 59.3801 301.511 59.3653C301.501 59.3751 301.491 59.385 301.486 59.3998C301.472 59.4344 301.462 59.464 301.447 59.4986C300.948 60.7825 300.454 62.0616 299.956 63.3406C299.936 63.385 299.906 63.4295 299.881 63.469C299.891 63.4196 299.896 63.3702 299.911 63.3257C300.286 62.1356 300.662 60.9455 301.037 59.7554C301.062 59.6714 301.091 59.5924 301.116 59.5085C301.116 59.4986 301.116 59.4838 301.106 59.469C301.096 59.4739 301.081 59.4788 301.072 59.4887C300.968 59.6319 300.864 59.7751 300.76 59.9183C299.625 61.4838 298.449 63.0245 297.225 64.5257C296.504 65.4048 295.758 66.264 295.027 67.1332C295.012 67.1529 294.998 67.1727 294.978 67.1924C294.963 67.2023 294.948 67.2072 294.928 67.2171C294.928 67.2023 294.938 67.1875 294.943 67.1776C295.042 66.9801 295.146 66.7825 295.249 66.585C295.99 65.1776 296.81 63.8245 297.674 62.4862C298.469 61.2517 299.299 60.0369 300.153 58.8369C300.188 58.7875 300.217 58.7332 300.247 58.6838C300.193 58.7085 300.133 58.7282 300.079 58.7578C298.938 59.385 297.798 60.0171 296.657 60.6443C296.612 60.669 296.558 60.6788 296.514 60.6986C296.558 60.669 296.598 60.6443 296.642 60.6146C297.442 60.106 298.242 59.5974 299.047 59.0887C299.412 58.8566 299.778 58.6196 300.143 58.3875C300.163 58.3727 300.188 58.3628 300.207 58.348C300.217 58.3381 300.222 58.3233 300.232 58.3134C300.217 58.3134 300.207 58.3035 300.198 58.3035C300.123 58.3085 300.044 58.3183 299.97 58.3233C299.23 58.3974 298.494 58.4764 297.753 58.5455C296.923 58.6295 296.094 58.7085 295.264 58.7924C294.78 58.8418 294.301 58.8912 293.817 58.9406C293.723 58.9504 293.63 58.9504 293.526 58.9554C293.867 58.8912 294.198 58.8319 294.533 58.7677C295.022 58.6788 295.506 58.5899 295.995 58.506C296.894 58.343 297.798 58.1801 298.696 58.0171C299.032 57.9578 299.373 57.8986 299.714 57.8393C299.733 57.8393 299.753 57.8245 299.778 57.8146C299.753 57.8048 299.733 57.7899 299.709 57.7899C299.21 57.706 298.711 57.627 298.212 57.548C297.486 57.4295 296.756 57.3109 296.03 57.1924C296.005 57.1924 295.98 57.1825 295.956 57.1776C295.946 57.1776 295.936 57.1727 295.931 57.1677C295.941 57.1677 295.951 57.1529 295.956 57.1529C295.995 57.1529 296.035 57.1578 296.074 57.1628C296.701 57.227 297.328 57.2912 297.96 57.3504C298.533 57.4097 299.106 57.464 299.679 57.5233C299.714 57.5233 299.748 57.5332 299.783 57.5332C299.798 57.5332 299.807 57.5233 299.822 57.5233C299.812 57.5134 299.807 57.4986 299.793 57.4936C299.531 57.3307 299.264 57.1727 299.007 57.0048C298.286 56.5455 297.565 56.0862 296.854 55.6171C295.442 54.6838 294.059 53.706 292.716 52.6739C292.573 52.5653 292.43 52.4517 292.286 52.3381C292.262 52.3183 292.237 52.2887 292.217 52.264C292.247 52.269 292.281 52.2739 292.311 52.2838C292.839 52.5257 293.368 52.7628 293.891 53.0196C295.61 53.8541 297.294 54.7628 298.953 55.7109C299.526 56.0418 300.099 56.3727 300.672 56.7085C300.691 56.7233 300.716 56.7332 300.736 56.748C300.741 56.748 300.756 56.748 300.76 56.748C300.76 56.743 300.76 56.7282 300.76 56.7233C300.716 56.6492 300.672 56.5751 300.627 56.5011C299.995 55.4541 299.363 54.4072 298.731 53.3653C298.711 53.3307 298.686 53.2961 298.667 53.2616C298.657 53.2467 298.662 53.222 298.657 53.2072C298.672 53.222 298.686 53.2369 298.696 53.2517C298.914 53.5677 299.131 53.8838 299.353 54.1998C299.886 54.9702 300.425 55.7455 300.958 56.5159C300.978 56.5455 301.012 56.5751 301.037 56.5998C301.037 56.5653 301.042 56.5257 301.037 56.4912C300.958 55.7554 300.874 55.0146 300.79 54.2788C300.706 53.5332 300.617 52.7825 300.533 52.0369C300.474 51.4986 300.415 50.9603 300.356 50.427C300.351 50.3628 300.336 50.2986 300.331 50.2295C300.331 50.2196 300.331 50.2048 300.336 50.1899C300.346 50.2048 300.356 50.2146 300.356 50.2295C300.37 50.2887 300.38 50.348 300.395 50.4072C300.543 51.1727 300.696 51.9332 300.844 52.6986C301.012 53.5529 301.175 54.4072 301.343 55.2566C301.412 55.622 301.486 55.9924 301.556 56.3578C301.56 56.3924 301.57 56.427 301.58 56.4616H301.61C301.62 56.427 301.63 56.3924 301.639 56.3578C301.832 55.6665 302.02 54.9751 302.212 54.2838C302.341 53.8146 302.469 53.3504 302.602 52.8813C302.607 52.8566 302.617 52.8319 302.627 52.8122C302.627 52.8122 302.632 52.8023 302.637 52.8023C302.642 52.8072 302.652 52.8171 302.652 52.822C302.652 52.8467 302.647 52.8714 302.642 52.8961C302.41 54.0122 302.178 55.1282 301.946 56.2492C301.936 56.2986 301.936 56.3529 301.931 56.4072C301.96 56.3677 301.995 56.3332 302.025 56.2936C303.244 54.6541 304.494 53.0393 305.768 51.4492C306.425 50.6344 307.091 49.8245 307.748 49.0146C307.758 49.0048 307.768 48.9899 307.778 48.9801C307.793 48.9702 307.807 48.9603 307.822 48.9504C307.822 48.9702 307.822 48.9899 307.812 49.0048C307.659 49.2764 307.506 49.5529 307.348 49.8196C306.751 50.822 306.168 51.8344 305.551 52.827C304.914 53.8541 304.252 54.8665 303.595 55.8788C303.358 56.2443 303.111 56.5998 302.864 56.9603C302.839 56.9949 302.82 57.0295 302.8 57.064C302.795 57.0739 302.795 57.0838 302.79 57.0936C302.805 57.0936 302.82 57.0936 302.83 57.0936C302.859 57.0838 302.884 57.064 302.909 57.0492C304.074 56.422 305.239 55.7949 306.405 55.1677C306.459 55.1381 306.514 55.1134 306.568 55.0838C306.578 55.0838 306.588 55.0838 306.598 55.0838C306.593 55.0887 306.588 55.0986 306.578 55.1035C306.548 55.1233 306.519 55.143 306.489 55.1628C305.353 55.869 304.217 56.5801 303.081 57.2862C303.042 57.3109 303.007 57.3406 302.973 57.3653C303.017 57.3653 303.067 57.3702 303.111 57.3653C303.481 57.3159 303.852 57.2615 304.222 57.2072C304.879 57.1134 305.531 57.0196 306.188 56.9257C306.672 56.8566 307.156 56.7825 307.644 56.7134C308.202 56.6344 308.765 56.5554 309.323 56.4714C309.338 56.4714 309.358 56.4714 309.373 56.4714C309.358 56.4764 309.343 56.4862 309.328 56.4862C309.249 56.506 309.17 56.5208 309.091 56.5406C308.341 56.7085 307.59 56.8764 306.839 57.0443C305.758 57.2862 304.681 57.5332 303.6 57.7801C303.467 57.8097 303.333 57.8443 303.2 57.8739C303.19 57.8739 303.175 57.8887 303.165 57.8936C303.175 57.9035 303.185 57.9134 303.2 57.9183C303.481 57.9875 303.758 58.0517 304.039 58.1208C304.933 58.3332 305.827 58.5455 306.726 58.7578C306.765 58.7677 306.8 58.7875 306.835 58.8023C306.795 58.8023 306.756 58.8023 306.716 58.7924C305.536 58.5899 304.356 58.3875 303.175 58.185C303.16 58.185 303.146 58.1801 303.131 58.1801C303.121 58.1801 303.116 58.185 303.106 58.1899C303.111 58.1998 303.116 58.2097 303.121 58.2146C303.17 58.2443 303.225 58.2788 303.279 58.3085C304.439 59.0393 305.6 59.7603 306.756 60.5011C307.649 61.0739 308.538 61.6517 309.427 62.2344C310.064 62.6541 310.696 63.0838 311.328 63.5085C311.368 63.5332 311.402 63.5727 311.437 63.6023C311.393 63.5924 311.343 63.5875 311.299 63.5677C310.306 63.1085 309.319 62.6541 308.331 62.185C307.17 61.6369 306.03 61.0492 304.899 60.4418C304.094 60.0072 303.294 59.5628 302.494 59.1183C302.469 59.1035 302.444 59.0838 302.415 59.0739C302.39 59.064 302.36 59.0541 302.336 59.0443C302.346 59.069 302.356 59.0986 302.37 59.1233C302.81 59.8196 303.249 60.5159 303.689 61.2122C304.015 61.7257 304.346 62.2443 304.672 62.7578C304.686 62.7825 304.706 62.8072 304.721 62.8369C304.726 62.8467 304.721 62.8616 304.721 62.8764C304.716 62.8665 304.706 62.8616 304.701 62.8517C304.657 62.7924 304.612 62.7332 304.568 62.669C303.763 61.5628 302.963 60.4517 302.158 59.3455C302.128 59.306 302.094 59.2714 302.064 59.2369C302.064 59.2912 302.059 59.3406 302.064 59.3949C302.188 60.1406 302.316 60.8912 302.444 61.6369C302.607 62.6245 302.775 63.6122 302.938 64.5998C302.998 64.9504 303.047 65.2961 303.106 65.6467H303.096L303.081 65.6171Z" fill="white"/>
<path d="M488 108.012C466.489 108.012 448.988 90.511 448.988 68.9999C448.988 47.4888 466.489 29.9875 488 29.9875C509.511 29.9875 527.012 47.4888 527.012 68.9999C527.012 90.511 509.511 108.012 488 108.012Z" fill="#F4AA1C"/>
<path d="M488 30.9753C508.968 30.9753 526.025 48.0321 526.025 69C526.025 89.9679 508.968 107.025 488 107.025C467.032 107.025 449.975 89.9679 449.975 69C449.975 48.0321 467.032 30.9753 488 30.9753ZM488 29C465.906 29 448 46.9062 448 69C448 91.0938 465.906 109 488 109C510.094 109 528 91.0889 528 69C528 46.9111 510.094 29 488 29Z" fill="#F4AA1C"/>
<path d="M516.262 53.8098L496.81 51.1777L482.622 37.5974L474.36 55.2468L456.805 64.5801L471.368 78.1011L474.494 97.474L491.763 88.0616L511.239 90.8122L507.743 71.5085L516.262 53.8098Z" fill="white" stroke="white" stroke-width="5" stroke-miterlimit="10"/>
<path opacity="0.5" d="M482.622 37.5974L479.516 60.4665L456.805 64.5801L477.595 74.5999L474.494 97.474L490.449 80.7925L511.239 90.8172L500.306 70.4863L516.262 53.8098L493.551 57.9233L482.622 37.5974Z" fill="#141417"/>
<path d="M516.262 53.8098L505.16 55.8197L508.494 61.9333L516.262 53.8098Z" fill="#F4E19D"/>
<path d="M497.047 64.1208L505.16 55.8196L508.494 61.9332L497.047 64.1208Z" fill="#F2CD61"/>
<path d="M500.306 70.4862L497.047 64.1208L508.494 61.9331L500.306 70.4862Z" fill="#BE9C21"/>
<path d="M493.551 57.9233L497.047 64.1208L505.16 55.8196L493.551 57.9233Z" fill="#EDC946"/>
<path d="M488.212 68.8962L493.551 57.9233L497.047 64.1209L488.212 68.8962Z" fill="#7F6814"/>
<path d="M500.306 70.4863L488.212 68.8962L497.047 64.1208L500.306 70.4863Z" fill="#F3C527"/>
<path d="M488.212 68.8962L495.402 75.9925L500.306 70.4864L488.212 68.8962Z" fill="#F2CD61"/>
<path d="M505.901 80.8913L500.306 70.4863L495.402 75.9925L505.901 80.8913Z" fill="#7F6814"/>
<path d="M500.988 85.8739L495.402 75.9924L505.901 80.8912L500.988 85.8739Z" fill="#F3C527"/>
<path d="M511.239 90.8173L500.988 85.8741L505.901 80.8914L511.239 90.8173Z" fill="#BE9C21"/>
<path d="M490.449 80.7924L495.402 75.9924L500.988 85.8739L490.449 80.7924Z" fill="#EDC946"/>
<path d="M488.212 68.8962L495.402 75.9925L490.449 80.7925L483.936 78.0666L488.212 68.8962Z" fill="#F4E19D"/>
<path d="M482.232 89.3852L483.936 78.0667L490.449 80.7926L482.232 89.3852Z" fill="#F2CD61"/>
<path d="M474.494 97.4739L482.232 89.385L475.985 86.4763L474.494 97.4739Z" fill="#7F6814"/>
<path d="M475.985 86.4764L477.595 74.5999L483.936 78.0665L475.985 86.4764Z" fill="#EDC946"/>
<path d="M482.232 89.3852L475.985 86.4765L483.936 78.0667L482.232 89.3852Z" fill="#BE9C21"/>
<path d="M477.595 74.5999L488.212 68.8962L483.936 78.0666L477.595 74.5999Z" fill="#F3C527"/>
<path d="M478.459 67.553L477.595 74.5999L488.212 68.8962L478.459 67.553Z" fill="#F2CD61"/>
<path d="M467.2 69.5925L477.595 74.5999L478.459 67.553L467.2 69.5925Z" fill="#BE9C21"/>
<path d="M467.906 62.5703L478.459 67.553L467.2 69.5925" fill="#F4E19D"/>
<path d="M467.2 69.5925L456.805 64.5802L467.906 62.5703L467.2 69.5925Z" fill="#EDC946"/>
<path d="M467.906 62.5703L479.516 60.4666L478.459 67.553L467.906 62.5703Z" fill="#7F6814"/>
<path d="M488.212 68.8962L478.459 67.553L479.516 60.4666L488.212 68.8962Z" fill="#BE9C21"/>
<path d="M486.439 59.2122L479.516 60.4665L488.212 68.8961L486.439 59.2122Z" fill="#F3C527"/>
<path d="M493.551 57.9233L486.439 59.2122L488.212 68.8962L493.551 57.9233Z" fill="#F2CD61"/>
<path d="M488.104 47.79L486.439 59.2123L493.551 57.9234L488.104 47.79Z" fill="#F4E19D"/>
<path d="M482.622 37.5974L488.104 47.79L481.062 49.069L482.622 37.5974Z" fill="#F2CD61"/>
<path d="M479.516 60.4666L481.062 49.0691L486.439 59.2123L479.516 60.4666Z" fill="#EDC946"/>
<path d="M488.104 47.79L481.062 49.0691L486.439 59.2123L488.104 47.79Z" fill="#BE9C21"/>
<path d="M504.686 70.916L500.306 70.4864L516.262 53.8098L504.686 70.916Z" fill="#F3C527"/>
<path d="M511.24 90.8172L504.686 70.916L500.306 70.4863L511.24 90.8172Z" fill="#EDC946"/>
<path d="M507.743 71.5086L504.686 70.916L511.24 90.8173L507.743 71.5086Z" fill="#BE9C21"/>
<path d="M516.262 53.8098L507.743 71.5086L504.686 70.916L516.262 53.8098Z" fill="#F2CD61"/>
<path d="M491.126 84.5505L490.449 80.7925L511.239 90.8172L491.126 84.5505Z" fill="#F4E19D"/>
<path d="M491.763 88.0616L491.126 84.5505L511.239 90.8172L491.763 88.0616Z" fill="#F3C527"/>
<path d="M474.494 97.474L491.763 88.0616L491.126 84.5505L474.494 97.474Z" fill="#F2CD61"/>
<path d="M490.449 80.7925L491.126 84.5505L474.494 97.474L490.449 80.7925Z" fill="#EDC946"/>
<path d="M474.257 76.427L477.595 74.5999L474.494 97.4739L474.257 76.427Z" fill="#F4E19D"/>
<path d="M456.805 64.5801L474.257 76.427L477.595 74.5998L456.805 64.5801Z" fill="#F2CD61"/>
<path d="M471.368 78.1011L474.257 76.427L474.494 97.4739L471.368 78.1011Z" fill="#F3C527"/>
<path d="M456.805 64.5801L471.368 78.1011L474.257 76.427L456.805 64.5801Z" fill="#EDC946"/>
<path d="M476.657 57.6023L479.516 60.4665L456.805 64.5801L476.657 57.6023Z" fill="#F2CD61"/>
<path d="M474.36 55.2468L476.657 57.6024L456.805 64.5802L474.36 55.2468Z" fill="#EDC946"/>
<path d="M482.622 37.5974L474.36 55.2468L476.657 57.6024L482.622 37.5974Z" fill="#F4E19D"/>
<path d="M479.516 60.4665L476.657 57.6024L482.622 37.5974L479.516 60.4665Z" fill="#F3C527"/>
<path d="M495.254 54.2344L493.551 57.9233L482.622 37.5974L495.254 54.2344Z" fill="#EDC946"/>
<path d="M516.262 53.8098L493.551 57.9234L495.254 54.2345L516.262 53.8098Z" fill="#F2CD61"/>
<path d="M496.81 51.1777L495.254 54.2345L516.262 53.8098L496.81 51.1777Z" fill="#F3C527"/>
<path d="M482.622 37.5974L496.81 51.1777L495.254 54.2344L482.622 37.5974Z" fill="#F4E19D"/>
<path d="M495.081 65.6171C495.072 65.5727 495.057 65.5332 495.047 65.4887C494.919 64.9653 494.79 64.4369 494.662 63.9134C494.42 62.9307 494.173 61.9529 493.931 60.9702C493.802 60.4665 493.679 59.9628 493.551 59.4541C493.551 59.4393 493.551 59.4245 493.541 59.4097C493.531 59.3949 493.521 59.3801 493.511 59.3653C493.501 59.3751 493.491 59.385 493.486 59.3998C493.472 59.4344 493.462 59.464 493.447 59.4986C492.948 60.7825 492.454 62.0616 491.956 63.3406C491.936 63.385 491.906 63.4295 491.881 63.469C491.891 63.4196 491.896 63.3702 491.911 63.3257C492.286 62.1356 492.662 60.9455 493.037 59.7554C493.062 59.6714 493.091 59.5924 493.116 59.5085C493.116 59.4986 493.116 59.4838 493.106 59.469C493.096 59.4739 493.081 59.4788 493.072 59.4887C492.968 59.6319 492.864 59.7751 492.76 59.9183C491.625 61.4838 490.449 63.0245 489.225 64.5257C488.504 65.4048 487.758 66.264 487.027 67.1332C487.012 67.1529 486.998 67.1727 486.978 67.1924C486.963 67.2023 486.948 67.2072 486.928 67.2171C486.928 67.2023 486.938 67.1875 486.943 67.1776C487.042 66.9801 487.146 66.7825 487.249 66.585C487.99 65.1776 488.81 63.8245 489.674 62.4862C490.469 61.2517 491.299 60.0369 492.153 58.8369C492.188 58.7875 492.217 58.7332 492.247 58.6838C492.193 58.7085 492.133 58.7282 492.079 58.7578C490.938 59.385 489.798 60.0171 488.657 60.6443C488.612 60.669 488.558 60.6788 488.514 60.6986C488.558 60.669 488.598 60.6443 488.642 60.6146C489.442 60.106 490.242 59.5974 491.047 59.0887C491.412 58.8566 491.778 58.6196 492.143 58.3875C492.163 58.3727 492.188 58.3628 492.207 58.348C492.217 58.3381 492.222 58.3233 492.232 58.3134C492.217 58.3134 492.207 58.3035 492.198 58.3035C492.123 58.3085 492.044 58.3183 491.97 58.3233C491.23 58.3974 490.494 58.4764 489.753 58.5455C488.923 58.6295 488.094 58.7085 487.264 58.7924C486.78 58.8418 486.301 58.8912 485.817 58.9406C485.723 58.9504 485.63 58.9504 485.526 58.9554C485.867 58.8912 486.198 58.8319 486.533 58.7677C487.022 58.6788 487.506 58.5899 487.995 58.506C488.894 58.343 489.798 58.1801 490.696 58.0171C491.032 57.9578 491.373 57.8986 491.714 57.8393C491.733 57.8393 491.753 57.8245 491.778 57.8146C491.753 57.8048 491.733 57.7899 491.709 57.7899C491.21 57.706 490.711 57.627 490.212 57.548C489.486 57.4295 488.756 57.3109 488.03 57.1924C488.005 57.1924 487.98 57.1825 487.956 57.1776C487.946 57.1776 487.936 57.1727 487.931 57.1677C487.941 57.1677 487.951 57.1529 487.956 57.1529C487.995 57.1529 488.035 57.1578 488.074 57.1628C488.701 57.227 489.328 57.2912 489.96 57.3504C490.533 57.4097 491.106 57.464 491.679 57.5233C491.714 57.5233 491.748 57.5332 491.783 57.5332C491.798 57.5332 491.807 57.5233 491.822 57.5233C491.812 57.5134 491.807 57.4986 491.793 57.4936C491.531 57.3307 491.264 57.1727 491.007 57.0048C490.286 56.5455 489.565 56.0862 488.854 55.6171C487.442 54.6838 486.059 53.706 484.716 52.6739C484.573 52.5653 484.43 52.4517 484.286 52.3381C484.262 52.3183 484.237 52.2887 484.217 52.264C484.247 52.269 484.281 52.2739 484.311 52.2838C484.839 52.5257 485.368 52.7628 485.891 53.0196C487.61 53.8541 489.294 54.7628 490.953 55.7109C491.526 56.0418 492.099 56.3727 492.672 56.7085C492.691 56.7233 492.716 56.7332 492.736 56.748C492.741 56.748 492.756 56.748 492.76 56.748C492.76 56.743 492.76 56.7282 492.76 56.7233C492.716 56.6492 492.672 56.5751 492.627 56.5011C491.995 55.4541 491.363 54.4072 490.731 53.3653C490.711 53.3307 490.686 53.2961 490.667 53.2616C490.657 53.2467 490.662 53.222 490.657 53.2072C490.672 53.222 490.686 53.2369 490.696 53.2517C490.914 53.5677 491.131 53.8838 491.353 54.1998C491.886 54.9702 492.425 55.7455 492.958 56.5159C492.978 56.5455 493.012 56.5751 493.037 56.5998C493.037 56.5653 493.042 56.5257 493.037 56.4912C492.958 55.7554 492.874 55.0146 492.79 54.2788C492.706 53.5332 492.617 52.7825 492.533 52.0369C492.474 51.4986 492.415 50.9603 492.356 50.427C492.351 50.3628 492.336 50.2986 492.331 50.2295C492.331 50.2196 492.331 50.2048 492.336 50.1899C492.346 50.2048 492.356 50.2146 492.356 50.2295C492.37 50.2887 492.38 50.348 492.395 50.4072C492.543 51.1727 492.696 51.9332 492.844 52.6986C493.012 53.5529 493.175 54.4072 493.343 55.2566C493.412 55.622 493.486 55.9924 493.556 56.3578C493.56 56.3924 493.57 56.427 493.58 56.4616H493.61C493.62 56.427 493.63 56.3924 493.639 56.3578C493.832 55.6665 494.02 54.9751 494.212 54.2838C494.341 53.8146 494.469 53.3504 494.602 52.8813C494.607 52.8566 494.617 52.8319 494.627 52.8122C494.627 52.8122 494.632 52.8023 494.637 52.8023C494.642 52.8072 494.652 52.8171 494.652 52.822C494.652 52.8467 494.647 52.8714 494.642 52.8961C494.41 54.0122 494.178 55.1282 493.946 56.2492C493.936 56.2986 493.936 56.3529 493.931 56.4072C493.96 56.3677 493.995 56.3332 494.025 56.2936C495.244 54.6541 496.494 53.0393 497.768 51.4492C498.425 50.6344 499.091 49.8245 499.748 49.0146C499.758 49.0048 499.768 48.9899 499.778 48.9801C499.793 48.9702 499.807 48.9603 499.822 48.9504C499.822 48.9702 499.822 48.9899 499.812 49.0048C499.659 49.2764 499.506 49.5529 499.348 49.8196C498.751 50.822 498.168 51.8344 497.551 52.827C496.914 53.8541 496.252 54.8665 495.595 55.8788C495.358 56.2443 495.111 56.5998 494.864 56.9603C494.839 56.9949 494.82 57.0295 494.8 57.064C494.795 57.0739 494.795 57.0838 494.79 57.0936C494.805 57.0936 494.82 57.0936 494.83 57.0936C494.859 57.0838 494.884 57.064 494.909 57.0492C496.074 56.422 497.239 55.7949 498.405 55.1677C498.459 55.1381 498.514 55.1134 498.568 55.0838C498.578 55.0838 498.588 55.0838 498.598 55.0838C498.593 55.0887 498.588 55.0986 498.578 55.1035C498.548 55.1233 498.519 55.143 498.489 55.1628C497.353 55.869 496.217 56.5801 495.081 57.2862C495.042 57.3109 495.007 57.3406 494.973 57.3653C495.017 57.3653 495.067 57.3702 495.111 57.3653C495.481 57.3159 495.852 57.2615 496.222 57.2072C496.879 57.1134 497.531 57.0196 498.188 56.9257C498.672 56.8566 499.156 56.7825 499.644 56.7134C500.202 56.6344 500.765 56.5554 501.323 56.4714C501.338 56.4714 501.358 56.4714 501.373 56.4714C501.358 56.4764 501.343 56.4862 501.328 56.4862C501.249 56.506 501.17 56.5208 501.091 56.5406C500.341 56.7085 499.59 56.8764 498.839 57.0443C497.758 57.2862 496.681 57.5332 495.6 57.7801C495.467 57.8097 495.333 57.8443 495.2 57.8739C495.19 57.8739 495.175 57.8887 495.165 57.8936C495.175 57.9035 495.185 57.9134 495.2 57.9183C495.481 57.9875 495.758 58.0517 496.039 58.1208C496.933 58.3332 497.827 58.5455 498.726 58.7578C498.765 58.7677 498.8 58.7875 498.835 58.8023C498.795 58.8023 498.756 58.8023 498.716 58.7924C497.536 58.5899 496.356 58.3875 495.175 58.185C495.16 58.185 495.146 58.1801 495.131 58.1801C495.121 58.1801 495.116 58.185 495.106 58.1899C495.111 58.1998 495.116 58.2097 495.121 58.2146C495.17 58.2443 495.225 58.2788 495.279 58.3085C496.439 59.0393 497.6 59.7603 498.756 60.5011C499.649 61.0739 500.538 61.6517 501.427 62.2344C502.064 62.6541 502.696 63.0838 503.328 63.5085C503.368 63.5332 503.402 63.5727 503.437 63.6023C503.393 63.5924 503.343 63.5875 503.299 63.5677C502.306 63.1085 501.319 62.6541 500.331 62.185C499.17 61.6369 498.03 61.0492 496.899 60.4418C496.094 60.0072 495.294 59.5628 494.494 59.1183C494.469 59.1035 494.444 59.0838 494.415 59.0739C494.39 59.064 494.36 59.0541 494.336 59.0443C494.346 59.069 494.356 59.0986 494.37 59.1233C494.81 59.8196 495.249 60.5159 495.689 61.2122C496.015 61.7257 496.346 62.2443 496.672 62.7578C496.686 62.7825 496.706 62.8072 496.721 62.8369C496.726 62.8467 496.721 62.8616 496.721 62.8764C496.716 62.8665 496.706 62.8616 496.701 62.8517C496.657 62.7924 496.612 62.7332 496.568 62.669C495.763 61.5628 494.963 60.4517 494.158 59.3455C494.128 59.306 494.094 59.2714 494.064 59.2369C494.064 59.2912 494.059 59.3406 494.064 59.3949C494.188 60.1406 494.316 60.8912 494.444 61.6369C494.607 62.6245 494.775 63.6122 494.938 64.5998C494.998 64.9504 495.047 65.2961 495.106 65.6467H495.096L495.081 65.6171Z" fill="white"/>
</svg>
