<svg width="23" height="40" viewBox="0 0 23 40" fill="none" xmlns="http://www.w3.org/2000/svg">
<path d="M0.0211788 13.0263C-0.0725365 12.622 0.175127 12.2642 0.175127 11.84C0.50313 11.5749 0.255457 11.2038 0.4295 10.8724C0.730728 10.6736 0.489754 10.2164 0.730736 9.97114C1.09221 9.67955 0.857923 9.08309 1.35997 8.91079C1.67458 8.70534 1.59424 8.30108 1.88208 8.06913C2.11636 7.95646 2.08289 7.67812 2.21007 7.49256C2.30379 7.28711 2.59165 7.28711 2.6519 7.08829C3.06023 6.69729 3.14053 6.1406 3.54886 5.76285C3.70282 5.46462 4.00407 5.13989 4.31868 5.00071C4.57305 4.74888 4.93451 4.78201 5.18219 4.53018C5.68423 4.35787 6.18627 4.2187 6.72179 4.12592L6.76865 4.07953L6.80211 4.09278C6.89583 4 7.03643 4.03314 7.16361 4C7.27072 4.05965 7.39791 4.07953 7.46485 4.19882C7.74599 4.33799 8.03381 4.10604 8.31495 4.19882C8.34842 4.21207 8.3953 4.24521 8.37522 4.2916C8.48232 4.40426 8.65635 4.41752 8.78354 4.40426C8.9375 4.33799 9.0513 4.48379 9.20526 4.49704C9.48641 4.47053 9.6136 4.82178 9.88135 4.84166C10.042 4.80852 10.1357 4.96758 10.2428 5.07361C10.5708 5.21278 10.6043 5.65018 10.9323 5.72971C11.1197 5.59054 11.1331 5.3387 11.3875 5.29231C11.4946 5.19953 11.6418 5.30557 11.7021 5.39835C11.7356 5.45799 11.7623 5.53752 11.7155 5.59716C11.6084 5.67669 11.4946 5.61042 11.3875 5.59716C11.3072 5.68995 11.2268 5.75622 11.1532 5.82912C10.9925 5.93515 11.1398 6.04782 11.2335 6.1406C11.4678 6.20687 11.4544 6.45208 11.6419 6.578C11.6753 6.61113 11.7356 6.56474 11.749 6.62439C11.7623 6.88948 12.077 6.87622 12.1439 7.07504C12.4117 7.0419 12.3782 7.34013 12.5991 7.41966C12.6593 7.43291 12.7263 7.41966 12.7731 7.4793C12.9472 7.45279 13.0074 7.63836 13.148 7.68475C13.4024 7.54557 13.5229 7.89019 13.7772 7.75102C13.9044 7.85705 14.0584 7.79741 14.199 7.79741C14.4199 7.67149 14.6408 7.8438 14.8751 7.76427C15.1093 7.89019 15.3637 7.57871 15.5645 7.81066C15.8323 7.73114 16.0532 7.9167 16.3209 7.87031C16.5418 7.81066 16.669 8.08901 16.9033 7.96309C17.0907 8.05587 17.2983 8.22818 17.5459 8.16853C17.9074 8.29445 18.2354 8.36735 18.5032 8.73185C18.704 8.71197 18.7709 8.93067 18.9249 9.01019C19.0788 9.08972 19.2261 9.28854 19.4001 9.36807L19.5541 9.67955C19.8219 9.9115 19.8687 10.2097 20.0562 10.4881C20.17 10.7333 20.2637 10.9851 20.3373 11.2502C20.3842 11.4358 20.5917 11.5617 20.5917 11.7605C20.7791 11.8864 20.672 12.1051 20.7323 12.2774C20.826 12.4762 21.0803 12.2642 21.2343 12.3835C21.4887 12.3039 21.7096 12.5425 21.9305 12.4033C22.0844 12.5293 22.2785 12.5756 22.3388 12.7612C22.6065 12.9932 22.7002 13.2715 22.8274 13.5697L22.8609 13.9276C22.8609 14.1331 23.1287 14.3518 22.9212 14.5174C22.8274 14.6566 22.9078 14.8289 22.8074 14.9548C22.5396 14.988 22.5262 15.3591 22.2116 15.3127C22.071 15.2332 21.9907 15.4519 21.8501 15.4519C21.6159 15.4386 21.3749 15.3922 21.1272 15.4187C21.0335 15.4055 20.9665 15.326 20.9398 15.2464C20.7055 15.2332 20.672 14.9482 20.4845 14.8753C20.3708 14.9813 20.4243 15.1404 20.344 15.2663C20.1833 15.3458 20.1231 15.5314 20.0629 15.6838C19.9558 15.9622 19.5742 15.6971 19.5273 16.0417C19.4202 16.2935 19.1056 16.1212 18.9918 16.3996C18.617 16.4658 18.4094 16.9894 17.9543 16.8502C17.8137 16.943 17.6396 17.0225 17.4522 17.0093C17.2313 16.8834 17.0104 17.1352 16.7561 17.0093C16.5352 17.2147 16.187 17.1816 15.926 17.1153C15.8189 17.2744 15.6716 17.334 15.5042 17.3671C15.2967 17.2876 15.1763 17.4931 15.0156 17.5858C14.8616 17.7449 14.6542 17.5991 14.4533 17.619C14.3596 17.7118 14.2793 17.8708 14.1521 17.9305C14.0249 18.01 13.8375 17.9769 13.6969 17.9305C13.6166 18.0232 13.5229 18.0895 13.4291 18.1492C13.322 18.1823 13.2083 18.1492 13.1145 18.0895C12.9539 18.0763 12.8802 18.2751 12.753 18.3546C12.5991 18.3215 12.4853 18.4341 12.3916 18.507C12.2376 18.6131 12.1104 18.401 11.9966 18.4938C11.9832 18.7456 11.6954 18.5733 11.6686 18.8053C11.5615 18.8649 11.421 18.9577 11.4009 19.1167C11.508 19.2559 11.3072 19.3487 11.3406 19.4879C11.3272 19.5939 11.4477 19.627 11.5414 19.6403C11.5414 19.7993 11.6686 19.9054 11.7021 20.0445C11.4544 20.1837 11.8293 20.2169 11.7958 20.3693C11.8427 20.5283 12.0301 20.5085 12.0971 20.6211C12.1305 20.8995 12.3313 21.2308 12.6326 21.3236C12.7129 21.5688 12.8066 21.8207 13.0409 21.9797C13.2149 22.0394 13.1815 22.2912 13.3555 22.4171C13.3689 22.4635 13.4961 22.4966 13.4626 22.5563C13.5563 22.6027 13.4626 22.6954 13.5095 22.7617C13.6032 22.934 13.6233 23.1328 13.7638 23.2919C14.0182 23.4907 13.9178 23.8685 14.1856 24.0673C14.1521 24.3191 14.3261 24.4848 14.3127 24.7234C14.3596 24.7764 14.3663 24.8294 14.373 24.8824C14.373 24.962 14.373 25.0415 14.4265 25.1144C14.3931 25.4259 14.4399 25.7705 14.5069 26.082L14.46 26.1615C14.3663 26.3934 14.46 26.7248 14.3797 26.9568C14.0651 27.1423 14.3663 27.7653 13.8442 27.7785C13.7036 27.9641 13.6835 28.1961 13.5898 28.3882C13.2886 28.4214 13.3354 28.7594 13.1681 28.9317C12.8668 28.8985 12.9003 29.3028 12.6058 29.2763C12.405 29.5878 11.9765 29.2299 11.7891 29.5878C11.7088 29.6673 11.6017 29.601 11.508 29.6474C11.5548 30.0053 11.6486 30.3499 11.8828 30.6283C11.9766 30.7343 11.8695 31.0657 12.1506 30.9861C12.3581 30.8735 12.405 30.6415 12.4786 30.4559C12.7129 30.3499 12.8267 30.0517 13.0476 29.939C13.1547 29.7667 13.1881 29.4884 13.4559 29.442C13.6567 29.0841 13.9914 28.7726 14.3395 28.5871C14.4667 28.3352 14.7344 28.2756 14.9219 28.1364C15.3302 27.9045 15.8992 27.9972 16.341 28.0105C16.4816 28.3021 16.9234 28.4015 16.9234 28.7395C17.0774 28.8654 16.9368 29.0642 17.0974 29.1901C17.0506 29.4884 17.1443 29.78 17.238 30.0318C16.9702 30.2041 17.0506 30.562 17.064 30.8271C16.8096 30.9994 16.91 31.3573 16.8899 31.6223C16.8564 31.7615 16.7025 31.7483 16.6088 31.7814C16.4816 31.9206 16.515 32.1061 16.3879 32.232C15.9126 32.2983 16.2004 32.9345 15.7252 33.0273C15.4909 33.246 15.6649 33.7563 15.1897 33.7431C15.029 33.9618 14.8616 34.26 14.547 34.2401C14.3931 34.4588 14.1521 34.704 13.8576 34.6775L13.6367 34.9558C13.4626 35.2077 13.0677 34.9227 12.9405 35.2673C12.7196 35.5324 12.2979 35.2342 12.0904 35.5457C11.9899 35.6517 11.8694 35.6583 11.7423 35.6716C11.4009 35.5854 11.2737 35.7909 10.9792 35.8903C10.8788 35.9234 10.7649 35.9433 10.6511 35.9566C10.5373 35.9698 10.4169 35.9831 10.3098 35.9963C10.1692 36.0162 10.1089 35.9499 9.98174 35.93C9.92149 35.9234 9.86128 35.9433 9.80103 35.9433C9.5065 35.93 9.21195 35.9831 8.91072 35.9831C8.8304 35.93 8.70992 35.8704 8.58943 35.9234C8.48232 35.8903 8.22793 35.9566 8.27479 35.771C8.21454 35.7246 8.13423 35.6782 8.04052 35.665C7.77276 35.6318 7.8397 35.2607 7.58533 35.2607C7.3979 35.4131 7.09668 35.3999 6.87578 35.3071C6.64149 35.3667 6.40721 35.3203 6.21308 35.1547C6.03904 35.2143 5.8315 35.1878 5.7244 35.0486C5.47672 35.0155 5.30269 34.8432 5.10856 34.6775C4.96799 34.6775 4.82742 34.6444 4.73371 34.5251C4.61991 34.366 4.51279 34.2268 4.33874 34.1672C4.2718 33.9949 4.071 34.0081 3.97729 33.8889C3.99067 33.5641 3.56896 33.4382 3.60243 33.0936C3.19409 32.9677 3.47523 32.4706 3.12714 32.3315C3.0669 32.2983 2.98659 32.2055 2.98659 32.1591C2.97321 32.0332 2.98658 31.9073 2.92633 31.8013C2.69204 31.6754 2.87948 31.4434 2.76568 31.238C2.54478 31.0988 2.68537 30.8006 2.53141 30.6481C2.39084 30.509 2.59166 30.3963 2.53141 30.2439C2.21679 30.0583 2.57825 29.7601 2.39082 29.5613C2.27703 29.4685 2.39084 29.3625 2.40422 29.263C2.41761 29.0907 2.277 28.998 2.24353 28.8455C2.33725 28.7527 2.37074 28.66 2.35066 28.534C2.16323 28.1298 2.69875 27.9243 2.60503 27.5201C2.57826 27.255 2.91962 27.0827 2.87277 26.7712C2.91962 26.5856 3.15394 26.5989 3.28113 26.5061C3.5355 26.4266 3.73632 26.5989 3.99069 26.5392L4.33874 26.8507C4.53956 26.9104 4.51282 27.2086 4.74711 27.3014C4.87429 27.4538 4.78055 27.646 4.88765 27.7984C5.0617 27.7984 5.2826 27.6725 5.43656 27.8117C5.57713 27.7785 5.70434 27.8448 5.83152 27.7984C5.91185 27.7388 5.91186 27.6394 5.87839 27.5466C5.69095 27.2815 5.55035 26.9568 5.3897 26.6784C4.85418 26.3537 4.39899 25.9163 4.00405 25.4458C3.70282 25.1674 3.56224 24.7963 3.37481 24.4517C3.29449 24.3257 3.45518 24.233 3.5355 24.1534C3.66269 24.1402 3.81664 24.0739 3.94382 24.1203C4.88767 24.5246 5.4232 25.5385 6.0859 26.2543C6.09928 26.1284 6.09928 26.0223 6.0859 25.8765C6.14614 25.7374 5.97877 25.7241 5.97877 25.5982C6.23314 25.5187 6.03902 25.3198 6.15282 25.1608C6.31347 25.0216 6.24654 24.8493 6.24654 24.677C6.34026 24.2992 6.2934 23.895 6.57454 23.6034C6.60801 23.4311 6.62141 23.2455 6.71513 23.0931C6.96281 22.934 6.85568 22.6225 7.02973 22.4237C7.2841 22.2713 7.1904 22.0062 7.2975 21.7676C7.46485 21.6616 7.53178 21.5092 7.57863 21.3435C7.63219 21.1579 7.65896 20.9591 7.78615 20.8001C7.78615 20.5814 8.11414 20.3163 7.81961 20.1638C7.72589 19.9451 8.02712 19.8524 8.07398 19.6668C8.0539 19.4348 8.07397 19.1698 7.98025 18.9709C7.8196 18.7522 7.88655 18.454 7.6188 18.2817C7.3912 18.0829 7.15021 17.8973 6.936 17.6853C6.90922 17.6587 6.88915 17.6389 6.86238 17.6124C6.76866 17.5527 6.6281 17.5792 6.58124 17.44C6.50091 17.4069 6.42059 17.3738 6.33357 17.334C6.28002 17.4533 6.27329 17.6057 6.21974 17.725L5.63737 18.116C5.54366 18.2088 5.51018 18.3347 5.383 18.3811C5.383 18.3811 5.38303 18.3811 5.37634 18.3811C5.04834 18.6064 4.62659 18.2221 4.34544 18.5799C4.18479 18.6131 3.98398 18.6263 3.8568 18.4871C3.5288 18.5203 3.33469 18.1624 2.99329 18.2088C2.71215 18.0034 2.37745 17.9106 2.15655 17.619C1.57418 17.3075 1.15244 16.7442 0.837821 16.1875C0.804351 16.0483 0.637024 15.9688 0.650412 15.7965C0.322408 15.3326 0.22868 14.756 0.134965 14.1927C-0.132793 13.8348 0.161752 13.4438 0.0211788 13.0396V13.0263ZM8.00706 33.1002C8.21457 33.0406 8.22795 32.7291 8.46224 32.7092C8.60281 32.3845 9.04462 32.2254 8.88396 31.8079C8.94421 31.7151 8.85049 31.5428 8.96429 31.4633C8.99106 31.2578 8.83709 31.1187 8.87056 30.9331C8.85717 30.8735 8.77684 30.8271 8.8237 30.7475C8.56933 30.4493 8.41539 30.9199 8.13424 30.7807L7.86647 30.6879C7.65896 30.8735 7.36444 30.6084 7.13015 30.7807C6.92264 30.7807 6.72181 30.5819 6.53438 30.7343C6.48752 30.8602 6.64148 30.953 6.69503 31.0458C6.8356 31.1982 6.97616 31.45 7.18367 31.5097C7.32425 31.8079 7.45144 32.1459 7.73258 32.3513C7.67234 32.6297 7.8598 32.8948 8.01376 33.1002H8.00706Z" fill="currentColor"/>
</svg>
