<svg width="121" height="145" viewBox="0 0 121 145" fill="none" xmlns="http://www.w3.org/2000/svg">
<path d="M86.768 74.3774C78.3783 53.2392 48.6449 46.4023 34.9834 52.6752C9.50728 64.3834 5.32141 88.2969 9.91846 104.525C14.5155 120.753 32.0941 142.224 61.2268 131.741C90.3507 121.259 95.149 95.5177 86.768 74.3774ZM55.2508 104.661C48.512 107.841 40.6419 105.853 37.7153 98.7291C34.7867 91.5962 37.1865 85.8408 40.712 83.1958C50.2833 76.0134 57.6055 81.4079 61.0736 88.1655C64.0401 93.9355 61.9827 101.492 55.2508 104.661Z" fill="#00864C"/>
<path d="M49.0044 113.141C49.0044 113.141 36.226 108.859 30.4938 110.463C32.3566 135.742 38.013 136.864 40.3294 139.73C47.5715 135.761 51.9115 126.356 51.9115 126.356C51.9115 126.356 60.4319 125.153 63.3045 122.826C71.4222 130.498 79.691 129.689 79.691 129.689C79.691 129.689 79.5852 104.7 73.6167 97.5604C63.1211 100.554 60.063 109.63 59.024 109.567C54.2271 109.271 48.9938 113.135 48.9938 113.135L49.0044 113.141Z" fill="#DC0003"/>
<path d="M45.9965 65.7941C41.4189 66.0355 42.6562 73.6331 46.5223 72.7799C50.3883 71.9268 52.0137 65.482 45.9965 65.7941Z" fill="#F6EA61"/>
<path d="M66.1236 62.0296C62.083 62.9213 64.5403 70.1582 69.1234 69.4854C73.7065 68.8126 72.5728 60.6064 66.1236 62.0296Z" fill="#F6EA61"/>
<path d="M22.5784 89.8974C25.4087 88.0831 29.0514 92.7704 27.2219 95.636C23.9574 100.749 16.9509 93.5097 22.5784 89.8974Z" fill="#F6EA61"/>
<path d="M24.5839 66.8037C22.1422 70.0058 25.3928 75.0725 29.0848 71.8965C32.775 68.7118 27.9909 62.3362 24.5839 66.8037Z" fill="#F6EA61"/>
<path d="M70.781 84.6687C67.9619 86.865 72.8122 92.3383 75.9991 89.9419C79.1859 87.5455 76.8338 79.9559 70.781 84.6687Z" fill="#F6EA61"/>
<path d="M14.7577 100.409L18.7618 103.25L18.3321 107.4L15.5018 105.315L14.7577 100.409Z" fill="#B2E1D8"/>
<path d="M33.7394 71.5466L34.3031 77.1696L37.6348 78.457L37.679 74.0542L33.7394 71.5466Z" fill="#B2E1D8"/>
<path d="M52.7057 54.8503L51.127 59.9303L54.2317 63.2995L55.2446 58.683L52.7057 54.8503Z" fill="#B2E1D8"/>
<path d="M61.2023 71.9106L60.1981 76.5252L63.4832 79.1773L64.3158 75.2779L61.2023 71.9106Z" fill="#B2E1D8"/>
<path d="M77.889 70.9281L76.8848 75.5426L79.8091 79.6289L81.0025 74.2953L77.889 70.9281Z" fill="#B2E1D8"/>
<path d="M15.7948 77.5292L16.5388 82.4352L20.652 84.2365L20.1217 80.2992L15.7948 77.5292Z" fill="#B2E1D8"/>
<path d="M30.8541 98.2023L29.5027 102.903L31.8855 106.111L33.9433 101.584L30.8541 98.2023Z" fill="#B2E1D8"/>
<path d="M23.1161 113.775L24.1138 118.296L28.7996 119.623L26.6927 114.679L23.1161 113.775Z" fill="#B2E1D8"/>
<path d="M82.0098 92.6697L81.2572 96.8902L84.039 100.331L85.5887 96.6115L82.0098 92.6697Z" fill="#B2E1D8"/>
<path d="M102.637 48.1283C102.637 48.1283 118.197 18.9677 101.739 11.2655C85.2804 3.56332 73.3716 13.0877 67.3423 30.0987C61.3175 47.1037 58.5585 78.1421 58.5585 78.1421L68.7283 81.0116C68.7283 81.0116 78.3068 40.5096 83.2018 31.1308C88.1594 21.6407 92.0521 21.0693 95.413 24.9437C98.7738 28.8181 92.8747 44.0146 92.8747 44.0146L102.633 48.1343L102.637 48.1283Z" fill="#B2E1D8"/>
<path d="M70.9539 71.9045L59.5037 69.4131C59.7924 67.0131 60.1519 64.2495 60.5783 61.2671L73.0747 63.588C72.2891 66.595 71.5771 69.4249 70.9539 71.9045Z" fill="#DC0003"/>
<path d="M63.7048 43.454L77.9871 45.7921C77.155 48.5716 76.3222 51.5166 75.512 54.4688L62.1131 51.6389C62.591 48.9154 63.1221 46.1567 63.7108 43.4584L63.7048 43.454Z" fill="#00864C"/>
<path d="M67.3423 30.0986C67.7706 28.8885 68.2325 27.7211 68.7217 26.5921L82.6588 32.2575C81.819 34.1092 80.8767 36.6978 79.8811 39.7272L65.8546 34.7807C66.3214 33.1374 66.8206 31.5637 67.3423 30.0986Z" fill="#DC0003"/>
<path d="M82.3367 10.4878L88.1542 24.1454C86.9784 25.1531 85.7406 26.7152 84.4287 28.9243L73.875 17.6317C76.3188 14.4752 79.1534 12.0365 82.3411 10.4818L82.3367 10.4878Z" fill="#00864C"/>
<path d="M101.527 11.1759L95.2885 24.189L94.8597 24.3474C93.5702 23.0773 92.2038 22.4707 90.7342 22.7666L93.5389 8.76837C96.0694 9.10589 98.7288 9.88757 101.527 11.1759Z" fill="#DC0003"/>
<path d="M95.4113 24.9331C95.3065 24.8108 95.1974 24.6946 95.0943 24.5827L95.2825 24.1846L108.568 19.3229C109.402 22.2078 109.44 25.4639 109.03 28.716L96.434 29.1818C96.4687 27.3717 96.1958 25.8451 95.4069 24.9391L95.4113 24.9331Z" fill="#00864C"/>
<path d="M104.575 43.9945L94.2498 40.0069C94.8159 38.2144 95.4298 36.014 95.8692 33.8251L107.117 37.1652C106.296 39.7774 105.371 42.139 104.575 43.9945Z" fill="#DC0003"/>
</svg>
