<svg width="23" height="40" viewBox="0 0 23 40" fill="none" xmlns="http://www.w3.org/2000/svg">
<path d="M22.9788 13.0263C23.0725 12.622 22.8249 12.2642 22.8249 11.84C22.4969 11.5749 22.7445 11.2038 22.5705 10.8724C22.2693 10.6736 22.5102 10.2164 22.2693 9.97114C21.9078 9.67955 22.1421 9.08309 21.64 8.91079C21.3254 8.70534 21.4058 8.30108 21.1179 8.06913C20.8836 7.95646 20.9171 7.67812 20.7899 7.49256C20.6962 7.28711 20.4083 7.28711 20.3481 7.08829C19.9398 6.69729 19.8595 6.1406 19.4511 5.76285C19.2972 5.46462 18.9959 5.13989 18.6813 5.00071C18.4269 4.74888 18.0655 4.78201 17.8178 4.53018C17.3158 4.35787 16.8137 4.2187 16.2782 4.12592L16.2313 4.07953L16.1979 4.09278C16.1042 4 15.9636 4.03314 15.8364 4C15.7293 4.05965 15.6021 4.07953 15.5352 4.19882C15.254 4.33799 14.9662 4.10604 14.685 4.19882C14.6516 4.21207 14.6047 4.24521 14.6248 4.2916C14.5177 4.40426 14.3436 4.41752 14.2165 4.40426C14.0625 4.33799 13.9487 4.48379 13.7947 4.49704C13.5136 4.47053 13.3864 4.82178 13.1186 4.84166C12.958 4.80852 12.8643 4.96758 12.7572 5.07361C12.4292 5.21279 12.3957 5.65018 12.0677 5.72971C11.8803 5.59054 11.8669 5.3387 11.6125 5.29231C11.5054 5.19953 11.3582 5.30557 11.2979 5.39835C11.2644 5.45799 11.2377 5.53752 11.2845 5.59717C11.3916 5.67669 11.5054 5.61042 11.6125 5.59717C11.6928 5.68995 11.7732 5.75622 11.8468 5.82912C12.0075 5.93515 11.8602 6.04782 11.7665 6.1406C11.5322 6.20687 11.5456 6.45208 11.3581 6.578C11.3247 6.61113 11.2644 6.56474 11.251 6.62439C11.2377 6.88948 10.923 6.87622 10.8561 7.07504C10.5883 7.0419 10.6218 7.34013 10.4009 7.41966C10.3407 7.43291 10.2737 7.41966 10.2269 7.4793C10.0528 7.45279 9.99257 7.63836 9.85199 7.68475C9.59762 7.54557 9.47713 7.89019 9.22276 7.75102C9.09558 7.85705 8.94161 7.79741 8.80104 7.79741C8.58014 7.67149 8.35923 7.8438 8.12494 7.76427C7.89066 7.89019 7.63631 7.57871 7.43549 7.81066C7.16773 7.73114 6.94683 7.9167 6.67907 7.87031C6.45817 7.81066 6.33099 8.08901 6.0967 7.96309C5.90927 8.05587 5.70174 8.22818 5.45406 8.16853C5.09259 8.29445 4.76459 8.36735 4.49683 8.73185C4.29602 8.71197 4.22907 8.93067 4.07511 9.01019C3.92115 9.08972 3.77391 9.28854 3.59987 9.36807L3.44588 9.67955C3.17812 9.9115 3.13126 10.2097 2.94383 10.4881C2.83004 10.7333 2.73633 10.9851 2.6627 11.2502C2.61584 11.4358 2.40833 11.5617 2.40833 11.7605C2.22089 11.8864 2.32798 12.1051 2.26774 12.2774C2.17402 12.4762 1.91965 12.2642 1.76569 12.3835C1.51132 12.3039 1.29043 12.5425 1.06953 12.4033C0.915573 12.5293 0.721458 12.5757 0.661213 12.7612C0.393455 12.9932 0.299752 13.2715 0.172567 13.5697L0.139067 13.9276C0.139067 14.1331 -0.128668 14.3518 0.0788441 14.5174C0.172559 14.6566 0.0922196 14.8289 0.192629 14.9548C0.460387 14.988 0.473785 15.3591 0.788401 15.3127C0.928974 15.2332 1.00929 15.4519 1.14986 15.4519C1.38415 15.4386 1.62514 15.3922 1.87282 15.4187C1.96653 15.4055 2.03345 15.326 2.06023 15.2464C2.29451 15.2332 2.32802 14.9482 2.51545 14.8753C2.62925 14.9813 2.57567 15.1404 2.656 15.2663C2.81665 15.3458 2.87689 15.5314 2.93713 15.6838C3.04424 15.9622 3.42582 15.6971 3.47268 16.0417C3.57978 16.2935 3.89439 16.1212 4.00819 16.3996C4.38305 16.4658 4.59055 16.9894 5.04574 16.8502C5.18631 16.943 5.36036 17.0225 5.54779 17.0093C5.76869 16.8834 5.98958 17.1352 6.24395 17.0093C6.46485 17.2147 6.81296 17.1816 7.07403 17.1153C7.18113 17.2744 7.3284 17.334 7.49575 17.3671C7.70326 17.2876 7.82374 17.4931 7.9844 17.5858C8.13836 17.7449 8.34585 17.5991 8.54667 17.619C8.64038 17.7118 8.72072 17.8708 8.8479 17.9305C8.97509 18.01 9.16251 17.9769 9.30309 17.9305C9.38341 18.0232 9.47714 18.0895 9.57086 18.1492C9.67796 18.1823 9.79174 18.1492 9.88546 18.0895C10.0461 18.0763 10.1198 18.2751 10.247 18.3546C10.4009 18.3215 10.5147 18.4341 10.6084 18.507C10.7624 18.6131 10.8896 18.401 11.0034 18.4938C11.0168 18.7456 11.3046 18.5733 11.3314 18.8053C11.4385 18.8649 11.579 18.9577 11.5991 19.1167C11.492 19.2559 11.6928 19.3487 11.6594 19.4879C11.6728 19.5939 11.5523 19.627 11.4586 19.6403C11.4586 19.7993 11.3314 19.9054 11.2979 20.0446C11.5456 20.1837 11.1707 20.2169 11.2042 20.3693C11.1573 20.5283 10.9699 20.5085 10.9029 20.6211C10.8695 20.8995 10.6687 21.2308 10.3674 21.3236C10.2871 21.5688 10.1934 21.8207 9.95912 21.9797C9.78508 22.0394 9.81853 22.2912 9.64448 22.4171C9.6311 22.4635 9.50393 22.4966 9.5374 22.5563C9.44368 22.6027 9.53739 22.6954 9.49054 22.7617C9.39682 22.934 9.37674 23.1328 9.23616 23.2919C8.98179 23.4907 9.0822 23.8685 8.81444 24.0673C8.84791 24.3191 8.67387 24.4848 8.68725 24.7234C8.6404 24.7764 8.63368 24.8294 8.62699 24.8824C8.62699 24.962 8.62702 25.0415 8.57347 25.1144C8.60694 25.4259 8.56008 25.7705 8.49314 26.082L8.54001 26.1615C8.63372 26.3935 8.54 26.7248 8.62033 26.9568C8.93495 27.1423 8.63371 27.7653 9.15584 27.7785C9.29641 27.9641 9.3165 28.1961 9.41021 28.3882C9.71144 28.4214 9.66459 28.7594 9.83193 28.9317C10.1332 28.8985 10.0997 29.3028 10.3942 29.2763C10.595 29.5878 11.0235 29.2299 11.2109 29.5878C11.2912 29.6673 11.3983 29.601 11.492 29.6474C11.4452 30.0053 11.3514 30.3499 11.1172 30.6283C11.0234 30.7343 11.1305 31.0657 10.8494 30.9861C10.6419 30.8735 10.595 30.6415 10.5214 30.4559C10.2871 30.3499 10.1733 30.0517 9.95242 29.939C9.84532 29.7667 9.81186 29.4884 9.5441 29.442C9.34328 29.0841 9.00858 28.7726 8.66049 28.5871C8.53331 28.3352 8.26555 28.2756 8.07812 28.1364C7.66979 27.9045 7.10081 27.9972 6.65901 28.0105C6.51844 28.3021 6.0766 28.4015 6.0766 28.7395C5.92264 28.8654 6.06324 29.0642 5.90259 29.1901C5.94945 29.4884 5.85572 29.78 5.762 30.0318C6.02976 30.2041 5.94944 30.562 5.93605 30.8271C6.19042 30.9994 6.09002 31.3573 6.1101 31.6223C6.14357 31.7615 6.29752 31.7483 6.39123 31.7814C6.51842 31.9206 6.48496 32.1061 6.61214 32.2321C7.08741 32.2983 6.79957 32.9345 7.27484 33.0273C7.50913 33.246 7.33508 33.7563 7.81035 33.7431C7.971 33.9618 8.13837 34.26 8.45298 34.2401C8.60694 34.4588 8.8479 34.704 9.14244 34.6775L9.36335 34.9558C9.53739 35.2077 9.93232 34.9227 10.0595 35.2673C10.2804 35.5324 10.7021 35.2342 10.9096 35.5457C11.0101 35.6517 11.1306 35.6583 11.2577 35.6716C11.5991 35.5854 11.7263 35.7909 12.0208 35.8903C12.1212 35.9234 12.2351 35.9433 12.3489 35.9566C12.4627 35.9698 12.5831 35.9831 12.6902 35.9963C12.8308 36.0162 12.8911 35.9499 13.0183 35.93C13.0785 35.9234 13.1387 35.9433 13.199 35.9433C13.4935 35.93 13.788 35.9831 14.0893 35.9831C14.1696 35.9301 14.2901 35.8704 14.4106 35.9234C14.5177 35.8903 14.7721 35.9566 14.7252 35.771C14.7855 35.7246 14.8658 35.6782 14.9595 35.665C15.2272 35.6318 15.1603 35.2607 15.4147 35.2607C15.6021 35.4131 15.9033 35.3999 16.1242 35.3071C16.3585 35.3667 16.5928 35.3203 16.7869 35.1547C16.961 35.2143 17.1685 35.1878 17.2756 35.0486C17.5233 35.0155 17.6973 34.8432 17.8914 34.6775C18.032 34.6775 18.1726 34.6444 18.2663 34.5251C18.3801 34.366 18.4872 34.2268 18.6613 34.1672C18.7282 33.9949 18.929 34.0082 19.0227 33.8889C19.0093 33.5641 19.431 33.4382 19.3976 33.0936C19.8059 32.9677 19.5248 32.4706 19.8729 32.3315C19.9331 32.2983 20.0134 32.2055 20.0134 32.1592C20.0268 32.0332 20.0134 31.9073 20.0737 31.8013C20.308 31.6754 20.1205 31.4434 20.2343 31.238C20.4552 31.0988 20.3146 30.8006 20.4686 30.6481C20.6092 30.509 20.4083 30.3963 20.4686 30.2439C20.7832 30.0583 20.4217 29.7601 20.6092 29.5613C20.723 29.4685 20.6092 29.3625 20.5958 29.263C20.5824 29.0907 20.723 28.998 20.7565 28.8455C20.6628 28.7527 20.6293 28.66 20.6493 28.534C20.8368 28.1298 20.3013 27.9243 20.395 27.5201C20.4217 27.255 20.0804 27.0827 20.1272 26.7712C20.0804 26.5856 19.8461 26.5989 19.7189 26.5061C19.4645 26.4266 19.2637 26.5989 19.0093 26.5393L18.6613 26.8507C18.4604 26.9104 18.4872 27.2086 18.2529 27.3014C18.1257 27.4538 18.2195 27.646 18.1123 27.7984C17.9383 27.7984 17.7174 27.6725 17.5634 27.8117C17.4229 27.7785 17.2957 27.8448 17.1685 27.7984C17.0881 27.7388 17.0881 27.6394 17.1216 27.5466C17.309 27.2815 17.4496 26.9568 17.6103 26.6784C18.1458 26.3537 18.601 25.9163 18.996 25.4458C19.2972 25.1674 19.4378 24.7963 19.6252 24.4517C19.7055 24.3258 19.5448 24.233 19.4645 24.1534C19.3373 24.1402 19.1834 24.0739 19.0562 24.1203C18.1123 24.5246 17.5768 25.5385 16.9141 26.2543C16.9007 26.1284 16.9007 26.0223 16.9141 25.8765C16.8539 25.7374 17.0212 25.7241 17.0212 25.5982C16.7669 25.5187 16.961 25.3198 16.8472 25.1608C16.6865 25.0216 16.7535 24.8493 16.7535 24.677C16.6597 24.2992 16.7066 23.895 16.4255 23.6034C16.392 23.4311 16.3786 23.2455 16.2849 23.0931C16.0372 22.934 16.1443 22.6225 15.9703 22.4237C15.7159 22.2713 15.8096 22.0062 15.7025 21.7676C15.5352 21.6616 15.4682 21.5092 15.4214 21.3435C15.3678 21.1579 15.341 20.9591 15.2139 20.8001C15.2139 20.5814 14.8859 20.3163 15.1804 20.1638C15.2741 19.9451 14.9729 19.8524 14.926 19.6668C14.9461 19.4348 14.926 19.1698 15.0197 18.9709C15.1804 18.7522 15.1134 18.454 15.3812 18.2817C15.6088 18.0829 15.8498 17.8973 16.064 17.6853C16.0908 17.6587 16.1108 17.6389 16.1376 17.6124C16.2313 17.5527 16.3719 17.5792 16.4188 17.44C16.4991 17.4069 16.5794 17.3738 16.6664 17.334C16.72 17.4533 16.7267 17.6057 16.7803 17.725L17.3626 18.116C17.4563 18.2088 17.4898 18.3347 17.617 18.3811C17.617 18.3811 17.617 18.3811 17.6237 18.3811C17.9517 18.6064 18.3734 18.2221 18.6546 18.5799C18.8152 18.6131 19.016 18.6263 19.1432 18.4872C19.4712 18.5203 19.6653 18.1624 20.0067 18.2088C20.2879 18.0034 20.6225 17.9106 20.8434 17.619C21.4258 17.3075 21.8476 16.7442 22.1622 16.1875C22.1956 16.0483 22.363 15.9688 22.3496 15.7965C22.6776 15.3326 22.7713 14.756 22.865 14.1927C23.1328 13.8348 22.8382 13.4438 22.9788 13.0396V13.0263ZM14.9929 33.1002C14.7854 33.0406 14.772 32.7291 14.5378 32.7092C14.3972 32.3845 13.9554 32.2254 14.116 31.8079C14.0558 31.7151 14.1495 31.5428 14.0357 31.4633C14.0089 31.2578 14.1629 31.1187 14.1294 30.9331C14.1428 30.8735 14.2232 30.8271 14.1763 30.7475C14.4307 30.4493 14.5846 30.9199 14.8658 30.7807L15.1335 30.6879C15.341 30.8735 15.6356 30.6084 15.8698 30.7807C16.0774 30.7807 16.2782 30.5819 16.4656 30.7343C16.5125 30.8602 16.3585 30.953 16.305 31.0458C16.1644 31.1982 16.0238 31.45 15.8163 31.5097C15.6758 31.8079 15.5486 32.1459 15.2674 32.3513C15.3277 32.6297 15.1402 32.8948 14.9862 33.1002H14.9929Z" fill="currentColor"/>
</svg>
