<svg width="112" height="155" viewBox="0 0 112 155" fill="none" xmlns="http://www.w3.org/2000/svg">
<path d="M35.7167 26.1318C31.3114 27.9939 18.7738 35.8556 24.3284 54.6946C30.6216 76.0347 27.7705 87.5902 27.7705 87.5902C27.7705 87.5902 42.5707 93.8101 63.2171 83.0889C72.0583 78.5021 84.4801 67.8181 87.4698 60.2533C79.4289 57.473 73.2057 48.5956 66.7749 38.1505C60.3442 27.7054 47.9078 20.9978 35.73 26.1367L35.7167 26.1318Z" fill="#F6EA61"/>
<path d="M35.1255 16.4004C35.1255 16.4004 29.9448 25.3977 18.0078 24.5082C20.9392 35.4155 11.9629 38.996 11.9629 38.996C11.9629 38.996 17.7309 47.3897 14.9769 54.559C20.6784 51.8548 23.3707 48.7909 30.6107 47.4353C30.4867 40.4518 30.6364 36.3938 38.4423 33.0464C33.6626 26.1456 35.1304 16.3871 35.1304 16.3871L35.1255 16.4004Z" fill="#00864C"/>
<path d="M30.3567 21.549C30.3567 21.549 41.9834 24.4111 45.1025 22.9128C45.5696 30.6852 50.6597 33.5418 55.4831 32.7975C52.3583 40.8324 54.5429 49.3638 54.5429 49.3638C54.5429 49.3638 44.7349 42.8834 40.0161 45.6397C40.9417 35.6143 31.5141 34.7426 31.5141 34.7426L30.3567 21.549Z" fill="#00864C"/>
<path d="M31.1382 13.6175C36.9551 8.13833 41.2472 17.1048 36.7462 20.3555C33.329 22.8291 25.9341 18.5158 31.1382 13.6175Z" fill="#DC0003"/>
<path d="M31.2762 23.3934C28.8536 25.8255 31.3719 28.5058 33.7683 29.3032C36.1647 30.1006 39.9633 27.7369 38.8664 23.7709C37.6616 19.381 34.0679 20.592 31.2762 23.3934Z" fill="#DC0003"/>
<path d="M23.6111 22.0919C23.4253 25.7148 27.4993 28.5898 30.5356 25.2456C33.572 21.9014 30.3904 18.0735 28.2448 18.0086C26.0991 17.9436 23.7866 18.661 23.602 22.0961L23.6111 22.0919Z" fill="#DC0003"/>
<path d="M80.3171 55.916C79.4846 55.1884 78.6632 54.3894 77.8522 53.5416C75.0609 58.2489 62.1469 76.3228 28.3222 76.6138C28.3764 77.7788 28.4067 78.8445 28.4084 79.8244C35.06 80.3167 62.7567 80.7126 80.3171 55.916Z" fill="#D5BA8D"/>
<path d="M74.9693 50.1926C74.3658 49.4361 73.7721 48.6531 73.179 47.8476C71.9712 49.7618 66.7659 57.0626 54.5139 62.7317C42.2619 68.4008 31.1812 69.0764 27.5705 69.2266C27.7329 70.3634 27.866 71.4368 27.978 72.4648C30.7698 72.6165 41.0067 72.6178 55.6626 66.1669C68.4957 60.5154 73.7296 52.419 74.9644 50.2059L74.9693 50.1926Z" fill="#D5BA8D"/>
<path d="M69.0957 64.313C69.0957 64.313 62.3089 80.3662 57.8276 89.7708C55.0909 95.525 49.4453 102.692 40.3752 103.221C31.8849 103.709 20.4389 104.801 19.7685 117.678C18.7605 137.171 54.1231 137.275 64.0536 136.326C79.7083 134.838 84.3866 118.151 88.3752 109.626C95.3404 94.7903 102.298 78.0045 102.298 78.0045L69.0957 64.313Z" fill="#00864C"/>
<path d="M83.7735 120.013C83.8168 119.821 83.8601 119.629 83.9034 119.437C63.9566 110.612 59.4558 134.213 59.0486 136.603C61.0564 136.551 62.7721 136.457 64.0536 136.326C74.4861 135.34 80.0395 127.593 83.7735 120.013Z" fill="#B2E1D8"/>
<path d="M19.7744 117.67C19.3939 125.115 24.309 129.733 31.0954 132.54L30.2483 104.635C24.7841 106.215 20.1928 109.654 19.7744 117.67Z" fill="#B2E1D8"/>
<path d="M78.3591 85.2809L81.2968 75.974L86.3515 78.3274L81.7083 86.1406L87.078 83.3307L88.0748 87.3511L81.0446 88.925L90.0112 92.3199L88.2546 95.9365L80.7852 91.786L83.8919 97.3766L80.1763 98.6003L78.6038 92.5061L75.6662 101.813L70.7329 99.3132L75.597 91.2032L70.3762 93.1765L69.227 89.0427L74.793 88.4981L67.4775 85.3971L69.0817 81.6672L76.2168 86.2669L74.1595 80.5224L78.1489 79.2657L78.3591 85.2809Z" fill="#F6EA61"/>
</svg>
