<svg width="35" height="40" viewBox="0 0 35 40" fill="none" xmlns="http://www.w3.org/2000/svg">
<path d="M23.3198 11.2069L35 9.86849L28.123 19.2709L21.7863 19.9967L28.123 20.7225L35 30.1249L23.3198 28.7864L19.8408 24.032L22.2322 29.399L17.4764 40L12.7408 29.3924L15.1255 24.0719L11.6734 28.7931L0 30.1315L6.87028 20.7291L13.2069 20.0033L6.87028 19.2775L0 9.87515L11.6734 11.2136L15.1525 15.968L12.7611 10.601L17.5169 0L22.2525 10.6076L19.8678 15.9281L23.3198 11.2069ZM17.5169 3.55585L14.3621 10.601L17.5101 17.6527L20.6717 10.6076L17.5236 3.55585H17.5169ZM17.4966 22.3473L14.3351 29.3857L17.4831 36.4375L20.6447 29.3924L17.4966 22.3406V22.3473ZM3.12102 28.3203L10.883 27.428L15.4497 21.182L7.68771 22.0742L3.12102 28.3203ZM7.68771 17.9191L15.4497 18.8114L10.883 12.5653L3.12102 11.673L7.68771 17.9191ZM27.3191 22.0742L19.557 21.182L24.1237 27.428L31.8857 28.3203L27.3191 22.0742ZM31.8857 11.673L24.1237 12.5653L19.557 18.8114L27.3191 17.9191L31.8857 11.673Z" fill="currentColor"/>
</svg>
