<svg width="24" height="24" viewBox="0 0 24 24" fill="none" xmlns="http://www.w3.org/2000/svg">
<path d="M12.7065 2.29291C12.519 2.10544 12.2647 2.00012 11.9995 2.00012C11.7344 2.00012 11.4801 2.10544 11.2925 2.29291L7.29253 6.29291C7.14091 6.44455 7.04206 6.64091 7.01055 6.85302C6.97904 7.06512 7.01654 7.28174 7.11753 7.47091C7.36453 7.93391 7.75053 8.24591 8.12753 8.45791L5.29253 11.2929C5.10506 11.4804 4.99974 11.7347 4.99974 11.9999C4.99974 12.2651 5.10506 12.5194 5.29253 12.7069C5.77053 13.1849 6.37453 13.4769 6.92653 13.6589L4.29253 16.2929C4.17179 16.4138 4.08403 16.5635 4.03762 16.728C3.9912 16.8924 3.98768 17.0659 4.02739 17.2321C4.0671 17.3983 4.14871 17.5515 4.26445 17.6771C4.38019 17.8028 4.52619 17.8967 4.68853 17.9499C5.37853 18.1769 6.09153 18.3379 6.80353 18.4799C7.58353 18.6369 8.54953 18.7919 9.64853 18.8919L9.05053 20.6839C9.00046 20.8342 8.98683 20.9943 9.01076 21.151C9.0347 21.3076 9.09551 21.4563 9.18819 21.5848C9.28087 21.7133 9.40276 21.818 9.54382 21.8902C9.68489 21.9623 9.84108 21.9999 9.99953 21.9999H13.9995C14.158 21.9999 14.3142 21.9623 14.4552 21.8902C14.5963 21.818 14.7182 21.7133 14.8109 21.5848C14.9036 21.4563 14.9644 21.3076 14.9883 21.151C15.0122 20.9943 14.9986 20.8342 14.9485 20.6839L14.3505 18.8919C15.4505 18.7919 16.4165 18.6369 17.1955 18.4809C17.9075 18.3379 18.6255 18.1769 19.3155 17.9489C19.4773 17.895 19.6226 17.8007 19.7376 17.6749C19.8527 17.549 19.9336 17.3959 19.9728 17.2299C20.012 17.064 20.0081 16.8908 19.9615 16.7268C19.9149 16.5628 19.8271 16.4134 19.7065 16.2929L17.0725 13.6589C17.6245 13.4779 18.2285 13.1849 18.7065 12.7069C18.894 12.5194 18.9993 12.2651 18.9993 11.9999C18.9993 11.7347 18.894 11.4804 18.7065 11.2929L15.8715 8.45791C16.2485 8.24591 16.6345 7.93391 16.8815 7.47091C16.9825 7.28174 17.02 7.06512 16.9885 6.85302C16.957 6.64091 16.8581 6.44455 16.7065 6.29291L12.7065 2.29291Z" fill="white"/>
</svg>
